G04 EAGLE Gerber RS-274X export*
G75*
%MOMM*%
%FSLAX34Y34*%
%LPD*%
%INSilkscreen Bottom*%
%IPPOS*%
%AMOC8*
5,1,8,0,0,1.08239X$1,22.5*%
G01*
%ADD10C,0.203200*%
%ADD11R,0.040000X3.880000*%
%ADD12R,0.040000X0.840000*%
%ADD13R,0.040000X2.800000*%
%ADD14R,0.040000X0.760000*%
%ADD15R,0.040000X0.320000*%
%ADD16R,0.040000X0.480000*%
%ADD17R,0.040000X0.160000*%
%ADD18R,0.040000X0.680000*%
%ADD19R,0.040000X0.200000*%
%ADD20R,0.040000X0.400000*%
%ADD21R,0.040000X0.120000*%
%ADD22R,0.040000X0.640000*%
%ADD23R,0.040000X0.360000*%
%ADD24R,0.040000X0.560000*%
%ADD25R,0.040000X0.600000*%
%ADD26R,0.040000X0.520000*%
%ADD27R,0.040000X0.280000*%
%ADD28R,0.040000X0.240000*%
%ADD29R,0.040000X0.720000*%
%ADD30R,0.040000X0.440000*%
%ADD31R,0.040000X0.040000*%
%ADD32R,0.040000X0.080000*%
%ADD33R,0.040000X0.800000*%
%ADD34R,0.040000X3.280000*%
%ADD35R,0.040000X3.400000*%
%ADD36R,0.040000X3.480000*%
%ADD37R,0.040000X3.560000*%
%ADD38R,0.040000X3.600000*%
%ADD39R,0.040000X3.640000*%
%ADD40R,0.040000X3.680000*%
%ADD41R,0.040000X1.800000*%
%ADD42R,0.040000X1.240000*%
%ADD43R,0.040000X1.280000*%
%ADD44R,0.040000X1.320000*%
%ADD45R,0.040000X0.920000*%
%ADD46R,0.040000X3.520000*%
%ADD47R,0.040000X3.720000*%
%ADD48R,0.040000X3.800000*%
%ADD49R,0.040000X3.840000*%
%ADD50R,0.040000X3.920000*%
%ADD51R,0.040000X3.040000*%
%ADD52R,0.040000X1.160000*%
%ADD53R,0.040000X1.120000*%
%ADD54R,0.040000X1.080000*%
%ADD55R,0.040000X1.040000*%
%ADD56R,0.040000X1.000000*%
%ADD57R,0.040000X0.960000*%
%ADD58R,0.040000X0.880000*%
%ADD59R,0.030000X1.830000*%
%ADD60R,0.030000X2.010000*%
%ADD61R,0.020000X2.130000*%
%ADD62R,0.040000X2.250000*%
%ADD63R,0.030000X2.310000*%
%ADD64R,0.030000X2.370000*%
%ADD65R,0.020000X2.430000*%
%ADD66R,0.030000X0.930000*%
%ADD67R,0.030000X0.540000*%
%ADD68R,0.030000X0.750000*%
%ADD69R,0.040000X0.570000*%
%ADD70R,0.040000X0.150000*%
%ADD71R,0.040000X0.390000*%
%ADD72R,0.040000X0.660000*%
%ADD73R,0.030000X0.570000*%
%ADD74R,0.030000X0.120000*%
%ADD75R,0.030000X0.300000*%
%ADD76R,0.030000X0.600000*%
%ADD77R,0.030000X0.240000*%
%ADD78R,0.030000X0.090000*%
%ADD79R,0.030000X0.210000*%
%ADD80R,0.040000X0.630000*%
%ADD81R,0.040000X0.090000*%
%ADD82R,0.040000X0.060000*%
%ADD83R,0.030000X0.630000*%
%ADD84R,0.030000X0.660000*%
%ADD85R,0.030000X0.270000*%
%ADD86R,0.030000X0.720000*%
%ADD87R,0.030000X1.110000*%
%ADD88R,0.030000X0.150000*%
%ADD89R,0.030000X1.140000*%
%ADD90R,0.040000X0.180000*%
%ADD91R,0.040000X1.140000*%
%ADD92R,0.030000X0.060000*%
%ADD93R,0.030000X0.030000*%
%ADD94R,0.040000X0.030000*%
%ADD95R,0.040000X1.110000*%
%ADD96R,0.030000X1.080000*%
%ADD97R,0.030000X0.690000*%
%ADD98R,0.040000X0.780000*%
%ADD99R,0.030000X0.870000*%
%ADD100R,0.030000X2.430000*%
%ADD101R,0.030000X2.250000*%
%ADD102R,0.030000X2.130000*%
%ADD103R,0.200000X0.050000*%
%ADD104R,0.250000X0.050000*%
%ADD105R,0.300000X0.050000*%
%ADD106R,0.350000X0.050000*%
%ADD107R,0.550000X0.050000*%
%ADD108R,0.750000X0.050000*%
%ADD109R,0.850000X0.050000*%
%ADD110R,0.950000X0.050000*%
%ADD111R,1.050000X0.050000*%
%ADD112R,0.100000X0.050000*%
%ADD113R,0.150000X0.050000*%
%ADD114R,1.150000X0.050000*%
%ADD115R,0.450000X0.050000*%
%ADD116R,0.400000X0.050000*%
%ADD117R,0.650000X0.050000*%
%ADD118R,0.800000X0.050000*%
%ADD119R,0.350000X0.060000*%
%ADD120R,1.200000X0.060000*%
%ADD121R,0.300000X0.060000*%
%ADD122R,0.100000X0.060000*%
%ADD123R,1.100000X0.050000*%
%ADD124R,0.450000X0.060000*%
%ADD125R,0.500000X0.060000*%
%ADD126R,0.250000X0.060000*%
%ADD127R,1.300000X0.050000*%
%ADD128R,1.250000X0.050000*%
%ADD129R,1.200000X0.050000*%
%ADD130R,0.700000X0.060000*%
%ADD131R,0.550000X0.060000*%
%ADD132R,0.030000X3.690000*%
%ADD133R,0.030000X3.870000*%
%ADD134R,0.020000X3.990000*%
%ADD135R,0.040000X4.110000*%
%ADD136R,0.030000X4.170000*%
%ADD137R,0.030000X4.230000*%
%ADD138R,0.020000X4.290000*%
%ADD139R,0.030000X4.350000*%
%ADD140R,0.040000X0.330000*%
%ADD141R,0.030000X0.450000*%
%ADD142R,0.030000X0.420000*%
%ADD143R,0.030000X0.510000*%
%ADD144R,0.030000X0.480000*%
%ADD145R,0.040000X0.420000*%
%ADD146R,0.040000X0.450000*%
%ADD147R,0.030000X0.180000*%
%ADD148R,0.030000X0.390000*%
%ADD149R,0.030000X0.360000*%
%ADD150R,0.040000X0.300000*%
%ADD151R,0.040000X0.270000*%
%ADD152R,0.040000X0.540000*%
%ADD153R,0.030000X4.290000*%
%ADD154R,0.030000X4.110000*%
%ADD155R,0.030000X3.990000*%
%ADD156R,5.130000X0.030000*%
%ADD157R,5.310000X0.030000*%
%ADD158R,5.430000X0.020000*%
%ADD159R,5.490000X0.040000*%
%ADD160R,5.550000X0.030000*%
%ADD161R,5.610000X0.030000*%
%ADD162R,5.670000X0.020000*%
%ADD163R,3.180000X0.030000*%
%ADD164R,2.400000X0.030000*%
%ADD165R,0.570000X0.040000*%
%ADD166R,0.480000X0.040000*%
%ADD167R,0.090000X0.040000*%
%ADD168R,0.810000X0.040000*%
%ADD169R,0.300000X0.040000*%
%ADD170R,0.330000X0.040000*%
%ADD171R,0.540000X0.040000*%
%ADD172R,0.600000X0.030000*%
%ADD173R,0.450000X0.030000*%
%ADD174R,0.090000X0.030000*%
%ADD175R,0.690000X0.030000*%
%ADD176R,0.240000X0.030000*%
%ADD177R,0.330000X0.030000*%
%ADD178R,0.060000X0.030000*%
%ADD179R,0.540000X0.030000*%
%ADD180R,0.210000X0.030000*%
%ADD181R,0.630000X0.030000*%
%ADD182R,0.180000X0.030000*%
%ADD183R,0.630000X0.040000*%
%ADD184R,0.450000X0.040000*%
%ADD185R,0.150000X0.040000*%
%ADD186R,0.600000X0.040000*%
%ADD187R,0.120000X0.030000*%
%ADD188R,0.150000X0.030000*%
%ADD189R,0.360000X0.030000*%
%ADD190R,0.870000X0.030000*%
%ADD191R,0.660000X0.030000*%
%ADD192R,0.510000X0.030000*%
%ADD193R,0.420000X0.030000*%
%ADD194R,0.900000X0.030000*%
%ADD195R,0.390000X0.030000*%
%ADD196R,0.270000X0.030000*%
%ADD197R,0.660000X0.040000*%
%ADD198R,0.510000X0.040000*%
%ADD199R,0.270000X0.040000*%
%ADD200R,0.360000X0.040000*%
%ADD201R,0.900000X0.040000*%
%ADD202R,0.300000X0.030000*%
%ADD203R,0.210000X0.040000*%
%ADD204R,0.390000X0.040000*%
%ADD205R,0.420000X0.040000*%
%ADD206R,0.870000X0.040000*%
%ADD207R,0.570000X0.030000*%
%ADD208R,0.840000X0.030000*%
%ADD209R,0.480000X0.030000*%
%ADD210R,0.720000X0.040000*%
%ADD211R,0.810000X0.030000*%
%ADD212R,5.670000X0.030000*%
%ADD213R,5.490000X0.030000*%
%ADD214R,5.430000X0.030000*%
%ADD215R,0.900000X0.050000*%
%ADD216R,1.000000X0.050000*%
%ADD217R,0.500000X0.050000*%
%ADD218R,0.600000X0.050000*%
%ADD219R,0.700000X0.050000*%
%ADD220R,0.050000X0.050000*%
%ADD221R,0.950000X0.060000*%
%ADD222R,0.400000X0.060000*%
%ADD223R,0.600000X0.060000*%
%ADD224R,0.650000X0.060000*%
%ADD225R,0.040000X4.640000*%
%ADD226R,0.040000X4.760000*%
%ADD227R,0.040000X4.840000*%
%ADD228R,0.040000X4.920000*%
%ADD229R,0.040000X4.960000*%
%ADD230R,0.040000X5.000000*%
%ADD231R,0.040000X5.040000*%
%ADD232R,0.040000X2.080000*%
%ADD233R,0.040000X1.720000*%
%ADD234R,0.040000X4.880000*%
%ADD235R,0.040000X5.080000*%
%ADD236R,0.040000X5.160000*%
%ADD237R,0.040000X5.200000*%
%ADD238R,0.040000X5.240000*%
%ADD239R,0.040000X5.280000*%
%ADD240R,0.040000X3.760000*%
%ADD241R,0.040000X3.960000*%
%ADD242R,0.040000X4.000000*%
%ADD243R,0.040000X4.040000*%
%ADD244R,0.040000X1.920000*%
%ADD245R,0.040000X4.440000*%
%ADD246R,0.040000X4.400000*%
%ADD247R,0.040000X4.360000*%
%ADD248R,0.040000X4.320000*%
%ADD249R,0.040000X4.280000*%
%ADD250R,0.040000X4.240000*%
%ADD251R,0.040000X4.200000*%
%ADD252R,0.040000X2.000000*%
%ADD253R,0.030000X1.350000*%
%ADD254R,0.030000X1.530000*%
%ADD255R,0.020000X1.650000*%
%ADD256R,0.040000X1.770000*%
%ADD257R,0.030000X1.890000*%
%ADD258R,0.020000X1.950000*%
%ADD259R,0.030000X0.330000*%
%ADD260R,0.040000X0.210000*%
%ADD261R,0.030000X1.950000*%
%ADD262R,0.030000X1.770000*%
%ADD263R,0.030000X1.650000*%
%ADD264R,0.030000X2.730000*%
%ADD265R,0.030000X2.910000*%
%ADD266R,0.020000X3.030000*%
%ADD267R,0.040000X3.150000*%
%ADD268R,0.030000X3.210000*%
%ADD269R,0.030000X3.270000*%
%ADD270R,0.020000X3.330000*%
%ADD271R,0.030000X0.840000*%
%ADD272R,0.040000X0.690000*%
%ADD273R,0.030000X0.900000*%
%ADD274R,0.040000X0.900000*%
%ADD275R,0.040000X0.870000*%
%ADD276R,0.030000X0.810000*%
%ADD277R,0.040000X0.750000*%
%ADD278R,0.040000X0.510000*%
%ADD279R,0.030000X0.780000*%
%ADD280R,0.030000X3.330000*%
%ADD281R,0.030000X3.150000*%
%ADD282R,0.030000X3.030000*%

G36*
X229936Y27808D02*
X229936Y27808D01*
X230002Y27813D01*
X230020Y27824D01*
X230041Y27829D01*
X230126Y27889D01*
X230150Y27903D01*
X230153Y27908D01*
X230158Y27912D01*
X232358Y30212D01*
X232366Y30225D01*
X232379Y30235D01*
X232410Y30299D01*
X232446Y30361D01*
X232447Y30377D01*
X232454Y30391D01*
X232453Y30462D01*
X232459Y30533D01*
X232453Y30548D01*
X232452Y30564D01*
X232395Y30689D01*
X232393Y30693D01*
X232393Y30694D01*
X230525Y33309D01*
X230527Y33320D01*
X230536Y33333D01*
X230547Y33391D01*
X230556Y33412D01*
X230556Y33434D01*
X230562Y33467D01*
X230563Y33472D01*
X230563Y33473D01*
X230563Y33474D01*
X230563Y33484D01*
X230596Y33549D01*
X230652Y33606D01*
X230663Y33624D01*
X230675Y33633D01*
X230683Y33651D01*
X230723Y33704D01*
X230796Y33849D01*
X230852Y33906D01*
X230892Y33970D01*
X230936Y34033D01*
X230938Y34045D01*
X230943Y34053D01*
X230947Y34088D01*
X230963Y34174D01*
X230963Y34223D01*
X230992Y34270D01*
X231036Y34333D01*
X231038Y34345D01*
X231043Y34353D01*
X231047Y34388D01*
X231063Y34474D01*
X231063Y34584D01*
X231096Y34649D01*
X231152Y34706D01*
X231192Y34770D01*
X231236Y34833D01*
X231238Y34845D01*
X231243Y34853D01*
X231247Y34888D01*
X231253Y34921D01*
X231256Y34929D01*
X231256Y34937D01*
X231263Y34974D01*
X231263Y35023D01*
X231292Y35070D01*
X231336Y35133D01*
X231338Y35145D01*
X231343Y35153D01*
X231347Y35188D01*
X231363Y35274D01*
X231363Y35384D01*
X231392Y35442D01*
X234648Y36000D01*
X234666Y36007D01*
X234685Y36008D01*
X234745Y36041D01*
X234807Y36067D01*
X234820Y36082D01*
X234837Y36091D01*
X234876Y36147D01*
X234920Y36198D01*
X234925Y36217D01*
X234936Y36233D01*
X234958Y36344D01*
X234963Y36366D01*
X234962Y36370D01*
X234963Y36374D01*
X234963Y39574D01*
X234959Y39593D01*
X234961Y39612D01*
X234950Y39646D01*
X234949Y39652D01*
X234944Y39663D01*
X234939Y39676D01*
X234924Y39742D01*
X234911Y39757D01*
X234905Y39775D01*
X234857Y39823D01*
X234814Y39876D01*
X234796Y39883D01*
X234782Y39897D01*
X234676Y39937D01*
X234656Y39946D01*
X234652Y39946D01*
X234648Y39948D01*
X231436Y40498D01*
X231425Y40537D01*
X231424Y40542D01*
X231423Y40543D01*
X231363Y40663D01*
X231363Y40674D01*
X231360Y40689D01*
X231362Y40705D01*
X231342Y40775D01*
X231342Y40790D01*
X231334Y40804D01*
X231325Y40837D01*
X231324Y40842D01*
X231323Y40843D01*
X231263Y40963D01*
X231263Y40974D01*
X231260Y40989D01*
X231262Y41005D01*
X231225Y41137D01*
X231224Y41142D01*
X231223Y41143D01*
X231063Y41463D01*
X231063Y41474D01*
X231060Y41489D01*
X231062Y41505D01*
X231025Y41637D01*
X231024Y41642D01*
X231023Y41643D01*
X230923Y41843D01*
X230900Y41871D01*
X230863Y41925D01*
X230863Y41974D01*
X230846Y42048D01*
X230832Y42123D01*
X230826Y42133D01*
X230824Y42142D01*
X230801Y42170D01*
X230752Y42242D01*
X230696Y42298D01*
X230623Y42443D01*
X230600Y42471D01*
X230563Y42525D01*
X230563Y42574D01*
X230546Y42648D01*
X230542Y42670D01*
X232396Y45358D01*
X232402Y45374D01*
X232414Y45387D01*
X232434Y45454D01*
X232459Y45519D01*
X232458Y45537D01*
X232463Y45553D01*
X232450Y45622D01*
X232444Y45692D01*
X232435Y45706D01*
X232432Y45723D01*
X232361Y45829D01*
X232354Y45840D01*
X232353Y45840D01*
X232352Y45842D01*
X230152Y48042D01*
X230138Y48051D01*
X230127Y48065D01*
X230065Y48096D01*
X230005Y48133D01*
X229988Y48135D01*
X229973Y48142D01*
X229903Y48143D01*
X229833Y48149D01*
X229817Y48143D01*
X229800Y48143D01*
X229682Y48092D01*
X229671Y48088D01*
X229670Y48087D01*
X229669Y48086D01*
X226970Y46224D01*
X226952Y46242D01*
X226887Y46282D01*
X226825Y46326D01*
X226813Y46328D01*
X226805Y46333D01*
X226770Y46336D01*
X226684Y46353D01*
X226634Y46353D01*
X226622Y46361D01*
X226554Y46413D01*
X226409Y46485D01*
X226352Y46542D01*
X226287Y46582D01*
X226225Y46626D01*
X226213Y46628D01*
X226205Y46633D01*
X226170Y46636D01*
X226084Y46653D01*
X226034Y46653D01*
X226022Y46661D01*
X225954Y46713D01*
X225754Y46813D01*
X225738Y46817D01*
X225725Y46826D01*
X225591Y46852D01*
X225585Y46853D01*
X225584Y46853D01*
X225574Y46853D01*
X225454Y46913D01*
X225438Y46917D01*
X225425Y46926D01*
X225291Y46952D01*
X225285Y46953D01*
X225284Y46953D01*
X225234Y46953D01*
X225187Y46982D01*
X225125Y47026D01*
X225113Y47028D01*
X225105Y47033D01*
X225070Y47036D01*
X224984Y47053D01*
X224874Y47053D01*
X224816Y47082D01*
X224258Y50338D01*
X224250Y50356D01*
X224249Y50375D01*
X224217Y50434D01*
X224190Y50497D01*
X224176Y50510D01*
X224166Y50527D01*
X224111Y50566D01*
X224059Y50610D01*
X224040Y50615D01*
X224025Y50626D01*
X223914Y50647D01*
X223892Y50653D01*
X223888Y50652D01*
X223884Y50653D01*
X220684Y50653D01*
X220665Y50649D01*
X220646Y50651D01*
X220582Y50629D01*
X220516Y50613D01*
X220501Y50601D01*
X220482Y50595D01*
X220435Y50547D01*
X220382Y50503D01*
X220374Y50486D01*
X220361Y50472D01*
X220321Y50366D01*
X220312Y50345D01*
X220312Y50342D01*
X220310Y50338D01*
X219760Y47126D01*
X219721Y47115D01*
X219716Y47113D01*
X219715Y47113D01*
X219714Y47113D01*
X219594Y47053D01*
X219584Y47053D01*
X219568Y47049D01*
X219552Y47052D01*
X219421Y47015D01*
X219416Y47013D01*
X219415Y47013D01*
X219414Y47013D01*
X219294Y46953D01*
X219284Y46953D01*
X219268Y46949D01*
X219252Y46952D01*
X219121Y46915D01*
X219116Y46913D01*
X219115Y46913D01*
X219114Y46913D01*
X218994Y46853D01*
X218884Y46853D01*
X218810Y46836D01*
X218734Y46822D01*
X218725Y46816D01*
X218716Y46813D01*
X218688Y46791D01*
X218616Y46742D01*
X218559Y46685D01*
X218494Y46653D01*
X218484Y46653D01*
X218468Y46649D01*
X218452Y46652D01*
X218321Y46615D01*
X218316Y46613D01*
X218315Y46613D01*
X218314Y46613D01*
X218114Y46513D01*
X218087Y46490D01*
X218016Y46442D01*
X217959Y46385D01*
X217894Y46353D01*
X217884Y46353D01*
X217868Y46349D01*
X217852Y46352D01*
X217721Y46315D01*
X217716Y46313D01*
X217715Y46313D01*
X217714Y46313D01*
X217573Y46242D01*
X214899Y48086D01*
X214887Y48091D01*
X214878Y48100D01*
X214807Y48122D01*
X214738Y48149D01*
X214725Y48148D01*
X214713Y48152D01*
X214640Y48140D01*
X214566Y48134D01*
X214555Y48127D01*
X214542Y48125D01*
X214422Y48048D01*
X212122Y45848D01*
X212108Y45826D01*
X212088Y45810D01*
X212061Y45754D01*
X212027Y45703D01*
X212024Y45677D01*
X212013Y45654D01*
X212014Y45592D01*
X212007Y45531D01*
X212016Y45507D01*
X212016Y45481D01*
X212054Y45401D01*
X212065Y45368D01*
X212072Y45362D01*
X212077Y45351D01*
X214012Y42678D01*
X213972Y42598D01*
X213916Y42542D01*
X213876Y42477D01*
X213832Y42414D01*
X213830Y42403D01*
X213825Y42395D01*
X213821Y42360D01*
X213805Y42274D01*
X213805Y42224D01*
X213797Y42211D01*
X213745Y42143D01*
X213672Y41998D01*
X213616Y41942D01*
X213576Y41877D01*
X213532Y41814D01*
X213530Y41803D01*
X213525Y41795D01*
X213521Y41760D01*
X213505Y41674D01*
X213505Y41624D01*
X213476Y41577D01*
X213432Y41514D01*
X213430Y41503D01*
X213425Y41495D01*
X213421Y41460D01*
X213405Y41374D01*
X213405Y41263D01*
X213372Y41198D01*
X213316Y41142D01*
X213276Y41077D01*
X213232Y41014D01*
X213230Y41003D01*
X213225Y40995D01*
X213221Y40960D01*
X213205Y40874D01*
X213205Y40824D01*
X213176Y40777D01*
X213132Y40714D01*
X213130Y40703D01*
X213125Y40695D01*
X213121Y40660D01*
X213105Y40574D01*
X213105Y40495D01*
X209822Y39948D01*
X209803Y39940D01*
X209783Y39939D01*
X209724Y39907D01*
X209662Y39881D01*
X209649Y39866D01*
X209631Y39856D01*
X209593Y39801D01*
X209549Y39751D01*
X209543Y39731D01*
X209532Y39714D01*
X209516Y39633D01*
X209512Y39623D01*
X209512Y39611D01*
X209511Y39608D01*
X209505Y39583D01*
X209506Y39579D01*
X209505Y39574D01*
X209505Y36374D01*
X209509Y36355D01*
X209507Y36336D01*
X209529Y36271D01*
X209544Y36205D01*
X209557Y36190D01*
X209563Y36172D01*
X209611Y36124D01*
X209654Y36072D01*
X209672Y36064D01*
X209686Y36050D01*
X209792Y36010D01*
X209812Y36001D01*
X209816Y36001D01*
X209820Y36000D01*
X213108Y35436D01*
X213143Y35311D01*
X213144Y35305D01*
X213145Y35305D01*
X213145Y35304D01*
X213205Y35184D01*
X213205Y35174D01*
X213208Y35158D01*
X213206Y35142D01*
X213243Y35011D01*
X213244Y35005D01*
X213245Y35005D01*
X213245Y35004D01*
X213305Y34884D01*
X213305Y34874D01*
X213308Y34858D01*
X213306Y34842D01*
X213343Y34711D01*
X213344Y34705D01*
X213345Y34705D01*
X213345Y34704D01*
X213505Y34384D01*
X213505Y34374D01*
X213508Y34358D01*
X213506Y34342D01*
X213543Y34211D01*
X213544Y34205D01*
X213545Y34205D01*
X213545Y34204D01*
X213645Y34004D01*
X213668Y33976D01*
X213716Y33906D01*
X213772Y33849D01*
X213805Y33784D01*
X213805Y33774D01*
X213808Y33758D01*
X213806Y33742D01*
X213843Y33611D01*
X213844Y33605D01*
X213845Y33605D01*
X213845Y33604D01*
X213945Y33404D01*
X213968Y33376D01*
X214016Y33306D01*
X214026Y33295D01*
X212081Y30701D01*
X212071Y30679D01*
X212054Y30660D01*
X212036Y30600D01*
X212011Y30543D01*
X212012Y30518D01*
X212005Y30494D01*
X212016Y30433D01*
X212019Y30370D01*
X212031Y30348D01*
X212036Y30324D01*
X212087Y30249D01*
X212103Y30219D01*
X212110Y30214D01*
X212116Y30206D01*
X214416Y27906D01*
X214430Y27897D01*
X214441Y27883D01*
X214503Y27851D01*
X214563Y27814D01*
X214580Y27813D01*
X214595Y27805D01*
X214666Y27805D01*
X214735Y27798D01*
X214751Y27804D01*
X214768Y27804D01*
X214886Y27856D01*
X214897Y27860D01*
X214898Y27861D01*
X214899Y27861D01*
X217598Y29723D01*
X217616Y29706D01*
X217681Y29665D01*
X217743Y29621D01*
X217755Y29619D01*
X217763Y29614D01*
X217798Y29611D01*
X217813Y29608D01*
X217816Y29606D01*
X217881Y29565D01*
X217943Y29521D01*
X217955Y29519D01*
X217963Y29514D01*
X217998Y29511D01*
X218084Y29494D01*
X218134Y29494D01*
X218181Y29465D01*
X218243Y29421D01*
X218255Y29419D01*
X218263Y29414D01*
X218298Y29411D01*
X218313Y29408D01*
X218316Y29406D01*
X218381Y29365D01*
X218443Y29321D01*
X218455Y29319D01*
X218463Y29314D01*
X218498Y29311D01*
X218513Y29308D01*
X218516Y29306D01*
X218581Y29265D01*
X218643Y29221D01*
X218655Y29219D01*
X218663Y29214D01*
X218698Y29211D01*
X218727Y29205D01*
X218754Y29172D01*
X218773Y29164D01*
X218788Y29149D01*
X218851Y29129D01*
X218912Y29101D01*
X218933Y29102D01*
X218952Y29096D01*
X219018Y29106D01*
X219085Y29108D01*
X219103Y29118D01*
X219123Y29121D01*
X219178Y29159D01*
X219237Y29191D01*
X219249Y29208D01*
X219265Y29220D01*
X219322Y29312D01*
X219336Y29333D01*
X219337Y29338D01*
X219340Y29342D01*
X221340Y34742D01*
X221344Y34773D01*
X221356Y34801D01*
X221354Y34857D01*
X221361Y34914D01*
X221351Y34943D01*
X221350Y34974D01*
X221323Y35024D01*
X221304Y35077D01*
X221282Y35099D01*
X221267Y35126D01*
X221207Y35172D01*
X221180Y35198D01*
X221167Y35202D01*
X221154Y35213D01*
X220609Y35485D01*
X220452Y35642D01*
X220422Y35661D01*
X220354Y35713D01*
X220209Y35785D01*
X219896Y36098D01*
X219823Y36243D01*
X219800Y36271D01*
X219752Y36342D01*
X219596Y36498D01*
X219535Y36619D01*
X219444Y36894D01*
X219432Y36913D01*
X219423Y36943D01*
X219363Y37063D01*
X219363Y37174D01*
X219355Y37209D01*
X219344Y37294D01*
X219263Y37535D01*
X219263Y38312D01*
X219344Y38554D01*
X219347Y38590D01*
X219363Y38674D01*
X219363Y38859D01*
X219500Y39063D01*
X219513Y39098D01*
X219544Y39154D01*
X219628Y39406D01*
X219979Y39932D01*
X220326Y40279D01*
X220852Y40630D01*
X221104Y40714D01*
X221122Y40725D01*
X221136Y40728D01*
X221149Y40739D01*
X221194Y40758D01*
X221399Y40894D01*
X221584Y40894D01*
X221619Y40903D01*
X221704Y40914D01*
X221946Y40994D01*
X222537Y40994D01*
X222892Y40906D01*
X222928Y40905D01*
X222984Y40894D01*
X223169Y40894D01*
X223374Y40758D01*
X223409Y40745D01*
X223458Y40717D01*
X223460Y40716D01*
X223461Y40716D01*
X223464Y40714D01*
X223716Y40630D01*
X223943Y40479D01*
X224116Y40306D01*
X224142Y40289D01*
X224174Y40258D01*
X224443Y40079D01*
X224589Y39932D01*
X224940Y39406D01*
X225305Y38312D01*
X225305Y37835D01*
X225224Y37594D01*
X225221Y37558D01*
X225205Y37474D01*
X225205Y37263D01*
X225045Y36943D01*
X225039Y36921D01*
X225024Y36894D01*
X224933Y36619D01*
X224772Y36298D01*
X224616Y36142D01*
X224597Y36111D01*
X224545Y36043D01*
X224472Y35898D01*
X224359Y35785D01*
X224214Y35713D01*
X224187Y35690D01*
X224116Y35642D01*
X223959Y35485D01*
X223638Y35325D01*
X223364Y35233D01*
X223315Y35203D01*
X223262Y35181D01*
X223242Y35159D01*
X223217Y35143D01*
X223186Y35094D01*
X223149Y35051D01*
X223141Y35022D01*
X223125Y34996D01*
X223119Y34939D01*
X223105Y34883D01*
X223111Y34849D01*
X223108Y34824D01*
X223120Y34792D01*
X223128Y34742D01*
X225128Y29342D01*
X225154Y29304D01*
X225170Y29261D01*
X225201Y29233D01*
X225224Y29198D01*
X225264Y29175D01*
X225297Y29144D01*
X225337Y29132D01*
X225374Y29111D01*
X225419Y29108D01*
X225463Y29095D01*
X225504Y29102D01*
X225546Y29100D01*
X225589Y29117D01*
X225634Y29125D01*
X225675Y29153D01*
X225706Y29166D01*
X225723Y29186D01*
X225736Y29194D01*
X225784Y29194D01*
X225858Y29212D01*
X225934Y29225D01*
X225943Y29232D01*
X225952Y29234D01*
X225980Y29257D01*
X226052Y29306D01*
X226059Y29312D01*
X226134Y29325D01*
X226143Y29332D01*
X226152Y29334D01*
X226180Y29357D01*
X226252Y29406D01*
X226259Y29412D01*
X226334Y29425D01*
X226343Y29432D01*
X226352Y29434D01*
X226380Y29457D01*
X226452Y29506D01*
X226459Y29512D01*
X226534Y29525D01*
X226543Y29532D01*
X226552Y29534D01*
X226580Y29557D01*
X226652Y29606D01*
X226659Y29612D01*
X226734Y29625D01*
X226743Y29632D01*
X226752Y29634D01*
X226780Y29657D01*
X226852Y29706D01*
X226859Y29712D01*
X226934Y29725D01*
X226943Y29732D01*
X226952Y29734D01*
X226953Y29734D01*
X229669Y27861D01*
X229689Y27854D01*
X229705Y27840D01*
X229768Y27822D01*
X229830Y27798D01*
X229851Y27800D01*
X229872Y27795D01*
X229936Y27808D01*
G37*
G36*
X118140Y163291D02*
X118140Y163291D01*
X118191Y163293D01*
X118223Y163311D01*
X118259Y163319D01*
X118298Y163352D01*
X118343Y163376D01*
X118364Y163406D01*
X118392Y163429D01*
X118413Y163476D01*
X118443Y163518D01*
X118451Y163560D01*
X118463Y163588D01*
X118462Y163618D01*
X118470Y163660D01*
X118470Y176460D01*
X118466Y176478D01*
X118468Y176502D01*
X118268Y178302D01*
X118257Y178333D01*
X118251Y178380D01*
X118051Y178980D01*
X118038Y179000D01*
X118030Y179030D01*
X117730Y179630D01*
X117722Y179640D01*
X117716Y179656D01*
X117416Y180156D01*
X117402Y180170D01*
X117393Y180189D01*
X117316Y180259D01*
X117295Y180280D01*
X117290Y180282D01*
X117286Y180286D01*
X116802Y180576D01*
X116418Y180864D01*
X116383Y180879D01*
X116331Y180913D01*
X115331Y181313D01*
X115298Y181318D01*
X115253Y181335D01*
X114653Y181435D01*
X114626Y181433D01*
X114590Y181440D01*
X113790Y181440D01*
X113754Y181432D01*
X113698Y181429D01*
X113343Y181340D01*
X113190Y181340D01*
X113175Y181337D01*
X113160Y181339D01*
X113028Y181302D01*
X113021Y181301D01*
X113021Y181300D01*
X113020Y181300D01*
X112820Y181200D01*
X112801Y181184D01*
X112777Y181175D01*
X112735Y181129D01*
X112687Y181089D01*
X112677Y181067D01*
X112660Y181048D01*
X112642Y180988D01*
X112616Y180931D01*
X112618Y180906D01*
X112610Y180882D01*
X112621Y180820D01*
X112624Y180758D01*
X112636Y180736D01*
X112640Y180711D01*
X112689Y180638D01*
X112707Y180606D01*
X112715Y180601D01*
X112721Y180591D01*
X112821Y180491D01*
X112853Y180471D01*
X112920Y180420D01*
X113320Y180220D01*
X113343Y180214D01*
X113370Y180199D01*
X113585Y180128D01*
X113895Y179818D01*
X114045Y179592D01*
X114110Y179398D01*
X114110Y179222D01*
X114038Y179006D01*
X113878Y178685D01*
X113648Y178456D01*
X113412Y178298D01*
X112981Y178126D01*
X112552Y178040D01*
X111837Y178040D01*
X111146Y178213D01*
X110650Y178544D01*
X110329Y178945D01*
X110170Y179422D01*
X110170Y179982D01*
X110416Y180555D01*
X111076Y181309D01*
X111874Y182207D01*
X111875Y182209D01*
X111876Y182210D01*
X112576Y183010D01*
X112592Y183039D01*
X112622Y183075D01*
X113122Y183975D01*
X113133Y184013D01*
X113161Y184078D01*
X113361Y184978D01*
X113361Y185011D01*
X113370Y185060D01*
X113370Y185860D01*
X113362Y185897D01*
X113351Y185980D01*
X113051Y186880D01*
X113030Y186914D01*
X112999Y186981D01*
X112499Y187681D01*
X112473Y187704D01*
X112443Y187744D01*
X111543Y188544D01*
X111512Y188561D01*
X111472Y188594D01*
X110372Y189194D01*
X110336Y189204D01*
X110258Y189234D01*
X109158Y189434D01*
X109129Y189433D01*
X109090Y189440D01*
X108090Y189440D01*
X108053Y189432D01*
X107970Y189421D01*
X107070Y189121D01*
X107064Y189117D01*
X107057Y189116D01*
X106257Y188816D01*
X106242Y188806D01*
X106220Y188800D01*
X106054Y188717D01*
X105620Y188500D01*
X105598Y188482D01*
X105562Y188464D01*
X105162Y188164D01*
X105147Y188146D01*
X105121Y188129D01*
X105021Y188029D01*
X105008Y188007D01*
X104988Y187991D01*
X104962Y187934D01*
X104930Y187882D01*
X104927Y187856D01*
X104917Y187832D01*
X104919Y187771D01*
X104913Y187709D01*
X104922Y187685D01*
X104923Y187659D01*
X104953Y187605D01*
X104975Y187547D01*
X104994Y187530D01*
X105006Y187507D01*
X105057Y187472D01*
X105102Y187430D01*
X105127Y187422D01*
X105148Y187407D01*
X105232Y187391D01*
X105268Y187380D01*
X105278Y187382D01*
X105290Y187380D01*
X105590Y187380D01*
X105627Y187388D01*
X105710Y187399D01*
X105952Y187480D01*
X106143Y187480D01*
X106498Y187391D01*
X106506Y187391D01*
X106515Y187387D01*
X106966Y187297D01*
X107289Y187135D01*
X107610Y186895D01*
X107745Y186692D01*
X107829Y186440D01*
X107842Y186420D01*
X107850Y186390D01*
X107938Y186214D01*
X107989Y186060D01*
X107929Y185880D01*
X107928Y185867D01*
X107921Y185852D01*
X107837Y185516D01*
X107674Y185271D01*
X107666Y185251D01*
X107650Y185230D01*
X107478Y184885D01*
X107248Y184656D01*
X106979Y184476D01*
X106972Y184469D01*
X106962Y184464D01*
X106570Y184171D01*
X106299Y183990D01*
X105867Y183774D01*
X105600Y183640D01*
X105052Y183640D01*
X104859Y183705D01*
X104710Y183804D01*
X104570Y184222D01*
X104570Y184960D01*
X104558Y185010D01*
X104558Y185031D01*
X104557Y185055D01*
X104556Y185062D01*
X104539Y185094D01*
X104531Y185129D01*
X104498Y185169D01*
X104473Y185214D01*
X104443Y185235D01*
X104421Y185262D01*
X104373Y185284D01*
X104331Y185313D01*
X104295Y185319D01*
X104262Y185333D01*
X104211Y185331D01*
X104160Y185339D01*
X104119Y185328D01*
X104089Y185327D01*
X104062Y185312D01*
X104020Y185300D01*
X104009Y185295D01*
X103249Y184915D01*
X103220Y184900D01*
X103216Y184897D01*
X103106Y184813D01*
X102306Y183913D01*
X102291Y183885D01*
X102262Y183852D01*
X101562Y182652D01*
X101553Y182623D01*
X101532Y182588D01*
X101032Y181188D01*
X101029Y181162D01*
X101016Y181130D01*
X100716Y179530D01*
X100718Y179494D01*
X100710Y179439D01*
X100810Y177639D01*
X100820Y177607D01*
X100824Y177558D01*
X101324Y175758D01*
X101341Y175727D01*
X101358Y175675D01*
X102358Y173875D01*
X102375Y173857D01*
X102390Y173827D01*
X103090Y172927D01*
X103097Y172921D01*
X103101Y172913D01*
X103111Y172907D01*
X103121Y172891D01*
X103921Y172091D01*
X103931Y172085D01*
X103940Y172074D01*
X104740Y171374D01*
X104765Y171360D01*
X104794Y171334D01*
X105794Y170734D01*
X105819Y170726D01*
X105849Y170707D01*
X106849Y170307D01*
X106868Y170304D01*
X106890Y170293D01*
X107990Y169993D01*
X108007Y169993D01*
X108028Y169985D01*
X109228Y169785D01*
X109254Y169787D01*
X109290Y169780D01*
X111159Y169780D01*
X111656Y169697D01*
X112072Y169447D01*
X113022Y168687D01*
X113498Y168117D01*
X113510Y168107D01*
X113521Y168091D01*
X114799Y166814D01*
X115281Y166139D01*
X115301Y166121D01*
X115321Y166091D01*
X115909Y165503D01*
X116398Y164917D01*
X116410Y164907D01*
X116421Y164891D01*
X116902Y164410D01*
X117186Y164032D01*
X117204Y164017D01*
X117221Y163991D01*
X117495Y163718D01*
X117674Y163449D01*
X117693Y163431D01*
X117706Y163407D01*
X117756Y163372D01*
X117800Y163331D01*
X117826Y163323D01*
X117848Y163307D01*
X117929Y163292D01*
X117966Y163281D01*
X117977Y163282D01*
X117990Y163280D01*
X118090Y163280D01*
X118140Y163291D01*
G37*
G36*
X163829Y137791D02*
X163829Y137791D01*
X163891Y137793D01*
X163913Y137806D01*
X163939Y137810D01*
X164010Y137858D01*
X164043Y137876D01*
X164049Y137884D01*
X164059Y137891D01*
X164944Y138776D01*
X166428Y139963D01*
X166439Y139978D01*
X166459Y139991D01*
X167344Y140876D01*
X167828Y141263D01*
X167834Y141271D01*
X167843Y141276D01*
X167887Y141339D01*
X167935Y141399D01*
X167937Y141409D01*
X167943Y141418D01*
X167958Y141499D01*
X167963Y141510D01*
X167963Y141522D01*
X167970Y141560D01*
X167970Y160060D01*
X167969Y160064D01*
X167970Y160069D01*
X167950Y160149D01*
X167931Y160229D01*
X167928Y160232D01*
X167927Y160237D01*
X167873Y160299D01*
X167821Y160362D01*
X167816Y160364D01*
X167814Y160368D01*
X167682Y160429D01*
X167282Y160529D01*
X167274Y160529D01*
X167265Y160533D01*
X166765Y160633D01*
X166733Y160632D01*
X166690Y160640D01*
X166237Y160640D01*
X165882Y160729D01*
X165874Y160729D01*
X165865Y160733D01*
X165373Y160831D01*
X164982Y160929D01*
X164974Y160929D01*
X164965Y160933D01*
X163965Y161133D01*
X163963Y161133D01*
X163962Y161133D01*
X163878Y161130D01*
X163791Y161127D01*
X163790Y161127D01*
X163789Y161127D01*
X163715Y161086D01*
X163639Y161045D01*
X163638Y161044D01*
X163637Y161044D01*
X163589Y160975D01*
X163538Y160904D01*
X163538Y160903D01*
X163537Y160902D01*
X163510Y160760D01*
X163510Y159978D01*
X163359Y160129D01*
X163343Y160139D01*
X163328Y160157D01*
X162828Y160557D01*
X162807Y160567D01*
X162786Y160586D01*
X161786Y161186D01*
X161773Y161190D01*
X161653Y161235D01*
X160453Y161435D01*
X160426Y161433D01*
X160390Y161440D01*
X159690Y161440D01*
X159679Y161438D01*
X159665Y161439D01*
X158165Y161339D01*
X158128Y161328D01*
X158062Y161318D01*
X156662Y160818D01*
X156633Y160799D01*
X156586Y160781D01*
X155486Y160081D01*
X155459Y160053D01*
X155407Y160014D01*
X154507Y159014D01*
X154494Y158991D01*
X154469Y158964D01*
X153769Y157864D01*
X153757Y157828D01*
X153727Y157772D01*
X153327Y156472D01*
X153326Y156457D01*
X153318Y156440D01*
X153018Y155040D01*
X153019Y155016D01*
X153011Y154985D01*
X152911Y153485D01*
X152914Y153463D01*
X152911Y153433D01*
X153011Y152033D01*
X153018Y152009D01*
X153020Y151975D01*
X153320Y150675D01*
X153332Y150650D01*
X153339Y150614D01*
X153839Y149414D01*
X153849Y149399D01*
X153856Y149378D01*
X154456Y148278D01*
X154482Y148249D01*
X154521Y148191D01*
X155421Y147291D01*
X155443Y147278D01*
X155466Y147252D01*
X156566Y146452D01*
X156602Y146437D01*
X156670Y146399D01*
X157870Y145999D01*
X157900Y145996D01*
X157940Y145983D01*
X159440Y145783D01*
X159479Y145787D01*
X159553Y145785D01*
X161353Y146085D01*
X161389Y146100D01*
X161460Y146120D01*
X161590Y146185D01*
X162060Y146420D01*
X162070Y146428D01*
X162086Y146434D01*
X163086Y147034D01*
X163106Y147054D01*
X163187Y147122D01*
X163410Y147401D01*
X163410Y138160D01*
X163416Y138135D01*
X163413Y138109D01*
X163435Y138052D01*
X163449Y137991D01*
X163466Y137971D01*
X163475Y137947D01*
X163520Y137905D01*
X163559Y137858D01*
X163583Y137847D01*
X163602Y137830D01*
X163661Y137812D01*
X163718Y137787D01*
X163743Y137788D01*
X163768Y137780D01*
X163829Y137791D01*
G37*
G36*
X147820Y145787D02*
X147820Y145787D01*
X147865Y145787D01*
X148328Y145880D01*
X148790Y145880D01*
X148826Y145888D01*
X148882Y145891D01*
X149282Y145991D01*
X149302Y146001D01*
X149331Y146007D01*
X149831Y146207D01*
X149843Y146215D01*
X149860Y146220D01*
X150260Y146420D01*
X150276Y146433D01*
X150301Y146444D01*
X150581Y146631D01*
X150960Y146820D01*
X150989Y146844D01*
X151059Y146891D01*
X151359Y147191D01*
X151375Y147218D01*
X151406Y147249D01*
X151601Y147540D01*
X151894Y147932D01*
X151898Y147941D01*
X151906Y147949D01*
X152106Y148249D01*
X152107Y148250D01*
X152108Y148251D01*
X152163Y148385D01*
X152253Y148836D01*
X152430Y149190D01*
X152434Y149205D01*
X152443Y149218D01*
X152469Y149352D01*
X152470Y149359D01*
X152470Y149360D01*
X152470Y149822D01*
X152563Y150285D01*
X152563Y150295D01*
X152564Y150428D01*
X152364Y151528D01*
X152355Y151550D01*
X152351Y151580D01*
X152051Y152480D01*
X152034Y152507D01*
X152020Y152549D01*
X151620Y153249D01*
X151597Y153273D01*
X151537Y153349D01*
X150837Y153949D01*
X150811Y153963D01*
X150779Y153990D01*
X150079Y154390D01*
X150053Y154398D01*
X150024Y154416D01*
X149224Y154716D01*
X149205Y154719D01*
X149182Y154729D01*
X148382Y154929D01*
X148360Y154929D01*
X148332Y154938D01*
X147432Y155038D01*
X145638Y155237D01*
X144969Y155333D01*
X144303Y155523D01*
X143750Y155708D01*
X143350Y155948D01*
X143170Y156187D01*
X143170Y157070D01*
X143403Y157535D01*
X143459Y157591D01*
X143479Y157623D01*
X143530Y157690D01*
X143573Y157777D01*
X143980Y157980D01*
X144090Y157980D01*
X144105Y157983D01*
X144120Y157981D01*
X144252Y158018D01*
X144259Y158019D01*
X144259Y158020D01*
X144260Y158020D01*
X144380Y158080D01*
X146000Y158080D01*
X146865Y157648D01*
X147178Y157335D01*
X147238Y157214D01*
X147329Y156940D01*
X147342Y156920D01*
X147350Y156890D01*
X147410Y156770D01*
X147410Y156360D01*
X147421Y156310D01*
X147423Y156259D01*
X147441Y156227D01*
X147449Y156191D01*
X147482Y156152D01*
X147506Y156107D01*
X147536Y156086D01*
X147559Y156058D01*
X147606Y156037D01*
X147648Y156007D01*
X147690Y155999D01*
X147718Y155987D01*
X147748Y155988D01*
X147790Y155980D01*
X151690Y155980D01*
X151770Y155998D01*
X151850Y156015D01*
X151854Y156018D01*
X151859Y156019D01*
X151922Y156072D01*
X151986Y156122D01*
X151988Y156126D01*
X151992Y156129D01*
X152026Y156204D01*
X152061Y156278D01*
X152061Y156283D01*
X152063Y156288D01*
X152062Y156315D01*
X152065Y156423D01*
X151865Y157623D01*
X151855Y157646D01*
X151855Y157648D01*
X151854Y157668D01*
X151852Y157673D01*
X151851Y157680D01*
X151651Y158280D01*
X151631Y158312D01*
X151594Y158388D01*
X151306Y158772D01*
X151016Y159256D01*
X151004Y159268D01*
X150994Y159288D01*
X150694Y159688D01*
X150669Y159709D01*
X150662Y159722D01*
X150647Y159733D01*
X150618Y159764D01*
X150218Y160064D01*
X150202Y160071D01*
X150186Y160086D01*
X149186Y160686D01*
X149161Y160694D01*
X149131Y160713D01*
X148631Y160913D01*
X148602Y160917D01*
X148565Y160933D01*
X148088Y161028D01*
X147510Y161221D01*
X147485Y161223D01*
X147453Y161235D01*
X146859Y161334D01*
X146365Y161433D01*
X146333Y161432D01*
X146290Y161440D01*
X143990Y161440D01*
X143960Y161433D01*
X143915Y161433D01*
X143452Y161340D01*
X142890Y161340D01*
X142860Y161333D01*
X142815Y161333D01*
X142315Y161233D01*
X142289Y161221D01*
X142249Y161213D01*
X141781Y161026D01*
X141315Y160933D01*
X141289Y160921D01*
X141249Y160913D01*
X140749Y160713D01*
X140718Y160691D01*
X140662Y160664D01*
X139462Y159764D01*
X139437Y159734D01*
X139386Y159688D01*
X139086Y159288D01*
X139074Y159262D01*
X139050Y159230D01*
X138850Y158830D01*
X138847Y158816D01*
X138837Y158801D01*
X138637Y158301D01*
X138633Y158272D01*
X138617Y158235D01*
X138517Y157735D01*
X138518Y157703D01*
X138510Y157660D01*
X138510Y149050D01*
X138450Y148930D01*
X138446Y148915D01*
X138437Y148902D01*
X138411Y148768D01*
X138410Y148762D01*
X138410Y148761D01*
X138410Y148760D01*
X138410Y147950D01*
X138350Y147830D01*
X138346Y147815D01*
X138337Y147802D01*
X138328Y147756D01*
X138327Y147753D01*
X138327Y147751D01*
X138311Y147668D01*
X138310Y147662D01*
X138310Y147661D01*
X138310Y147660D01*
X138310Y147550D01*
X138250Y147430D01*
X138246Y147415D01*
X138237Y147402D01*
X138211Y147268D01*
X138210Y147262D01*
X138210Y147261D01*
X138210Y147260D01*
X138210Y147050D01*
X138178Y146985D01*
X138121Y146929D01*
X138081Y146864D01*
X138037Y146802D01*
X138035Y146790D01*
X138030Y146782D01*
X138026Y146745D01*
X138010Y146660D01*
X138010Y146560D01*
X138021Y146510D01*
X138023Y146459D01*
X138041Y146427D01*
X138049Y146391D01*
X138082Y146352D01*
X138106Y146307D01*
X138136Y146286D01*
X138159Y146258D01*
X138206Y146237D01*
X138248Y146207D01*
X138290Y146199D01*
X138318Y146187D01*
X138348Y146188D01*
X138390Y146180D01*
X142290Y146180D01*
X142340Y146191D01*
X142391Y146193D01*
X142423Y146211D01*
X142459Y146219D01*
X142498Y146252D01*
X142543Y146276D01*
X142564Y146306D01*
X142592Y146329D01*
X142613Y146376D01*
X142643Y146418D01*
X142651Y146460D01*
X142663Y146488D01*
X142663Y146498D01*
X142699Y146556D01*
X142743Y146618D01*
X142745Y146630D01*
X142750Y146638D01*
X142754Y146675D01*
X142756Y146689D01*
X142759Y146691D01*
X142799Y146756D01*
X142843Y146818D01*
X142845Y146830D01*
X142850Y146838D01*
X142854Y146875D01*
X142870Y146960D01*
X142870Y147109D01*
X142883Y147130D01*
X143021Y146991D01*
X143048Y146975D01*
X143079Y146944D01*
X143379Y146744D01*
X143415Y146730D01*
X143470Y146699D01*
X143722Y146615D01*
X143979Y146444D01*
X144015Y146430D01*
X144070Y146399D01*
X145270Y145999D01*
X145307Y145996D01*
X145390Y145980D01*
X145628Y145980D01*
X145870Y145899D01*
X145907Y145896D01*
X145990Y145880D01*
X146328Y145880D01*
X146570Y145799D01*
X146607Y145796D01*
X146690Y145780D01*
X147790Y145780D01*
X147820Y145787D01*
G37*
G36*
X116822Y146187D02*
X116822Y146187D01*
X116856Y146185D01*
X116906Y146207D01*
X116959Y146219D01*
X116984Y146240D01*
X117015Y146253D01*
X117062Y146305D01*
X117092Y146329D01*
X117099Y146345D01*
X117113Y146360D01*
X120769Y152266D01*
X121810Y151295D01*
X121810Y146560D01*
X121821Y146510D01*
X121823Y146459D01*
X121841Y146427D01*
X121849Y146391D01*
X121882Y146352D01*
X121906Y146307D01*
X121936Y146286D01*
X121959Y146258D01*
X122006Y146237D01*
X122048Y146207D01*
X122090Y146199D01*
X122118Y146187D01*
X122148Y146188D01*
X122190Y146180D01*
X126090Y146180D01*
X126140Y146191D01*
X126191Y146193D01*
X126223Y146211D01*
X126259Y146219D01*
X126298Y146252D01*
X126343Y146276D01*
X126364Y146306D01*
X126392Y146329D01*
X126413Y146376D01*
X126443Y146418D01*
X126451Y146460D01*
X126463Y146488D01*
X126462Y146518D01*
X126470Y146560D01*
X126470Y163960D01*
X126460Y164003D01*
X126460Y164048D01*
X126441Y164087D01*
X126431Y164129D01*
X126402Y164163D01*
X126382Y164203D01*
X126343Y164236D01*
X126321Y164262D01*
X126297Y164273D01*
X126270Y164295D01*
X122370Y166395D01*
X122315Y166410D01*
X122262Y166433D01*
X122232Y166432D01*
X122203Y166440D01*
X122147Y166429D01*
X122089Y166427D01*
X122063Y166412D01*
X122033Y166406D01*
X121988Y166371D01*
X121937Y166344D01*
X121920Y166319D01*
X121896Y166301D01*
X121870Y166249D01*
X121837Y166202D01*
X121831Y166168D01*
X121819Y166145D01*
X121820Y166110D01*
X121810Y166060D01*
X121810Y156605D01*
X117564Y161023D01*
X117497Y161067D01*
X117432Y161113D01*
X117424Y161114D01*
X117419Y161118D01*
X117386Y161122D01*
X117290Y161140D01*
X112690Y161140D01*
X112663Y161134D01*
X112636Y161136D01*
X112580Y161114D01*
X112521Y161101D01*
X112500Y161083D01*
X112474Y161073D01*
X112434Y161029D01*
X112388Y160991D01*
X112376Y160965D01*
X112358Y160945D01*
X112341Y160887D01*
X112317Y160832D01*
X112318Y160805D01*
X112310Y160778D01*
X112321Y160719D01*
X112323Y160659D01*
X112337Y160635D01*
X112342Y160608D01*
X112388Y160541D01*
X112406Y160507D01*
X112416Y160500D01*
X112424Y160489D01*
X117501Y155507D01*
X111772Y146768D01*
X111747Y146699D01*
X111717Y146632D01*
X111717Y146619D01*
X111713Y146606D01*
X111721Y146533D01*
X111723Y146459D01*
X111730Y146447D01*
X111731Y146434D01*
X111771Y146372D01*
X111806Y146307D01*
X111817Y146299D01*
X111825Y146288D01*
X111888Y146250D01*
X111948Y146207D01*
X111963Y146204D01*
X111973Y146198D01*
X112012Y146195D01*
X112090Y146180D01*
X116790Y146180D01*
X116822Y146187D01*
G37*
G36*
X77340Y146191D02*
X77340Y146191D01*
X77391Y146193D01*
X77423Y146211D01*
X77459Y146219D01*
X77498Y146252D01*
X77543Y146276D01*
X77564Y146306D01*
X77592Y146329D01*
X77613Y146376D01*
X77643Y146418D01*
X77651Y146460D01*
X77663Y146488D01*
X77662Y146518D01*
X77670Y146560D01*
X77670Y154536D01*
X77767Y155309D01*
X77866Y156003D01*
X77953Y156526D01*
X78206Y156948D01*
X78450Y157272D01*
X78829Y157500D01*
X79259Y157586D01*
X79798Y157676D01*
X80535Y157584D01*
X81056Y157497D01*
X81436Y157269D01*
X81777Y156842D01*
X82051Y156386D01*
X82318Y155762D01*
X82410Y154939D01*
X82410Y146560D01*
X82421Y146510D01*
X82423Y146459D01*
X82441Y146427D01*
X82449Y146391D01*
X82482Y146352D01*
X82506Y146307D01*
X82536Y146286D01*
X82559Y146258D01*
X82606Y146237D01*
X82648Y146207D01*
X82690Y146199D01*
X82718Y146187D01*
X82748Y146188D01*
X82790Y146180D01*
X86690Y146180D01*
X86740Y146191D01*
X86791Y146193D01*
X86823Y146211D01*
X86859Y146219D01*
X86898Y146252D01*
X86943Y146276D01*
X86964Y146306D01*
X86992Y146329D01*
X87013Y146376D01*
X87043Y146418D01*
X87051Y146460D01*
X87063Y146488D01*
X87062Y146518D01*
X87070Y146560D01*
X87070Y160760D01*
X87059Y160810D01*
X87057Y160861D01*
X87039Y160893D01*
X87031Y160929D01*
X86998Y160968D01*
X86974Y161013D01*
X86944Y161034D01*
X86921Y161062D01*
X86874Y161083D01*
X86832Y161113D01*
X86790Y161121D01*
X86762Y161133D01*
X86732Y161132D01*
X86690Y161140D01*
X82990Y161140D01*
X82940Y161129D01*
X82889Y161127D01*
X82857Y161109D01*
X82821Y161101D01*
X82782Y161068D01*
X82737Y161044D01*
X82716Y161014D01*
X82688Y160991D01*
X82667Y160944D01*
X82637Y160902D01*
X82629Y160860D01*
X82617Y160832D01*
X82618Y160802D01*
X82610Y160760D01*
X82610Y159778D01*
X82359Y160029D01*
X82343Y160039D01*
X82328Y160057D01*
X81828Y160457D01*
X81814Y160463D01*
X81801Y160476D01*
X81201Y160876D01*
X81165Y160890D01*
X81110Y160921D01*
X79910Y161321D01*
X79885Y161323D01*
X79853Y161335D01*
X79253Y161435D01*
X79226Y161433D01*
X79190Y161440D01*
X78590Y161440D01*
X78578Y161437D01*
X78563Y161439D01*
X77163Y161339D01*
X77133Y161330D01*
X77090Y161327D01*
X75990Y161027D01*
X75958Y161010D01*
X75905Y160992D01*
X75005Y160492D01*
X74977Y160466D01*
X74921Y160429D01*
X74221Y159729D01*
X74203Y159699D01*
X74168Y159662D01*
X73668Y158862D01*
X73655Y158825D01*
X73626Y158769D01*
X73326Y157769D01*
X73325Y157750D01*
X73316Y157728D01*
X73116Y156628D01*
X73117Y156611D01*
X73111Y156589D01*
X73011Y155289D01*
X73013Y155276D01*
X73010Y155260D01*
X73010Y146560D01*
X73021Y146510D01*
X73023Y146459D01*
X73041Y146427D01*
X73049Y146391D01*
X73082Y146352D01*
X73106Y146307D01*
X73136Y146286D01*
X73159Y146258D01*
X73206Y146237D01*
X73248Y146207D01*
X73290Y146199D01*
X73318Y146187D01*
X73348Y146188D01*
X73390Y146180D01*
X77290Y146180D01*
X77340Y146191D01*
G37*
G36*
X98317Y145881D02*
X98317Y145881D01*
X98354Y145892D01*
X98420Y145903D01*
X99520Y146303D01*
X99542Y146317D01*
X99575Y146328D01*
X100475Y146828D01*
X100498Y146849D01*
X100537Y146871D01*
X101237Y147471D01*
X101254Y147494D01*
X101322Y147575D01*
X101822Y148475D01*
X101832Y148508D01*
X101854Y148551D01*
X102154Y149551D01*
X102155Y149570D01*
X102164Y149592D01*
X102364Y150692D01*
X102363Y150721D01*
X102370Y150760D01*
X102370Y160760D01*
X102359Y160810D01*
X102357Y160861D01*
X102339Y160893D01*
X102331Y160929D01*
X102298Y160968D01*
X102274Y161013D01*
X102244Y161034D01*
X102221Y161062D01*
X102174Y161083D01*
X102132Y161113D01*
X102090Y161121D01*
X102062Y161133D01*
X102032Y161132D01*
X101990Y161140D01*
X98190Y161140D01*
X98140Y161129D01*
X98089Y161127D01*
X98057Y161109D01*
X98021Y161101D01*
X97982Y161068D01*
X97937Y161044D01*
X97916Y161014D01*
X97888Y160991D01*
X97867Y160944D01*
X97837Y160902D01*
X97829Y160860D01*
X97817Y160832D01*
X97818Y160802D01*
X97810Y160760D01*
X97810Y152784D01*
X97614Y151215D01*
X97530Y150714D01*
X97031Y150048D01*
X96651Y149820D01*
X96221Y149734D01*
X95682Y149644D01*
X94945Y149736D01*
X94424Y149823D01*
X94026Y150062D01*
X93703Y150385D01*
X93435Y150920D01*
X93161Y151560D01*
X93070Y152284D01*
X93070Y160760D01*
X93059Y160810D01*
X93057Y160861D01*
X93039Y160893D01*
X93031Y160929D01*
X92998Y160968D01*
X92974Y161013D01*
X92944Y161034D01*
X92921Y161062D01*
X92874Y161083D01*
X92832Y161113D01*
X92790Y161121D01*
X92762Y161133D01*
X92732Y161132D01*
X92690Y161140D01*
X88790Y161140D01*
X88740Y161129D01*
X88689Y161127D01*
X88657Y161109D01*
X88621Y161101D01*
X88582Y161068D01*
X88537Y161044D01*
X88516Y161014D01*
X88488Y160991D01*
X88467Y160944D01*
X88437Y160902D01*
X88429Y160860D01*
X88417Y160832D01*
X88418Y160802D01*
X88410Y160760D01*
X88410Y146560D01*
X88421Y146510D01*
X88423Y146459D01*
X88441Y146427D01*
X88449Y146391D01*
X88482Y146352D01*
X88506Y146307D01*
X88536Y146286D01*
X88559Y146258D01*
X88606Y146237D01*
X88648Y146207D01*
X88690Y146199D01*
X88718Y146187D01*
X88748Y146188D01*
X88790Y146180D01*
X92490Y146180D01*
X92540Y146191D01*
X92591Y146193D01*
X92623Y146211D01*
X92659Y146219D01*
X92698Y146252D01*
X92743Y146276D01*
X92764Y146306D01*
X92792Y146329D01*
X92813Y146376D01*
X92843Y146418D01*
X92851Y146460D01*
X92863Y146488D01*
X92862Y146518D01*
X92870Y146560D01*
X92870Y147501D01*
X93093Y147222D01*
X93120Y147201D01*
X93152Y147163D01*
X93652Y146763D01*
X93682Y146749D01*
X93720Y146720D01*
X94320Y146420D01*
X94334Y146417D01*
X94349Y146407D01*
X94849Y146207D01*
X94859Y146205D01*
X94870Y146199D01*
X95470Y145999D01*
X95499Y145997D01*
X95536Y145984D01*
X96233Y145884D01*
X96828Y145785D01*
X96863Y145787D01*
X96917Y145781D01*
X98317Y145881D01*
G37*
G36*
X176922Y145881D02*
X176922Y145881D01*
X176935Y145885D01*
X176953Y145885D01*
X178153Y146085D01*
X178168Y146092D01*
X178190Y146093D01*
X179290Y146393D01*
X179318Y146408D01*
X179360Y146420D01*
X179680Y146580D01*
X180360Y146920D01*
X180389Y146944D01*
X180440Y146974D01*
X181240Y147674D01*
X181258Y147699D01*
X181290Y147727D01*
X181990Y148627D01*
X182006Y148662D01*
X182043Y148719D01*
X182443Y149719D01*
X182448Y149753D01*
X182466Y149802D01*
X182666Y151102D01*
X182660Y151182D01*
X182657Y151261D01*
X182653Y151267D01*
X182652Y151275D01*
X182612Y151343D01*
X182574Y151413D01*
X182568Y151417D01*
X182564Y151424D01*
X182497Y151467D01*
X182432Y151513D01*
X182424Y151514D01*
X182418Y151518D01*
X182385Y151522D01*
X182290Y151540D01*
X178590Y151540D01*
X178540Y151529D01*
X178489Y151527D01*
X178457Y151509D01*
X178421Y151501D01*
X178382Y151468D01*
X178337Y151444D01*
X178316Y151414D01*
X178288Y151391D01*
X178267Y151344D01*
X178237Y151302D01*
X178229Y151260D01*
X178217Y151232D01*
X178218Y151202D01*
X178210Y151160D01*
X178210Y150633D01*
X178056Y150248D01*
X177818Y149932D01*
X177136Y149420D01*
X176628Y149335D01*
X176622Y149333D01*
X176615Y149333D01*
X176121Y149234D01*
X175606Y149148D01*
X175282Y149229D01*
X175246Y149229D01*
X175190Y149240D01*
X174837Y149240D01*
X174523Y149319D01*
X174191Y149485D01*
X173840Y149748D01*
X173633Y149954D01*
X173482Y150560D01*
X173549Y150827D01*
X173690Y151110D01*
X174002Y151344D01*
X174450Y151612D01*
X174996Y151795D01*
X176573Y152189D01*
X177565Y152387D01*
X177568Y152389D01*
X177573Y152389D01*
X178473Y152589D01*
X178493Y152599D01*
X178524Y152604D01*
X179324Y152904D01*
X179330Y152908D01*
X179340Y152911D01*
X180040Y153211D01*
X180055Y153222D01*
X180079Y153230D01*
X180779Y153630D01*
X180787Y153638D01*
X180801Y153644D01*
X181401Y154044D01*
X181402Y154045D01*
X181405Y154046D01*
X181506Y154149D01*
X181906Y154749D01*
X181917Y154777D01*
X181940Y154810D01*
X182240Y155510D01*
X182246Y155549D01*
X182252Y155568D01*
X182264Y155594D01*
X182264Y155604D01*
X182268Y155618D01*
X182368Y156518D01*
X182364Y156549D01*
X182369Y156592D01*
X182269Y157792D01*
X182257Y157829D01*
X182243Y157901D01*
X181843Y158901D01*
X181823Y158930D01*
X181776Y159010D01*
X181076Y159810D01*
X181057Y159824D01*
X181037Y159849D01*
X180337Y160449D01*
X180305Y160466D01*
X180260Y160500D01*
X179260Y161000D01*
X179223Y161009D01*
X179165Y161033D01*
X178165Y161233D01*
X178162Y161233D01*
X178158Y161234D01*
X177058Y161434D01*
X177029Y161433D01*
X176990Y161440D01*
X174690Y161440D01*
X174662Y161434D01*
X174622Y161434D01*
X173522Y161234D01*
X173505Y161227D01*
X173481Y161224D01*
X172481Y160924D01*
X172462Y160914D01*
X172436Y160907D01*
X171536Y160507D01*
X171508Y160487D01*
X171462Y160464D01*
X170662Y159864D01*
X170637Y159834D01*
X170586Y159788D01*
X169986Y158988D01*
X169974Y158962D01*
X169950Y158930D01*
X169450Y157930D01*
X169441Y157892D01*
X169415Y157823D01*
X169215Y156623D01*
X169220Y156541D01*
X169223Y156459D01*
X169226Y156455D01*
X169226Y156450D01*
X169267Y156379D01*
X169306Y156307D01*
X169310Y156304D01*
X169313Y156300D01*
X169381Y156254D01*
X169448Y156207D01*
X169453Y156206D01*
X169457Y156204D01*
X169485Y156200D01*
X169590Y156180D01*
X173290Y156180D01*
X173303Y156183D01*
X173317Y156181D01*
X173387Y156202D01*
X173459Y156219D01*
X173469Y156228D01*
X173482Y156232D01*
X173536Y156283D01*
X173592Y156329D01*
X173598Y156342D01*
X173608Y156351D01*
X173663Y156485D01*
X173756Y156951D01*
X173928Y157382D01*
X174064Y157586D01*
X174281Y157731D01*
X174646Y157913D01*
X175063Y158080D01*
X176628Y158080D01*
X176870Y157999D01*
X176883Y157998D01*
X176898Y157991D01*
X177284Y157895D01*
X177446Y157841D01*
X177710Y157445D01*
X177710Y157207D01*
X177640Y156927D01*
X177418Y156632D01*
X177089Y156385D01*
X176544Y156112D01*
X176005Y155933D01*
X175243Y155837D01*
X175224Y155830D01*
X175198Y155829D01*
X172802Y155230D01*
X171908Y155031D01*
X171872Y155014D01*
X171801Y154990D01*
X170401Y154190D01*
X170381Y154171D01*
X170347Y154152D01*
X169747Y153652D01*
X169723Y153621D01*
X169718Y153616D01*
X169717Y153615D01*
X169674Y153571D01*
X169274Y152971D01*
X169263Y152943D01*
X169241Y152910D01*
X168941Y152210D01*
X168934Y152171D01*
X168912Y152102D01*
X168812Y151202D01*
X168817Y151164D01*
X168814Y151102D01*
X169014Y149802D01*
X169026Y149773D01*
X169033Y149730D01*
X169433Y148630D01*
X169454Y148597D01*
X169486Y148532D01*
X170086Y147732D01*
X170111Y147711D01*
X170140Y147674D01*
X170940Y146974D01*
X170973Y146956D01*
X171020Y146920D01*
X172020Y146420D01*
X172050Y146413D01*
X172090Y146393D01*
X173190Y146093D01*
X173207Y146093D01*
X173228Y146085D01*
X174428Y145885D01*
X174442Y145886D01*
X174458Y145881D01*
X175658Y145781D01*
X175685Y145785D01*
X175722Y145781D01*
X176922Y145881D01*
G37*
G36*
X109740Y146191D02*
X109740Y146191D01*
X109791Y146193D01*
X109823Y146211D01*
X109859Y146219D01*
X109898Y146252D01*
X109943Y146276D01*
X109964Y146306D01*
X109992Y146329D01*
X110013Y146376D01*
X110043Y146418D01*
X110051Y146460D01*
X110063Y146488D01*
X110062Y146518D01*
X110070Y146560D01*
X110070Y157780D01*
X113590Y157780D01*
X113641Y157792D01*
X113694Y157794D01*
X113724Y157811D01*
X113759Y157819D01*
X113799Y157853D01*
X113845Y157878D01*
X113865Y157907D01*
X113892Y157929D01*
X113914Y157977D01*
X113944Y158021D01*
X113949Y158055D01*
X113963Y158088D01*
X113961Y158140D01*
X113969Y158192D01*
X113958Y158225D01*
X113957Y158261D01*
X113932Y158307D01*
X113915Y158357D01*
X113888Y158387D01*
X113874Y158413D01*
X113848Y158431D01*
X113818Y158464D01*
X113440Y158748D01*
X111859Y160329D01*
X111839Y160341D01*
X111818Y160364D01*
X111462Y160632D01*
X111194Y160988D01*
X111182Y160999D01*
X111174Y161013D01*
X111116Y161054D01*
X111061Y161099D01*
X111046Y161103D01*
X111032Y161113D01*
X110905Y161137D01*
X110893Y161140D01*
X110892Y161140D01*
X110890Y161140D01*
X110070Y161140D01*
X110070Y162760D01*
X110064Y162786D01*
X110046Y162894D01*
X109746Y163694D01*
X109742Y163700D01*
X109740Y163710D01*
X109440Y164410D01*
X109416Y164441D01*
X109382Y164503D01*
X108882Y165103D01*
X108852Y165126D01*
X108811Y165169D01*
X108111Y165669D01*
X108087Y165679D01*
X108060Y165700D01*
X107260Y166100D01*
X107233Y166107D01*
X107199Y166124D01*
X106199Y166424D01*
X106160Y166427D01*
X106090Y166440D01*
X103190Y166440D01*
X103175Y166437D01*
X103160Y166439D01*
X103028Y166402D01*
X103021Y166401D01*
X103021Y166400D01*
X103020Y166400D01*
X102820Y166300D01*
X102781Y166268D01*
X102737Y166244D01*
X102716Y166213D01*
X102687Y166189D01*
X102666Y166143D01*
X102637Y166102D01*
X102629Y166059D01*
X102616Y166031D01*
X102617Y166015D01*
X102618Y166001D01*
X102610Y165960D01*
X102610Y163160D01*
X102621Y163110D01*
X102623Y163059D01*
X102641Y163027D01*
X102649Y162991D01*
X102682Y162952D01*
X102706Y162907D01*
X102736Y162886D01*
X102759Y162858D01*
X102806Y162837D01*
X102848Y162807D01*
X102890Y162799D01*
X102918Y162787D01*
X102948Y162788D01*
X102990Y162780D01*
X104643Y162780D01*
X104957Y162701D01*
X105230Y162565D01*
X105361Y162369D01*
X105410Y162270D01*
X105410Y161960D01*
X105418Y161924D01*
X105421Y161868D01*
X105510Y161513D01*
X105510Y161140D01*
X103190Y161140D01*
X103140Y161129D01*
X103089Y161127D01*
X103057Y161109D01*
X103021Y161101D01*
X102982Y161068D01*
X102937Y161044D01*
X102916Y161014D01*
X102888Y160991D01*
X102867Y160944D01*
X102837Y160902D01*
X102829Y160860D01*
X102817Y160832D01*
X102818Y160802D01*
X102810Y160760D01*
X102810Y158160D01*
X102821Y158110D01*
X102823Y158059D01*
X102841Y158027D01*
X102849Y157991D01*
X102882Y157952D01*
X102906Y157907D01*
X102936Y157886D01*
X102959Y157858D01*
X103006Y157837D01*
X103048Y157807D01*
X103090Y157799D01*
X103118Y157787D01*
X103148Y157788D01*
X103190Y157780D01*
X105510Y157780D01*
X105510Y146560D01*
X105521Y146510D01*
X105523Y146459D01*
X105541Y146427D01*
X105549Y146391D01*
X105582Y146352D01*
X105606Y146307D01*
X105636Y146286D01*
X105659Y146258D01*
X105706Y146237D01*
X105748Y146207D01*
X105790Y146199D01*
X105818Y146187D01*
X105848Y146188D01*
X105890Y146180D01*
X109690Y146180D01*
X109740Y146191D01*
G37*
G36*
X136740Y146191D02*
X136740Y146191D01*
X136791Y146193D01*
X136823Y146211D01*
X136859Y146219D01*
X136898Y146252D01*
X136943Y146276D01*
X136964Y146306D01*
X136992Y146329D01*
X137013Y146376D01*
X137043Y146418D01*
X137051Y146460D01*
X137063Y146488D01*
X137062Y146518D01*
X137070Y146560D01*
X137070Y160060D01*
X137067Y160073D01*
X137069Y160087D01*
X137048Y160157D01*
X137031Y160229D01*
X137022Y160239D01*
X137018Y160252D01*
X136967Y160306D01*
X136921Y160362D01*
X136908Y160368D01*
X136899Y160378D01*
X136765Y160433D01*
X136273Y160531D01*
X135882Y160629D01*
X135846Y160629D01*
X135790Y160640D01*
X135328Y160640D01*
X134873Y160731D01*
X134482Y160829D01*
X134474Y160829D01*
X134465Y160833D01*
X133473Y161031D01*
X133082Y161129D01*
X133072Y161129D01*
X133062Y161133D01*
X132986Y161130D01*
X132909Y161132D01*
X132900Y161127D01*
X132889Y161127D01*
X132822Y161090D01*
X132753Y161057D01*
X132746Y161049D01*
X132737Y161044D01*
X132693Y160981D01*
X132645Y160921D01*
X132643Y160911D01*
X132637Y160902D01*
X132610Y160760D01*
X132610Y159344D01*
X132487Y159498D01*
X132484Y159500D01*
X132482Y159503D01*
X131982Y160103D01*
X131967Y160115D01*
X131963Y160122D01*
X131949Y160131D01*
X131928Y160157D01*
X131428Y160557D01*
X131404Y160568D01*
X131379Y160590D01*
X130679Y160990D01*
X130649Y160999D01*
X130610Y161021D01*
X130010Y161221D01*
X130003Y161221D01*
X129994Y161226D01*
X129294Y161426D01*
X129256Y161428D01*
X129190Y161440D01*
X127790Y161440D01*
X127716Y161423D01*
X127641Y161410D01*
X127631Y161403D01*
X127621Y161401D01*
X127592Y161377D01*
X127521Y161329D01*
X127520Y161328D01*
X127489Y161327D01*
X127457Y161309D01*
X127421Y161301D01*
X127382Y161268D01*
X127337Y161244D01*
X127316Y161214D01*
X127288Y161191D01*
X127267Y161144D01*
X127237Y161102D01*
X127229Y161060D01*
X127217Y161032D01*
X127218Y161002D01*
X127210Y160960D01*
X127210Y157360D01*
X127221Y157310D01*
X127223Y157259D01*
X127241Y157227D01*
X127249Y157191D01*
X127282Y157152D01*
X127306Y157107D01*
X127336Y157086D01*
X127359Y157058D01*
X127406Y157037D01*
X127448Y157007D01*
X127490Y156999D01*
X127518Y156987D01*
X127548Y156988D01*
X127590Y156980D01*
X127690Y156980D01*
X127705Y156983D01*
X127720Y156981D01*
X127852Y157018D01*
X127859Y157019D01*
X127859Y157020D01*
X127860Y157020D01*
X127980Y157080D01*
X128971Y157080D01*
X129925Y156984D01*
X130647Y156804D01*
X131242Y156464D01*
X131676Y155942D01*
X132037Y155311D01*
X132221Y154666D01*
X132410Y153818D01*
X132410Y146560D01*
X132421Y146510D01*
X132423Y146459D01*
X132441Y146427D01*
X132449Y146391D01*
X132482Y146352D01*
X132506Y146307D01*
X132536Y146286D01*
X132559Y146258D01*
X132606Y146237D01*
X132648Y146207D01*
X132690Y146199D01*
X132718Y146187D01*
X132748Y146188D01*
X132790Y146180D01*
X136690Y146180D01*
X136740Y146191D01*
G37*
%LPC*%
G36*
X159760Y149634D02*
X159760Y149634D01*
X159067Y149808D01*
X158563Y150228D01*
X158219Y150657D01*
X157943Y151302D01*
X157662Y152052D01*
X157570Y152784D01*
X157570Y154436D01*
X157662Y155168D01*
X157943Y155918D01*
X158218Y156559D01*
X158647Y157074D01*
X159172Y157424D01*
X159788Y157688D01*
X160587Y157777D01*
X161298Y157688D01*
X162000Y157425D01*
X162422Y157087D01*
X162862Y156559D01*
X163137Y155918D01*
X163418Y155168D01*
X163510Y154436D01*
X163510Y152807D01*
X163128Y151282D01*
X162869Y150677D01*
X162433Y150241D01*
X161908Y149804D01*
X161316Y149634D01*
X160493Y149543D01*
X159760Y149634D01*
G37*
%LPD*%
%LPC*%
G36*
X145928Y149140D02*
X145928Y149140D01*
X145465Y149233D01*
X145433Y149232D01*
X145390Y149240D01*
X144980Y149240D01*
X144660Y149400D01*
X144627Y149408D01*
X144582Y149429D01*
X144246Y149513D01*
X144032Y149656D01*
X143886Y149802D01*
X143706Y150071D01*
X143684Y150092D01*
X143659Y150129D01*
X143522Y150265D01*
X143351Y150780D01*
X143338Y150800D01*
X143330Y150830D01*
X143242Y151006D01*
X143170Y151222D01*
X143170Y152845D01*
X143420Y152720D01*
X143435Y152716D01*
X143448Y152707D01*
X143582Y152681D01*
X143589Y152680D01*
X143590Y152680D01*
X143700Y152680D01*
X143820Y152620D01*
X143835Y152616D01*
X143848Y152607D01*
X143982Y152581D01*
X143989Y152580D01*
X143990Y152580D01*
X144300Y152580D01*
X144420Y152520D01*
X144435Y152516D01*
X144448Y152507D01*
X144582Y152481D01*
X144589Y152480D01*
X144590Y152480D01*
X144728Y152480D01*
X144970Y152399D01*
X145007Y152396D01*
X145090Y152380D01*
X145428Y152380D01*
X145670Y152299D01*
X145707Y152296D01*
X145790Y152280D01*
X146100Y152280D01*
X146220Y152220D01*
X146235Y152216D01*
X146248Y152207D01*
X146382Y152181D01*
X146389Y152180D01*
X146390Y152180D01*
X146528Y152180D01*
X146744Y152108D01*
X146865Y152048D01*
X146921Y151991D01*
X146953Y151971D01*
X147020Y151920D01*
X147365Y151748D01*
X147421Y151691D01*
X147453Y151671D01*
X147520Y151620D01*
X147607Y151577D01*
X147810Y151170D01*
X147810Y151060D01*
X147813Y151045D01*
X147811Y151030D01*
X147848Y150898D01*
X147849Y150891D01*
X147850Y150891D01*
X147850Y150890D01*
X147910Y150770D01*
X147910Y150422D01*
X147829Y150180D01*
X147826Y150143D01*
X147810Y150060D01*
X147810Y149950D01*
X147778Y149885D01*
X147721Y149829D01*
X147713Y149815D01*
X147710Y149813D01*
X147707Y149805D01*
X147701Y149797D01*
X147650Y149730D01*
X147607Y149643D01*
X147520Y149600D01*
X147491Y149576D01*
X147421Y149529D01*
X147365Y149473D01*
X147100Y149340D01*
X146990Y149340D01*
X146975Y149337D01*
X146960Y149339D01*
X146828Y149302D01*
X146821Y149301D01*
X146821Y149300D01*
X146820Y149300D01*
X146700Y149240D01*
X146590Y149240D01*
X146575Y149237D01*
X146560Y149239D01*
X146428Y149202D01*
X146421Y149201D01*
X146421Y149200D01*
X146420Y149200D01*
X146345Y149163D01*
X146300Y149140D01*
X145928Y149140D01*
G37*
%LPD*%
D10*
X21590Y54610D02*
X21590Y29210D01*
X41910Y54610D02*
X41908Y54743D01*
X41902Y54876D01*
X41893Y55008D01*
X41879Y55141D01*
X41862Y55273D01*
X41841Y55404D01*
X41816Y55535D01*
X41787Y55664D01*
X41754Y55793D01*
X41718Y55921D01*
X41678Y56048D01*
X41634Y56174D01*
X41587Y56298D01*
X41536Y56421D01*
X41482Y56542D01*
X41424Y56662D01*
X41362Y56780D01*
X41297Y56896D01*
X41229Y57010D01*
X41158Y57122D01*
X41083Y57232D01*
X41005Y57340D01*
X40924Y57446D01*
X40840Y57549D01*
X40753Y57649D01*
X40664Y57747D01*
X40571Y57843D01*
X40475Y57936D01*
X40377Y58025D01*
X40277Y58112D01*
X40174Y58196D01*
X40068Y58277D01*
X39960Y58355D01*
X39850Y58430D01*
X39738Y58501D01*
X39624Y58569D01*
X39508Y58634D01*
X39390Y58696D01*
X39270Y58754D01*
X39149Y58808D01*
X39026Y58859D01*
X38902Y58906D01*
X38776Y58950D01*
X38649Y58990D01*
X38521Y59026D01*
X38392Y59059D01*
X38263Y59088D01*
X38132Y59113D01*
X38001Y59134D01*
X37869Y59151D01*
X37736Y59165D01*
X37604Y59174D01*
X37471Y59180D01*
X37338Y59182D01*
X41910Y29210D02*
X41908Y29077D01*
X41902Y28944D01*
X41893Y28812D01*
X41879Y28679D01*
X41862Y28547D01*
X41841Y28416D01*
X41816Y28285D01*
X41787Y28156D01*
X41754Y28027D01*
X41718Y27899D01*
X41678Y27772D01*
X41634Y27646D01*
X41587Y27522D01*
X41536Y27399D01*
X41482Y27278D01*
X41424Y27158D01*
X41362Y27040D01*
X41297Y26924D01*
X41229Y26810D01*
X41158Y26698D01*
X41083Y26588D01*
X41005Y26480D01*
X40924Y26374D01*
X40840Y26271D01*
X40753Y26171D01*
X40664Y26073D01*
X40571Y25977D01*
X40475Y25884D01*
X40377Y25795D01*
X40277Y25708D01*
X40174Y25624D01*
X40068Y25543D01*
X39960Y25465D01*
X39850Y25390D01*
X39738Y25319D01*
X39624Y25251D01*
X39508Y25186D01*
X39390Y25124D01*
X39270Y25066D01*
X39149Y25012D01*
X39026Y24961D01*
X38902Y24914D01*
X38776Y24870D01*
X38649Y24830D01*
X38521Y24794D01*
X38392Y24761D01*
X38263Y24732D01*
X38132Y24707D01*
X38001Y24686D01*
X37869Y24669D01*
X37736Y24655D01*
X37604Y24646D01*
X37471Y24640D01*
X37338Y24638D01*
X26162Y24638D02*
X26029Y24640D01*
X25896Y24646D01*
X25764Y24655D01*
X25631Y24669D01*
X25499Y24686D01*
X25368Y24707D01*
X25237Y24732D01*
X25108Y24761D01*
X24979Y24794D01*
X24851Y24830D01*
X24724Y24870D01*
X24598Y24914D01*
X24474Y24961D01*
X24351Y25012D01*
X24230Y25066D01*
X24110Y25124D01*
X23992Y25186D01*
X23876Y25251D01*
X23762Y25319D01*
X23650Y25390D01*
X23540Y25465D01*
X23432Y25543D01*
X23326Y25624D01*
X23223Y25708D01*
X23123Y25795D01*
X23025Y25884D01*
X22929Y25977D01*
X22836Y26073D01*
X22747Y26171D01*
X22660Y26271D01*
X22576Y26374D01*
X22495Y26480D01*
X22417Y26588D01*
X22342Y26698D01*
X22271Y26810D01*
X22203Y26924D01*
X22138Y27040D01*
X22076Y27158D01*
X22018Y27278D01*
X21964Y27399D01*
X21913Y27522D01*
X21866Y27646D01*
X21822Y27772D01*
X21782Y27899D01*
X21746Y28027D01*
X21713Y28156D01*
X21684Y28285D01*
X21659Y28416D01*
X21638Y28547D01*
X21621Y28679D01*
X21607Y28812D01*
X21598Y28944D01*
X21592Y29077D01*
X21590Y29210D01*
X21590Y54610D02*
X21592Y54743D01*
X21598Y54876D01*
X21607Y55008D01*
X21621Y55141D01*
X21638Y55273D01*
X21659Y55404D01*
X21684Y55535D01*
X21713Y55664D01*
X21746Y55793D01*
X21782Y55921D01*
X21822Y56048D01*
X21866Y56174D01*
X21913Y56298D01*
X21964Y56421D01*
X22018Y56542D01*
X22076Y56662D01*
X22138Y56780D01*
X22203Y56896D01*
X22271Y57010D01*
X22342Y57122D01*
X22417Y57232D01*
X22495Y57340D01*
X22576Y57446D01*
X22660Y57549D01*
X22747Y57649D01*
X22836Y57747D01*
X22929Y57843D01*
X23025Y57936D01*
X23123Y58025D01*
X23223Y58112D01*
X23326Y58196D01*
X23432Y58277D01*
X23540Y58355D01*
X23650Y58430D01*
X23762Y58501D01*
X23876Y58569D01*
X23992Y58634D01*
X24110Y58696D01*
X24230Y58754D01*
X24351Y58808D01*
X24474Y58859D01*
X24598Y58906D01*
X24724Y58950D01*
X24851Y58990D01*
X24979Y59026D01*
X25108Y59059D01*
X25237Y59088D01*
X25368Y59113D01*
X25499Y59134D01*
X25631Y59151D01*
X25764Y59165D01*
X25896Y59174D01*
X26029Y59180D01*
X26162Y59182D01*
X37338Y59182D01*
X37338Y24638D02*
X26162Y24638D01*
X41910Y29210D02*
X41910Y54610D01*
D11*
X93600Y213290D03*
X94000Y213290D03*
X94400Y213290D03*
X94800Y213290D03*
X95200Y213290D03*
X95600Y213290D03*
X96000Y213290D03*
D12*
X96400Y228490D03*
D13*
X96400Y207890D03*
D14*
X96800Y228890D03*
D15*
X96800Y219090D03*
D16*
X96800Y213090D03*
D17*
X96800Y207890D03*
D14*
X96800Y197690D03*
D18*
X97200Y229290D03*
D19*
X97200Y218890D03*
D20*
X97200Y213090D03*
D21*
X97200Y208090D03*
D18*
X97200Y197290D03*
D22*
X97600Y229490D03*
D17*
X97600Y218690D03*
D23*
X97600Y212890D03*
D21*
X97600Y208090D03*
D22*
X97600Y197090D03*
D24*
X98000Y229890D03*
D17*
X98000Y218690D03*
D23*
X98000Y212890D03*
D21*
X98000Y208090D03*
D25*
X98000Y196890D03*
D24*
X98400Y229890D03*
D17*
X98400Y218690D03*
D15*
X98400Y212690D03*
D21*
X98400Y208090D03*
D24*
X98400Y196690D03*
D26*
X98800Y230090D03*
D17*
X98800Y218690D03*
D27*
X98800Y212490D03*
D21*
X98800Y208090D03*
D26*
X98800Y196490D03*
D16*
X99200Y230290D03*
D27*
X99200Y222890D03*
D19*
X99200Y218890D03*
D28*
X99200Y212290D03*
D21*
X99200Y208090D03*
D28*
X99200Y203490D03*
D16*
X99200Y196290D03*
X99600Y230290D03*
D29*
X99600Y221490D03*
D28*
X99600Y212290D03*
D21*
X99600Y208090D03*
D27*
X99600Y203290D03*
D16*
X99600Y196290D03*
X100000Y230290D03*
D14*
X100000Y221690D03*
D19*
X100000Y212090D03*
D21*
X100000Y208090D03*
D15*
X100000Y203090D03*
D30*
X100000Y196090D03*
X100400Y230490D03*
D14*
X100400Y221690D03*
D17*
X100400Y211890D03*
D21*
X100400Y208090D03*
D23*
X100400Y202890D03*
D30*
X100400Y196090D03*
X100800Y230490D03*
D27*
X100800Y224490D03*
D17*
X100800Y218690D03*
D21*
X100800Y211690D03*
X100800Y208090D03*
D20*
X100800Y202690D03*
D30*
X100800Y196090D03*
X101200Y230490D03*
D28*
X101200Y224690D03*
D21*
X101200Y218490D03*
X101200Y211690D03*
X101200Y208090D03*
D20*
X101200Y202690D03*
D30*
X101200Y196090D03*
X101600Y230490D03*
D28*
X101600Y224690D03*
D21*
X101600Y218490D03*
D31*
X101600Y214890D03*
D32*
X101600Y211490D03*
D21*
X101600Y208090D03*
D20*
X101600Y202690D03*
D30*
X101600Y196090D03*
X102000Y230490D03*
D28*
X102000Y224690D03*
D21*
X102000Y218490D03*
D32*
X102000Y214690D03*
D31*
X102000Y211290D03*
D21*
X102000Y208090D03*
D20*
X102000Y202690D03*
D30*
X102000Y196090D03*
X102400Y230490D03*
D28*
X102400Y224690D03*
D21*
X102400Y218490D03*
D32*
X102400Y214690D03*
D21*
X102400Y208090D03*
D20*
X102400Y202690D03*
D30*
X102400Y196090D03*
X102800Y230490D03*
D20*
X102800Y223490D03*
D21*
X102800Y218490D03*
X102800Y214490D03*
X102800Y208090D03*
D23*
X102800Y202890D03*
D30*
X102800Y196090D03*
D16*
X103200Y230290D03*
D20*
X103200Y223490D03*
D21*
X103200Y218490D03*
D17*
X103200Y214290D03*
D21*
X103200Y208090D03*
D23*
X103200Y202890D03*
D30*
X103200Y196090D03*
D16*
X103600Y230290D03*
D23*
X103600Y223290D03*
D21*
X103600Y218490D03*
D19*
X103600Y214090D03*
D21*
X103600Y208090D03*
D15*
X103600Y203090D03*
D16*
X103600Y196290D03*
X104000Y230290D03*
D15*
X104000Y223090D03*
D21*
X104000Y218490D03*
D19*
X104000Y214090D03*
D21*
X104000Y208090D03*
D27*
X104000Y203290D03*
D16*
X104000Y196290D03*
D26*
X104400Y230090D03*
D19*
X104400Y222890D03*
D21*
X104400Y218490D03*
D28*
X104400Y213890D03*
D21*
X104400Y208090D03*
D17*
X104400Y203890D03*
D26*
X104400Y196490D03*
X104800Y230090D03*
D21*
X104800Y218490D03*
D27*
X104800Y213690D03*
D21*
X104800Y208090D03*
D26*
X104800Y196490D03*
D24*
X105200Y229890D03*
D21*
X105200Y218490D03*
D15*
X105200Y213490D03*
D21*
X105200Y208090D03*
D24*
X105200Y196690D03*
D25*
X105600Y229690D03*
D21*
X105600Y218490D03*
D15*
X105600Y213490D03*
D21*
X105600Y208090D03*
D25*
X105600Y196890D03*
D22*
X106000Y229490D03*
D17*
X106000Y218690D03*
D23*
X106000Y213290D03*
D21*
X106000Y208090D03*
D22*
X106000Y197090D03*
D29*
X106400Y229090D03*
D28*
X106400Y218690D03*
D30*
X106400Y213290D03*
D17*
X106400Y207890D03*
D29*
X106400Y197490D03*
D33*
X106800Y228690D03*
D15*
X106800Y219090D03*
D16*
X106800Y213090D03*
D19*
X106800Y208090D03*
D12*
X106800Y198090D03*
D11*
X107200Y213290D03*
X107600Y213290D03*
X108000Y213290D03*
X108400Y213290D03*
X108800Y213290D03*
X109200Y213290D03*
X109600Y213290D03*
D34*
X169800Y216290D03*
D35*
X170200Y215690D03*
D36*
X170600Y215290D03*
D37*
X171000Y214890D03*
D38*
X171400Y214690D03*
D39*
X171800Y214490D03*
D40*
X172200Y214290D03*
D29*
X172600Y229090D03*
D12*
X172600Y219290D03*
D41*
X172600Y204490D03*
D25*
X173000Y229690D03*
X173000Y219290D03*
D27*
X173000Y210890D03*
D42*
X173000Y201290D03*
D24*
X173400Y229890D03*
D30*
X173400Y219290D03*
D17*
X173400Y210690D03*
D42*
X173400Y201290D03*
D26*
X173800Y230090D03*
D15*
X173800Y219490D03*
D21*
X173800Y210490D03*
D42*
X173800Y200890D03*
D26*
X174200Y230090D03*
D27*
X174200Y219690D03*
D32*
X174200Y210290D03*
D42*
X174200Y200890D03*
D16*
X174600Y230290D03*
D27*
X174600Y220090D03*
D32*
X174600Y210290D03*
D43*
X174600Y200690D03*
D16*
X175000Y230290D03*
D17*
X175000Y224290D03*
D28*
X175000Y220290D03*
D21*
X175000Y210490D03*
D43*
X175000Y200690D03*
D16*
X175400Y230290D03*
D28*
X175400Y224290D03*
D27*
X175400Y220490D03*
X175400Y214490D03*
D17*
X175400Y210690D03*
D43*
X175400Y200690D03*
D16*
X175800Y230290D03*
D25*
X175800Y222490D03*
D20*
X175800Y214290D03*
D19*
X175800Y210890D03*
D44*
X175800Y200490D03*
D16*
X176200Y230290D03*
D24*
X176200Y222290D03*
D18*
X176200Y213290D03*
D44*
X176200Y200490D03*
D16*
X176600Y230290D03*
X176600Y221890D03*
D29*
X176600Y213490D03*
D44*
X176600Y200490D03*
D16*
X177000Y230290D03*
D27*
X177000Y221290D03*
D29*
X177000Y213490D03*
D44*
X177000Y200490D03*
D26*
X177400Y230090D03*
D19*
X177400Y220890D03*
D29*
X177400Y213490D03*
D44*
X177400Y200490D03*
D24*
X177800Y229890D03*
D21*
X177800Y220490D03*
D29*
X177800Y213490D03*
D44*
X177800Y200490D03*
D25*
X178200Y229690D03*
D21*
X178200Y220490D03*
D29*
X178200Y213490D03*
D44*
X178200Y200490D03*
D18*
X178600Y229290D03*
D32*
X178600Y220290D03*
D29*
X178600Y213490D03*
D44*
X178600Y200490D03*
D12*
X179000Y228490D03*
D21*
X179000Y220090D03*
D29*
X179000Y213490D03*
D44*
X179000Y200490D03*
D45*
X179400Y228090D03*
D21*
X179400Y220090D03*
D29*
X179400Y213490D03*
D44*
X179400Y200490D03*
D26*
X179800Y230090D03*
D15*
X179800Y224690D03*
D21*
X179800Y220090D03*
D18*
X179800Y213290D03*
D44*
X179800Y200490D03*
D16*
X180200Y230290D03*
D27*
X180200Y224490D03*
D17*
X180200Y219890D03*
D23*
X180200Y214490D03*
D17*
X180200Y210690D03*
D43*
X180200Y200690D03*
D16*
X180600Y230290D03*
D28*
X180600Y224290D03*
D17*
X180600Y219890D03*
D19*
X180600Y214490D03*
D21*
X180600Y210490D03*
D43*
X180600Y200690D03*
D30*
X181000Y230490D03*
D19*
X181000Y219690D03*
D21*
X181000Y210490D03*
D43*
X181000Y200690D03*
D16*
X181400Y230290D03*
D19*
X181400Y219690D03*
D32*
X181400Y210290D03*
D14*
X181400Y198490D03*
D16*
X181800Y230290D03*
D27*
X181800Y219690D03*
D32*
X181800Y210290D03*
D14*
X181800Y198490D03*
D26*
X182200Y230090D03*
D20*
X182200Y219490D03*
D21*
X182200Y210490D03*
D29*
X182200Y198690D03*
D25*
X182600Y229690D03*
D16*
X182600Y219490D03*
D28*
X182600Y210690D03*
D29*
X182600Y198690D03*
D22*
X183000Y229490D03*
X183000Y219490D03*
D15*
X183000Y211090D03*
D29*
X183000Y199090D03*
D40*
X183400Y214290D03*
D39*
X183800Y214490D03*
D38*
X184200Y214690D03*
D37*
X184600Y214890D03*
D36*
X185000Y215290D03*
D35*
X185400Y215690D03*
D34*
X185800Y216290D03*
D46*
X144400Y215090D03*
D39*
X144800Y214490D03*
D47*
X145200Y214090D03*
D48*
X145600Y213690D03*
D49*
X146000Y213490D03*
D11*
X146400Y213290D03*
D50*
X146800Y213090D03*
D29*
X147200Y229090D03*
D51*
X147200Y208290D03*
D22*
X147600Y229490D03*
D27*
X147600Y220890D03*
D33*
X147600Y209890D03*
D52*
X147600Y198490D03*
D24*
X148000Y229890D03*
D19*
X148000Y220490D03*
D18*
X148000Y209690D03*
D53*
X148000Y198290D03*
D26*
X148400Y230090D03*
D17*
X148400Y220290D03*
D24*
X148400Y209490D03*
D52*
X148400Y198090D03*
D26*
X148800Y230090D03*
D17*
X148800Y220290D03*
D26*
X148800Y209290D03*
D53*
X148800Y197890D03*
D16*
X149200Y230290D03*
D17*
X149200Y220290D03*
D30*
X149200Y209290D03*
D52*
X149200Y197690D03*
D16*
X149600Y230290D03*
D17*
X149600Y224290D03*
D19*
X149600Y220490D03*
D20*
X149600Y209090D03*
D53*
X149600Y197490D03*
D16*
X150000Y230290D03*
D28*
X150000Y224290D03*
X150000Y220690D03*
X150000Y215890D03*
D20*
X150000Y209090D03*
D53*
X150000Y197490D03*
D16*
X150400Y230290D03*
D25*
X150400Y222490D03*
D15*
X150400Y215490D03*
X150400Y209090D03*
D52*
X150400Y197290D03*
D16*
X150800Y230290D03*
D24*
X150800Y222290D03*
D23*
X150800Y215290D03*
D15*
X150800Y209090D03*
D53*
X150800Y197090D03*
D16*
X151200Y230290D03*
X151200Y221890D03*
D20*
X151200Y215090D03*
D28*
X151200Y209090D03*
D53*
X151200Y197090D03*
D26*
X151600Y230090D03*
D15*
X151600Y221090D03*
D20*
X151600Y215090D03*
D28*
X151600Y209090D03*
D54*
X151600Y196890D03*
D26*
X152000Y230090D03*
D19*
X152000Y220490D03*
D30*
X152000Y214890D03*
D19*
X152000Y209290D03*
D32*
X152000Y205090D03*
D54*
X152000Y196890D03*
D24*
X152400Y229890D03*
D17*
X152400Y220290D03*
D30*
X152400Y214890D03*
D19*
X152400Y209290D03*
D32*
X152400Y205090D03*
D55*
X152400Y196690D03*
D25*
X152800Y229690D03*
D21*
X152800Y220090D03*
D30*
X152800Y214890D03*
D17*
X152800Y209490D03*
D21*
X152800Y205290D03*
D55*
X152800Y196690D03*
D29*
X153200Y229090D03*
D21*
X153200Y220090D03*
D20*
X153200Y215090D03*
D17*
X153200Y209490D03*
X153200Y205090D03*
D56*
X153200Y196490D03*
D12*
X153600Y228490D03*
D21*
X153600Y220090D03*
D20*
X153600Y215090D03*
D21*
X153600Y209690D03*
D56*
X153600Y196490D03*
D57*
X154000Y227890D03*
D21*
X154000Y220090D03*
D20*
X154000Y215090D03*
D17*
X154000Y209890D03*
D57*
X154000Y196290D03*
D26*
X154400Y230090D03*
D15*
X154400Y224690D03*
D32*
X154400Y219890D03*
D23*
X154400Y215290D03*
D21*
X154400Y210090D03*
D57*
X154400Y196290D03*
D16*
X154800Y230290D03*
D27*
X154800Y224490D03*
D21*
X154800Y220090D03*
D15*
X154800Y215490D03*
D21*
X154800Y210090D03*
D58*
X154800Y196290D03*
D16*
X155200Y230290D03*
D28*
X155200Y224290D03*
D21*
X155200Y220090D03*
D17*
X155200Y215890D03*
D21*
X155200Y210490D03*
D58*
X155200Y196290D03*
D16*
X155600Y230290D03*
D21*
X155600Y220090D03*
D17*
X155600Y210690D03*
D20*
X155600Y205090D03*
D12*
X155600Y196090D03*
D16*
X156000Y230290D03*
D21*
X156000Y220090D03*
D17*
X156000Y211090D03*
D30*
X156000Y205290D03*
D33*
X156000Y196290D03*
D26*
X156400Y230090D03*
D17*
X156400Y220290D03*
X156400Y211090D03*
D16*
X156400Y205090D03*
D14*
X156400Y196090D03*
D26*
X156800Y230090D03*
D19*
X156800Y220490D03*
D28*
X156800Y211490D03*
D26*
X156800Y205290D03*
D29*
X156800Y196290D03*
D25*
X157200Y229690D03*
D28*
X157200Y220690D03*
D27*
X157200Y211690D03*
D24*
X157200Y205090D03*
D29*
X157200Y196290D03*
D18*
X157600Y229290D03*
D23*
X157600Y220890D03*
D30*
X157600Y212090D03*
D25*
X157600Y205290D03*
D14*
X157600Y196890D03*
D50*
X158000Y213090D03*
D11*
X158400Y213290D03*
D49*
X158800Y213490D03*
D48*
X159200Y213690D03*
D47*
X159600Y214090D03*
D39*
X160000Y214490D03*
D46*
X160400Y215090D03*
D59*
X21190Y32030D03*
D60*
X20890Y32030D03*
D61*
X20640Y32030D03*
D62*
X20340Y32030D03*
D63*
X19990Y32030D03*
D64*
X19690Y32030D03*
D65*
X19440Y32030D03*
D66*
X19190Y24230D03*
D67*
X19190Y33380D03*
D68*
X19190Y40730D03*
D69*
X18840Y22130D03*
D70*
X18840Y27530D03*
D71*
X18840Y32930D03*
D72*
X18840Y41480D03*
D73*
X18490Y22130D03*
D74*
X18490Y27380D03*
D75*
X18490Y32780D03*
D76*
X18490Y41780D03*
X18290Y21980D03*
D74*
X18290Y27380D03*
D77*
X18290Y32780D03*
D76*
X18290Y42080D03*
X17990Y21980D03*
D78*
X17990Y27230D03*
D79*
X17990Y32630D03*
D76*
X17990Y42080D03*
D80*
X17640Y21830D03*
D81*
X17640Y27230D03*
D82*
X17640Y29780D03*
D70*
X17640Y32630D03*
D80*
X17640Y42230D03*
D83*
X17290Y21830D03*
D78*
X17290Y27230D03*
D74*
X17290Y29780D03*
X17290Y32480D03*
D83*
X17290Y42230D03*
X17090Y21830D03*
D78*
X17090Y27230D03*
D74*
X17090Y29780D03*
D78*
X17090Y32330D03*
D79*
X17090Y36530D03*
D84*
X17090Y42080D03*
X16790Y21680D03*
D78*
X16790Y27230D03*
X16790Y29630D03*
X16790Y32330D03*
D85*
X16790Y36530D03*
D86*
X16790Y42080D03*
D72*
X16440Y21680D03*
D21*
X16440Y27380D03*
X16440Y29180D03*
X16440Y32180D03*
D54*
X16440Y40280D03*
D84*
X16090Y21680D03*
D85*
X16090Y28130D03*
D78*
X16090Y32030D03*
D87*
X16090Y40130D03*
D84*
X15790Y21680D03*
D79*
X15790Y27830D03*
D74*
X15790Y31880D03*
D87*
X15790Y40130D03*
D84*
X15590Y21680D03*
D88*
X15590Y27530D03*
X15590Y31730D03*
D89*
X15590Y39980D03*
D72*
X15240Y21680D03*
D21*
X15240Y27380D03*
D90*
X15240Y31580D03*
D91*
X15240Y39980D03*
D84*
X14890Y21680D03*
D78*
X14890Y27230D03*
D92*
X14890Y32180D03*
D89*
X14890Y39980D03*
D84*
X14690Y21680D03*
D78*
X14690Y27230D03*
D93*
X14690Y32330D03*
D89*
X14690Y39980D03*
D84*
X14390Y21680D03*
D78*
X14390Y27230D03*
D93*
X14390Y32330D03*
D87*
X14390Y40130D03*
D72*
X14040Y21680D03*
D81*
X14040Y27230D03*
D94*
X14040Y32330D03*
D95*
X14040Y40130D03*
D84*
X13690Y21680D03*
D74*
X13690Y27380D03*
D78*
X13690Y32330D03*
D96*
X13690Y40280D03*
D83*
X13390Y21830D03*
D76*
X13390Y29780D03*
D85*
X13390Y36530D03*
D97*
X13390Y41930D03*
D83*
X13190Y21830D03*
X13190Y29930D03*
D88*
X13190Y36530D03*
D84*
X13190Y42080D03*
D80*
X12840Y21830D03*
X12840Y29930D03*
X12840Y42230D03*
D76*
X12490Y21980D03*
D84*
X12490Y30080D03*
D76*
X12490Y42080D03*
X12290Y21980D03*
D97*
X12290Y30230D03*
D76*
X12290Y42080D03*
D73*
X11990Y22130D03*
D86*
X11990Y30380D03*
D73*
X11990Y41930D03*
D69*
X11640Y22130D03*
D98*
X11640Y30680D03*
D80*
X11640Y41630D03*
D73*
X11290Y22430D03*
D99*
X11290Y30830D03*
D84*
X11290Y41180D03*
D100*
X10990Y32030D03*
D64*
X10690Y32030D03*
D63*
X10390Y32030D03*
D101*
X10190Y32030D03*
D102*
X9890Y32030D03*
D60*
X9590Y32030D03*
D59*
X9290Y32030D03*
D10*
X43180Y187960D02*
X58420Y187960D01*
X62992Y172212D02*
X62990Y172079D01*
X62984Y171946D01*
X62975Y171814D01*
X62961Y171681D01*
X62944Y171549D01*
X62923Y171418D01*
X62898Y171287D01*
X62869Y171158D01*
X62836Y171029D01*
X62800Y170901D01*
X62760Y170774D01*
X62716Y170648D01*
X62669Y170524D01*
X62618Y170401D01*
X62564Y170280D01*
X62506Y170160D01*
X62444Y170042D01*
X62379Y169926D01*
X62311Y169812D01*
X62240Y169700D01*
X62165Y169590D01*
X62087Y169482D01*
X62006Y169376D01*
X61922Y169273D01*
X61835Y169173D01*
X61746Y169075D01*
X61653Y168979D01*
X61557Y168886D01*
X61459Y168797D01*
X61359Y168710D01*
X61256Y168626D01*
X61150Y168545D01*
X61042Y168467D01*
X60932Y168392D01*
X60820Y168321D01*
X60706Y168253D01*
X60590Y168188D01*
X60472Y168126D01*
X60352Y168068D01*
X60231Y168014D01*
X60108Y167963D01*
X59984Y167916D01*
X59858Y167872D01*
X59731Y167832D01*
X59603Y167796D01*
X59474Y167763D01*
X59345Y167734D01*
X59214Y167709D01*
X59083Y167688D01*
X58951Y167671D01*
X58818Y167657D01*
X58686Y167648D01*
X58553Y167642D01*
X58420Y167640D01*
X43180Y167640D02*
X43047Y167642D01*
X42914Y167648D01*
X42782Y167657D01*
X42649Y167671D01*
X42517Y167688D01*
X42386Y167709D01*
X42255Y167734D01*
X42126Y167763D01*
X41997Y167796D01*
X41869Y167832D01*
X41742Y167872D01*
X41616Y167916D01*
X41492Y167963D01*
X41369Y168014D01*
X41248Y168068D01*
X41128Y168126D01*
X41010Y168188D01*
X40894Y168253D01*
X40780Y168321D01*
X40668Y168392D01*
X40558Y168467D01*
X40450Y168545D01*
X40344Y168626D01*
X40241Y168710D01*
X40141Y168797D01*
X40043Y168886D01*
X39947Y168979D01*
X39854Y169075D01*
X39765Y169173D01*
X39678Y169273D01*
X39594Y169376D01*
X39513Y169482D01*
X39435Y169590D01*
X39360Y169700D01*
X39289Y169812D01*
X39221Y169926D01*
X39156Y170042D01*
X39094Y170160D01*
X39036Y170280D01*
X38982Y170401D01*
X38931Y170524D01*
X38884Y170648D01*
X38840Y170774D01*
X38800Y170901D01*
X38764Y171029D01*
X38731Y171158D01*
X38702Y171287D01*
X38677Y171418D01*
X38656Y171549D01*
X38639Y171681D01*
X38625Y171814D01*
X38616Y171946D01*
X38610Y172079D01*
X38608Y172212D01*
X38608Y183388D02*
X38610Y183521D01*
X38616Y183654D01*
X38625Y183786D01*
X38639Y183919D01*
X38656Y184051D01*
X38677Y184182D01*
X38702Y184313D01*
X38731Y184442D01*
X38764Y184571D01*
X38800Y184699D01*
X38840Y184826D01*
X38884Y184952D01*
X38931Y185076D01*
X38982Y185199D01*
X39036Y185320D01*
X39094Y185440D01*
X39156Y185558D01*
X39221Y185674D01*
X39289Y185788D01*
X39360Y185900D01*
X39435Y186010D01*
X39513Y186118D01*
X39594Y186224D01*
X39678Y186327D01*
X39765Y186427D01*
X39854Y186525D01*
X39947Y186621D01*
X40043Y186714D01*
X40141Y186803D01*
X40241Y186890D01*
X40344Y186974D01*
X40450Y187055D01*
X40558Y187133D01*
X40668Y187208D01*
X40780Y187279D01*
X40894Y187347D01*
X41010Y187412D01*
X41128Y187474D01*
X41248Y187532D01*
X41369Y187586D01*
X41492Y187637D01*
X41616Y187684D01*
X41742Y187728D01*
X41869Y187768D01*
X41997Y187804D01*
X42126Y187837D01*
X42255Y187866D01*
X42386Y187891D01*
X42517Y187912D01*
X42649Y187929D01*
X42782Y187943D01*
X42914Y187952D01*
X43047Y187958D01*
X43180Y187960D01*
X58420Y187960D02*
X58553Y187958D01*
X58686Y187952D01*
X58818Y187943D01*
X58951Y187929D01*
X59083Y187912D01*
X59214Y187891D01*
X59345Y187866D01*
X59474Y187837D01*
X59603Y187804D01*
X59731Y187768D01*
X59858Y187728D01*
X59984Y187684D01*
X60108Y187637D01*
X60231Y187586D01*
X60352Y187532D01*
X60472Y187474D01*
X60590Y187412D01*
X60706Y187347D01*
X60820Y187279D01*
X60932Y187208D01*
X61042Y187133D01*
X61150Y187055D01*
X61256Y186974D01*
X61359Y186890D01*
X61459Y186803D01*
X61557Y186714D01*
X61653Y186621D01*
X61746Y186525D01*
X61835Y186427D01*
X61922Y186327D01*
X62006Y186224D01*
X62087Y186118D01*
X62165Y186010D01*
X62240Y185900D01*
X62311Y185788D01*
X62379Y185674D01*
X62444Y185558D01*
X62506Y185440D01*
X62564Y185320D01*
X62618Y185199D01*
X62669Y185076D01*
X62716Y184952D01*
X62760Y184826D01*
X62800Y184699D01*
X62836Y184571D01*
X62869Y184442D01*
X62898Y184313D01*
X62923Y184182D01*
X62944Y184051D01*
X62961Y183919D01*
X62975Y183786D01*
X62984Y183654D01*
X62990Y183521D01*
X62992Y183388D01*
X62992Y172212D01*
X38608Y172212D02*
X38608Y183388D01*
X43180Y167640D02*
X58420Y167640D01*
X195580Y66040D02*
X210820Y66040D01*
X191008Y81788D02*
X191010Y81921D01*
X191016Y82054D01*
X191025Y82186D01*
X191039Y82319D01*
X191056Y82451D01*
X191077Y82582D01*
X191102Y82713D01*
X191131Y82842D01*
X191164Y82971D01*
X191200Y83099D01*
X191240Y83226D01*
X191284Y83352D01*
X191331Y83476D01*
X191382Y83599D01*
X191436Y83720D01*
X191494Y83840D01*
X191556Y83958D01*
X191621Y84074D01*
X191689Y84188D01*
X191760Y84300D01*
X191835Y84410D01*
X191913Y84518D01*
X191994Y84624D01*
X192078Y84727D01*
X192165Y84827D01*
X192254Y84925D01*
X192347Y85021D01*
X192443Y85114D01*
X192541Y85203D01*
X192641Y85290D01*
X192744Y85374D01*
X192850Y85455D01*
X192958Y85533D01*
X193068Y85608D01*
X193180Y85679D01*
X193294Y85747D01*
X193410Y85812D01*
X193528Y85874D01*
X193648Y85932D01*
X193769Y85986D01*
X193892Y86037D01*
X194016Y86084D01*
X194142Y86128D01*
X194269Y86168D01*
X194397Y86204D01*
X194526Y86237D01*
X194655Y86266D01*
X194786Y86291D01*
X194917Y86312D01*
X195049Y86329D01*
X195182Y86343D01*
X195314Y86352D01*
X195447Y86358D01*
X195580Y86360D01*
X210820Y86360D02*
X210953Y86358D01*
X211086Y86352D01*
X211218Y86343D01*
X211351Y86329D01*
X211483Y86312D01*
X211614Y86291D01*
X211745Y86266D01*
X211874Y86237D01*
X212003Y86204D01*
X212131Y86168D01*
X212258Y86128D01*
X212384Y86084D01*
X212508Y86037D01*
X212631Y85986D01*
X212752Y85932D01*
X212872Y85874D01*
X212990Y85812D01*
X213106Y85747D01*
X213220Y85679D01*
X213332Y85608D01*
X213442Y85533D01*
X213550Y85455D01*
X213656Y85374D01*
X213759Y85290D01*
X213859Y85203D01*
X213957Y85114D01*
X214053Y85021D01*
X214146Y84925D01*
X214235Y84827D01*
X214322Y84727D01*
X214406Y84624D01*
X214487Y84518D01*
X214565Y84410D01*
X214640Y84300D01*
X214711Y84188D01*
X214779Y84074D01*
X214844Y83958D01*
X214906Y83840D01*
X214964Y83720D01*
X215018Y83599D01*
X215069Y83476D01*
X215116Y83352D01*
X215160Y83226D01*
X215200Y83099D01*
X215236Y82971D01*
X215269Y82842D01*
X215298Y82713D01*
X215323Y82582D01*
X215344Y82451D01*
X215361Y82319D01*
X215375Y82186D01*
X215384Y82054D01*
X215390Y81921D01*
X215392Y81788D01*
X215392Y70612D02*
X215390Y70479D01*
X215384Y70346D01*
X215375Y70214D01*
X215361Y70081D01*
X215344Y69949D01*
X215323Y69818D01*
X215298Y69687D01*
X215269Y69558D01*
X215236Y69429D01*
X215200Y69301D01*
X215160Y69174D01*
X215116Y69048D01*
X215069Y68924D01*
X215018Y68801D01*
X214964Y68680D01*
X214906Y68560D01*
X214844Y68442D01*
X214779Y68326D01*
X214711Y68212D01*
X214640Y68100D01*
X214565Y67990D01*
X214487Y67882D01*
X214406Y67776D01*
X214322Y67673D01*
X214235Y67573D01*
X214146Y67475D01*
X214053Y67379D01*
X213957Y67286D01*
X213859Y67197D01*
X213759Y67110D01*
X213656Y67026D01*
X213550Y66945D01*
X213442Y66867D01*
X213332Y66792D01*
X213220Y66721D01*
X213106Y66653D01*
X212990Y66588D01*
X212872Y66526D01*
X212752Y66468D01*
X212631Y66414D01*
X212508Y66363D01*
X212384Y66316D01*
X212258Y66272D01*
X212131Y66232D01*
X212003Y66196D01*
X211874Y66163D01*
X211745Y66134D01*
X211614Y66109D01*
X211483Y66088D01*
X211351Y66071D01*
X211218Y66057D01*
X211086Y66048D01*
X210953Y66042D01*
X210820Y66040D01*
X195580Y66040D02*
X195447Y66042D01*
X195314Y66048D01*
X195182Y66057D01*
X195049Y66071D01*
X194917Y66088D01*
X194786Y66109D01*
X194655Y66134D01*
X194526Y66163D01*
X194397Y66196D01*
X194269Y66232D01*
X194142Y66272D01*
X194016Y66316D01*
X193892Y66363D01*
X193769Y66414D01*
X193648Y66468D01*
X193528Y66526D01*
X193410Y66588D01*
X193294Y66653D01*
X193180Y66721D01*
X193068Y66792D01*
X192958Y66867D01*
X192850Y66945D01*
X192744Y67026D01*
X192641Y67110D01*
X192541Y67197D01*
X192443Y67286D01*
X192347Y67379D01*
X192254Y67475D01*
X192165Y67573D01*
X192078Y67673D01*
X191994Y67776D01*
X191913Y67882D01*
X191835Y67990D01*
X191760Y68100D01*
X191689Y68212D01*
X191621Y68326D01*
X191556Y68442D01*
X191494Y68560D01*
X191436Y68680D01*
X191382Y68801D01*
X191331Y68924D01*
X191284Y69048D01*
X191240Y69174D01*
X191200Y69301D01*
X191164Y69429D01*
X191131Y69558D01*
X191102Y69687D01*
X191077Y69818D01*
X191056Y69949D01*
X191039Y70081D01*
X191025Y70214D01*
X191016Y70346D01*
X191010Y70479D01*
X191008Y70612D01*
X191008Y81788D01*
X215392Y81788D02*
X215392Y70612D01*
X210820Y86360D02*
X195580Y86360D01*
D11*
X160400Y40710D03*
X160000Y40710D03*
X159600Y40710D03*
X159200Y40710D03*
X158800Y40710D03*
X158400Y40710D03*
X158000Y40710D03*
D12*
X157600Y25510D03*
D13*
X157600Y46110D03*
D14*
X157200Y25110D03*
D15*
X157200Y34910D03*
D16*
X157200Y40910D03*
D17*
X157200Y46110D03*
D14*
X157200Y56310D03*
D18*
X156800Y24710D03*
D19*
X156800Y35110D03*
D20*
X156800Y40910D03*
D21*
X156800Y45910D03*
D18*
X156800Y56710D03*
D22*
X156400Y24510D03*
D17*
X156400Y35310D03*
D23*
X156400Y41110D03*
D21*
X156400Y45910D03*
D22*
X156400Y56910D03*
D24*
X156000Y24110D03*
D17*
X156000Y35310D03*
D23*
X156000Y41110D03*
D21*
X156000Y45910D03*
D25*
X156000Y57110D03*
D24*
X155600Y24110D03*
D17*
X155600Y35310D03*
D15*
X155600Y41310D03*
D21*
X155600Y45910D03*
D24*
X155600Y57310D03*
D26*
X155200Y23910D03*
D17*
X155200Y35310D03*
D27*
X155200Y41510D03*
D21*
X155200Y45910D03*
D26*
X155200Y57510D03*
D16*
X154800Y23710D03*
D27*
X154800Y31110D03*
D19*
X154800Y35110D03*
D28*
X154800Y41710D03*
D21*
X154800Y45910D03*
D28*
X154800Y50510D03*
D16*
X154800Y57710D03*
X154400Y23710D03*
D29*
X154400Y32510D03*
D28*
X154400Y41710D03*
D21*
X154400Y45910D03*
D27*
X154400Y50710D03*
D16*
X154400Y57710D03*
X154000Y23710D03*
D14*
X154000Y32310D03*
D19*
X154000Y41910D03*
D21*
X154000Y45910D03*
D15*
X154000Y50910D03*
D30*
X154000Y57910D03*
X153600Y23510D03*
D14*
X153600Y32310D03*
D17*
X153600Y42110D03*
D21*
X153600Y45910D03*
D23*
X153600Y51110D03*
D30*
X153600Y57910D03*
X153200Y23510D03*
D27*
X153200Y29510D03*
D17*
X153200Y35310D03*
D21*
X153200Y42310D03*
X153200Y45910D03*
D20*
X153200Y51310D03*
D30*
X153200Y57910D03*
X152800Y23510D03*
D28*
X152800Y29310D03*
D21*
X152800Y35510D03*
X152800Y42310D03*
X152800Y45910D03*
D20*
X152800Y51310D03*
D30*
X152800Y57910D03*
X152400Y23510D03*
D28*
X152400Y29310D03*
D21*
X152400Y35510D03*
D31*
X152400Y39110D03*
D32*
X152400Y42510D03*
D21*
X152400Y45910D03*
D20*
X152400Y51310D03*
D30*
X152400Y57910D03*
X152000Y23510D03*
D28*
X152000Y29310D03*
D21*
X152000Y35510D03*
D32*
X152000Y39310D03*
D31*
X152000Y42710D03*
D21*
X152000Y45910D03*
D20*
X152000Y51310D03*
D30*
X152000Y57910D03*
X151600Y23510D03*
D28*
X151600Y29310D03*
D21*
X151600Y35510D03*
D32*
X151600Y39310D03*
D21*
X151600Y45910D03*
D20*
X151600Y51310D03*
D30*
X151600Y57910D03*
X151200Y23510D03*
D20*
X151200Y30510D03*
D21*
X151200Y35510D03*
X151200Y39510D03*
X151200Y45910D03*
D23*
X151200Y51110D03*
D30*
X151200Y57910D03*
D16*
X150800Y23710D03*
D20*
X150800Y30510D03*
D21*
X150800Y35510D03*
D17*
X150800Y39710D03*
D21*
X150800Y45910D03*
D23*
X150800Y51110D03*
D30*
X150800Y57910D03*
D16*
X150400Y23710D03*
D23*
X150400Y30710D03*
D21*
X150400Y35510D03*
D19*
X150400Y39910D03*
D21*
X150400Y45910D03*
D15*
X150400Y50910D03*
D16*
X150400Y57710D03*
X150000Y23710D03*
D15*
X150000Y30910D03*
D21*
X150000Y35510D03*
D19*
X150000Y39910D03*
D21*
X150000Y45910D03*
D27*
X150000Y50710D03*
D16*
X150000Y57710D03*
D26*
X149600Y23910D03*
D19*
X149600Y31110D03*
D21*
X149600Y35510D03*
D28*
X149600Y40110D03*
D21*
X149600Y45910D03*
D17*
X149600Y50110D03*
D26*
X149600Y57510D03*
X149200Y23910D03*
D21*
X149200Y35510D03*
D27*
X149200Y40310D03*
D21*
X149200Y45910D03*
D26*
X149200Y57510D03*
D24*
X148800Y24110D03*
D21*
X148800Y35510D03*
D15*
X148800Y40510D03*
D21*
X148800Y45910D03*
D24*
X148800Y57310D03*
D25*
X148400Y24310D03*
D21*
X148400Y35510D03*
D15*
X148400Y40510D03*
D21*
X148400Y45910D03*
D25*
X148400Y57110D03*
D22*
X148000Y24510D03*
D17*
X148000Y35310D03*
D23*
X148000Y40710D03*
D21*
X148000Y45910D03*
D22*
X148000Y56910D03*
D29*
X147600Y24910D03*
D28*
X147600Y35310D03*
D30*
X147600Y40710D03*
D17*
X147600Y46110D03*
D29*
X147600Y56510D03*
D33*
X147200Y25310D03*
D15*
X147200Y34910D03*
D16*
X147200Y40910D03*
D19*
X147200Y45910D03*
D12*
X147200Y55910D03*
D11*
X146800Y40710D03*
X146400Y40710D03*
X146000Y40710D03*
X145600Y40710D03*
X145200Y40710D03*
X144800Y40710D03*
X144400Y40710D03*
D34*
X84200Y37710D03*
D35*
X83800Y38310D03*
D36*
X83400Y38710D03*
D37*
X83000Y39110D03*
D38*
X82600Y39310D03*
D39*
X82200Y39510D03*
D40*
X81800Y39710D03*
D29*
X81400Y24910D03*
D12*
X81400Y34710D03*
D41*
X81400Y49510D03*
D25*
X81000Y24310D03*
X81000Y34710D03*
D27*
X81000Y43110D03*
D42*
X81000Y52710D03*
D24*
X80600Y24110D03*
D30*
X80600Y34710D03*
D17*
X80600Y43310D03*
D42*
X80600Y52710D03*
D26*
X80200Y23910D03*
D15*
X80200Y34510D03*
D21*
X80200Y43510D03*
D42*
X80200Y53110D03*
D26*
X79800Y23910D03*
D27*
X79800Y34310D03*
D32*
X79800Y43710D03*
D42*
X79800Y53110D03*
D16*
X79400Y23710D03*
D27*
X79400Y33910D03*
D32*
X79400Y43710D03*
D43*
X79400Y53310D03*
D16*
X79000Y23710D03*
D17*
X79000Y29710D03*
D28*
X79000Y33710D03*
D21*
X79000Y43510D03*
D43*
X79000Y53310D03*
D16*
X78600Y23710D03*
D28*
X78600Y29710D03*
D27*
X78600Y33510D03*
X78600Y39510D03*
D17*
X78600Y43310D03*
D43*
X78600Y53310D03*
D16*
X78200Y23710D03*
D25*
X78200Y31510D03*
D20*
X78200Y39710D03*
D19*
X78200Y43110D03*
D44*
X78200Y53510D03*
D16*
X77800Y23710D03*
D24*
X77800Y31710D03*
D18*
X77800Y40710D03*
D44*
X77800Y53510D03*
D16*
X77400Y23710D03*
X77400Y32110D03*
D29*
X77400Y40510D03*
D44*
X77400Y53510D03*
D16*
X77000Y23710D03*
D27*
X77000Y32710D03*
D29*
X77000Y40510D03*
D44*
X77000Y53510D03*
D26*
X76600Y23910D03*
D19*
X76600Y33110D03*
D29*
X76600Y40510D03*
D44*
X76600Y53510D03*
D24*
X76200Y24110D03*
D21*
X76200Y33510D03*
D29*
X76200Y40510D03*
D44*
X76200Y53510D03*
D25*
X75800Y24310D03*
D21*
X75800Y33510D03*
D29*
X75800Y40510D03*
D44*
X75800Y53510D03*
D18*
X75400Y24710D03*
D32*
X75400Y33710D03*
D29*
X75400Y40510D03*
D44*
X75400Y53510D03*
D12*
X75000Y25510D03*
D21*
X75000Y33910D03*
D29*
X75000Y40510D03*
D44*
X75000Y53510D03*
D45*
X74600Y25910D03*
D21*
X74600Y33910D03*
D29*
X74600Y40510D03*
D44*
X74600Y53510D03*
D26*
X74200Y23910D03*
D15*
X74200Y29310D03*
D21*
X74200Y33910D03*
D18*
X74200Y40710D03*
D44*
X74200Y53510D03*
D16*
X73800Y23710D03*
D27*
X73800Y29510D03*
D17*
X73800Y34110D03*
D23*
X73800Y39510D03*
D17*
X73800Y43310D03*
D43*
X73800Y53310D03*
D16*
X73400Y23710D03*
D28*
X73400Y29710D03*
D17*
X73400Y34110D03*
D19*
X73400Y39510D03*
D21*
X73400Y43510D03*
D43*
X73400Y53310D03*
D30*
X73000Y23510D03*
D19*
X73000Y34310D03*
D21*
X73000Y43510D03*
D43*
X73000Y53310D03*
D16*
X72600Y23710D03*
D19*
X72600Y34310D03*
D32*
X72600Y43710D03*
D14*
X72600Y55510D03*
D16*
X72200Y23710D03*
D27*
X72200Y34310D03*
D32*
X72200Y43710D03*
D14*
X72200Y55510D03*
D26*
X71800Y23910D03*
D20*
X71800Y34510D03*
D21*
X71800Y43510D03*
D29*
X71800Y55310D03*
D25*
X71400Y24310D03*
D16*
X71400Y34510D03*
D28*
X71400Y43310D03*
D29*
X71400Y55310D03*
D22*
X71000Y24510D03*
X71000Y34510D03*
D15*
X71000Y42910D03*
D29*
X71000Y54910D03*
D40*
X70600Y39710D03*
D39*
X70200Y39510D03*
D38*
X69800Y39310D03*
D37*
X69400Y39110D03*
D36*
X69000Y38710D03*
D35*
X68600Y38310D03*
D34*
X68200Y37710D03*
D46*
X109600Y38910D03*
D39*
X109200Y39510D03*
D47*
X108800Y39910D03*
D48*
X108400Y40310D03*
D49*
X108000Y40510D03*
D11*
X107600Y40710D03*
D50*
X107200Y40910D03*
D29*
X106800Y24910D03*
D51*
X106800Y45710D03*
D22*
X106400Y24510D03*
D27*
X106400Y33110D03*
D33*
X106400Y44110D03*
D52*
X106400Y55510D03*
D24*
X106000Y24110D03*
D19*
X106000Y33510D03*
D18*
X106000Y44310D03*
D53*
X106000Y55710D03*
D26*
X105600Y23910D03*
D17*
X105600Y33710D03*
D24*
X105600Y44510D03*
D52*
X105600Y55910D03*
D26*
X105200Y23910D03*
D17*
X105200Y33710D03*
D26*
X105200Y44710D03*
D53*
X105200Y56110D03*
D16*
X104800Y23710D03*
D17*
X104800Y33710D03*
D30*
X104800Y44710D03*
D52*
X104800Y56310D03*
D16*
X104400Y23710D03*
D17*
X104400Y29710D03*
D19*
X104400Y33510D03*
D20*
X104400Y44910D03*
D53*
X104400Y56510D03*
D16*
X104000Y23710D03*
D28*
X104000Y29710D03*
X104000Y33310D03*
X104000Y38110D03*
D20*
X104000Y44910D03*
D53*
X104000Y56510D03*
D16*
X103600Y23710D03*
D25*
X103600Y31510D03*
D15*
X103600Y38510D03*
X103600Y44910D03*
D52*
X103600Y56710D03*
D16*
X103200Y23710D03*
D24*
X103200Y31710D03*
D23*
X103200Y38710D03*
D15*
X103200Y44910D03*
D53*
X103200Y56910D03*
D16*
X102800Y23710D03*
X102800Y32110D03*
D20*
X102800Y38910D03*
D28*
X102800Y44910D03*
D53*
X102800Y56910D03*
D26*
X102400Y23910D03*
D15*
X102400Y32910D03*
D20*
X102400Y38910D03*
D28*
X102400Y44910D03*
D54*
X102400Y57110D03*
D26*
X102000Y23910D03*
D19*
X102000Y33510D03*
D30*
X102000Y39110D03*
D19*
X102000Y44710D03*
D32*
X102000Y48910D03*
D54*
X102000Y57110D03*
D24*
X101600Y24110D03*
D17*
X101600Y33710D03*
D30*
X101600Y39110D03*
D19*
X101600Y44710D03*
D32*
X101600Y48910D03*
D55*
X101600Y57310D03*
D25*
X101200Y24310D03*
D21*
X101200Y33910D03*
D30*
X101200Y39110D03*
D17*
X101200Y44510D03*
D21*
X101200Y48710D03*
D55*
X101200Y57310D03*
D29*
X100800Y24910D03*
D21*
X100800Y33910D03*
D20*
X100800Y38910D03*
D17*
X100800Y44510D03*
X100800Y48910D03*
D56*
X100800Y57510D03*
D12*
X100400Y25510D03*
D21*
X100400Y33910D03*
D20*
X100400Y38910D03*
D21*
X100400Y44310D03*
D56*
X100400Y57510D03*
D57*
X100000Y26110D03*
D21*
X100000Y33910D03*
D20*
X100000Y38910D03*
D17*
X100000Y44110D03*
D57*
X100000Y57710D03*
D26*
X99600Y23910D03*
D15*
X99600Y29310D03*
D32*
X99600Y34110D03*
D23*
X99600Y38710D03*
D21*
X99600Y43910D03*
D57*
X99600Y57710D03*
D16*
X99200Y23710D03*
D27*
X99200Y29510D03*
D21*
X99200Y33910D03*
D15*
X99200Y38510D03*
D21*
X99200Y43910D03*
D58*
X99200Y57710D03*
D16*
X98800Y23710D03*
D28*
X98800Y29710D03*
D21*
X98800Y33910D03*
D17*
X98800Y38110D03*
D21*
X98800Y43510D03*
D58*
X98800Y57710D03*
D16*
X98400Y23710D03*
D21*
X98400Y33910D03*
D17*
X98400Y43310D03*
D20*
X98400Y48910D03*
D12*
X98400Y57910D03*
D16*
X98000Y23710D03*
D21*
X98000Y33910D03*
D17*
X98000Y42910D03*
D30*
X98000Y48710D03*
D33*
X98000Y57710D03*
D26*
X97600Y23910D03*
D17*
X97600Y33710D03*
X97600Y42910D03*
D16*
X97600Y48910D03*
D14*
X97600Y57910D03*
D26*
X97200Y23910D03*
D19*
X97200Y33510D03*
D28*
X97200Y42510D03*
D26*
X97200Y48710D03*
D29*
X97200Y57710D03*
D25*
X96800Y24310D03*
D28*
X96800Y33310D03*
D27*
X96800Y42310D03*
D24*
X96800Y48910D03*
D29*
X96800Y57710D03*
D18*
X96400Y24710D03*
D23*
X96400Y33110D03*
D30*
X96400Y41910D03*
D25*
X96400Y48710D03*
D14*
X96400Y57110D03*
D50*
X96000Y40910D03*
D11*
X95600Y40710D03*
D49*
X95200Y40510D03*
D48*
X94800Y40310D03*
D47*
X94400Y39910D03*
D39*
X94000Y39510D03*
D46*
X93600Y38910D03*
D103*
X118020Y141670D03*
D104*
X113270Y141670D03*
D105*
X142020Y141170D03*
X118020Y141170D03*
D106*
X113270Y141170D03*
D107*
X141770Y140670D03*
D105*
X118020Y140670D03*
D106*
X113270Y140670D03*
D108*
X141770Y140170D03*
D105*
X118020Y140170D03*
D106*
X113270Y140170D03*
D109*
X141770Y139670D03*
D105*
X118020Y139670D03*
D106*
X113270Y139670D03*
D110*
X141770Y139170D03*
D105*
X118020Y139170D03*
X113520Y139170D03*
D111*
X141770Y138670D03*
D112*
X118020Y138670D03*
D113*
X113270Y138670D03*
D114*
X141770Y138170D03*
D115*
X145270Y137670D03*
X138270Y137670D03*
D116*
X146020Y137170D03*
X137520Y137170D03*
D103*
X132520Y137170D03*
X127520Y137170D03*
D104*
X122270Y137170D03*
X117770Y137170D03*
X113270Y137170D03*
D106*
X105770Y137170D03*
X146270Y136670D03*
X137270Y136670D03*
D105*
X132520Y136670D03*
X127520Y136670D03*
X122020Y136670D03*
X118020Y136670D03*
D106*
X113270Y136670D03*
D107*
X105770Y136670D03*
D106*
X146270Y136170D03*
X137270Y136170D03*
X132770Y136170D03*
X127270Y136170D03*
X122270Y136170D03*
D105*
X118020Y136170D03*
D106*
X113270Y136170D03*
D117*
X105770Y136170D03*
D106*
X146770Y135670D03*
X136770Y135670D03*
X132270Y135670D03*
X127270Y135670D03*
X122270Y135670D03*
D105*
X118020Y135670D03*
D106*
X113270Y135670D03*
D108*
X105770Y135670D03*
D106*
X146770Y135170D03*
X136770Y135170D03*
X132270Y135170D03*
D116*
X127520Y135170D03*
D106*
X122270Y135170D03*
D105*
X118020Y135170D03*
D106*
X113270Y135170D03*
D118*
X106020Y135170D03*
D106*
X146770Y134670D03*
X136770Y134670D03*
X132270Y134670D03*
D115*
X127270Y134670D03*
D106*
X122770Y134670D03*
D105*
X118020Y134670D03*
D106*
X113270Y134670D03*
D118*
X106520Y134670D03*
D106*
X146770Y134170D03*
X136770Y134170D03*
X131770Y134170D03*
D115*
X127270Y134170D03*
D106*
X122770Y134170D03*
D105*
X118020Y134170D03*
D106*
X113270Y134170D03*
D115*
X108270Y134170D03*
D104*
X104270Y134170D03*
D119*
X146770Y133620D03*
X136770Y133620D03*
D120*
X127520Y133620D03*
D121*
X118020Y133620D03*
D119*
X113270Y133620D03*
X108770Y133620D03*
D122*
X104020Y133620D03*
D106*
X146770Y133070D03*
D105*
X137020Y133070D03*
D114*
X127270Y133070D03*
D105*
X118020Y133070D03*
D106*
X113270Y133070D03*
X108770Y133070D03*
X146270Y132570D03*
X137270Y132570D03*
D114*
X127270Y132570D03*
D105*
X118020Y132570D03*
D106*
X113270Y132570D03*
X109270Y132570D03*
D116*
X146020Y132170D03*
X137520Y132170D03*
D123*
X127520Y132170D03*
D105*
X118020Y132170D03*
D106*
X113270Y132170D03*
X108770Y132170D03*
D115*
X145770Y131670D03*
D116*
X138020Y131670D03*
D111*
X127270Y131670D03*
D105*
X118020Y131670D03*
D106*
X113270Y131670D03*
X108770Y131670D03*
D112*
X104020Y131670D03*
D124*
X145270Y131120D03*
D125*
X138020Y131120D03*
X130020Y131120D03*
D124*
X124770Y131120D03*
D121*
X118020Y131120D03*
D119*
X113270Y131120D03*
D124*
X108270Y131120D03*
D126*
X104270Y131120D03*
D127*
X141020Y130570D03*
D115*
X129770Y130570D03*
X124770Y130570D03*
D105*
X118020Y130570D03*
D106*
X113270Y130570D03*
D118*
X106520Y130570D03*
D127*
X140520Y130070D03*
D116*
X130020Y130070D03*
D115*
X124770Y130070D03*
D105*
X118020Y130070D03*
D106*
X113270Y130070D03*
D118*
X106020Y130070D03*
D128*
X140270Y129670D03*
D116*
X130020Y129670D03*
D106*
X124770Y129670D03*
D105*
X118020Y129670D03*
D106*
X113270Y129670D03*
D108*
X105770Y129670D03*
D129*
X140020Y129170D03*
D105*
X130020Y129170D03*
D106*
X124770Y129170D03*
D105*
X118020Y129170D03*
D106*
X113270Y129170D03*
D117*
X105770Y129170D03*
D130*
X142020Y128620D03*
D121*
X136020Y128620D03*
X130020Y128620D03*
D126*
X124770Y128620D03*
D121*
X118020Y128620D03*
D119*
X113270Y128620D03*
D131*
X105770Y128620D03*
D107*
X141770Y128070D03*
D103*
X136020Y128070D03*
X130020Y128070D03*
D113*
X124770Y128070D03*
D104*
X117770Y128070D03*
X113270Y128070D03*
D106*
X105770Y128070D03*
D113*
X141770Y127570D03*
D132*
X38970Y178790D03*
D133*
X38670Y178790D03*
D134*
X38420Y178790D03*
D135*
X38120Y178790D03*
D136*
X37770Y178790D03*
D137*
X37470Y178790D03*
D138*
X37220Y178790D03*
D139*
X36970Y178790D03*
D69*
X36620Y159590D03*
D16*
X36620Y166340D03*
D21*
X36620Y175040D03*
D25*
X36620Y182840D03*
D81*
X36620Y188090D03*
D140*
X36620Y191990D03*
D69*
X36620Y197990D03*
D67*
X36270Y159440D03*
D141*
X36270Y166190D03*
D92*
X36270Y175040D03*
D67*
X36270Y183140D03*
D78*
X36270Y188090D03*
D75*
X36270Y192140D03*
D67*
X36270Y198140D03*
D73*
X36070Y159290D03*
D142*
X36070Y166340D03*
D92*
X36070Y175040D03*
D143*
X36070Y183290D03*
D78*
X36070Y188090D03*
D75*
X36070Y192140D03*
D73*
X36070Y198290D03*
X35770Y159290D03*
D142*
X35770Y166340D03*
D92*
X35770Y175040D03*
D144*
X35770Y183440D03*
D78*
X35770Y188090D03*
D85*
X35770Y192290D03*
D73*
X35770Y198290D03*
D25*
X35420Y159140D03*
D145*
X35420Y166340D03*
D82*
X35420Y175040D03*
D146*
X35420Y183590D03*
D81*
X35420Y188090D03*
D28*
X35420Y192440D03*
D25*
X35420Y198440D03*
D76*
X35070Y159140D03*
D142*
X35070Y166340D03*
D78*
X35070Y174890D03*
D142*
X35070Y183740D03*
D78*
X35070Y188090D03*
D79*
X35070Y192590D03*
D76*
X35070Y198440D03*
X34870Y159140D03*
D142*
X34870Y166340D03*
D144*
X34870Y172940D03*
D147*
X34870Y178340D03*
D148*
X34870Y183890D03*
D78*
X34870Y188090D03*
D79*
X34870Y192590D03*
D76*
X34870Y198440D03*
D83*
X34570Y158990D03*
D142*
X34570Y166340D03*
D144*
X34570Y172940D03*
D79*
X34570Y178490D03*
D148*
X34570Y183890D03*
D78*
X34570Y188090D03*
D147*
X34570Y192740D03*
D83*
X34570Y198590D03*
D80*
X34220Y158990D03*
D145*
X34220Y166340D03*
D16*
X34220Y172940D03*
D28*
X34220Y178640D03*
D23*
X34220Y184040D03*
D81*
X34220Y188090D03*
D70*
X34220Y192890D03*
D80*
X34220Y198590D03*
D83*
X33870Y158990D03*
D142*
X33870Y166340D03*
D144*
X33870Y172940D03*
D85*
X33870Y178790D03*
D149*
X33870Y184040D03*
D78*
X33870Y188090D03*
D74*
X33870Y193040D03*
D83*
X33870Y198590D03*
X33570Y158990D03*
D142*
X33570Y166340D03*
D79*
X33570Y174290D03*
D75*
X33570Y178940D03*
D149*
X33570Y184040D03*
D78*
X33570Y188090D03*
D74*
X33570Y193040D03*
D83*
X33570Y198590D03*
X33370Y158990D03*
D142*
X33370Y166340D03*
D147*
X33370Y174440D03*
D75*
X33370Y178940D03*
D149*
X33370Y184040D03*
D78*
X33370Y188090D03*
X33370Y193190D03*
D83*
X33370Y198590D03*
D80*
X33020Y158990D03*
D145*
X33020Y166340D03*
D90*
X33020Y174440D03*
D150*
X33020Y178940D03*
D23*
X33020Y184040D03*
D81*
X33020Y188090D03*
D82*
X33020Y190640D03*
X33020Y193340D03*
D80*
X33020Y198590D03*
D83*
X32670Y158990D03*
D142*
X32670Y166340D03*
D147*
X32670Y174440D03*
D75*
X32670Y178940D03*
D149*
X32670Y184040D03*
D78*
X32670Y188090D03*
D92*
X32670Y190640D03*
D93*
X32670Y193490D03*
D83*
X32670Y198590D03*
X32470Y158990D03*
D142*
X32470Y166340D03*
D147*
X32470Y174440D03*
D75*
X32470Y178940D03*
D149*
X32470Y184040D03*
D78*
X32470Y188090D03*
X32470Y190790D03*
D83*
X32470Y198590D03*
X32170Y158990D03*
D142*
X32170Y166340D03*
D79*
X32170Y174290D03*
D85*
X32170Y178790D03*
D149*
X32170Y184040D03*
D78*
X32170Y188090D03*
D74*
X32170Y190940D03*
D83*
X32170Y198590D03*
D80*
X31820Y158990D03*
D145*
X31820Y166340D03*
D16*
X31820Y172940D03*
D151*
X31820Y178790D03*
D23*
X31820Y184040D03*
D81*
X31820Y188090D03*
D70*
X31820Y191090D03*
D80*
X31820Y198590D03*
D83*
X31470Y158990D03*
D142*
X31470Y166340D03*
D144*
X31470Y172940D03*
D77*
X31470Y178640D03*
D148*
X31470Y183890D03*
D78*
X31470Y188090D03*
D88*
X31470Y191090D03*
D83*
X31470Y198590D03*
D76*
X31170Y159140D03*
D142*
X31170Y166340D03*
D144*
X31170Y172940D03*
D79*
X31170Y178490D03*
D148*
X31170Y183890D03*
D78*
X31170Y188090D03*
D147*
X31170Y191240D03*
D76*
X31170Y198440D03*
X30970Y159140D03*
D142*
X30970Y166340D03*
D144*
X30970Y172940D03*
D74*
X30970Y178040D03*
D142*
X30970Y183740D03*
D78*
X30970Y188090D03*
D79*
X30970Y191390D03*
D76*
X30970Y198440D03*
D25*
X30620Y159140D03*
D145*
X30620Y166340D03*
D81*
X30620Y174890D03*
D145*
X30620Y183740D03*
D81*
X30620Y188090D03*
D28*
X30620Y191540D03*
D25*
X30620Y198440D03*
D73*
X30270Y159290D03*
D92*
X30270Y168140D03*
X30270Y175040D03*
D141*
X30270Y183590D03*
D78*
X30270Y188090D03*
D77*
X30270Y191540D03*
D73*
X30270Y198290D03*
X30070Y159290D03*
D92*
X30070Y168140D03*
X30070Y175040D03*
D144*
X30070Y183440D03*
D78*
X30070Y188090D03*
D85*
X30070Y191690D03*
D73*
X30070Y198290D03*
D67*
X29770Y159440D03*
D92*
X29770Y168140D03*
X29770Y175040D03*
D143*
X29770Y183290D03*
D78*
X29770Y188090D03*
D75*
X29770Y191840D03*
D67*
X29770Y198140D03*
D69*
X29420Y159590D03*
D81*
X29420Y168290D03*
X29420Y175190D03*
D69*
X29420Y182990D03*
D81*
X29420Y188090D03*
D140*
X29420Y191990D03*
D152*
X29420Y198140D03*
D67*
X29070Y159740D03*
D74*
X29070Y168140D03*
X29070Y175040D03*
D97*
X29070Y182690D03*
D88*
X29070Y188090D03*
D148*
X29070Y191990D03*
D67*
X29070Y197840D03*
D153*
X28770Y178790D03*
D137*
X28470Y178790D03*
D136*
X28170Y178790D03*
D154*
X27970Y178790D03*
D155*
X27670Y178790D03*
D133*
X27370Y178790D03*
D132*
X27070Y178790D03*
D156*
X203230Y98660D03*
D157*
X203230Y98360D03*
D158*
X203230Y98110D03*
D159*
X203230Y97810D03*
D160*
X203230Y97460D03*
D161*
X203230Y97160D03*
D162*
X203230Y96910D03*
D163*
X215980Y96660D03*
D164*
X186580Y96660D03*
D165*
X229330Y96310D03*
D166*
X222580Y96310D03*
D167*
X213730Y96310D03*
D168*
X205030Y96310D03*
D169*
X196180Y96310D03*
D170*
X191230Y96310D03*
D167*
X187330Y96310D03*
D171*
X176980Y96310D03*
D172*
X229480Y95960D03*
D173*
X222430Y95960D03*
D174*
X213730Y95960D03*
D175*
X205030Y95960D03*
D176*
X195880Y95960D03*
D177*
X191230Y95960D03*
D178*
X187480Y95960D03*
D179*
X176680Y95960D03*
D172*
X229480Y95760D03*
D173*
X222430Y95760D03*
D174*
X213730Y95760D03*
D172*
X204880Y95760D03*
D180*
X195730Y95760D03*
D177*
X191230Y95760D03*
D178*
X187480Y95760D03*
D179*
X176680Y95760D03*
D181*
X229630Y95460D03*
D173*
X222430Y95460D03*
D174*
X213730Y95460D03*
D179*
X204880Y95460D03*
D182*
X195580Y95460D03*
D177*
X191230Y95460D03*
D174*
X187330Y95460D03*
D172*
X176680Y95460D03*
D183*
X229630Y95110D03*
D184*
X222430Y95110D03*
D167*
X213730Y95110D03*
D166*
X204880Y95110D03*
D185*
X195430Y95110D03*
D170*
X191230Y95110D03*
D167*
X187330Y95110D03*
D186*
X176680Y95110D03*
D181*
X229630Y94760D03*
D173*
X222430Y94760D03*
D187*
X213880Y94760D03*
D173*
X204730Y94760D03*
D188*
X195430Y94760D03*
D177*
X191230Y94760D03*
D189*
X185980Y94760D03*
D190*
X178030Y94760D03*
D191*
X229780Y94560D03*
D173*
X222430Y94560D03*
D192*
X215830Y94560D03*
D182*
X210580Y94560D03*
D193*
X204880Y94560D03*
D180*
X199330Y94560D03*
D187*
X195280Y94560D03*
D177*
X191230Y94560D03*
D189*
X185980Y94560D03*
D194*
X177880Y94560D03*
D191*
X229780Y94260D03*
D173*
X222430Y94260D03*
D192*
X215830Y94260D03*
D176*
X210280Y94260D03*
D195*
X204730Y94260D03*
D196*
X199330Y94260D03*
D187*
X195280Y94260D03*
D177*
X191230Y94260D03*
D189*
X185980Y94260D03*
D194*
X177880Y94260D03*
D197*
X229780Y93910D03*
D184*
X222430Y93910D03*
D198*
X215830Y93910D03*
D199*
X210130Y93910D03*
D200*
X204880Y93910D03*
D170*
X199330Y93910D03*
D167*
X195130Y93910D03*
D170*
X191230Y93910D03*
D200*
X185980Y93910D03*
D201*
X177880Y93910D03*
D191*
X229780Y93560D03*
D173*
X222430Y93560D03*
D192*
X215830Y93560D03*
D202*
X209980Y93560D03*
D189*
X204880Y93560D03*
X199480Y93560D03*
D174*
X195130Y93560D03*
D177*
X191230Y93560D03*
D189*
X185980Y93560D03*
D194*
X177880Y93560D03*
D191*
X229780Y93260D03*
D173*
X222430Y93260D03*
D180*
X214330Y93260D03*
D202*
X209980Y93260D03*
D177*
X204730Y93260D03*
D195*
X199330Y93260D03*
D174*
X195130Y93260D03*
D177*
X191230Y93260D03*
D189*
X185980Y93260D03*
D194*
X177880Y93260D03*
D191*
X229780Y93060D03*
D173*
X222430Y93060D03*
D180*
X214330Y93060D03*
D202*
X209980Y93060D03*
D177*
X204730Y93060D03*
D195*
X199330Y93060D03*
D174*
X195130Y93060D03*
D177*
X191230Y93060D03*
D189*
X185980Y93060D03*
D194*
X177880Y93060D03*
D197*
X229780Y92710D03*
D184*
X222430Y92710D03*
D203*
X214330Y92710D03*
D169*
X209980Y92710D03*
X204880Y92710D03*
D204*
X199330Y92710D03*
D167*
X195130Y92710D03*
D170*
X191230Y92710D03*
D200*
X185980Y92710D03*
D201*
X177880Y92710D03*
D191*
X229780Y92360D03*
D173*
X222430Y92360D03*
D180*
X214330Y92360D03*
D202*
X209980Y92360D03*
X204880Y92360D03*
D195*
X199330Y92360D03*
D174*
X195130Y92360D03*
D177*
X191230Y92360D03*
D189*
X185980Y92360D03*
D194*
X177880Y92360D03*
D191*
X229780Y92160D03*
D173*
X222430Y92160D03*
D180*
X214330Y92160D03*
D202*
X209980Y92160D03*
D177*
X204730Y92160D03*
D195*
X199330Y92160D03*
D174*
X195130Y92160D03*
D177*
X191230Y92160D03*
D189*
X185980Y92160D03*
D194*
X177880Y92160D03*
D191*
X229780Y91860D03*
D173*
X222430Y91860D03*
D176*
X214480Y91860D03*
D202*
X209980Y91860D03*
D189*
X204880Y91860D03*
D195*
X199330Y91860D03*
D174*
X195130Y91860D03*
D177*
X191230Y91860D03*
D189*
X185980Y91860D03*
D194*
X177880Y91860D03*
D197*
X229780Y91510D03*
D184*
X222430Y91510D03*
D198*
X215830Y91510D03*
D199*
X210130Y91510D03*
D200*
X204880Y91510D03*
D170*
X199330Y91510D03*
D167*
X195130Y91510D03*
D199*
X191230Y91510D03*
D200*
X185980Y91510D03*
D201*
X177880Y91510D03*
D191*
X229780Y91160D03*
D173*
X222430Y91160D03*
D192*
X215830Y91160D03*
D196*
X210130Y91160D03*
D189*
X204880Y91160D03*
D177*
X199330Y91160D03*
D187*
X194980Y91160D03*
D196*
X191230Y91160D03*
D189*
X185980Y91160D03*
D194*
X177880Y91160D03*
D191*
X229780Y90860D03*
D173*
X222430Y90860D03*
D192*
X215830Y90860D03*
D180*
X210430Y90860D03*
D193*
X204880Y90860D03*
D196*
X199330Y90860D03*
D188*
X195130Y90860D03*
D180*
X191230Y90860D03*
D195*
X186130Y90860D03*
D194*
X177880Y90860D03*
D181*
X229630Y90660D03*
D173*
X222430Y90660D03*
D192*
X215830Y90660D03*
D188*
X210730Y90660D03*
D193*
X204880Y90660D03*
D188*
X199330Y90660D03*
X195130Y90660D03*
X191230Y90660D03*
D195*
X186130Y90660D03*
D190*
X178030Y90660D03*
D183*
X229630Y90310D03*
D184*
X222430Y90310D03*
D167*
X213730Y90310D03*
D166*
X204880Y90310D03*
D203*
X195130Y90310D03*
D205*
X186280Y90310D03*
D206*
X178030Y90310D03*
D181*
X229630Y89960D03*
D174*
X220630Y89960D03*
X213730Y89960D03*
D192*
X205030Y89960D03*
D176*
X195280Y89960D03*
D193*
X186280Y89960D03*
D190*
X178030Y89960D03*
D172*
X229480Y89760D03*
D174*
X220630Y89760D03*
X213730Y89760D03*
D207*
X205030Y89760D03*
D196*
X195130Y89760D03*
D173*
X186430Y89760D03*
D208*
X178180Y89760D03*
D172*
X229480Y89460D03*
D174*
X220630Y89460D03*
X213730Y89460D03*
D181*
X205030Y89460D03*
D177*
X195130Y89460D03*
D209*
X186580Y89460D03*
D208*
X178180Y89460D03*
D165*
X229330Y89110D03*
D167*
X220630Y89110D03*
X213730Y89110D03*
D210*
X204880Y89110D03*
D205*
X195280Y89110D03*
D198*
X186730Y89110D03*
D168*
X178330Y89110D03*
D179*
X229180Y88760D03*
D188*
X220630Y88760D03*
X213730Y88760D03*
D190*
X205030Y88760D03*
D179*
X195280Y88760D03*
D172*
X186880Y88760D03*
D211*
X178630Y88760D03*
D212*
X203230Y88460D03*
D161*
X203230Y88160D03*
D160*
X203230Y87860D03*
D213*
X203230Y87660D03*
D214*
X203230Y87360D03*
D157*
X203230Y87060D03*
D156*
X203230Y86760D03*
D115*
X148580Y122120D03*
D108*
X148080Y121620D03*
D109*
X147580Y121120D03*
D215*
X147330Y120620D03*
D110*
X147080Y120120D03*
X147080Y119620D03*
D216*
X146830Y119120D03*
D105*
X150330Y118620D03*
D116*
X143830Y118620D03*
D112*
X135830Y118620D03*
X111330Y118620D03*
D105*
X150330Y118120D03*
D106*
X143580Y118120D03*
D115*
X136080Y118120D03*
D103*
X128830Y118120D03*
X123830Y118120D03*
X118830Y118120D03*
D217*
X111330Y118120D03*
D104*
X104580Y118120D03*
X100580Y118120D03*
D105*
X150330Y117620D03*
X143330Y117620D03*
D218*
X135830Y117620D03*
D105*
X128830Y117620D03*
X123830Y117620D03*
X118330Y117620D03*
D117*
X111580Y117620D03*
D219*
X102330Y117620D03*
D105*
X150330Y117120D03*
X143330Y117120D03*
D219*
X135830Y117120D03*
D106*
X129080Y117120D03*
D105*
X123830Y117120D03*
D106*
X118580Y117120D03*
D108*
X111580Y117120D03*
D219*
X102330Y117120D03*
D105*
X150330Y116620D03*
D106*
X143580Y116620D03*
D118*
X135830Y116620D03*
D106*
X129080Y116620D03*
D116*
X123830Y116620D03*
D106*
X118580Y116620D03*
D109*
X111580Y116620D03*
D219*
X102330Y116620D03*
D105*
X150330Y116120D03*
D106*
X143580Y116120D03*
D215*
X135830Y116120D03*
D106*
X128580Y116120D03*
D116*
X123830Y116120D03*
D106*
X119080Y116120D03*
D109*
X111580Y116120D03*
D219*
X102330Y116120D03*
D216*
X146830Y115620D03*
D215*
X135830Y115620D03*
D106*
X128580Y115620D03*
D115*
X123580Y115620D03*
D106*
X119080Y115620D03*
D110*
X111580Y115620D03*
D219*
X102330Y115620D03*
D110*
X147080Y115120D03*
D116*
X138830Y115120D03*
X133330Y115120D03*
D109*
X125580Y115120D03*
D106*
X119080Y115120D03*
D116*
X114330Y115120D03*
D106*
X108580Y115120D03*
X104080Y115120D03*
D220*
X100080Y115120D03*
D221*
X147080Y114570D03*
D119*
X139080Y114570D03*
X132580Y114570D03*
D120*
X123830Y114570D03*
D119*
X114580Y114570D03*
X108580Y114570D03*
D121*
X104330Y114570D03*
D215*
X147330Y114020D03*
D106*
X139080Y114020D03*
X132580Y114020D03*
D129*
X123830Y114020D03*
D110*
X111580Y114020D03*
D105*
X104330Y114020D03*
D109*
X147580Y113520D03*
D106*
X139080Y113520D03*
X132580Y113520D03*
D123*
X123830Y113520D03*
D110*
X112080Y113520D03*
D105*
X104330Y113520D03*
D108*
X148080Y113120D03*
D106*
X139080Y113120D03*
X132580Y113120D03*
D123*
X123830Y113120D03*
D215*
X111830Y113120D03*
D105*
X104330Y113120D03*
D117*
X148580Y112620D03*
D106*
X139080Y112620D03*
D116*
X132830Y112620D03*
D111*
X123580Y112620D03*
D118*
X112330Y112620D03*
D105*
X104330Y112620D03*
D121*
X150330Y112070D03*
D222*
X138830Y112070D03*
X133330Y112070D03*
D125*
X126330Y112070D03*
D124*
X121080Y112070D03*
D119*
X114580Y112070D03*
D121*
X104330Y112070D03*
D105*
X150330Y111520D03*
D215*
X135830Y111520D03*
D115*
X126580Y111520D03*
X121080Y111520D03*
X114080Y111520D03*
D103*
X108830Y111520D03*
D105*
X104330Y111520D03*
X150330Y111020D03*
D215*
X135830Y111020D03*
D116*
X126330Y111020D03*
X121330Y111020D03*
D118*
X111830Y111020D03*
D105*
X104330Y111020D03*
X150330Y110620D03*
D118*
X135830Y110620D03*
D116*
X126330Y110620D03*
D106*
X121080Y110620D03*
D109*
X111580Y110620D03*
D105*
X104330Y110620D03*
X150330Y110120D03*
D219*
X135830Y110120D03*
D105*
X126330Y110120D03*
D106*
X121080Y110120D03*
D118*
X111330Y110120D03*
D105*
X104330Y110120D03*
D121*
X150330Y109570D03*
D223*
X135830Y109570D03*
D121*
X126330Y109570D03*
X121330Y109570D03*
D130*
X111330Y109570D03*
D121*
X104330Y109570D03*
D103*
X150330Y109020D03*
D116*
X135830Y109020D03*
D103*
X126330Y109020D03*
X121330Y109020D03*
D107*
X111080Y109020D03*
D104*
X104580Y109020D03*
D220*
X136080Y108520D03*
D104*
X111080Y108520D03*
D103*
X127100Y102300D03*
X105600Y102300D03*
D106*
X148350Y101800D03*
D105*
X127100Y101800D03*
X105600Y101800D03*
D107*
X148350Y101300D03*
D105*
X127100Y101300D03*
D113*
X121350Y101300D03*
D105*
X105600Y101300D03*
D219*
X148600Y100800D03*
D105*
X127100Y100800D03*
D104*
X121350Y100800D03*
D105*
X105600Y100800D03*
D118*
X148600Y100300D03*
D105*
X127100Y100300D03*
D106*
X121350Y100300D03*
D105*
X105600Y100300D03*
D109*
X148350Y99800D03*
D105*
X127100Y99800D03*
D106*
X121350Y99800D03*
D105*
X105600Y99800D03*
D109*
X148850Y99300D03*
D112*
X127100Y99300D03*
D106*
X121350Y99300D03*
D105*
X105600Y99300D03*
D116*
X151100Y98800D03*
D105*
X146100Y98800D03*
D106*
X121350Y98800D03*
D105*
X105600Y98800D03*
D106*
X151350Y98300D03*
D103*
X146100Y98300D03*
D106*
X121350Y98300D03*
D105*
X105600Y98300D03*
D106*
X151350Y97800D03*
D103*
X141600Y97800D03*
X136600Y97800D03*
X131600Y97800D03*
D104*
X127350Y97800D03*
D117*
X120850Y97800D03*
D116*
X111600Y97800D03*
D105*
X105600Y97800D03*
D104*
X101850Y97800D03*
D106*
X151350Y97300D03*
D105*
X141600Y97300D03*
X136600Y97300D03*
X131100Y97300D03*
X127100Y97300D03*
D108*
X120850Y97300D03*
D107*
X111850Y97300D03*
D108*
X103350Y97300D03*
D217*
X150600Y96800D03*
D106*
X141850Y96800D03*
D105*
X136600Y96800D03*
D106*
X131350Y96800D03*
D105*
X127100Y96800D03*
D108*
X120850Y96800D03*
D219*
X111600Y96800D03*
D118*
X103100Y96800D03*
D117*
X149350Y96300D03*
D106*
X141850Y96300D03*
D116*
X136600Y96300D03*
D106*
X131350Y96300D03*
D105*
X127100Y96300D03*
D108*
X120850Y96300D03*
X111850Y96300D03*
D109*
X102850Y96300D03*
D108*
X148850Y95800D03*
D106*
X141350Y95800D03*
D116*
X136600Y95800D03*
D106*
X131850Y95800D03*
D105*
X127100Y95800D03*
D108*
X120850Y95800D03*
D118*
X112100Y95800D03*
D215*
X102600Y95800D03*
D108*
X148350Y95300D03*
D106*
X141350Y95300D03*
D115*
X136350Y95300D03*
D106*
X131850Y95300D03*
D105*
X127100Y95300D03*
D108*
X120850Y95300D03*
X112350Y95300D03*
D215*
X102600Y95300D03*
D108*
X147850Y94800D03*
D109*
X138350Y94800D03*
D106*
X131850Y94800D03*
D105*
X127100Y94800D03*
D116*
X121600Y94800D03*
D112*
X118600Y94800D03*
D115*
X114350Y94800D03*
D104*
X109850Y94800D03*
D215*
X102600Y94800D03*
D130*
X147100Y94250D03*
D120*
X136600Y94250D03*
D121*
X127100Y94250D03*
D119*
X121350Y94250D03*
X114850Y94250D03*
D122*
X110100Y94250D03*
D119*
X105350Y94250D03*
X99350Y94250D03*
D217*
X146100Y93700D03*
D129*
X136600Y93700D03*
D105*
X127100Y93700D03*
D106*
X121350Y93700D03*
X114850Y93700D03*
D105*
X105600Y93700D03*
D106*
X99350Y93700D03*
X145350Y93200D03*
D123*
X136600Y93200D03*
D105*
X127100Y93200D03*
D106*
X121350Y93200D03*
X114850Y93200D03*
D105*
X105600Y93200D03*
D106*
X99350Y93200D03*
D103*
X151600Y92800D03*
D106*
X145350Y92800D03*
D123*
X136600Y92800D03*
D105*
X127100Y92800D03*
D106*
X121350Y92800D03*
X114850Y92800D03*
D105*
X105600Y92800D03*
D106*
X99350Y92800D03*
D105*
X151600Y92300D03*
D106*
X145350Y92300D03*
D111*
X136350Y92300D03*
D105*
X127100Y92300D03*
D106*
X121350Y92300D03*
X114850Y92300D03*
D112*
X110100Y92300D03*
D105*
X105600Y92300D03*
D106*
X99350Y92300D03*
D119*
X151350Y91750D03*
X145350Y91750D03*
D125*
X139100Y91750D03*
D124*
X133850Y91750D03*
D121*
X127100Y91750D03*
D119*
X121350Y91750D03*
D124*
X114350Y91750D03*
D126*
X110350Y91750D03*
D121*
X105600Y91750D03*
D119*
X99350Y91750D03*
D110*
X148350Y91200D03*
D115*
X139350Y91200D03*
X133850Y91200D03*
D105*
X127100Y91200D03*
D107*
X120350Y91200D03*
D108*
X112350Y91200D03*
D105*
X105600Y91200D03*
D106*
X99350Y91200D03*
D215*
X148600Y90700D03*
D116*
X139100Y90700D03*
X134100Y90700D03*
D105*
X127100Y90700D03*
D217*
X120100Y90700D03*
D118*
X112100Y90700D03*
D105*
X105600Y90700D03*
D106*
X99350Y90700D03*
D109*
X148350Y90300D03*
D116*
X139100Y90300D03*
D106*
X133850Y90300D03*
D105*
X127100Y90300D03*
D217*
X120100Y90300D03*
D108*
X111850Y90300D03*
D105*
X105600Y90300D03*
D106*
X99350Y90300D03*
D108*
X148350Y89800D03*
D105*
X139100Y89800D03*
D106*
X133850Y89800D03*
D105*
X127100Y89800D03*
D217*
X120100Y89800D03*
D117*
X111850Y89800D03*
D105*
X105600Y89800D03*
D106*
X99350Y89800D03*
D224*
X148350Y89250D03*
D121*
X139100Y89250D03*
X134100Y89250D03*
X127100Y89250D03*
D124*
X119850Y89250D03*
D131*
X111850Y89250D03*
D121*
X105600Y89250D03*
D119*
X99350Y89250D03*
D115*
X148350Y88700D03*
D103*
X139100Y88700D03*
X134100Y88700D03*
D104*
X127350Y88700D03*
D105*
X119600Y88700D03*
D116*
X111600Y88700D03*
D104*
X105850Y88700D03*
X99350Y88700D03*
D112*
X148600Y88200D03*
D225*
X185800Y44510D03*
D226*
X185400Y45110D03*
D227*
X185000Y45510D03*
D228*
X184600Y45910D03*
D229*
X184200Y46110D03*
D230*
X183800Y46310D03*
D231*
X183400Y46510D03*
D58*
X183000Y25710D03*
D232*
X183000Y42910D03*
D233*
X183000Y63510D03*
D14*
X182600Y25110D03*
D15*
X182600Y34910D03*
D23*
X182600Y43910D03*
D30*
X182600Y49910D03*
D18*
X182600Y59510D03*
D14*
X182600Y68710D03*
D18*
X182200Y24710D03*
D28*
X182200Y35310D03*
X182200Y44110D03*
D23*
X182200Y49510D03*
D24*
X182200Y59710D03*
D14*
X182200Y68710D03*
D22*
X181800Y24510D03*
D19*
X181800Y35510D03*
X181800Y44310D03*
D27*
X181800Y49510D03*
D16*
X181800Y59710D03*
D33*
X181800Y68910D03*
D25*
X181400Y24310D03*
D17*
X181400Y35710D03*
X181400Y44510D03*
D28*
X181400Y49310D03*
D20*
X181400Y59710D03*
D33*
X181400Y68910D03*
D24*
X181000Y24110D03*
D19*
X181000Y35510D03*
D21*
X181000Y44710D03*
D19*
X181000Y49110D03*
D27*
X181000Y59510D03*
D12*
X181000Y69110D03*
D26*
X180600Y23910D03*
D19*
X180600Y35510D03*
D21*
X180600Y44710D03*
D17*
X180600Y48910D03*
D19*
X180600Y59510D03*
D12*
X180600Y69110D03*
D26*
X180200Y23910D03*
D27*
X180200Y31110D03*
D28*
X180200Y35310D03*
X180200Y40110D03*
D21*
X180200Y44710D03*
X180200Y48710D03*
D28*
X180200Y54110D03*
D21*
X180200Y59510D03*
D12*
X180200Y69110D03*
D16*
X179800Y23710D03*
D29*
X179800Y32910D03*
D27*
X179800Y40310D03*
D32*
X179800Y44910D03*
D21*
X179800Y48710D03*
D23*
X179800Y53910D03*
D21*
X179800Y59510D03*
D58*
X179800Y69310D03*
D16*
X179400Y23710D03*
D14*
X179400Y32710D03*
D15*
X179400Y40510D03*
D32*
X179400Y44910D03*
D21*
X179400Y48710D03*
D20*
X179400Y54110D03*
D21*
X179400Y59510D03*
D58*
X179400Y69310D03*
D16*
X179000Y23710D03*
D33*
X179000Y32510D03*
D15*
X179000Y40510D03*
D32*
X179000Y44910D03*
X179000Y48510D03*
D16*
X179000Y54110D03*
D32*
X179000Y59710D03*
D58*
X179000Y69310D03*
D30*
X178600Y23510D03*
D28*
X178600Y29710D03*
D17*
X178600Y35710D03*
D27*
X178600Y40310D03*
D32*
X178600Y44910D03*
X178600Y48510D03*
D16*
X178600Y54110D03*
D21*
X178600Y59910D03*
D31*
X178600Y62310D03*
D58*
X178600Y69310D03*
D30*
X178200Y23510D03*
D19*
X178200Y29510D03*
D17*
X178200Y35710D03*
D27*
X178200Y40310D03*
D32*
X178200Y44910D03*
X178200Y48510D03*
D24*
X178200Y54110D03*
D15*
X178200Y60910D03*
D58*
X178200Y69310D03*
D30*
X177800Y23510D03*
D19*
X177800Y29510D03*
D17*
X177800Y35710D03*
D21*
X177800Y44710D03*
D32*
X177800Y48510D03*
D24*
X177800Y54110D03*
D15*
X177800Y60910D03*
D58*
X177800Y69310D03*
D30*
X177400Y23510D03*
D19*
X177400Y29510D03*
D21*
X177400Y35910D03*
X177400Y44710D03*
D32*
X177400Y48510D03*
D24*
X177400Y54110D03*
D15*
X177400Y60910D03*
D58*
X177400Y69310D03*
D30*
X177000Y23510D03*
D19*
X177000Y29510D03*
D21*
X177000Y35910D03*
D17*
X177000Y44510D03*
D32*
X177000Y48510D03*
D24*
X177000Y54110D03*
D15*
X177000Y60910D03*
D58*
X177000Y69310D03*
D16*
X176600Y23710D03*
D20*
X176600Y30510D03*
D21*
X176600Y35910D03*
D19*
X176600Y44310D03*
D32*
X176600Y48510D03*
D16*
X176600Y54110D03*
D15*
X176600Y60910D03*
D58*
X176600Y69310D03*
D16*
X176200Y23710D03*
D23*
X176200Y30710D03*
D21*
X176200Y35910D03*
D28*
X176200Y44110D03*
D32*
X176200Y48510D03*
D16*
X176200Y54110D03*
D23*
X176200Y60710D03*
D58*
X176200Y69310D03*
D16*
X175800Y23710D03*
D23*
X175800Y30710D03*
D21*
X175800Y35910D03*
D27*
X175800Y43910D03*
D21*
X175800Y48710D03*
D20*
X175800Y54110D03*
D23*
X175800Y60710D03*
D58*
X175800Y69310D03*
D26*
X175400Y23910D03*
D15*
X175400Y30910D03*
D21*
X175400Y35910D03*
D20*
X175400Y43310D03*
D21*
X175400Y48710D03*
D15*
X175400Y54110D03*
D23*
X175400Y60710D03*
D12*
X175400Y69110D03*
D26*
X175000Y23910D03*
D28*
X175000Y31310D03*
D21*
X175000Y35910D03*
D22*
X175000Y42110D03*
D17*
X175000Y48910D03*
D28*
X175000Y54110D03*
D20*
X175000Y60510D03*
D12*
X175000Y69110D03*
D24*
X174600Y24110D03*
D21*
X174600Y35910D03*
D22*
X174600Y42110D03*
D17*
X174600Y48910D03*
D20*
X174600Y60510D03*
D12*
X174600Y69110D03*
D25*
X174200Y24310D03*
D17*
X174200Y35710D03*
D22*
X174200Y42110D03*
D19*
X174200Y49110D03*
D30*
X174200Y60310D03*
D33*
X174200Y68910D03*
D25*
X173800Y24310D03*
D17*
X173800Y35710D03*
D22*
X173800Y42110D03*
D28*
X173800Y49310D03*
D16*
X173800Y60110D03*
D33*
X173800Y68910D03*
D18*
X173400Y24710D03*
D19*
X173400Y35510D03*
D22*
X173400Y42110D03*
D27*
X173400Y49510D03*
D26*
X173400Y59910D03*
D14*
X173400Y68710D03*
D29*
X173000Y24910D03*
D28*
X173000Y35310D03*
D18*
X173000Y42310D03*
D23*
X173000Y49510D03*
D24*
X173000Y59710D03*
D14*
X173000Y68710D03*
D33*
X172600Y25310D03*
D23*
X172600Y35110D03*
D29*
X172600Y42110D03*
D30*
X172600Y49910D03*
D18*
X172600Y59510D03*
D14*
X172600Y68310D03*
D231*
X172200Y46510D03*
D230*
X171800Y46310D03*
D229*
X171400Y46110D03*
D228*
X171000Y45910D03*
D227*
X170600Y45510D03*
D226*
X170200Y45110D03*
D225*
X169800Y44510D03*
D234*
X68200Y209160D03*
D230*
X68600Y208560D03*
D235*
X69000Y208160D03*
D236*
X69400Y207760D03*
D237*
X69800Y207560D03*
D238*
X70200Y207360D03*
D239*
X70600Y207160D03*
D12*
X71000Y229360D03*
D232*
X71000Y212360D03*
D33*
X71000Y195960D03*
D56*
X71000Y185360D03*
D29*
X71400Y229960D03*
D27*
X71400Y220160D03*
D15*
X71400Y211160D03*
D20*
X71400Y205160D03*
D24*
X71400Y195960D03*
D45*
X71400Y184560D03*
D18*
X71800Y230160D03*
D19*
X71800Y219760D03*
D27*
X71800Y210960D03*
D15*
X71800Y205560D03*
D30*
X71800Y195760D03*
D58*
X71800Y184360D03*
D25*
X72200Y230560D03*
D17*
X72200Y219560D03*
D19*
X72200Y210560D03*
D27*
X72200Y205760D03*
D23*
X72200Y195760D03*
D58*
X72200Y183960D03*
D24*
X72600Y230760D03*
D17*
X72600Y219560D03*
D19*
X72600Y210560D03*
D28*
X72600Y205960D03*
D27*
X72600Y195760D03*
D12*
X72600Y183760D03*
D26*
X73000Y230960D03*
D17*
X73000Y219560D03*
X73000Y210360D03*
D19*
X73000Y206160D03*
X73000Y195760D03*
D58*
X73000Y183560D03*
D26*
X73400Y230960D03*
D19*
X73400Y219760D03*
D21*
X73400Y210160D03*
D19*
X73400Y206160D03*
X73400Y195760D03*
D12*
X73400Y183360D03*
D16*
X73800Y231160D03*
D15*
X73800Y223960D03*
D19*
X73800Y219760D03*
D27*
X73800Y214960D03*
D21*
X73800Y210160D03*
D17*
X73800Y206360D03*
D27*
X73800Y200960D03*
D17*
X73800Y195560D03*
X73800Y191160D03*
D12*
X73800Y183360D03*
D16*
X74200Y231160D03*
D29*
X74200Y222360D03*
D15*
X74200Y214760D03*
D21*
X74200Y210160D03*
D17*
X74200Y206360D03*
D23*
X74200Y200960D03*
D21*
X74200Y195760D03*
D28*
X74200Y191160D03*
D58*
X74200Y183160D03*
D30*
X74600Y231360D03*
D14*
X74600Y222560D03*
D15*
X74600Y214760D03*
D21*
X74600Y210160D03*
X74600Y206560D03*
D30*
X74600Y200960D03*
D32*
X74600Y195560D03*
D28*
X74600Y191160D03*
D12*
X74600Y182960D03*
D30*
X75000Y231360D03*
D14*
X75000Y222560D03*
D15*
X75000Y214760D03*
D21*
X75000Y210160D03*
X75000Y206560D03*
D16*
X75000Y201160D03*
D32*
X75000Y195560D03*
D28*
X75000Y191160D03*
D12*
X75000Y182960D03*
D30*
X75400Y231360D03*
D28*
X75400Y225560D03*
D17*
X75400Y219560D03*
D15*
X75400Y214760D03*
D21*
X75400Y210160D03*
X75400Y206560D03*
D26*
X75400Y200960D03*
D32*
X75400Y195560D03*
D27*
X75400Y191360D03*
D58*
X75400Y183160D03*
D30*
X75800Y231360D03*
D28*
X75800Y225560D03*
D21*
X75800Y219360D03*
D27*
X75800Y214960D03*
D21*
X75800Y210160D03*
X75800Y206560D03*
D26*
X75800Y200960D03*
D21*
X75800Y195360D03*
D28*
X75800Y191560D03*
D58*
X75800Y183160D03*
D30*
X76200Y231360D03*
D28*
X76200Y225560D03*
D21*
X76200Y219360D03*
X76200Y210160D03*
D32*
X76200Y206760D03*
D26*
X76200Y200960D03*
X76200Y193360D03*
D58*
X76200Y183160D03*
D30*
X76600Y231360D03*
D28*
X76600Y225560D03*
D21*
X76600Y219360D03*
D17*
X76600Y210360D03*
D32*
X76600Y206760D03*
D26*
X76600Y200960D03*
D16*
X76600Y193560D03*
D45*
X76600Y183360D03*
D30*
X77000Y231360D03*
D28*
X77000Y225560D03*
D21*
X77000Y219360D03*
D17*
X77000Y210360D03*
D21*
X77000Y206560D03*
D26*
X77000Y200960D03*
D20*
X77000Y193960D03*
D45*
X77000Y183360D03*
D30*
X77400Y231360D03*
D23*
X77400Y224560D03*
D21*
X77400Y219360D03*
D19*
X77400Y210560D03*
D21*
X77400Y206560D03*
D26*
X77400Y200960D03*
D15*
X77400Y194360D03*
D57*
X77400Y183560D03*
D30*
X77800Y231360D03*
D20*
X77800Y224360D03*
D21*
X77800Y219360D03*
D28*
X77800Y210760D03*
D21*
X77800Y206560D03*
D30*
X77800Y200960D03*
D27*
X77800Y194560D03*
D56*
X77800Y183760D03*
D16*
X78200Y231160D03*
D23*
X78200Y224160D03*
D21*
X78200Y219360D03*
D15*
X78200Y211160D03*
D21*
X78200Y206560D03*
D30*
X78200Y200960D03*
D19*
X78200Y194960D03*
D55*
X78200Y183960D03*
D16*
X78600Y231160D03*
D15*
X78600Y223960D03*
D21*
X78600Y219360D03*
D20*
X78600Y211560D03*
D17*
X78600Y206360D03*
D23*
X78600Y200960D03*
D19*
X78600Y195360D03*
D54*
X78600Y184560D03*
D26*
X79000Y230960D03*
D19*
X79000Y223760D03*
D21*
X79000Y219360D03*
D18*
X79000Y212960D03*
D17*
X79000Y206360D03*
D19*
X79000Y200960D03*
D17*
X79000Y195560D03*
D53*
X79000Y184760D03*
D26*
X79400Y230960D03*
D21*
X79400Y219360D03*
D18*
X79400Y212960D03*
D19*
X79400Y206160D03*
X79400Y195760D03*
D33*
X79400Y183160D03*
D24*
X79800Y230760D03*
D21*
X79800Y219360D03*
D18*
X79800Y212960D03*
D19*
X79800Y206160D03*
X79800Y196160D03*
D29*
X79800Y183160D03*
D25*
X80200Y230560D03*
D21*
X80200Y219360D03*
D18*
X80200Y212960D03*
D28*
X80200Y205960D03*
D19*
X80200Y196160D03*
D29*
X80200Y183160D03*
D22*
X80600Y230360D03*
D17*
X80600Y219560D03*
D18*
X80600Y212960D03*
D27*
X80600Y205760D03*
D28*
X80600Y196360D03*
D18*
X80600Y183360D03*
X81000Y230160D03*
D28*
X81000Y219960D03*
D18*
X81000Y212960D03*
D23*
X81000Y205360D03*
X81000Y196560D03*
D29*
X81000Y183560D03*
D14*
X81400Y229760D03*
D23*
X81400Y220160D03*
D14*
X81400Y212960D03*
D16*
X81400Y205160D03*
X81400Y196760D03*
D18*
X81400Y183760D03*
D239*
X81800Y207160D03*
D238*
X82200Y207360D03*
D237*
X82600Y207560D03*
D236*
X83000Y207760D03*
D235*
X83400Y208160D03*
D230*
X83800Y208560D03*
D234*
X84200Y209160D03*
D240*
X135000Y40110D03*
D48*
X134600Y40310D03*
D11*
X134200Y40710D03*
D50*
X133800Y40910D03*
D241*
X133400Y41110D03*
D242*
X133000Y41310D03*
D243*
X132600Y41510D03*
D14*
X132200Y25110D03*
D56*
X132200Y35910D03*
D244*
X132200Y52510D03*
D22*
X131800Y24510D03*
D12*
X131800Y35910D03*
D27*
X131800Y45510D03*
D25*
X131800Y51910D03*
D24*
X131800Y59710D03*
D25*
X131400Y24310D03*
D18*
X131400Y35910D03*
D19*
X131400Y45510D03*
D25*
X131400Y51910D03*
D24*
X131400Y60110D03*
X131000Y24110D03*
D25*
X131000Y35910D03*
D17*
X131000Y45710D03*
D26*
X131000Y51910D03*
D25*
X131000Y60310D03*
D26*
X130600Y23910D03*
D24*
X130600Y36110D03*
D21*
X130600Y45910D03*
D26*
X130600Y51910D03*
D22*
X130600Y60510D03*
D26*
X130200Y23910D03*
X130200Y35910D03*
D21*
X130200Y46310D03*
D16*
X130200Y52110D03*
D29*
X130200Y60510D03*
D16*
X129800Y23710D03*
D21*
X129800Y29910D03*
D26*
X129800Y35910D03*
D32*
X129800Y42110D03*
D21*
X129800Y46310D03*
D30*
X129800Y51910D03*
D14*
X129800Y60710D03*
D26*
X129400Y23910D03*
D19*
X129400Y29910D03*
D16*
X129400Y36110D03*
D28*
X129400Y42110D03*
D17*
X129400Y46510D03*
D20*
X129400Y52110D03*
D12*
X129400Y60710D03*
D26*
X129000Y23910D03*
D28*
X129000Y29710D03*
D26*
X129000Y36310D03*
D28*
X129000Y42110D03*
D17*
X129000Y46510D03*
D23*
X129000Y51910D03*
D12*
X129000Y60710D03*
D25*
X128600Y24310D03*
D27*
X128600Y29510D03*
D24*
X128600Y36510D03*
D28*
X128600Y41710D03*
D19*
X128600Y46710D03*
D15*
X128600Y52110D03*
D45*
X128600Y60710D03*
D14*
X128200Y25110D03*
D33*
X128200Y37310D03*
D19*
X128200Y46710D03*
D27*
X128200Y51910D03*
D57*
X128200Y60910D03*
D14*
X127800Y25110D03*
X127800Y37110D03*
D27*
X127800Y46710D03*
X127800Y51910D03*
D56*
X127800Y60710D03*
D14*
X127400Y25110D03*
D33*
X127400Y36910D03*
D15*
X127400Y46510D03*
D19*
X127400Y51910D03*
D56*
X127400Y60710D03*
D14*
X127000Y25110D03*
D12*
X127000Y36710D03*
D23*
X127000Y46710D03*
D19*
X127000Y51910D03*
D55*
X127000Y60510D03*
D14*
X126600Y25110D03*
D33*
X126600Y36910D03*
D15*
X126600Y46910D03*
D21*
X126600Y51910D03*
D55*
X126600Y60510D03*
D14*
X126200Y25110D03*
D33*
X126200Y37310D03*
D15*
X126200Y47310D03*
D21*
X126200Y51910D03*
D54*
X126200Y60310D03*
D45*
X125800Y25910D03*
X125800Y38310D03*
D15*
X125800Y47310D03*
D31*
X125800Y51910D03*
D54*
X125800Y60310D03*
D16*
X125400Y23710D03*
D15*
X125400Y29710D03*
D16*
X125400Y36110D03*
D15*
X125400Y41710D03*
X125400Y47710D03*
D31*
X125400Y51910D03*
D54*
X125400Y59910D03*
D30*
X125000Y23510D03*
D15*
X125000Y29710D03*
D30*
X125000Y35910D03*
D15*
X125000Y42110D03*
X125000Y47710D03*
D55*
X125000Y59710D03*
D30*
X124600Y23510D03*
D27*
X124600Y29910D03*
D30*
X124600Y35910D03*
D27*
X124600Y41910D03*
D23*
X124600Y47910D03*
D54*
X124600Y59510D03*
D16*
X124200Y23710D03*
D19*
X124200Y29910D03*
D17*
X124200Y34510D03*
X124200Y37310D03*
D28*
X124200Y42110D03*
D23*
X124200Y47910D03*
D55*
X124200Y59310D03*
D16*
X123800Y23710D03*
D21*
X123800Y34310D03*
D32*
X123800Y37710D03*
D30*
X123800Y47910D03*
D55*
X123800Y58910D03*
D16*
X123400Y23710D03*
D21*
X123400Y33910D03*
X123400Y37910D03*
D30*
X123400Y47910D03*
D56*
X123400Y58710D03*
D26*
X123000Y23910D03*
D21*
X123000Y33910D03*
X123000Y37910D03*
D26*
X123000Y47910D03*
D56*
X123000Y58310D03*
D24*
X122600Y24110D03*
D17*
X122600Y33710D03*
X122600Y38110D03*
D24*
X122600Y47710D03*
D57*
X122600Y58110D03*
D25*
X122200Y24310D03*
D28*
X122200Y33710D03*
D19*
X122200Y38310D03*
D22*
X122200Y47710D03*
D57*
X122200Y57710D03*
D22*
X121800Y24510D03*
D15*
X121800Y33310D03*
X121800Y38510D03*
D14*
X121800Y47510D03*
D57*
X121800Y57310D03*
D243*
X121400Y41510D03*
D242*
X121000Y41310D03*
D241*
X120600Y41110D03*
D50*
X120200Y40910D03*
D11*
X119800Y40710D03*
D48*
X119400Y40310D03*
D240*
X119000Y40110D03*
D245*
X119000Y210490D03*
D246*
X119400Y210690D03*
D247*
X119800Y210890D03*
D248*
X120200Y211090D03*
D249*
X120600Y211290D03*
D250*
X121000Y211490D03*
D251*
X121400Y211690D03*
D14*
X121800Y228890D03*
D56*
X121800Y218090D03*
D252*
X121800Y201090D03*
D22*
X122200Y229490D03*
D12*
X122200Y218090D03*
D27*
X122200Y208490D03*
D25*
X122200Y202090D03*
D24*
X122200Y194290D03*
D25*
X122600Y229690D03*
D18*
X122600Y218090D03*
D19*
X122600Y208490D03*
D25*
X122600Y202090D03*
D16*
X122600Y194290D03*
D24*
X123000Y229890D03*
D25*
X123000Y218090D03*
D17*
X123000Y208290D03*
D26*
X123000Y202090D03*
D30*
X123000Y194490D03*
D26*
X123400Y230090D03*
D24*
X123400Y217890D03*
D21*
X123400Y208090D03*
D26*
X123400Y202090D03*
D20*
X123400Y194690D03*
D26*
X123800Y230090D03*
X123800Y218090D03*
D21*
X123800Y207690D03*
D16*
X123800Y201890D03*
D20*
X123800Y195090D03*
D16*
X124200Y230290D03*
D21*
X124200Y224090D03*
D26*
X124200Y218090D03*
D32*
X124200Y211890D03*
D21*
X124200Y207690D03*
D30*
X124200Y202090D03*
D23*
X124200Y195290D03*
D26*
X124600Y230090D03*
D19*
X124600Y224090D03*
D16*
X124600Y217890D03*
D28*
X124600Y211890D03*
D17*
X124600Y207490D03*
D20*
X124600Y201890D03*
D23*
X124600Y195690D03*
D26*
X125000Y230090D03*
D28*
X125000Y224290D03*
D26*
X125000Y217690D03*
D28*
X125000Y211890D03*
D17*
X125000Y207490D03*
D23*
X125000Y202090D03*
D15*
X125000Y195890D03*
D25*
X125400Y229690D03*
D27*
X125400Y224490D03*
D24*
X125400Y217490D03*
D28*
X125400Y212290D03*
D19*
X125400Y207290D03*
D15*
X125400Y201890D03*
X125400Y196290D03*
D14*
X125800Y228890D03*
D33*
X125800Y216690D03*
D19*
X125800Y207290D03*
D27*
X125800Y202090D03*
X125800Y196490D03*
D14*
X126200Y228890D03*
X126200Y216890D03*
D27*
X126200Y207290D03*
X126200Y202090D03*
D15*
X126200Y196690D03*
D14*
X126600Y228890D03*
D33*
X126600Y217090D03*
D15*
X126600Y207490D03*
D19*
X126600Y202090D03*
D15*
X126600Y196690D03*
D14*
X127000Y228890D03*
D12*
X127000Y217290D03*
D23*
X127000Y207290D03*
D19*
X127000Y202090D03*
D23*
X127000Y196890D03*
D14*
X127400Y228890D03*
D33*
X127400Y217090D03*
D15*
X127400Y207090D03*
D21*
X127400Y202090D03*
D23*
X127400Y196890D03*
D14*
X127800Y228890D03*
D33*
X127800Y216690D03*
D15*
X127800Y206690D03*
D21*
X127800Y202090D03*
D20*
X127800Y197090D03*
D45*
X128200Y228090D03*
X128200Y215690D03*
D15*
X128200Y206690D03*
D31*
X128200Y202090D03*
D20*
X128200Y197090D03*
D16*
X128600Y230290D03*
D15*
X128600Y224290D03*
D16*
X128600Y217890D03*
D15*
X128600Y212290D03*
X128600Y206290D03*
D31*
X128600Y202090D03*
D16*
X128600Y197090D03*
D30*
X129000Y230490D03*
D15*
X129000Y224290D03*
D30*
X129000Y218090D03*
D15*
X129000Y211890D03*
X129000Y206290D03*
D26*
X129000Y196890D03*
D30*
X129400Y230490D03*
D27*
X129400Y224090D03*
D30*
X129400Y218090D03*
D27*
X129400Y212090D03*
D23*
X129400Y206090D03*
D25*
X129400Y196890D03*
D16*
X129800Y230290D03*
D19*
X129800Y224090D03*
D17*
X129800Y219490D03*
X129800Y216690D03*
D28*
X129800Y211890D03*
D23*
X129800Y206090D03*
D22*
X129800Y196690D03*
D16*
X130200Y230290D03*
D21*
X130200Y219690D03*
D32*
X130200Y216290D03*
D30*
X130200Y206090D03*
D29*
X130200Y196690D03*
D16*
X130600Y230290D03*
D21*
X130600Y220090D03*
X130600Y216090D03*
D30*
X130600Y206090D03*
D14*
X130600Y196490D03*
D26*
X131000Y230090D03*
D21*
X131000Y220090D03*
X131000Y216090D03*
D26*
X131000Y206090D03*
D12*
X131000Y196490D03*
D24*
X131400Y229890D03*
D17*
X131400Y220290D03*
X131400Y215890D03*
D24*
X131400Y206290D03*
D58*
X131400Y196290D03*
D25*
X131800Y229690D03*
D28*
X131800Y220290D03*
D19*
X131800Y215690D03*
D22*
X131800Y206290D03*
D57*
X131800Y196290D03*
D22*
X132200Y229490D03*
D15*
X132200Y220690D03*
X132200Y215490D03*
D14*
X132200Y206490D03*
D55*
X132200Y196290D03*
D251*
X132600Y211690D03*
D250*
X133000Y211490D03*
D249*
X133400Y211290D03*
D248*
X133800Y211090D03*
D247*
X134200Y210890D03*
D246*
X134600Y210690D03*
D245*
X135000Y210490D03*
D10*
X229870Y190500D02*
X229870Y165100D01*
X214122Y160528D02*
X213989Y160530D01*
X213856Y160536D01*
X213724Y160545D01*
X213591Y160559D01*
X213459Y160576D01*
X213328Y160597D01*
X213197Y160622D01*
X213068Y160651D01*
X212939Y160684D01*
X212811Y160720D01*
X212684Y160760D01*
X212558Y160804D01*
X212434Y160851D01*
X212311Y160902D01*
X212190Y160956D01*
X212070Y161014D01*
X211952Y161076D01*
X211836Y161141D01*
X211722Y161209D01*
X211610Y161280D01*
X211500Y161355D01*
X211392Y161433D01*
X211286Y161514D01*
X211183Y161598D01*
X211083Y161685D01*
X210985Y161774D01*
X210889Y161867D01*
X210796Y161963D01*
X210707Y162061D01*
X210620Y162161D01*
X210536Y162264D01*
X210455Y162370D01*
X210377Y162478D01*
X210302Y162588D01*
X210231Y162700D01*
X210163Y162814D01*
X210098Y162930D01*
X210036Y163048D01*
X209978Y163168D01*
X209924Y163289D01*
X209873Y163412D01*
X209826Y163536D01*
X209782Y163662D01*
X209742Y163789D01*
X209706Y163917D01*
X209673Y164046D01*
X209644Y164175D01*
X209619Y164306D01*
X209598Y164437D01*
X209581Y164569D01*
X209567Y164702D01*
X209558Y164834D01*
X209552Y164967D01*
X209550Y165100D01*
X209550Y190500D02*
X209552Y190633D01*
X209558Y190766D01*
X209567Y190898D01*
X209581Y191031D01*
X209598Y191163D01*
X209619Y191294D01*
X209644Y191425D01*
X209673Y191554D01*
X209706Y191683D01*
X209742Y191811D01*
X209782Y191938D01*
X209826Y192064D01*
X209873Y192188D01*
X209924Y192311D01*
X209978Y192432D01*
X210036Y192552D01*
X210098Y192670D01*
X210163Y192786D01*
X210231Y192900D01*
X210302Y193012D01*
X210377Y193122D01*
X210455Y193230D01*
X210536Y193336D01*
X210620Y193439D01*
X210707Y193539D01*
X210796Y193637D01*
X210889Y193733D01*
X210985Y193826D01*
X211083Y193915D01*
X211183Y194002D01*
X211286Y194086D01*
X211392Y194167D01*
X211500Y194245D01*
X211610Y194320D01*
X211722Y194391D01*
X211836Y194459D01*
X211952Y194524D01*
X212070Y194586D01*
X212190Y194644D01*
X212311Y194698D01*
X212434Y194749D01*
X212558Y194796D01*
X212684Y194840D01*
X212811Y194880D01*
X212939Y194916D01*
X213068Y194949D01*
X213197Y194978D01*
X213328Y195003D01*
X213459Y195024D01*
X213591Y195041D01*
X213724Y195055D01*
X213856Y195064D01*
X213989Y195070D01*
X214122Y195072D01*
X225298Y195072D02*
X225431Y195070D01*
X225564Y195064D01*
X225696Y195055D01*
X225829Y195041D01*
X225961Y195024D01*
X226092Y195003D01*
X226223Y194978D01*
X226352Y194949D01*
X226481Y194916D01*
X226609Y194880D01*
X226736Y194840D01*
X226862Y194796D01*
X226986Y194749D01*
X227109Y194698D01*
X227230Y194644D01*
X227350Y194586D01*
X227468Y194524D01*
X227584Y194459D01*
X227698Y194391D01*
X227810Y194320D01*
X227920Y194245D01*
X228028Y194167D01*
X228134Y194086D01*
X228237Y194002D01*
X228337Y193915D01*
X228435Y193826D01*
X228531Y193733D01*
X228624Y193637D01*
X228713Y193539D01*
X228800Y193439D01*
X228884Y193336D01*
X228965Y193230D01*
X229043Y193122D01*
X229118Y193012D01*
X229189Y192900D01*
X229257Y192786D01*
X229322Y192670D01*
X229384Y192552D01*
X229442Y192432D01*
X229496Y192311D01*
X229547Y192188D01*
X229594Y192064D01*
X229638Y191938D01*
X229678Y191811D01*
X229714Y191683D01*
X229747Y191554D01*
X229776Y191425D01*
X229801Y191294D01*
X229822Y191163D01*
X229839Y191031D01*
X229853Y190898D01*
X229862Y190766D01*
X229868Y190633D01*
X229870Y190500D01*
X229870Y165100D02*
X229868Y164967D01*
X229862Y164834D01*
X229853Y164702D01*
X229839Y164569D01*
X229822Y164437D01*
X229801Y164306D01*
X229776Y164175D01*
X229747Y164046D01*
X229714Y163917D01*
X229678Y163789D01*
X229638Y163662D01*
X229594Y163536D01*
X229547Y163412D01*
X229496Y163289D01*
X229442Y163168D01*
X229384Y163048D01*
X229322Y162930D01*
X229257Y162814D01*
X229189Y162700D01*
X229118Y162588D01*
X229043Y162478D01*
X228965Y162370D01*
X228884Y162264D01*
X228800Y162161D01*
X228713Y162061D01*
X228624Y161963D01*
X228531Y161867D01*
X228435Y161774D01*
X228337Y161685D01*
X228237Y161598D01*
X228134Y161514D01*
X228028Y161433D01*
X227920Y161355D01*
X227810Y161280D01*
X227698Y161209D01*
X227584Y161141D01*
X227468Y161076D01*
X227350Y161014D01*
X227230Y160956D01*
X227109Y160902D01*
X226986Y160851D01*
X226862Y160804D01*
X226736Y160760D01*
X226609Y160720D01*
X226481Y160684D01*
X226352Y160651D01*
X226223Y160622D01*
X226092Y160597D01*
X225961Y160576D01*
X225829Y160559D01*
X225696Y160545D01*
X225564Y160536D01*
X225431Y160530D01*
X225298Y160528D01*
X214122Y160528D01*
X214122Y195072D02*
X225298Y195072D01*
X209550Y190500D02*
X209550Y165100D01*
D253*
X21190Y51520D03*
D254*
X20890Y51520D03*
D255*
X20640Y51520D03*
D256*
X20340Y51520D03*
D59*
X19990Y51520D03*
D257*
X19690Y51520D03*
D258*
X19440Y51520D03*
D60*
X19190Y51520D03*
D69*
X18840Y44020D03*
D21*
X18840Y48970D03*
D140*
X18840Y53020D03*
D69*
X18840Y59020D03*
D73*
X18490Y44020D03*
D78*
X18490Y49120D03*
D259*
X18490Y53020D03*
D67*
X18490Y59170D03*
D76*
X18290Y43870D03*
D78*
X18290Y49120D03*
D75*
X18290Y53170D03*
D73*
X18290Y59320D03*
D76*
X17990Y43870D03*
D78*
X17990Y49120D03*
D85*
X17990Y53320D03*
D73*
X17990Y59320D03*
D80*
X17640Y43720D03*
D81*
X17640Y49120D03*
D28*
X17640Y53470D03*
D25*
X17640Y59470D03*
D83*
X17290Y43720D03*
D78*
X17290Y49120D03*
D77*
X17290Y53470D03*
D76*
X17290Y59470D03*
D83*
X17090Y43720D03*
D78*
X17090Y49120D03*
D79*
X17090Y53620D03*
D76*
X17090Y59470D03*
D84*
X16790Y43570D03*
D78*
X16790Y49120D03*
D147*
X16790Y53770D03*
D83*
X16790Y59620D03*
D72*
X16440Y43570D03*
D81*
X16440Y49120D03*
D70*
X16440Y53920D03*
D80*
X16440Y59620D03*
D84*
X16090Y43570D03*
D78*
X16090Y49120D03*
D88*
X16090Y53920D03*
D83*
X16090Y59620D03*
D84*
X15790Y43570D03*
D78*
X15790Y49120D03*
D74*
X15790Y54070D03*
D83*
X15790Y59620D03*
D84*
X15590Y43570D03*
D78*
X15590Y49120D03*
X15590Y54220D03*
D83*
X15590Y59620D03*
D72*
X15240Y43570D03*
D81*
X15240Y49120D03*
D94*
X15240Y51520D03*
D82*
X15240Y54370D03*
D80*
X15240Y59620D03*
D84*
X14890Y43570D03*
D78*
X14890Y49120D03*
D92*
X14890Y51670D03*
X14890Y54370D03*
D83*
X14890Y59620D03*
D84*
X14690Y43570D03*
D78*
X14690Y49120D03*
X14690Y51820D03*
D83*
X14690Y59620D03*
D84*
X14390Y43570D03*
D78*
X14390Y49120D03*
D74*
X14390Y51970D03*
D83*
X14390Y59620D03*
D72*
X14040Y43570D03*
D81*
X14040Y49120D03*
D21*
X14040Y51970D03*
D80*
X14040Y59620D03*
D84*
X13690Y43570D03*
D78*
X13690Y49120D03*
D88*
X13690Y52120D03*
D83*
X13690Y59620D03*
X13390Y43720D03*
D78*
X13390Y49120D03*
D147*
X13390Y52270D03*
D76*
X13390Y59470D03*
D83*
X13190Y43720D03*
D78*
X13190Y49120D03*
D79*
X13190Y52420D03*
D76*
X13190Y59470D03*
D80*
X12840Y43720D03*
D81*
X12840Y49120D03*
D260*
X12840Y52420D03*
D25*
X12840Y59470D03*
D76*
X12490Y43870D03*
D78*
X12490Y49120D03*
D77*
X12490Y52570D03*
D73*
X12490Y59320D03*
D76*
X12290Y43870D03*
D78*
X12290Y49120D03*
D85*
X12290Y52720D03*
D73*
X12290Y59320D03*
X11990Y44020D03*
D78*
X11990Y49120D03*
D75*
X11990Y52870D03*
D67*
X11990Y59170D03*
D69*
X11640Y44020D03*
D81*
X11640Y49120D03*
D150*
X11640Y52870D03*
D152*
X11640Y59170D03*
D67*
X11290Y44170D03*
D88*
X11290Y49120D03*
D149*
X11290Y52870D03*
D67*
X11290Y58870D03*
D261*
X10990Y51520D03*
D257*
X10690Y51520D03*
D59*
X10390Y51520D03*
D262*
X10190Y51520D03*
D263*
X9890Y51520D03*
D254*
X9590Y51520D03*
D253*
X9290Y51520D03*
D264*
X230270Y162860D03*
D265*
X230570Y162860D03*
D266*
X230820Y162860D03*
D267*
X231120Y162860D03*
D268*
X231470Y162860D03*
D269*
X231770Y162860D03*
D270*
X232020Y162860D03*
D271*
X232270Y175610D03*
D100*
X232270Y158060D03*
D98*
X232620Y176210D03*
D150*
X232620Y167510D03*
D140*
X232620Y162560D03*
D82*
X232620Y158810D03*
D152*
X232620Y148310D03*
D86*
X232970Y176510D03*
D85*
X232970Y167360D03*
D259*
X232970Y162560D03*
D92*
X232970Y158810D03*
D67*
X232970Y148310D03*
D86*
X233170Y176810D03*
D79*
X233170Y167060D03*
D259*
X233170Y162560D03*
D92*
X233170Y158810D03*
D73*
X233170Y148160D03*
D97*
X233470Y176960D03*
D147*
X233470Y166910D03*
D259*
X233470Y162560D03*
D92*
X233470Y158810D03*
D73*
X233470Y148160D03*
D272*
X233820Y177260D03*
D70*
X233820Y166760D03*
D140*
X233820Y162560D03*
D81*
X233820Y158660D03*
D80*
X233820Y148160D03*
D84*
X234170Y177410D03*
D88*
X234170Y166760D03*
D259*
X234170Y162560D03*
X234170Y157460D03*
D99*
X234170Y149360D03*
D84*
X234370Y177410D03*
D147*
X234370Y170810D03*
D74*
X234370Y166610D03*
D259*
X234370Y162560D03*
X234370Y157460D03*
D99*
X234370Y149360D03*
D84*
X234670Y177710D03*
D85*
X234670Y170660D03*
D74*
X234670Y166610D03*
D259*
X234670Y162560D03*
X234670Y157460D03*
D273*
X234670Y149210D03*
D72*
X235020Y177710D03*
D140*
X235020Y170660D03*
D81*
X235020Y166460D03*
D140*
X235020Y162560D03*
X235020Y157460D03*
D274*
X235020Y149210D03*
D84*
X235370Y177710D03*
D149*
X235370Y170810D03*
D78*
X235370Y166460D03*
D259*
X235370Y162560D03*
X235370Y157460D03*
D273*
X235370Y149210D03*
D84*
X235670Y177710D03*
D148*
X235670Y170660D03*
D78*
X235670Y166460D03*
D259*
X235670Y162560D03*
X235670Y157460D03*
D273*
X235670Y149210D03*
D83*
X235870Y177860D03*
D148*
X235870Y170660D03*
D78*
X235870Y166460D03*
D259*
X235870Y162560D03*
X235870Y157460D03*
D273*
X235870Y149210D03*
D80*
X236220Y177860D03*
D71*
X236220Y170660D03*
D81*
X236220Y166460D03*
D140*
X236220Y162560D03*
X236220Y157460D03*
D274*
X236220Y149210D03*
D83*
X236570Y177860D03*
D148*
X236570Y170660D03*
D78*
X236570Y166460D03*
D259*
X236570Y162560D03*
X236570Y157460D03*
D273*
X236570Y149210D03*
D83*
X236770Y177860D03*
D148*
X236770Y170660D03*
D78*
X236770Y166460D03*
D259*
X236770Y162560D03*
X236770Y157460D03*
D273*
X236770Y149210D03*
D84*
X237070Y177710D03*
D148*
X237070Y170660D03*
D78*
X237070Y166460D03*
D259*
X237070Y162560D03*
X237070Y157460D03*
D273*
X237070Y149210D03*
D72*
X237420Y177710D03*
D23*
X237420Y170810D03*
D81*
X237420Y166460D03*
D151*
X237420Y162560D03*
D140*
X237420Y157460D03*
D274*
X237420Y149210D03*
D84*
X237770Y177710D03*
D259*
X237770Y170660D03*
D74*
X237770Y166610D03*
D85*
X237770Y162560D03*
D149*
X237770Y157610D03*
D273*
X237770Y149210D03*
D83*
X238070Y177560D03*
D85*
X238070Y170660D03*
D88*
X238070Y166460D03*
D79*
X238070Y162560D03*
D149*
X238070Y157610D03*
D99*
X238070Y149360D03*
D84*
X238270Y177410D03*
D88*
X238270Y170660D03*
X238270Y166460D03*
X238270Y162560D03*
D149*
X238270Y157610D03*
D99*
X238270Y149360D03*
D272*
X238620Y177260D03*
D260*
X238620Y166460D03*
D71*
X238620Y157760D03*
D275*
X238620Y149360D03*
D84*
X238970Y177110D03*
D77*
X238970Y166610D03*
D148*
X238970Y157760D03*
D271*
X238970Y149510D03*
D97*
X239170Y176960D03*
D75*
X239170Y166610D03*
D142*
X239170Y157910D03*
D271*
X239170Y149510D03*
D97*
X239470Y176660D03*
D149*
X239470Y166610D03*
D141*
X239470Y158060D03*
D276*
X239470Y149660D03*
D277*
X239820Y176360D03*
D145*
X239820Y166610D03*
D278*
X239820Y158060D03*
D12*
X239820Y149810D03*
D279*
X240170Y175910D03*
D67*
X240170Y166610D03*
D73*
X240170Y158360D03*
D276*
X240170Y149960D03*
D280*
X240470Y162860D03*
D269*
X240770Y162860D03*
D268*
X241070Y162860D03*
D281*
X241270Y162860D03*
D282*
X241570Y162860D03*
D265*
X241870Y162860D03*
D264*
X242170Y162860D03*
D59*
X230270Y188950D03*
D60*
X230570Y188950D03*
D61*
X230820Y188950D03*
D62*
X231120Y188950D03*
D63*
X231470Y188950D03*
D64*
X231770Y188950D03*
D65*
X232020Y188950D03*
D66*
X232270Y196750D03*
D67*
X232270Y187600D03*
D68*
X232270Y180250D03*
D69*
X232620Y198850D03*
D70*
X232620Y193450D03*
D71*
X232620Y188050D03*
D72*
X232620Y179500D03*
D73*
X232970Y198850D03*
D74*
X232970Y193600D03*
D75*
X232970Y188200D03*
D76*
X232970Y179200D03*
X233170Y199000D03*
D74*
X233170Y193600D03*
D77*
X233170Y188200D03*
D76*
X233170Y178900D03*
X233470Y199000D03*
D78*
X233470Y193750D03*
D79*
X233470Y188350D03*
D76*
X233470Y178900D03*
D80*
X233820Y199150D03*
D81*
X233820Y193750D03*
D82*
X233820Y191200D03*
D70*
X233820Y188350D03*
D80*
X233820Y178750D03*
D83*
X234170Y199150D03*
D78*
X234170Y193750D03*
D74*
X234170Y191200D03*
X234170Y188500D03*
D83*
X234170Y178750D03*
X234370Y199150D03*
D78*
X234370Y193750D03*
D74*
X234370Y191200D03*
D78*
X234370Y188650D03*
D79*
X234370Y184450D03*
D84*
X234370Y178900D03*
X234670Y199300D03*
D78*
X234670Y193750D03*
X234670Y191350D03*
X234670Y188650D03*
D85*
X234670Y184450D03*
D86*
X234670Y178900D03*
D72*
X235020Y199300D03*
D21*
X235020Y193600D03*
X235020Y191800D03*
X235020Y188800D03*
D54*
X235020Y180700D03*
D84*
X235370Y199300D03*
D85*
X235370Y192850D03*
D78*
X235370Y188950D03*
D87*
X235370Y180850D03*
D84*
X235670Y199300D03*
D79*
X235670Y193150D03*
D74*
X235670Y189100D03*
D87*
X235670Y180850D03*
D84*
X235870Y199300D03*
D88*
X235870Y193450D03*
X235870Y189250D03*
D89*
X235870Y181000D03*
D72*
X236220Y199300D03*
D21*
X236220Y193600D03*
D90*
X236220Y189400D03*
D91*
X236220Y181000D03*
D84*
X236570Y199300D03*
D78*
X236570Y193750D03*
D92*
X236570Y188800D03*
D89*
X236570Y181000D03*
D84*
X236770Y199300D03*
D78*
X236770Y193750D03*
D93*
X236770Y188650D03*
D89*
X236770Y181000D03*
D84*
X237070Y199300D03*
D78*
X237070Y193750D03*
D93*
X237070Y188650D03*
D87*
X237070Y180850D03*
D72*
X237420Y199300D03*
D81*
X237420Y193750D03*
D94*
X237420Y188650D03*
D95*
X237420Y180850D03*
D84*
X237770Y199300D03*
D74*
X237770Y193600D03*
D78*
X237770Y188650D03*
D96*
X237770Y180700D03*
D83*
X238070Y199150D03*
D76*
X238070Y191200D03*
D85*
X238070Y184450D03*
D97*
X238070Y179050D03*
D83*
X238270Y199150D03*
X238270Y191050D03*
D88*
X238270Y184450D03*
D84*
X238270Y178900D03*
D80*
X238620Y199150D03*
X238620Y191050D03*
X238620Y178750D03*
D76*
X238970Y199000D03*
D84*
X238970Y190900D03*
D76*
X238970Y178900D03*
X239170Y199000D03*
D97*
X239170Y190750D03*
D76*
X239170Y178900D03*
D73*
X239470Y198850D03*
D86*
X239470Y190600D03*
D73*
X239470Y179050D03*
D69*
X239820Y198850D03*
D98*
X239820Y190300D03*
D80*
X239820Y179350D03*
D73*
X240170Y198550D03*
D99*
X240170Y190150D03*
D84*
X240170Y179800D03*
D100*
X240470Y188950D03*
D64*
X240770Y188950D03*
D63*
X241070Y188950D03*
D101*
X241270Y188950D03*
D102*
X241570Y188950D03*
D60*
X241870Y188950D03*
D59*
X242170Y188950D03*
M02*
