G04 EAGLE Gerber RS-274X export*
G75*
%MOMM*%
%FSLAX34Y34*%
%LPD*%
%INBottom Copper*%
%IPPOS*%
%AMOC8*
5,1,8,0,0,1.08239X$1,22.5*%
G01*
%ADD10C,0.203200*%
%ADD11C,0.099059*%
%ADD12C,1.879600*%
%ADD13C,1.000000*%
%ADD14C,0.304800*%
%ADD15C,0.558800*%

G36*
X64899Y4081D02*
X64899Y4081D01*
X65013Y4091D01*
X65039Y4101D01*
X65067Y4105D01*
X65172Y4152D01*
X65279Y4193D01*
X65301Y4209D01*
X65326Y4221D01*
X65414Y4295D01*
X65505Y4364D01*
X65522Y4387D01*
X65543Y4404D01*
X65607Y4500D01*
X65676Y4592D01*
X65685Y4618D01*
X65701Y4641D01*
X65735Y4751D01*
X65776Y4858D01*
X65778Y4886D01*
X65786Y4912D01*
X65789Y5027D01*
X65799Y5141D01*
X65793Y5166D01*
X65794Y5196D01*
X65727Y5453D01*
X65723Y5469D01*
X63753Y10224D01*
X63753Y15176D01*
X65648Y19751D01*
X69149Y23252D01*
X73724Y25147D01*
X78676Y25147D01*
X83251Y23252D01*
X86752Y19751D01*
X87962Y16829D01*
X87977Y16804D01*
X87986Y16776D01*
X88049Y16681D01*
X88107Y16584D01*
X88128Y16564D01*
X88144Y16539D01*
X88231Y16466D01*
X88313Y16389D01*
X88339Y16375D01*
X88362Y16356D01*
X88465Y16310D01*
X88566Y16259D01*
X88595Y16253D01*
X88622Y16241D01*
X88734Y16225D01*
X88845Y16204D01*
X88874Y16206D01*
X88903Y16202D01*
X89015Y16218D01*
X89128Y16228D01*
X89155Y16239D01*
X89185Y16243D01*
X89288Y16289D01*
X89393Y16330D01*
X89417Y16348D01*
X89444Y16360D01*
X89530Y16433D01*
X89620Y16502D01*
X89638Y16525D01*
X89660Y16544D01*
X89702Y16611D01*
X89790Y16729D01*
X89812Y16788D01*
X89838Y16829D01*
X91048Y19751D01*
X94549Y23252D01*
X99124Y25147D01*
X104076Y25147D01*
X108651Y23252D01*
X112152Y19751D01*
X113362Y16829D01*
X113377Y16804D01*
X113386Y16776D01*
X113449Y16681D01*
X113507Y16584D01*
X113528Y16564D01*
X113544Y16539D01*
X113631Y16466D01*
X113713Y16389D01*
X113739Y16375D01*
X113762Y16356D01*
X113865Y16310D01*
X113966Y16259D01*
X113995Y16253D01*
X114022Y16241D01*
X114134Y16225D01*
X114245Y16204D01*
X114274Y16206D01*
X114303Y16202D01*
X114415Y16218D01*
X114528Y16228D01*
X114555Y16239D01*
X114585Y16243D01*
X114688Y16289D01*
X114793Y16330D01*
X114817Y16348D01*
X114844Y16360D01*
X114930Y16433D01*
X115020Y16502D01*
X115038Y16525D01*
X115060Y16544D01*
X115102Y16611D01*
X115190Y16729D01*
X115212Y16788D01*
X115238Y16829D01*
X116448Y19751D01*
X119949Y23252D01*
X124524Y25147D01*
X129476Y25147D01*
X134051Y23252D01*
X137552Y19751D01*
X139069Y16089D01*
X139104Y16029D01*
X139130Y15965D01*
X139176Y15907D01*
X139213Y15844D01*
X139263Y15796D01*
X139306Y15742D01*
X139366Y15699D01*
X139420Y15649D01*
X139481Y15617D01*
X139538Y15577D01*
X139607Y15552D01*
X139673Y15518D01*
X139740Y15505D01*
X139806Y15482D01*
X139879Y15478D01*
X139952Y15463D01*
X140020Y15469D01*
X140089Y15465D01*
X140161Y15481D01*
X140235Y15488D01*
X140299Y15513D01*
X140367Y15528D01*
X140431Y15563D01*
X140500Y15590D01*
X140555Y15631D01*
X140616Y15665D01*
X140668Y15717D01*
X140727Y15761D01*
X140768Y15817D01*
X140817Y15866D01*
X140846Y15921D01*
X140897Y15989D01*
X140938Y16097D01*
X140972Y16163D01*
X141336Y17283D01*
X142189Y18957D01*
X143294Y20478D01*
X144622Y21806D01*
X146143Y22911D01*
X147817Y23764D01*
X149604Y24345D01*
X150369Y24466D01*
X150369Y13716D01*
X150377Y13658D01*
X150375Y13600D01*
X150397Y13518D01*
X150409Y13435D01*
X150433Y13381D01*
X150447Y13325D01*
X150490Y13252D01*
X150525Y13175D01*
X150563Y13131D01*
X150593Y13080D01*
X150654Y13023D01*
X150709Y12958D01*
X150757Y12926D01*
X150800Y12886D01*
X150875Y12847D01*
X150945Y12801D01*
X151001Y12783D01*
X151053Y12756D01*
X151121Y12745D01*
X151216Y12715D01*
X151316Y12712D01*
X151384Y12701D01*
X153416Y12701D01*
X153474Y12709D01*
X153532Y12708D01*
X153614Y12729D01*
X153697Y12741D01*
X153751Y12765D01*
X153807Y12779D01*
X153880Y12822D01*
X153957Y12857D01*
X154002Y12895D01*
X154052Y12925D01*
X154110Y12986D01*
X154174Y13041D01*
X154206Y13089D01*
X154246Y13132D01*
X154285Y13207D01*
X154331Y13277D01*
X154349Y13333D01*
X154376Y13385D01*
X154387Y13453D01*
X154417Y13548D01*
X154420Y13648D01*
X154431Y13716D01*
X154431Y24466D01*
X155196Y24345D01*
X156983Y23764D01*
X158657Y22911D01*
X160178Y21806D01*
X161506Y20478D01*
X162611Y18957D01*
X163464Y17283D01*
X163828Y16163D01*
X163858Y16101D01*
X163879Y16035D01*
X163920Y15974D01*
X163953Y15908D01*
X163999Y15857D01*
X164038Y15799D01*
X164094Y15752D01*
X164143Y15697D01*
X164202Y15661D01*
X164255Y15616D01*
X164322Y15586D01*
X164385Y15547D01*
X164452Y15529D01*
X164515Y15501D01*
X164588Y15491D01*
X164659Y15471D01*
X164728Y15471D01*
X164797Y15462D01*
X164869Y15472D01*
X164943Y15473D01*
X165010Y15493D01*
X165078Y15502D01*
X165145Y15533D01*
X165216Y15554D01*
X165274Y15591D01*
X165337Y15620D01*
X165393Y15667D01*
X165455Y15707D01*
X165501Y15759D01*
X165553Y15804D01*
X165586Y15857D01*
X165643Y15921D01*
X165692Y16025D01*
X165731Y16089D01*
X167248Y19751D01*
X170749Y23252D01*
X175324Y25147D01*
X180276Y25147D01*
X184851Y23252D01*
X188352Y19751D01*
X190247Y15176D01*
X190247Y10224D01*
X188277Y5469D01*
X188248Y5357D01*
X188214Y5248D01*
X188213Y5220D01*
X188206Y5193D01*
X188209Y5079D01*
X188206Y4964D01*
X188213Y4937D01*
X188214Y4909D01*
X188249Y4800D01*
X188278Y4689D01*
X188292Y4665D01*
X188301Y4638D01*
X188365Y4543D01*
X188423Y4444D01*
X188444Y4425D01*
X188459Y4402D01*
X188547Y4328D01*
X188631Y4250D01*
X188655Y4237D01*
X188677Y4219D01*
X188781Y4173D01*
X188884Y4120D01*
X188908Y4116D01*
X188936Y4104D01*
X189200Y4067D01*
X189215Y4065D01*
X202610Y4065D01*
X202639Y4069D01*
X202669Y4066D01*
X202780Y4089D01*
X202892Y4105D01*
X202919Y4117D01*
X202947Y4122D01*
X203048Y4175D01*
X203151Y4221D01*
X203174Y4240D01*
X203200Y4253D01*
X203282Y4331D01*
X203368Y4404D01*
X203384Y4429D01*
X203406Y4449D01*
X203463Y4547D01*
X203526Y4641D01*
X203535Y4669D01*
X203550Y4694D01*
X203577Y4804D01*
X203612Y4912D01*
X203612Y4942D01*
X203620Y4970D01*
X203616Y5083D01*
X203619Y5196D01*
X203611Y5225D01*
X203611Y5254D01*
X203576Y5362D01*
X203547Y5471D01*
X203532Y5497D01*
X203523Y5525D01*
X203477Y5589D01*
X203402Y5716D01*
X203356Y5759D01*
X203328Y5798D01*
X202934Y6192D01*
X202934Y15102D01*
X202934Y16677D01*
X204416Y18159D01*
X204416Y18160D01*
X204980Y18723D01*
X207095Y20838D01*
X210233Y20838D01*
X210234Y20838D01*
X210536Y20838D01*
X210882Y20838D01*
X210883Y20838D01*
X214021Y20838D01*
X216067Y18792D01*
X216577Y18282D01*
X216623Y18247D01*
X216664Y18205D01*
X216737Y18162D01*
X216804Y18111D01*
X216859Y18091D01*
X216909Y18061D01*
X216991Y18040D01*
X217070Y18010D01*
X217128Y18005D01*
X217185Y17991D01*
X217269Y17994D01*
X217353Y17987D01*
X217410Y17998D01*
X217469Y18000D01*
X217549Y18026D01*
X217632Y18042D01*
X217684Y18069D01*
X217739Y18087D01*
X217796Y18127D01*
X217884Y18173D01*
X217956Y18242D01*
X218013Y18282D01*
X219356Y19626D01*
X220568Y20838D01*
X223936Y20838D01*
X225785Y18989D01*
X226614Y18160D01*
X226614Y18159D01*
X227621Y17152D01*
X227652Y17129D01*
X227677Y17101D01*
X227765Y17044D01*
X227849Y16981D01*
X227884Y16968D01*
X227916Y16947D01*
X228016Y16917D01*
X228114Y16880D01*
X228152Y16877D01*
X228188Y16866D01*
X228293Y16865D01*
X228398Y16856D01*
X228435Y16864D01*
X228472Y16863D01*
X228547Y16886D01*
X228676Y16912D01*
X228741Y16946D01*
X228793Y16962D01*
X230075Y17603D01*
X233625Y16419D01*
X233640Y16417D01*
X233654Y16410D01*
X233780Y16391D01*
X233905Y16368D01*
X233920Y16370D01*
X233935Y16367D01*
X234003Y16378D01*
X234187Y16396D01*
X234231Y16414D01*
X234267Y16419D01*
X237817Y17603D01*
X240708Y16157D01*
X240824Y16118D01*
X240940Y16075D01*
X240959Y16073D01*
X240977Y16067D01*
X241100Y16062D01*
X241223Y16052D01*
X241240Y16056D01*
X241261Y16055D01*
X241537Y16122D01*
X241544Y16126D01*
X241550Y16127D01*
X243509Y16939D01*
X246711Y16939D01*
X248531Y16185D01*
X248643Y16156D01*
X248752Y16121D01*
X248780Y16121D01*
X248807Y16114D01*
X248921Y16117D01*
X249036Y16114D01*
X249063Y16121D01*
X249091Y16122D01*
X249200Y16157D01*
X249311Y16186D01*
X249335Y16200D01*
X249362Y16208D01*
X249457Y16273D01*
X249556Y16331D01*
X249575Y16351D01*
X249598Y16367D01*
X249672Y16455D01*
X249750Y16538D01*
X249763Y16563D01*
X249781Y16584D01*
X249827Y16689D01*
X249880Y16792D01*
X249884Y16816D01*
X249896Y16844D01*
X249933Y17108D01*
X249935Y17123D01*
X249935Y216551D01*
X249933Y216571D01*
X249935Y216590D01*
X249913Y216711D01*
X249895Y216833D01*
X249887Y216851D01*
X249884Y216870D01*
X249829Y216980D01*
X249779Y217092D01*
X249767Y217107D01*
X249758Y217125D01*
X249675Y217216D01*
X249596Y217309D01*
X249579Y217320D01*
X249566Y217335D01*
X249461Y217399D01*
X249359Y217467D01*
X249340Y217473D01*
X249324Y217483D01*
X249205Y217516D01*
X249088Y217553D01*
X249068Y217553D01*
X249049Y217558D01*
X248927Y217557D01*
X248804Y217560D01*
X248785Y217555D01*
X248765Y217555D01*
X248647Y217519D01*
X248529Y217488D01*
X248512Y217478D01*
X248493Y217472D01*
X248390Y217406D01*
X248284Y217343D01*
X248271Y217329D01*
X248254Y217318D01*
X248208Y217261D01*
X248090Y217136D01*
X248066Y217090D01*
X248041Y217059D01*
X246185Y213844D01*
X240078Y208720D01*
X232586Y205993D01*
X224614Y205993D01*
X217122Y208720D01*
X211015Y213844D01*
X207029Y220749D01*
X205645Y228600D01*
X207029Y236451D01*
X211015Y243355D01*
X216720Y248142D01*
X216769Y248197D01*
X216825Y248245D01*
X216864Y248302D01*
X216910Y248354D01*
X216942Y248420D01*
X216983Y248481D01*
X217004Y248547D01*
X217034Y248610D01*
X217046Y248682D01*
X217068Y248752D01*
X217070Y248821D01*
X217082Y248890D01*
X217074Y248963D01*
X217076Y249036D01*
X217058Y249103D01*
X217051Y249172D01*
X217023Y249240D01*
X217004Y249311D01*
X216969Y249371D01*
X216942Y249435D01*
X216896Y249493D01*
X216859Y249556D01*
X216808Y249603D01*
X216765Y249657D01*
X216705Y249700D01*
X216651Y249750D01*
X216590Y249782D01*
X216533Y249822D01*
X216464Y249846D01*
X216398Y249880D01*
X216340Y249890D01*
X216265Y249916D01*
X216143Y249923D01*
X216067Y249935D01*
X189215Y249935D01*
X189101Y249919D01*
X188987Y249909D01*
X188961Y249899D01*
X188933Y249895D01*
X188828Y249848D01*
X188721Y249807D01*
X188699Y249791D01*
X188674Y249779D01*
X188586Y249705D01*
X188495Y249636D01*
X188478Y249613D01*
X188457Y249596D01*
X188393Y249500D01*
X188325Y249408D01*
X188315Y249382D01*
X188299Y249359D01*
X188265Y249249D01*
X188224Y249142D01*
X188222Y249114D01*
X188214Y249088D01*
X188211Y248973D01*
X188201Y248859D01*
X188207Y248834D01*
X188206Y248804D01*
X188273Y248547D01*
X188277Y248531D01*
X190247Y243776D01*
X190247Y238824D01*
X188352Y234249D01*
X184851Y230748D01*
X180276Y228853D01*
X175324Y228853D01*
X170749Y230748D01*
X167248Y234249D01*
X166038Y237171D01*
X166023Y237196D01*
X166014Y237224D01*
X165951Y237319D01*
X165893Y237416D01*
X165872Y237436D01*
X165856Y237461D01*
X165769Y237534D01*
X165687Y237611D01*
X165661Y237625D01*
X165638Y237644D01*
X165535Y237690D01*
X165434Y237741D01*
X165405Y237747D01*
X165378Y237759D01*
X165266Y237775D01*
X165155Y237796D01*
X165126Y237794D01*
X165097Y237798D01*
X164985Y237782D01*
X164872Y237772D01*
X164845Y237761D01*
X164815Y237757D01*
X164712Y237711D01*
X164607Y237670D01*
X164583Y237652D01*
X164556Y237640D01*
X164470Y237567D01*
X164380Y237498D01*
X164362Y237475D01*
X164340Y237456D01*
X164298Y237389D01*
X164210Y237271D01*
X164188Y237212D01*
X164162Y237171D01*
X162952Y234249D01*
X159451Y230748D01*
X154876Y228853D01*
X149924Y228853D01*
X145349Y230748D01*
X141848Y234249D01*
X140638Y237171D01*
X140623Y237196D01*
X140614Y237224D01*
X140551Y237319D01*
X140493Y237416D01*
X140472Y237436D01*
X140456Y237461D01*
X140369Y237534D01*
X140287Y237611D01*
X140261Y237625D01*
X140238Y237644D01*
X140135Y237690D01*
X140034Y237741D01*
X140005Y237747D01*
X139978Y237759D01*
X139866Y237775D01*
X139755Y237796D01*
X139726Y237794D01*
X139697Y237798D01*
X139585Y237782D01*
X139472Y237772D01*
X139445Y237761D01*
X139415Y237757D01*
X139312Y237711D01*
X139207Y237670D01*
X139183Y237652D01*
X139156Y237640D01*
X139070Y237567D01*
X138980Y237498D01*
X138962Y237475D01*
X138940Y237456D01*
X138898Y237389D01*
X138810Y237271D01*
X138788Y237212D01*
X138762Y237171D01*
X137552Y234249D01*
X134051Y230748D01*
X129476Y228853D01*
X124524Y228853D01*
X119949Y230748D01*
X116448Y234249D01*
X114931Y237911D01*
X114896Y237971D01*
X114870Y238035D01*
X114824Y238093D01*
X114787Y238156D01*
X114737Y238204D01*
X114694Y238258D01*
X114634Y238301D01*
X114580Y238351D01*
X114519Y238383D01*
X114462Y238423D01*
X114393Y238448D01*
X114327Y238482D01*
X114260Y238495D01*
X114194Y238518D01*
X114121Y238522D01*
X114048Y238537D01*
X113980Y238531D01*
X113911Y238535D01*
X113839Y238519D01*
X113765Y238512D01*
X113701Y238487D01*
X113633Y238472D01*
X113569Y238437D01*
X113500Y238410D01*
X113445Y238368D01*
X113384Y238335D01*
X113332Y238283D01*
X113273Y238239D01*
X113232Y238183D01*
X113183Y238134D01*
X113154Y238079D01*
X113103Y238011D01*
X113062Y237903D01*
X113028Y237837D01*
X112664Y236717D01*
X111811Y235043D01*
X110706Y233522D01*
X109378Y232194D01*
X107857Y231089D01*
X106183Y230236D01*
X104396Y229655D01*
X103631Y229534D01*
X103631Y240284D01*
X103623Y240342D01*
X103625Y240400D01*
X103603Y240482D01*
X103591Y240565D01*
X103567Y240619D01*
X103553Y240675D01*
X103510Y240748D01*
X103475Y240825D01*
X103437Y240869D01*
X103407Y240920D01*
X103346Y240977D01*
X103291Y241042D01*
X103243Y241074D01*
X103200Y241114D01*
X103125Y241153D01*
X103055Y241199D01*
X102999Y241217D01*
X102947Y241244D01*
X102879Y241255D01*
X102784Y241285D01*
X102684Y241288D01*
X102616Y241299D01*
X100584Y241299D01*
X100526Y241291D01*
X100468Y241292D01*
X100386Y241271D01*
X100303Y241259D01*
X100249Y241235D01*
X100193Y241221D01*
X100120Y241178D01*
X100043Y241143D01*
X99998Y241105D01*
X99948Y241075D01*
X99890Y241014D01*
X99826Y240959D01*
X99794Y240911D01*
X99754Y240868D01*
X99715Y240793D01*
X99669Y240723D01*
X99651Y240667D01*
X99624Y240615D01*
X99613Y240547D01*
X99583Y240452D01*
X99580Y240352D01*
X99569Y240284D01*
X99569Y229534D01*
X98804Y229655D01*
X97017Y230236D01*
X95343Y231089D01*
X93822Y232194D01*
X92494Y233522D01*
X91389Y235043D01*
X90536Y236717D01*
X90172Y237837D01*
X90142Y237899D01*
X90121Y237965D01*
X90080Y238026D01*
X90047Y238092D01*
X90001Y238143D01*
X89962Y238201D01*
X89906Y238248D01*
X89857Y238303D01*
X89798Y238339D01*
X89745Y238384D01*
X89678Y238414D01*
X89615Y238452D01*
X89548Y238471D01*
X89485Y238499D01*
X89412Y238509D01*
X89341Y238529D01*
X89272Y238529D01*
X89204Y238538D01*
X89131Y238528D01*
X89057Y238527D01*
X88990Y238507D01*
X88922Y238497D01*
X88855Y238467D01*
X88784Y238446D01*
X88726Y238409D01*
X88663Y238380D01*
X88607Y238333D01*
X88545Y238293D01*
X88499Y238241D01*
X88447Y238196D01*
X88414Y238143D01*
X88357Y238079D01*
X88308Y237975D01*
X88269Y237911D01*
X86752Y234249D01*
X83251Y230748D01*
X81399Y229981D01*
X81398Y229981D01*
X81397Y229980D01*
X81276Y229909D01*
X81155Y229837D01*
X81154Y229836D01*
X81152Y229835D01*
X81055Y229731D01*
X80959Y229630D01*
X80959Y229629D01*
X80958Y229628D01*
X80893Y229502D01*
X80829Y229378D01*
X80829Y229376D01*
X80828Y229375D01*
X80826Y229360D01*
X80774Y229099D01*
X80777Y229068D01*
X80773Y229043D01*
X80773Y223295D01*
X80780Y223247D01*
X80779Y223242D01*
X80781Y223237D01*
X80785Y223208D01*
X80788Y223121D01*
X80805Y223068D01*
X80813Y223013D01*
X80848Y222933D01*
X80875Y222850D01*
X80903Y222811D01*
X80929Y222754D01*
X81025Y222640D01*
X81070Y222577D01*
X107443Y196204D01*
X107443Y166145D01*
X107455Y166058D01*
X107458Y165971D01*
X107475Y165918D01*
X107483Y165863D01*
X107518Y165783D01*
X107545Y165700D01*
X107573Y165661D01*
X107599Y165604D01*
X107695Y165490D01*
X107740Y165427D01*
X123517Y149650D01*
X123587Y149598D01*
X123650Y149538D01*
X123700Y149512D01*
X123744Y149479D01*
X123826Y149448D01*
X123904Y149408D01*
X123951Y149400D01*
X124010Y149378D01*
X124157Y149366D01*
X124235Y149353D01*
X124352Y149353D01*
X126500Y148463D01*
X128143Y146820D01*
X129033Y144672D01*
X129033Y142348D01*
X128143Y140200D01*
X126500Y138557D01*
X124352Y137667D01*
X122028Y137667D01*
X119880Y138557D01*
X118237Y140200D01*
X117347Y142348D01*
X117347Y142465D01*
X117335Y142552D01*
X117332Y142639D01*
X117315Y142692D01*
X117307Y142747D01*
X117272Y142827D01*
X117245Y142910D01*
X117217Y142949D01*
X117191Y143006D01*
X117095Y143120D01*
X117050Y143183D01*
X98297Y161936D01*
X98297Y191995D01*
X98285Y192082D01*
X98282Y192169D01*
X98265Y192222D01*
X98257Y192277D01*
X98222Y192357D01*
X98195Y192440D01*
X98167Y192479D01*
X98141Y192536D01*
X98045Y192650D01*
X98000Y192713D01*
X71627Y219086D01*
X71627Y229043D01*
X71627Y229045D01*
X71627Y229047D01*
X71607Y229184D01*
X71587Y229325D01*
X71587Y229326D01*
X71587Y229328D01*
X71530Y229454D01*
X71471Y229584D01*
X71470Y229586D01*
X71469Y229587D01*
X71378Y229694D01*
X71288Y229801D01*
X71286Y229802D01*
X71285Y229803D01*
X71272Y229812D01*
X71051Y229959D01*
X71022Y229968D01*
X71001Y229981D01*
X69149Y230748D01*
X65648Y234249D01*
X63753Y238824D01*
X63753Y243776D01*
X65723Y248531D01*
X65752Y248643D01*
X65786Y248752D01*
X65787Y248780D01*
X65794Y248807D01*
X65791Y248921D01*
X65794Y249036D01*
X65787Y249063D01*
X65786Y249091D01*
X65751Y249200D01*
X65722Y249311D01*
X65708Y249335D01*
X65699Y249362D01*
X65635Y249457D01*
X65577Y249556D01*
X65556Y249575D01*
X65541Y249598D01*
X65453Y249672D01*
X65369Y249750D01*
X65345Y249763D01*
X65323Y249781D01*
X65219Y249827D01*
X65116Y249880D01*
X65092Y249884D01*
X65064Y249896D01*
X64800Y249933D01*
X64785Y249935D01*
X37933Y249935D01*
X37860Y249925D01*
X37786Y249925D01*
X37720Y249905D01*
X37651Y249895D01*
X37584Y249865D01*
X37514Y249845D01*
X37455Y249808D01*
X37392Y249779D01*
X37336Y249732D01*
X37274Y249692D01*
X37228Y249640D01*
X37175Y249596D01*
X37134Y249534D01*
X37085Y249479D01*
X37056Y249417D01*
X37017Y249359D01*
X36995Y249289D01*
X36964Y249222D01*
X36952Y249154D01*
X36932Y249088D01*
X36930Y249014D01*
X36918Y248942D01*
X36926Y248873D01*
X36924Y248804D01*
X36943Y248733D01*
X36952Y248659D01*
X36979Y248596D01*
X36996Y248529D01*
X37034Y248465D01*
X37062Y248398D01*
X37101Y248353D01*
X37141Y248284D01*
X37231Y248200D01*
X37280Y248142D01*
X42985Y243356D01*
X46971Y236451D01*
X48355Y228600D01*
X46971Y220749D01*
X42985Y213845D01*
X36878Y208720D01*
X29386Y205993D01*
X21414Y205993D01*
X13922Y208720D01*
X7815Y213844D01*
X5959Y217059D01*
X5947Y217074D01*
X5939Y217092D01*
X5860Y217186D01*
X5784Y217283D01*
X5768Y217294D01*
X5755Y217309D01*
X5653Y217378D01*
X5554Y217449D01*
X5535Y217456D01*
X5519Y217467D01*
X5401Y217504D01*
X5286Y217546D01*
X5266Y217547D01*
X5248Y217553D01*
X5125Y217556D01*
X5002Y217564D01*
X4983Y217559D01*
X4964Y217560D01*
X4845Y217529D01*
X4725Y217502D01*
X4707Y217493D01*
X4689Y217488D01*
X4583Y217426D01*
X4475Y217367D01*
X4461Y217353D01*
X4444Y217343D01*
X4360Y217253D01*
X4273Y217167D01*
X4263Y217150D01*
X4250Y217136D01*
X4194Y217026D01*
X4134Y216919D01*
X4129Y216900D01*
X4120Y216882D01*
X4108Y216810D01*
X4069Y216642D01*
X4071Y216591D01*
X4065Y216551D01*
X4065Y66090D01*
X4077Y66005D01*
X4079Y65919D01*
X4097Y65865D01*
X4105Y65809D01*
X4140Y65731D01*
X4166Y65649D01*
X4198Y65601D01*
X4221Y65550D01*
X4276Y65484D01*
X4324Y65413D01*
X4368Y65376D01*
X4404Y65333D01*
X4476Y65285D01*
X4542Y65230D01*
X4594Y65206D01*
X4641Y65175D01*
X4723Y65149D01*
X4802Y65114D01*
X4858Y65106D01*
X4912Y65089D01*
X4998Y65087D01*
X5083Y65075D01*
X5139Y65083D01*
X5196Y65082D01*
X5279Y65104D01*
X5365Y65116D01*
X5416Y65139D01*
X5471Y65154D01*
X5545Y65198D01*
X5624Y65233D01*
X5667Y65270D01*
X5716Y65299D01*
X5775Y65362D01*
X5840Y65417D01*
X5866Y65459D01*
X5910Y65506D01*
X5976Y65635D01*
X6018Y65702D01*
X6477Y66810D01*
X8120Y68453D01*
X10268Y69343D01*
X12592Y69343D01*
X14740Y68453D01*
X16383Y66810D01*
X17273Y64662D01*
X17273Y62338D01*
X16568Y60636D01*
X16567Y60634D01*
X16566Y60633D01*
X16533Y60501D01*
X16497Y60360D01*
X16497Y60359D01*
X16496Y60357D01*
X16501Y60216D01*
X16505Y60076D01*
X16505Y60075D01*
X16505Y60073D01*
X16549Y59939D01*
X16591Y59805D01*
X16592Y59804D01*
X16593Y59802D01*
X16601Y59790D01*
X16750Y59569D01*
X16773Y59549D01*
X16788Y59529D01*
X19123Y57194D01*
X19193Y57142D01*
X19256Y57082D01*
X19306Y57056D01*
X19350Y57023D01*
X19432Y56992D01*
X19510Y56952D01*
X19557Y56944D01*
X19616Y56922D01*
X19763Y56910D01*
X19841Y56897D01*
X22229Y56897D01*
X22315Y56909D01*
X22403Y56912D01*
X22456Y56929D01*
X22510Y56937D01*
X22590Y56972D01*
X22673Y56999D01*
X22713Y57027D01*
X22770Y57053D01*
X22883Y57149D01*
X22947Y57194D01*
X24427Y58675D01*
X39073Y58675D01*
X41149Y56599D01*
X41149Y47994D01*
X41144Y47989D01*
X41134Y47961D01*
X41118Y47937D01*
X41083Y47829D01*
X41043Y47723D01*
X41041Y47694D01*
X41032Y47666D01*
X41029Y47553D01*
X41020Y47440D01*
X41025Y47411D01*
X41025Y47382D01*
X41053Y47272D01*
X41075Y47161D01*
X41089Y47135D01*
X41096Y47107D01*
X41154Y47010D01*
X41206Y46909D01*
X41227Y46887D01*
X41242Y46862D01*
X41324Y46785D01*
X41402Y46703D01*
X41428Y46688D01*
X41449Y46668D01*
X41550Y46616D01*
X41647Y46559D01*
X41676Y46552D01*
X41702Y46538D01*
X41779Y46525D01*
X41923Y46489D01*
X41986Y46491D01*
X42033Y46483D01*
X70075Y46483D01*
X70162Y46495D01*
X70249Y46498D01*
X70302Y46515D01*
X70357Y46523D01*
X70437Y46558D01*
X70520Y46585D01*
X70559Y46613D01*
X70616Y46639D01*
X70730Y46735D01*
X70793Y46780D01*
X78116Y54103D01*
X87329Y54103D01*
X87416Y54115D01*
X87503Y54118D01*
X87556Y54135D01*
X87611Y54143D01*
X87691Y54178D01*
X87774Y54205D01*
X87813Y54233D01*
X87870Y54259D01*
X87984Y54355D01*
X88047Y54400D01*
X88130Y54483D01*
X90278Y55373D01*
X92602Y55373D01*
X94750Y54483D01*
X96393Y52840D01*
X97283Y50692D01*
X97283Y48368D01*
X96393Y46220D01*
X94750Y44577D01*
X92602Y43687D01*
X90278Y43687D01*
X88130Y44577D01*
X88047Y44660D01*
X87977Y44712D01*
X87914Y44772D01*
X87864Y44798D01*
X87820Y44831D01*
X87738Y44862D01*
X87660Y44902D01*
X87613Y44910D01*
X87554Y44932D01*
X87407Y44944D01*
X87329Y44957D01*
X82325Y44957D01*
X82238Y44945D01*
X82151Y44942D01*
X82098Y44925D01*
X82043Y44917D01*
X81963Y44882D01*
X81880Y44855D01*
X81841Y44827D01*
X81784Y44801D01*
X81670Y44705D01*
X81607Y44660D01*
X74284Y37337D01*
X42033Y37337D01*
X42004Y37333D01*
X41975Y37336D01*
X41864Y37313D01*
X41752Y37297D01*
X41725Y37285D01*
X41696Y37280D01*
X41595Y37227D01*
X41492Y37181D01*
X41470Y37162D01*
X41444Y37149D01*
X41362Y37071D01*
X41275Y36998D01*
X41259Y36973D01*
X41238Y36953D01*
X41181Y36855D01*
X41118Y36761D01*
X41109Y36733D01*
X41094Y36708D01*
X41066Y36598D01*
X41032Y36490D01*
X41031Y36460D01*
X41024Y36432D01*
X41028Y36319D01*
X41025Y36206D01*
X41032Y36177D01*
X41033Y36148D01*
X41068Y36040D01*
X41096Y35931D01*
X41111Y35905D01*
X41120Y35877D01*
X41149Y35838D01*
X41149Y27221D01*
X39073Y25145D01*
X24895Y25145D01*
X24781Y25129D01*
X24667Y25119D01*
X24641Y25109D01*
X24613Y25105D01*
X24508Y25058D01*
X24401Y25017D01*
X24379Y25001D01*
X24354Y24989D01*
X24266Y24915D01*
X24175Y24846D01*
X24158Y24823D01*
X24137Y24806D01*
X24073Y24710D01*
X24005Y24618D01*
X23995Y24592D01*
X23979Y24569D01*
X23945Y24459D01*
X23904Y24352D01*
X23902Y24324D01*
X23894Y24298D01*
X23891Y24183D01*
X23881Y24069D01*
X23887Y24044D01*
X23886Y24014D01*
X23953Y23757D01*
X23957Y23741D01*
X24893Y21482D01*
X24893Y19158D01*
X24003Y17010D01*
X22360Y15367D01*
X20212Y14477D01*
X17888Y14477D01*
X15740Y15367D01*
X14097Y17010D01*
X13207Y19158D01*
X13207Y21482D01*
X14097Y23630D01*
X14180Y23713D01*
X14232Y23783D01*
X14292Y23846D01*
X14318Y23896D01*
X14351Y23940D01*
X14382Y24022D01*
X14422Y24100D01*
X14430Y24147D01*
X14452Y24206D01*
X14464Y24353D01*
X14477Y24431D01*
X14477Y28564D01*
X19006Y33093D01*
X22232Y36319D01*
X22267Y36366D01*
X22310Y36406D01*
X22352Y36479D01*
X22403Y36546D01*
X22424Y36601D01*
X22453Y36651D01*
X22474Y36733D01*
X22504Y36812D01*
X22509Y36870D01*
X22523Y36927D01*
X22521Y37011D01*
X22528Y37095D01*
X22516Y37152D01*
X22514Y37211D01*
X22488Y37291D01*
X22472Y37374D01*
X22445Y37426D01*
X22427Y37481D01*
X22387Y37538D01*
X22351Y37606D01*
X22351Y46240D01*
X22356Y46245D01*
X22366Y46273D01*
X22382Y46297D01*
X22417Y46405D01*
X22457Y46511D01*
X22459Y46540D01*
X22468Y46568D01*
X22471Y46681D01*
X22480Y46794D01*
X22475Y46823D01*
X22475Y46852D01*
X22447Y46962D01*
X22425Y47073D01*
X22411Y47099D01*
X22404Y47127D01*
X22346Y47224D01*
X22294Y47325D01*
X22273Y47347D01*
X22258Y47372D01*
X22176Y47449D01*
X22098Y47531D01*
X22072Y47546D01*
X22051Y47566D01*
X21950Y47618D01*
X21853Y47675D01*
X21824Y47682D01*
X21798Y47696D01*
X21721Y47709D01*
X21577Y47745D01*
X21514Y47743D01*
X21467Y47751D01*
X15632Y47751D01*
X6857Y56526D01*
X6857Y59389D01*
X6845Y59476D01*
X6842Y59563D01*
X6825Y59616D01*
X6817Y59671D01*
X6782Y59751D01*
X6755Y59834D01*
X6727Y59873D01*
X6701Y59930D01*
X6605Y60044D01*
X6560Y60107D01*
X6477Y60190D01*
X6018Y61298D01*
X5974Y61372D01*
X5939Y61450D01*
X5902Y61494D01*
X5873Y61543D01*
X5811Y61602D01*
X5755Y61667D01*
X5708Y61699D01*
X5667Y61738D01*
X5590Y61777D01*
X5519Y61825D01*
X5465Y61842D01*
X5414Y61868D01*
X5330Y61885D01*
X5248Y61911D01*
X5191Y61912D01*
X5135Y61923D01*
X5050Y61916D01*
X4964Y61918D01*
X4909Y61904D01*
X4852Y61899D01*
X4771Y61868D01*
X4689Y61846D01*
X4640Y61817D01*
X4587Y61797D01*
X4518Y61745D01*
X4444Y61701D01*
X4405Y61660D01*
X4360Y61625D01*
X4308Y61556D01*
X4250Y61494D01*
X4224Y61443D01*
X4190Y61398D01*
X4159Y61317D01*
X4120Y61241D01*
X4112Y61192D01*
X4089Y61132D01*
X4078Y60987D01*
X4065Y60910D01*
X4065Y5080D01*
X4073Y5022D01*
X4071Y4964D01*
X4093Y4882D01*
X4105Y4798D01*
X4128Y4745D01*
X4143Y4689D01*
X4186Y4616D01*
X4221Y4539D01*
X4259Y4494D01*
X4288Y4444D01*
X4350Y4386D01*
X4404Y4322D01*
X4453Y4290D01*
X4496Y4250D01*
X4571Y4211D01*
X4641Y4164D01*
X4697Y4147D01*
X4749Y4120D01*
X4817Y4109D01*
X4912Y4079D01*
X5012Y4076D01*
X5080Y4065D01*
X64785Y4065D01*
X64899Y4081D01*
G37*
%LPC*%
G36*
X69958Y72897D02*
X69958Y72897D01*
X67810Y73787D01*
X67727Y73870D01*
X67657Y73922D01*
X67594Y73982D01*
X67544Y74008D01*
X67500Y74041D01*
X67418Y74072D01*
X67340Y74112D01*
X67293Y74120D01*
X67234Y74142D01*
X67087Y74154D01*
X67009Y74167D01*
X66686Y74167D01*
X46227Y94626D01*
X46227Y98759D01*
X46215Y98846D01*
X46212Y98933D01*
X46195Y98986D01*
X46187Y99041D01*
X46152Y99121D01*
X46125Y99204D01*
X46097Y99243D01*
X46071Y99300D01*
X45975Y99414D01*
X45930Y99477D01*
X45847Y99560D01*
X44957Y101708D01*
X44957Y101825D01*
X44945Y101912D01*
X44942Y101999D01*
X44925Y102052D01*
X44917Y102107D01*
X44882Y102187D01*
X44855Y102270D01*
X44827Y102309D01*
X44801Y102366D01*
X44705Y102480D01*
X44660Y102543D01*
X42853Y104350D01*
X42783Y104402D01*
X42720Y104462D01*
X42670Y104488D01*
X42626Y104521D01*
X42544Y104552D01*
X42466Y104592D01*
X42419Y104600D01*
X42360Y104622D01*
X42213Y104634D01*
X42135Y104647D01*
X31126Y104647D01*
X22097Y113676D01*
X22097Y127624D01*
X25073Y130600D01*
X29420Y134947D01*
X32396Y137923D01*
X85279Y137923D01*
X85281Y137923D01*
X85283Y137923D01*
X85422Y137943D01*
X85561Y137963D01*
X85562Y137963D01*
X85564Y137963D01*
X85690Y138020D01*
X85820Y138079D01*
X85822Y138080D01*
X85823Y138081D01*
X85928Y138170D01*
X86037Y138262D01*
X86038Y138264D01*
X86039Y138265D01*
X86048Y138278D01*
X86195Y138499D01*
X86204Y138528D01*
X86217Y138549D01*
X86487Y139200D01*
X88130Y140843D01*
X90278Y141733D01*
X92602Y141733D01*
X94750Y140843D01*
X96393Y139200D01*
X97283Y137052D01*
X97283Y134728D01*
X96393Y132580D01*
X94750Y130937D01*
X94178Y130700D01*
X94079Y130642D01*
X93977Y130589D01*
X93957Y130570D01*
X93933Y130556D01*
X93854Y130472D01*
X93771Y130393D01*
X93757Y130369D01*
X93738Y130349D01*
X93686Y130247D01*
X93627Y130148D01*
X93621Y130121D01*
X93608Y130096D01*
X93586Y129984D01*
X93557Y129872D01*
X93558Y129844D01*
X93553Y129817D01*
X93563Y129703D01*
X93566Y129588D01*
X93575Y129562D01*
X93577Y129534D01*
X93618Y129427D01*
X93654Y129317D01*
X93668Y129297D01*
X93679Y129269D01*
X93840Y129056D01*
X93849Y129044D01*
X93853Y129040D01*
X94743Y126892D01*
X94743Y124568D01*
X93853Y122420D01*
X92210Y120777D01*
X90062Y119887D01*
X87738Y119887D01*
X85590Y120777D01*
X85507Y120860D01*
X85437Y120912D01*
X85374Y120972D01*
X85324Y120998D01*
X85280Y121031D01*
X85198Y121062D01*
X85120Y121102D01*
X85073Y121110D01*
X85014Y121132D01*
X84867Y121144D01*
X84789Y121157D01*
X43517Y121157D01*
X43515Y121157D01*
X43513Y121157D01*
X43373Y121137D01*
X43235Y121117D01*
X43234Y121117D01*
X43232Y121117D01*
X43106Y121060D01*
X42976Y121001D01*
X42974Y121000D01*
X42973Y120999D01*
X42864Y120907D01*
X42759Y120818D01*
X42758Y120816D01*
X42757Y120815D01*
X42748Y120802D01*
X42601Y120581D01*
X42592Y120552D01*
X42579Y120531D01*
X41783Y118610D01*
X40140Y116967D01*
X37992Y116077D01*
X35668Y116077D01*
X35197Y116272D01*
X35113Y116294D01*
X35033Y116324D01*
X34976Y116329D01*
X34921Y116343D01*
X34835Y116341D01*
X34750Y116348D01*
X34694Y116337D01*
X34637Y116335D01*
X34555Y116309D01*
X34471Y116292D01*
X34421Y116266D01*
X34366Y116249D01*
X34295Y116201D01*
X34219Y116161D01*
X34178Y116122D01*
X34130Y116090D01*
X34075Y116025D01*
X34013Y115965D01*
X33984Y115916D01*
X33947Y115873D01*
X33912Y115794D01*
X33869Y115720D01*
X33855Y115665D01*
X33832Y115613D01*
X33820Y115528D01*
X33799Y115445D01*
X33801Y115388D01*
X33793Y115331D01*
X33805Y115246D01*
X33808Y115160D01*
X33825Y115106D01*
X33834Y115050D01*
X33869Y114972D01*
X33895Y114890D01*
X33924Y114850D01*
X33951Y114791D01*
X34045Y114681D01*
X34090Y114617D01*
X34617Y114090D01*
X34687Y114037D01*
X34750Y113978D01*
X34800Y113952D01*
X34844Y113919D01*
X34926Y113888D01*
X35004Y113848D01*
X35051Y113840D01*
X35110Y113818D01*
X35257Y113806D01*
X35335Y113793D01*
X46344Y113793D01*
X51127Y109010D01*
X51197Y108958D01*
X51260Y108898D01*
X51310Y108872D01*
X51354Y108839D01*
X51436Y108808D01*
X51514Y108768D01*
X51561Y108760D01*
X51620Y108738D01*
X51767Y108726D01*
X51845Y108713D01*
X51962Y108713D01*
X54110Y107823D01*
X55753Y106180D01*
X56643Y104032D01*
X56643Y101708D01*
X55753Y99560D01*
X55708Y99515D01*
X55673Y99468D01*
X55630Y99428D01*
X55588Y99355D01*
X55537Y99288D01*
X55516Y99233D01*
X55486Y99183D01*
X55466Y99101D01*
X55436Y99022D01*
X55431Y98964D01*
X55416Y98907D01*
X55419Y98823D01*
X55412Y98739D01*
X55424Y98681D01*
X55425Y98623D01*
X55451Y98543D01*
X55468Y98460D01*
X55495Y98408D01*
X55513Y98352D01*
X55553Y98296D01*
X55599Y98208D01*
X55668Y98135D01*
X55708Y98079D01*
X68945Y84842D01*
X68947Y84841D01*
X68948Y84839D01*
X69063Y84753D01*
X69172Y84671D01*
X69174Y84670D01*
X69175Y84669D01*
X69307Y84620D01*
X69438Y84570D01*
X69440Y84569D01*
X69441Y84569D01*
X69582Y84558D01*
X69721Y84546D01*
X69723Y84546D01*
X69725Y84546D01*
X69742Y84550D01*
X69905Y84583D01*
X72282Y84583D01*
X74430Y83693D01*
X76073Y82050D01*
X76963Y79902D01*
X76963Y77578D01*
X76073Y75430D01*
X74430Y73787D01*
X72282Y72897D01*
X69958Y72897D01*
G37*
%LPD*%
%LPC*%
G36*
X138538Y58419D02*
X138538Y58419D01*
X136390Y59309D01*
X134747Y60952D01*
X133857Y63100D01*
X133857Y65424D01*
X134747Y67572D01*
X135418Y68243D01*
X135453Y68290D01*
X135496Y68330D01*
X135539Y68403D01*
X135589Y68470D01*
X135610Y68525D01*
X135640Y68575D01*
X135660Y68657D01*
X135690Y68736D01*
X135695Y68794D01*
X135710Y68851D01*
X135707Y68935D01*
X135714Y69019D01*
X135702Y69077D01*
X135701Y69135D01*
X135675Y69215D01*
X135658Y69298D01*
X135631Y69350D01*
X135613Y69406D01*
X135573Y69462D01*
X135527Y69550D01*
X135458Y69623D01*
X135418Y69679D01*
X134747Y70350D01*
X133857Y72498D01*
X133857Y74822D01*
X134747Y76970D01*
X136390Y78613D01*
X138538Y79503D01*
X140862Y79503D01*
X143010Y78613D01*
X143055Y78568D01*
X143102Y78533D01*
X143142Y78490D01*
X143215Y78448D01*
X143282Y78397D01*
X143337Y78376D01*
X143387Y78346D01*
X143469Y78326D01*
X143548Y78296D01*
X143606Y78291D01*
X143663Y78276D01*
X143747Y78279D01*
X143831Y78272D01*
X143889Y78284D01*
X143947Y78285D01*
X144027Y78311D01*
X144110Y78328D01*
X144162Y78355D01*
X144218Y78373D01*
X144274Y78413D01*
X144362Y78459D01*
X144435Y78528D01*
X144491Y78568D01*
X211466Y145543D01*
X213059Y145543D01*
X213146Y145555D01*
X213233Y145558D01*
X213286Y145575D01*
X213341Y145583D01*
X213421Y145618D01*
X213504Y145645D01*
X213543Y145673D01*
X213600Y145699D01*
X213714Y145795D01*
X213777Y145840D01*
X213860Y145923D01*
X216008Y146813D01*
X218332Y146813D01*
X220480Y145923D01*
X222123Y144280D01*
X223013Y142132D01*
X223013Y139808D01*
X222123Y137660D01*
X221071Y136608D01*
X221036Y136561D01*
X220993Y136521D01*
X220951Y136448D01*
X220900Y136381D01*
X220879Y136326D01*
X220849Y136276D01*
X220829Y136194D01*
X220799Y136115D01*
X220794Y136057D01*
X220779Y136000D01*
X220782Y135916D01*
X220775Y135832D01*
X220787Y135774D01*
X220788Y135716D01*
X220814Y135636D01*
X220831Y135553D01*
X220858Y135501D01*
X220876Y135445D01*
X220916Y135389D01*
X220962Y135301D01*
X221031Y135228D01*
X221071Y135172D01*
X222123Y134120D01*
X223013Y131972D01*
X223013Y129648D01*
X222123Y127500D01*
X220480Y125857D01*
X218332Y124967D01*
X216008Y124967D01*
X213860Y125857D01*
X213815Y125902D01*
X213768Y125937D01*
X213728Y125980D01*
X213655Y126022D01*
X213588Y126073D01*
X213533Y126094D01*
X213483Y126124D01*
X213401Y126144D01*
X213322Y126174D01*
X213264Y126179D01*
X213207Y126194D01*
X213123Y126191D01*
X213039Y126198D01*
X212981Y126186D01*
X212923Y126185D01*
X212843Y126159D01*
X212760Y126142D01*
X212708Y126115D01*
X212652Y126097D01*
X212596Y126057D01*
X212508Y126011D01*
X212435Y125942D01*
X212379Y125902D01*
X149142Y62665D01*
X146166Y59689D01*
X143811Y59689D01*
X143724Y59677D01*
X143637Y59674D01*
X143584Y59657D01*
X143529Y59649D01*
X143449Y59614D01*
X143366Y59587D01*
X143327Y59559D01*
X143270Y59533D01*
X143156Y59437D01*
X143093Y59392D01*
X143010Y59309D01*
X140862Y58419D01*
X138538Y58419D01*
G37*
%LPD*%
%LPC*%
G36*
X180448Y147319D02*
X180448Y147319D01*
X178300Y148209D01*
X176657Y149852D01*
X175767Y152000D01*
X175767Y154324D01*
X176657Y156472D01*
X178300Y158115D01*
X180448Y159005D01*
X180565Y159005D01*
X180652Y159017D01*
X180739Y159020D01*
X180792Y159037D01*
X180847Y159045D01*
X180927Y159080D01*
X181010Y159107D01*
X181049Y159135D01*
X181106Y159161D01*
X181220Y159257D01*
X181283Y159302D01*
X193940Y171959D01*
X199597Y171959D01*
X199626Y171963D01*
X199656Y171960D01*
X199767Y171983D01*
X199879Y171999D01*
X199906Y172011D01*
X199934Y172016D01*
X200035Y172069D01*
X200138Y172115D01*
X200161Y172134D01*
X200187Y172147D01*
X200269Y172225D01*
X200355Y172298D01*
X200372Y172323D01*
X200393Y172343D01*
X200450Y172441D01*
X200513Y172535D01*
X200522Y172563D01*
X200537Y172588D01*
X200564Y172698D01*
X200599Y172806D01*
X200599Y172836D01*
X200607Y172864D01*
X200603Y172977D01*
X200606Y173090D01*
X200599Y173119D01*
X200598Y173148D01*
X200563Y173256D01*
X200534Y173365D01*
X200519Y173391D01*
X200510Y173419D01*
X200465Y173483D01*
X200389Y173610D01*
X200343Y173653D01*
X200315Y173692D01*
X199517Y174490D01*
X198627Y176638D01*
X198627Y178962D01*
X199517Y181110D01*
X201160Y182753D01*
X203308Y183643D01*
X205632Y183643D01*
X207780Y182753D01*
X207863Y182670D01*
X207933Y182618D01*
X207996Y182558D01*
X208046Y182532D01*
X208090Y182499D01*
X208172Y182468D01*
X208250Y182428D01*
X208297Y182420D01*
X208356Y182398D01*
X208503Y182386D01*
X208581Y182373D01*
X209427Y182373D01*
X209456Y182377D01*
X209485Y182374D01*
X209596Y182397D01*
X209708Y182413D01*
X209735Y182425D01*
X209764Y182430D01*
X209865Y182483D01*
X209968Y182529D01*
X209990Y182548D01*
X210016Y182561D01*
X210098Y182639D01*
X210185Y182712D01*
X210201Y182737D01*
X210222Y182757D01*
X210279Y182855D01*
X210342Y182949D01*
X210351Y182977D01*
X210366Y183002D01*
X210394Y183112D01*
X210428Y183220D01*
X210429Y183250D01*
X210436Y183278D01*
X210432Y183391D01*
X210435Y183504D01*
X210428Y183533D01*
X210427Y183562D01*
X210392Y183670D01*
X210364Y183779D01*
X210349Y183805D01*
X210340Y183833D01*
X210311Y183872D01*
X210311Y192489D01*
X212387Y194565D01*
X227033Y194565D01*
X228513Y193084D01*
X228583Y193032D01*
X228647Y192972D01*
X228696Y192946D01*
X228741Y192913D01*
X228822Y192882D01*
X228900Y192842D01*
X228948Y192834D01*
X229006Y192812D01*
X229154Y192800D01*
X229231Y192787D01*
X235245Y192787D01*
X235246Y192787D01*
X235248Y192787D01*
X235389Y192807D01*
X235526Y192827D01*
X235528Y192827D01*
X235529Y192827D01*
X235657Y192885D01*
X235786Y192943D01*
X235787Y192944D01*
X235788Y192945D01*
X235895Y193036D01*
X236003Y193126D01*
X236003Y193128D01*
X236005Y193129D01*
X236013Y193142D01*
X236160Y193363D01*
X236169Y193392D01*
X236183Y193413D01*
X236347Y193810D01*
X237990Y195453D01*
X240138Y196343D01*
X242462Y196343D01*
X244610Y195453D01*
X246253Y193810D01*
X247143Y191662D01*
X247143Y189338D01*
X246253Y187190D01*
X244610Y185547D01*
X242462Y184657D01*
X242345Y184657D01*
X242258Y184645D01*
X242171Y184642D01*
X242118Y184625D01*
X242063Y184617D01*
X241983Y184582D01*
X241900Y184555D01*
X241861Y184527D01*
X241804Y184501D01*
X241690Y184405D01*
X241627Y184360D01*
X240908Y183641D01*
X229993Y183641D01*
X229964Y183637D01*
X229935Y183640D01*
X229824Y183617D01*
X229712Y183601D01*
X229685Y183589D01*
X229656Y183584D01*
X229555Y183531D01*
X229452Y183485D01*
X229430Y183466D01*
X229404Y183453D01*
X229322Y183375D01*
X229235Y183302D01*
X229219Y183277D01*
X229198Y183257D01*
X229141Y183159D01*
X229078Y183065D01*
X229069Y183037D01*
X229054Y183012D01*
X229026Y182902D01*
X228992Y182794D01*
X228991Y182764D01*
X228984Y182736D01*
X228988Y182623D01*
X228985Y182510D01*
X228992Y182481D01*
X228993Y182452D01*
X229028Y182344D01*
X229056Y182235D01*
X229071Y182209D01*
X229080Y182181D01*
X229109Y182142D01*
X229109Y173525D01*
X228894Y173311D01*
X228878Y173289D01*
X228858Y173272D01*
X228841Y173247D01*
X228817Y173224D01*
X228774Y173151D01*
X228723Y173084D01*
X228712Y173053D01*
X228700Y173035D01*
X228693Y173012D01*
X228673Y172979D01*
X228652Y172897D01*
X228622Y172818D01*
X228619Y172779D01*
X228614Y172764D01*
X228614Y172745D01*
X228603Y172703D01*
X228606Y172619D01*
X228599Y172535D01*
X228607Y172492D01*
X228607Y172480D01*
X228610Y172466D01*
X228612Y172419D01*
X228638Y172339D01*
X228655Y172256D01*
X228676Y172214D01*
X228679Y172205D01*
X228684Y172195D01*
X228699Y172148D01*
X228739Y172092D01*
X228785Y172004D01*
X228819Y171968D01*
X228824Y171960D01*
X228849Y171937D01*
X228854Y171931D01*
X228894Y171875D01*
X229109Y171661D01*
X229109Y163111D01*
X227033Y161035D01*
X212387Y161035D01*
X210907Y162516D01*
X210837Y162568D01*
X210773Y162628D01*
X210724Y162654D01*
X210680Y162687D01*
X210598Y162718D01*
X210520Y162758D01*
X210472Y162766D01*
X210414Y162788D01*
X210266Y162800D01*
X210189Y162813D01*
X198149Y162813D01*
X198062Y162801D01*
X197975Y162798D01*
X197922Y162781D01*
X197867Y162773D01*
X197787Y162738D01*
X197704Y162711D01*
X197665Y162683D01*
X197608Y162657D01*
X197494Y162561D01*
X197431Y162516D01*
X187750Y152835D01*
X187698Y152765D01*
X187638Y152702D01*
X187612Y152652D01*
X187579Y152608D01*
X187548Y152526D01*
X187508Y152448D01*
X187500Y152401D01*
X187478Y152342D01*
X187466Y152195D01*
X187453Y152117D01*
X187453Y152000D01*
X186563Y149852D01*
X184920Y148209D01*
X182772Y147319D01*
X180448Y147319D01*
G37*
%LPD*%
%LPC*%
G36*
X207118Y53847D02*
X207118Y53847D01*
X204970Y54737D01*
X203327Y56380D01*
X202437Y58528D01*
X202437Y60852D01*
X203327Y63000D01*
X203410Y63083D01*
X203462Y63153D01*
X203522Y63216D01*
X203548Y63266D01*
X203581Y63310D01*
X203612Y63392D01*
X203652Y63470D01*
X203660Y63517D01*
X203682Y63576D01*
X203694Y63723D01*
X203707Y63801D01*
X203707Y65790D01*
X203703Y65821D01*
X203705Y65852D01*
X203697Y65895D01*
X203697Y65902D01*
X203689Y65933D01*
X203683Y65961D01*
X203667Y66071D01*
X203655Y66100D01*
X203648Y66131D01*
X203626Y66173D01*
X203625Y66177D01*
X203615Y66194D01*
X203597Y66229D01*
X203551Y66331D01*
X203531Y66355D01*
X203516Y66383D01*
X203481Y66419D01*
X203480Y66422D01*
X203469Y66432D01*
X203439Y66463D01*
X203368Y66548D01*
X203341Y66565D01*
X203320Y66588D01*
X203275Y66613D01*
X203272Y66616D01*
X203257Y66624D01*
X203223Y66644D01*
X203131Y66705D01*
X203101Y66715D01*
X203074Y66731D01*
X203025Y66743D01*
X203019Y66746D01*
X203000Y66749D01*
X202966Y66758D01*
X202860Y66791D01*
X202828Y66792D01*
X202798Y66800D01*
X202716Y66797D01*
X202688Y66801D01*
X193718Y66801D01*
X191642Y68877D01*
X191642Y83523D01*
X193123Y85003D01*
X193175Y85073D01*
X193235Y85137D01*
X193261Y85186D01*
X193294Y85231D01*
X193325Y85312D01*
X193365Y85390D01*
X193373Y85438D01*
X193395Y85496D01*
X193407Y85644D01*
X193420Y85721D01*
X193420Y91266D01*
X193408Y91353D01*
X193405Y91440D01*
X193388Y91493D01*
X193380Y91548D01*
X193345Y91628D01*
X193318Y91711D01*
X193290Y91750D01*
X193264Y91807D01*
X193168Y91921D01*
X193123Y91984D01*
X191897Y93210D01*
X191007Y95358D01*
X191007Y97682D01*
X191897Y99830D01*
X193540Y101473D01*
X195688Y102363D01*
X198012Y102363D01*
X200160Y101473D01*
X201803Y99830D01*
X202693Y97682D01*
X202693Y95358D01*
X202643Y95238D01*
X202635Y95208D01*
X202621Y95180D01*
X202608Y95103D01*
X202572Y94963D01*
X202574Y94898D01*
X202566Y94849D01*
X202566Y86483D01*
X202570Y86454D01*
X202567Y86425D01*
X202590Y86314D01*
X202606Y86202D01*
X202618Y86175D01*
X202623Y86146D01*
X202676Y86045D01*
X202722Y85942D01*
X202741Y85920D01*
X202754Y85894D01*
X202832Y85812D01*
X202905Y85725D01*
X202930Y85709D01*
X202950Y85688D01*
X203048Y85631D01*
X203142Y85568D01*
X203170Y85559D01*
X203195Y85544D01*
X203305Y85516D01*
X203413Y85482D01*
X203443Y85481D01*
X203471Y85474D01*
X203584Y85478D01*
X203697Y85475D01*
X203726Y85482D01*
X203755Y85483D01*
X203863Y85518D01*
X203972Y85546D01*
X203998Y85561D01*
X204026Y85570D01*
X204065Y85599D01*
X212682Y85599D01*
X214758Y83523D01*
X214758Y68877D01*
X213150Y67270D01*
X213098Y67200D01*
X213038Y67136D01*
X213012Y67087D01*
X212979Y67042D01*
X212948Y66961D01*
X212908Y66883D01*
X212900Y66835D01*
X212878Y66777D01*
X212866Y66629D01*
X212853Y66552D01*
X212853Y63801D01*
X212865Y63714D01*
X212868Y63627D01*
X212885Y63574D01*
X212893Y63519D01*
X212928Y63439D01*
X212955Y63356D01*
X212983Y63317D01*
X213009Y63260D01*
X213105Y63146D01*
X213150Y63083D01*
X213233Y63000D01*
X214123Y60852D01*
X214123Y58528D01*
X213233Y56380D01*
X211590Y54737D01*
X209442Y53847D01*
X207118Y53847D01*
G37*
%LPD*%
%LPC*%
G36*
X64878Y161797D02*
X64878Y161797D01*
X62730Y162687D01*
X62647Y162770D01*
X62577Y162822D01*
X62514Y162882D01*
X62464Y162908D01*
X62420Y162941D01*
X62338Y162972D01*
X62260Y163012D01*
X62213Y163020D01*
X62154Y163042D01*
X62007Y163054D01*
X61929Y163067D01*
X56526Y163067D01*
X51248Y168345D01*
X51201Y168381D01*
X51161Y168423D01*
X51088Y168466D01*
X51021Y168516D01*
X50966Y168537D01*
X50915Y168567D01*
X50834Y168588D01*
X50755Y168618D01*
X50697Y168622D01*
X50640Y168637D01*
X50555Y168634D01*
X50472Y168641D01*
X50414Y168630D01*
X50356Y168628D01*
X50275Y168602D01*
X50193Y168585D01*
X50141Y168558D01*
X50085Y168540D01*
X50029Y168500D01*
X49940Y168454D01*
X49885Y168401D01*
X41318Y168401D01*
X39242Y170477D01*
X39242Y185123D01*
X40850Y186730D01*
X40902Y186800D01*
X40962Y186864D01*
X40988Y186913D01*
X41021Y186958D01*
X41052Y187039D01*
X41092Y187117D01*
X41100Y187165D01*
X41122Y187223D01*
X41134Y187371D01*
X41147Y187448D01*
X41147Y188929D01*
X41135Y189016D01*
X41132Y189103D01*
X41115Y189156D01*
X41107Y189211D01*
X41072Y189291D01*
X41045Y189374D01*
X41017Y189413D01*
X40991Y189470D01*
X40895Y189584D01*
X40850Y189647D01*
X40767Y189730D01*
X39877Y191878D01*
X39877Y194202D01*
X40767Y196350D01*
X42410Y197993D01*
X44558Y198883D01*
X46882Y198883D01*
X49030Y197993D01*
X50673Y196350D01*
X51563Y194202D01*
X51563Y191878D01*
X50673Y189730D01*
X50590Y189647D01*
X50538Y189577D01*
X50478Y189514D01*
X50452Y189464D01*
X50419Y189420D01*
X50388Y189338D01*
X50348Y189260D01*
X50340Y189213D01*
X50318Y189154D01*
X50306Y189007D01*
X50293Y188929D01*
X50293Y188210D01*
X50297Y188179D01*
X50295Y188148D01*
X50303Y188105D01*
X50303Y188098D01*
X50311Y188067D01*
X50317Y188039D01*
X50333Y187929D01*
X50345Y187900D01*
X50352Y187869D01*
X50374Y187827D01*
X50375Y187823D01*
X50385Y187806D01*
X50403Y187771D01*
X50449Y187669D01*
X50469Y187645D01*
X50484Y187617D01*
X50519Y187581D01*
X50520Y187578D01*
X50531Y187568D01*
X50561Y187537D01*
X50632Y187452D01*
X50659Y187435D01*
X50680Y187412D01*
X50725Y187387D01*
X50728Y187384D01*
X50743Y187376D01*
X50777Y187356D01*
X50869Y187295D01*
X50899Y187285D01*
X50926Y187269D01*
X50975Y187257D01*
X50981Y187254D01*
X51000Y187251D01*
X51034Y187242D01*
X51140Y187209D01*
X51172Y187208D01*
X51202Y187200D01*
X51284Y187203D01*
X51312Y187199D01*
X60282Y187199D01*
X62358Y185123D01*
X62358Y173958D01*
X62374Y173845D01*
X62384Y173730D01*
X62394Y173704D01*
X62398Y173677D01*
X62445Y173572D01*
X62486Y173465D01*
X62502Y173443D01*
X62514Y173417D01*
X62588Y173330D01*
X62657Y173238D01*
X62680Y173222D01*
X62697Y173200D01*
X62793Y173137D01*
X62885Y173068D01*
X62911Y173058D01*
X62934Y173043D01*
X63044Y173008D01*
X63151Y172968D01*
X63179Y172965D01*
X63205Y172957D01*
X63320Y172954D01*
X63434Y172945D01*
X63459Y172951D01*
X63489Y172950D01*
X63746Y173017D01*
X63762Y173020D01*
X64878Y173483D01*
X67202Y173483D01*
X69350Y172593D01*
X70993Y170950D01*
X71883Y168802D01*
X71883Y166478D01*
X70993Y164330D01*
X69350Y162687D01*
X67202Y161797D01*
X64878Y161797D01*
G37*
%LPD*%
%LPC*%
G36*
X138538Y99567D02*
X138538Y99567D01*
X136390Y100457D01*
X134747Y102100D01*
X133857Y104248D01*
X133857Y106572D01*
X134747Y108720D01*
X134830Y108803D01*
X134882Y108873D01*
X134942Y108936D01*
X134968Y108986D01*
X135001Y109030D01*
X135032Y109112D01*
X135072Y109190D01*
X135080Y109237D01*
X135102Y109296D01*
X135114Y109443D01*
X135127Y109521D01*
X135127Y158104D01*
X138640Y161617D01*
X138692Y161687D01*
X138752Y161750D01*
X138778Y161800D01*
X138811Y161844D01*
X138842Y161926D01*
X138882Y162004D01*
X138890Y162051D01*
X138912Y162110D01*
X138924Y162257D01*
X138937Y162335D01*
X138937Y162452D01*
X139827Y164600D01*
X141470Y166243D01*
X143618Y167133D01*
X145942Y167133D01*
X148090Y166243D01*
X149733Y164600D01*
X150623Y162452D01*
X150623Y160128D01*
X149733Y157980D01*
X148090Y156337D01*
X145942Y155447D01*
X145825Y155447D01*
X145738Y155435D01*
X145651Y155432D01*
X145598Y155415D01*
X145543Y155407D01*
X145463Y155372D01*
X145380Y155345D01*
X145341Y155317D01*
X145284Y155291D01*
X145170Y155195D01*
X145107Y155150D01*
X144570Y154613D01*
X144518Y154543D01*
X144458Y154480D01*
X144432Y154430D01*
X144399Y154386D01*
X144368Y154304D01*
X144328Y154226D01*
X144320Y154179D01*
X144298Y154120D01*
X144286Y153973D01*
X144273Y153895D01*
X144273Y109521D01*
X144285Y109434D01*
X144288Y109347D01*
X144305Y109294D01*
X144313Y109239D01*
X144348Y109159D01*
X144375Y109076D01*
X144403Y109037D01*
X144429Y108980D01*
X144525Y108866D01*
X144570Y108803D01*
X144653Y108720D01*
X145543Y106572D01*
X145543Y104248D01*
X144653Y102100D01*
X143010Y100457D01*
X140862Y99567D01*
X138538Y99567D01*
G37*
%LPD*%
%LPC*%
G36*
X125838Y185927D02*
X125838Y185927D01*
X123690Y186817D01*
X122047Y188460D01*
X121157Y190608D01*
X121157Y192932D01*
X122047Y195080D01*
X123690Y196723D01*
X125838Y197613D01*
X128162Y197613D01*
X130310Y196723D01*
X130393Y196640D01*
X130463Y196588D01*
X130526Y196528D01*
X130576Y196502D01*
X130620Y196469D01*
X130702Y196438D01*
X130780Y196398D01*
X130827Y196390D01*
X130886Y196368D01*
X131033Y196356D01*
X131111Y196343D01*
X157669Y196343D01*
X157671Y196343D01*
X157673Y196343D01*
X157812Y196363D01*
X157951Y196383D01*
X157952Y196383D01*
X157954Y196383D01*
X158080Y196440D01*
X158210Y196499D01*
X158212Y196500D01*
X158213Y196501D01*
X158318Y196590D01*
X158427Y196682D01*
X158428Y196684D01*
X158429Y196685D01*
X158438Y196698D01*
X158585Y196919D01*
X158594Y196948D01*
X158607Y196969D01*
X158877Y197620D01*
X160520Y199263D01*
X162668Y200153D01*
X164992Y200153D01*
X167140Y199263D01*
X168783Y197620D01*
X169673Y195472D01*
X169673Y193148D01*
X168783Y191000D01*
X167140Y189357D01*
X164992Y188467D01*
X164875Y188467D01*
X164788Y188455D01*
X164701Y188452D01*
X164648Y188435D01*
X164593Y188427D01*
X164513Y188392D01*
X164430Y188365D01*
X164391Y188337D01*
X164334Y188311D01*
X164220Y188215D01*
X164157Y188170D01*
X163184Y187197D01*
X131111Y187197D01*
X131024Y187185D01*
X130937Y187182D01*
X130884Y187165D01*
X130829Y187157D01*
X130749Y187122D01*
X130666Y187095D01*
X130627Y187067D01*
X130570Y187041D01*
X130456Y186945D01*
X130393Y186900D01*
X130310Y186817D01*
X128162Y185927D01*
X125838Y185927D01*
G37*
%LPD*%
G36*
X220999Y170701D02*
X220999Y170701D01*
X221021Y170704D01*
X221028Y170720D01*
X221037Y170726D01*
X221036Y170736D01*
X221043Y170752D01*
X221043Y184849D01*
X221031Y184867D01*
X221027Y184890D01*
X221012Y184897D01*
X221006Y184906D01*
X220996Y184904D01*
X220980Y184911D01*
X218440Y184911D01*
X218421Y184899D01*
X218399Y184896D01*
X218392Y184880D01*
X218383Y184874D01*
X218384Y184864D01*
X218377Y184849D01*
X218377Y170752D01*
X218389Y170733D01*
X218393Y170710D01*
X218408Y170703D01*
X218414Y170694D01*
X218424Y170696D01*
X218440Y170689D01*
X220980Y170689D01*
X220999Y170701D01*
G37*
G36*
X33039Y34811D02*
X33039Y34811D01*
X33061Y34814D01*
X33068Y34830D01*
X33077Y34836D01*
X33076Y34846D01*
X33083Y34862D01*
X33083Y48959D01*
X33071Y48977D01*
X33067Y49000D01*
X33052Y49007D01*
X33046Y49016D01*
X33036Y49014D01*
X33020Y49021D01*
X30480Y49021D01*
X30461Y49009D01*
X30439Y49006D01*
X30432Y48990D01*
X30423Y48984D01*
X30424Y48974D01*
X30417Y48959D01*
X30417Y34862D01*
X30429Y34843D01*
X30433Y34820D01*
X30448Y34813D01*
X30454Y34804D01*
X30464Y34806D01*
X30480Y34799D01*
X33020Y34799D01*
X33039Y34811D01*
G37*
G36*
X52660Y176479D02*
X52660Y176479D01*
X52683Y176483D01*
X52690Y176498D01*
X52699Y176504D01*
X52697Y176514D01*
X52704Y176530D01*
X52704Y179070D01*
X52692Y179089D01*
X52689Y179111D01*
X52673Y179118D01*
X52667Y179127D01*
X52657Y179126D01*
X52642Y179133D01*
X43815Y179133D01*
X43796Y179121D01*
X43774Y179117D01*
X43767Y179102D01*
X43758Y179096D01*
X43759Y179086D01*
X43752Y179070D01*
X43752Y176530D01*
X43764Y176511D01*
X43768Y176489D01*
X43783Y176482D01*
X43789Y176473D01*
X43799Y176474D01*
X43815Y176467D01*
X52642Y176467D01*
X52660Y176479D01*
G37*
G36*
X210204Y74879D02*
X210204Y74879D01*
X210226Y74883D01*
X210233Y74898D01*
X210242Y74904D01*
X210241Y74914D01*
X210248Y74930D01*
X210248Y77470D01*
X210236Y77489D01*
X210232Y77511D01*
X210217Y77518D01*
X210211Y77527D01*
X210201Y77526D01*
X210185Y77533D01*
X201359Y77533D01*
X201340Y77521D01*
X201317Y77517D01*
X201310Y77502D01*
X201301Y77496D01*
X201303Y77486D01*
X201296Y77470D01*
X201296Y74930D01*
X201308Y74911D01*
X201311Y74889D01*
X201327Y74882D01*
X201333Y74873D01*
X201343Y74874D01*
X201359Y74867D01*
X210185Y74867D01*
X210204Y74879D01*
G37*
D10*
X237505Y13214D02*
X233946Y6096D01*
X230387Y13214D01*
X225811Y13214D02*
X222252Y16773D01*
X222252Y6096D01*
X225811Y6096D02*
X218693Y6096D01*
X214117Y7876D02*
X214117Y14994D01*
X212338Y16773D01*
X208778Y16773D01*
X206999Y14994D01*
X206999Y7876D01*
X208778Y6096D01*
X212338Y6096D01*
X214117Y7876D01*
X206999Y14994D01*
D11*
X37605Y28689D02*
X37605Y34303D01*
X37605Y28689D02*
X25895Y28689D01*
X25895Y34303D01*
X37605Y34303D01*
X37605Y29630D02*
X25895Y29630D01*
X25895Y30571D02*
X37605Y30571D01*
X37605Y31512D02*
X25895Y31512D01*
X25895Y32453D02*
X37605Y32453D01*
X37605Y33394D02*
X25895Y33394D01*
X37605Y39103D02*
X37605Y44717D01*
X37605Y39103D02*
X25895Y39103D01*
X25895Y44717D01*
X37605Y44717D01*
X37605Y40044D02*
X25895Y40044D01*
X25895Y40985D02*
X37605Y40985D01*
X37605Y41926D02*
X25895Y41926D01*
X25895Y42867D02*
X37605Y42867D01*
X37605Y43808D02*
X25895Y43808D01*
X37605Y49517D02*
X37605Y55131D01*
X37605Y49517D02*
X25895Y49517D01*
X25895Y55131D01*
X37605Y55131D01*
X37605Y50458D02*
X25895Y50458D01*
X25895Y51399D02*
X37605Y51399D01*
X37605Y52340D02*
X25895Y52340D01*
X25895Y53281D02*
X37605Y53281D01*
X37605Y54222D02*
X25895Y54222D01*
D12*
X152400Y12700D03*
X127000Y12700D03*
X101600Y12700D03*
X76200Y12700D03*
D13*
X7620Y246380D03*
X245110Y8890D03*
D11*
X48400Y171945D02*
X42786Y171945D01*
X42786Y183655D01*
X48400Y183655D01*
X48400Y171945D01*
X48400Y172886D02*
X42786Y172886D01*
X42786Y173827D02*
X48400Y173827D01*
X48400Y174768D02*
X42786Y174768D01*
X42786Y175709D02*
X48400Y175709D01*
X48400Y176650D02*
X42786Y176650D01*
X42786Y177591D02*
X48400Y177591D01*
X48400Y178532D02*
X42786Y178532D01*
X42786Y179473D02*
X48400Y179473D01*
X48400Y180414D02*
X42786Y180414D01*
X42786Y181355D02*
X48400Y181355D01*
X48400Y182296D02*
X42786Y182296D01*
X42786Y183237D02*
X48400Y183237D01*
X53200Y171945D02*
X58814Y171945D01*
X53200Y171945D02*
X53200Y183655D01*
X58814Y183655D01*
X58814Y171945D01*
X58814Y172886D02*
X53200Y172886D01*
X53200Y173827D02*
X58814Y173827D01*
X58814Y174768D02*
X53200Y174768D01*
X53200Y175709D02*
X58814Y175709D01*
X58814Y176650D02*
X53200Y176650D01*
X53200Y177591D02*
X58814Y177591D01*
X58814Y178532D02*
X53200Y178532D01*
X53200Y179473D02*
X58814Y179473D01*
X58814Y180414D02*
X53200Y180414D01*
X53200Y181355D02*
X58814Y181355D01*
X58814Y182296D02*
X53200Y182296D01*
X53200Y183237D02*
X58814Y183237D01*
D12*
X101600Y241300D03*
X127000Y241300D03*
X152400Y241300D03*
X177800Y241300D03*
D11*
X205600Y82055D02*
X211214Y82055D01*
X211214Y70345D01*
X205600Y70345D01*
X205600Y82055D01*
X205600Y71286D02*
X211214Y71286D01*
X211214Y72227D02*
X205600Y72227D01*
X205600Y73168D02*
X211214Y73168D01*
X211214Y74109D02*
X205600Y74109D01*
X205600Y75050D02*
X211214Y75050D01*
X211214Y75991D02*
X205600Y75991D01*
X205600Y76932D02*
X211214Y76932D01*
X211214Y77873D02*
X205600Y77873D01*
X205600Y78814D02*
X211214Y78814D01*
X211214Y79755D02*
X205600Y79755D01*
X205600Y80696D02*
X211214Y80696D01*
X211214Y81637D02*
X205600Y81637D01*
X200800Y82055D02*
X195186Y82055D01*
X200800Y82055D02*
X200800Y70345D01*
X195186Y70345D01*
X195186Y82055D01*
X195186Y71286D02*
X200800Y71286D01*
X200800Y72227D02*
X195186Y72227D01*
X195186Y73168D02*
X200800Y73168D01*
X200800Y74109D02*
X195186Y74109D01*
X195186Y75050D02*
X200800Y75050D01*
X200800Y75991D02*
X195186Y75991D01*
X195186Y76932D02*
X200800Y76932D01*
X200800Y77873D02*
X195186Y77873D01*
X195186Y78814D02*
X200800Y78814D01*
X200800Y79755D02*
X195186Y79755D01*
X195186Y80696D02*
X200800Y80696D01*
X200800Y81637D02*
X195186Y81637D01*
D12*
X177800Y12700D03*
X76200Y241300D03*
D11*
X213855Y191021D02*
X213855Y185407D01*
X213855Y191021D02*
X225565Y191021D01*
X225565Y185407D01*
X213855Y185407D01*
X213855Y186348D02*
X225565Y186348D01*
X225565Y187289D02*
X213855Y187289D01*
X213855Y188230D02*
X225565Y188230D01*
X225565Y189171D02*
X213855Y189171D01*
X213855Y190112D02*
X225565Y190112D01*
X213855Y180607D02*
X213855Y174993D01*
X213855Y180607D02*
X225565Y180607D01*
X225565Y174993D01*
X213855Y174993D01*
X213855Y175934D02*
X225565Y175934D01*
X225565Y176875D02*
X213855Y176875D01*
X213855Y177816D02*
X225565Y177816D01*
X225565Y178757D02*
X213855Y178757D01*
X213855Y179698D02*
X225565Y179698D01*
X213855Y170193D02*
X213855Y164579D01*
X213855Y170193D02*
X225565Y170193D01*
X225565Y164579D01*
X213855Y164579D01*
X213855Y165520D02*
X225565Y165520D01*
X225565Y166461D02*
X213855Y166461D01*
X213855Y167402D02*
X225565Y167402D01*
X225565Y168343D02*
X213855Y168343D01*
X213855Y169284D02*
X225565Y169284D01*
D14*
X56007Y170053D02*
X56007Y177800D01*
X58420Y167640D02*
X66040Y167640D01*
X58420Y167640D02*
X56007Y170053D01*
D15*
X66040Y167640D03*
D14*
X72390Y41910D02*
X31750Y41910D01*
X80010Y49530D02*
X91440Y49530D01*
D15*
X91440Y49530D03*
D14*
X80010Y49530D02*
X72390Y41910D01*
D15*
X38100Y142240D03*
X215900Y111760D03*
X91440Y187960D03*
X76200Y87630D03*
X182880Y80010D03*
X160020Y105410D03*
X218440Y157480D03*
X12700Y82550D03*
X48260Y82550D03*
X88900Y38100D03*
X48260Y50800D03*
X196850Y19050D03*
X139700Y38100D03*
X139700Y50800D03*
X234950Y127000D03*
X114300Y215900D03*
X165100Y215900D03*
X161290Y137160D03*
X63500Y228600D03*
X63500Y203200D03*
X48260Y24130D03*
X10160Y8890D03*
X92710Y147320D03*
X171450Y124460D03*
X88900Y63500D03*
X76200Y171450D03*
X207010Y203200D03*
D14*
X10160Y8890D02*
X4699Y14351D01*
X4699Y68199D02*
X10160Y73660D01*
X39370Y73660D02*
X48260Y82550D01*
X4699Y68199D02*
X4699Y14351D01*
X10160Y73660D02*
X39370Y73660D01*
D15*
X190500Y38100D03*
X12700Y127000D03*
X114300Y203200D03*
X127000Y124460D03*
X64770Y148590D03*
X19050Y20320D03*
D14*
X19050Y26670D02*
X23876Y31496D01*
X19050Y26670D02*
X19050Y20320D01*
X23876Y31496D02*
X31750Y31496D01*
D15*
X11430Y63500D03*
D14*
X11430Y58420D01*
X17526Y52324D02*
X31750Y52324D01*
X17526Y52324D02*
X11430Y58420D01*
D15*
X45720Y193040D03*
D14*
X45720Y177927D01*
X45593Y177800D01*
X40640Y125730D02*
X36830Y121920D01*
D15*
X36830Y121920D03*
X88900Y125730D03*
D14*
X40640Y125730D01*
X26670Y125730D02*
X26670Y115570D01*
X33020Y109220D01*
X44450Y109220D02*
X50800Y102870D01*
X44450Y109220D02*
X33020Y109220D01*
D15*
X50800Y102870D03*
X91440Y135890D03*
D14*
X88900Y133350D01*
X34290Y133350D01*
X26670Y125730D01*
D15*
X71120Y78740D03*
D14*
X68580Y78740D01*
X50800Y96520D01*
X50800Y102870D01*
D15*
X208280Y59690D03*
D14*
X208280Y76073D01*
X208407Y76200D01*
X197993Y76200D02*
X197993Y95377D01*
X196850Y96520D01*
D15*
X196850Y96520D03*
X204470Y177800D03*
D14*
X219710Y177800D01*
D15*
X139700Y105410D03*
D14*
X139700Y156210D01*
X144780Y161290D01*
D15*
X144780Y161290D03*
X127000Y191770D03*
D14*
X161290Y191770D01*
X163830Y194310D01*
D15*
X163830Y194310D03*
X123190Y143510D03*
D14*
X102870Y163830D01*
X102870Y194310D02*
X76200Y220980D01*
X76200Y241300D01*
X102870Y194310D02*
X102870Y163830D01*
X219710Y188214D02*
X239014Y188214D01*
X241300Y190500D01*
D15*
X241300Y190500D03*
X181610Y153162D03*
D14*
X195834Y167386D02*
X219710Y167386D01*
X195834Y167386D02*
X181610Y153162D01*
D15*
X139700Y64262D03*
D14*
X144272Y64262D01*
X210820Y130810D02*
X217170Y130810D01*
D15*
X217170Y130810D03*
D14*
X210820Y130810D02*
X144272Y64262D01*
D15*
X139700Y73660D03*
D14*
X146050Y73660D01*
X213360Y140970D02*
X217170Y140970D01*
X213360Y140970D02*
X146050Y73660D01*
D15*
X217170Y140970D03*
M02*
