M48
;GenerationSoftware,Autodesk,EAGLE,9.6.2*%
;CreationDate,2024-09-30T08:15:00Z*%
FMAT,2
ICI,OFF
METRIC,TZ,000.000
T3C0.305
T2C1.016
T1C3.302
%
G90
M71
T1
X2540Y22860
X22860Y22860
T2
X7620Y24130
X12700Y1270
X15240Y1270
X10160Y1270
X7620Y1270
X10160Y24130
X12700Y24130
X15240Y24130
X17780Y24130
X17780Y1270
T3
X4826Y5080
X19685Y1905
X13970Y3810
X13970Y5080
X23495Y12700
X11430Y21590
X16510Y21590
X16129Y13716
X6350Y22860
X6350Y20320
X4826Y2413
X1016Y889
X9271Y14732
X17145Y12446
X8890Y6350
X7620Y17145
X20701Y20320
X19050Y3810
X1270Y12700
X11430Y20320
X12700Y12446
X6477Y14859
X21844Y15748
X1143Y6350
X4572Y19304
X3683Y12192
X8890Y12573
X5080Y10287
X9144Y13589
X7112Y7874
X20828Y5969
X19685Y9652
X20447Y17780
X13970Y10541
X14478Y16129
X12700Y19177
X16383Y19431
X12319Y14351
X24130Y19050
X6604Y16764
X13970Y6426
X21717Y13081
X13970Y7366
X21717Y14097
X9144Y4953
X3810Y14224
X21590Y11176
X1905Y2032
X9144Y18796
X7620Y8763
X18288Y8001
X16002Y10541
X1270Y8255
X4826Y8255
X8890Y3810
X18161Y15316
M30