G04 EAGLE Gerber RS-274X export*
G75*
%MOMM*%
%FSLAX34Y34*%
%LPD*%
%INTop Copper*%
%IPPOS*%
%AMOC8*
5,1,8,0,0,1.08239X$1,22.5*%
G01*
%ADD10C,1.000000*%
%ADD11C,0.100000*%
%ADD12C,0.096000*%
%ADD13C,0.102000*%
%ADD14C,1.879600*%
%ADD15C,0.300000*%
%ADD16C,0.104000*%
%ADD17C,0.100800*%
%ADD18C,0.558800*%
%ADD19C,0.609600*%
%ADD20C,0.304800*%

G36*
X5139Y65083D02*
X5139Y65083D01*
X5196Y65082D01*
X5279Y65104D01*
X5365Y65116D01*
X5416Y65139D01*
X5471Y65154D01*
X5545Y65197D01*
X5624Y65233D01*
X5667Y65270D01*
X5716Y65299D01*
X5775Y65362D01*
X5840Y65417D01*
X5866Y65459D01*
X5910Y65506D01*
X5976Y65635D01*
X6018Y65702D01*
X6477Y66810D01*
X8120Y68453D01*
X10268Y69343D01*
X12592Y69343D01*
X13367Y69022D01*
X13368Y69021D01*
X13370Y69021D01*
X13502Y68987D01*
X13642Y68951D01*
X13644Y68951D01*
X13645Y68951D01*
X13786Y68955D01*
X13926Y68959D01*
X13928Y68960D01*
X13929Y68960D01*
X14065Y69003D01*
X14197Y69046D01*
X14198Y69047D01*
X14200Y69047D01*
X14212Y69056D01*
X14433Y69204D01*
X14453Y69227D01*
X14473Y69242D01*
X16780Y71549D01*
X29720Y71549D01*
X30524Y70745D01*
X30548Y70727D01*
X30567Y70705D01*
X30661Y70642D01*
X30751Y70574D01*
X30779Y70563D01*
X30803Y70547D01*
X30911Y70513D01*
X31017Y70472D01*
X31046Y70470D01*
X31074Y70461D01*
X31188Y70458D01*
X31300Y70449D01*
X31329Y70455D01*
X31358Y70454D01*
X31468Y70482D01*
X31579Y70505D01*
X31605Y70518D01*
X31633Y70526D01*
X31731Y70583D01*
X31831Y70636D01*
X31853Y70656D01*
X31878Y70671D01*
X31955Y70754D01*
X32037Y70832D01*
X32052Y70857D01*
X32072Y70878D01*
X32124Y70979D01*
X32181Y71077D01*
X32188Y71105D01*
X32202Y71131D01*
X32215Y71209D01*
X32251Y71352D01*
X32249Y71415D01*
X32257Y71462D01*
X32257Y117809D01*
X32250Y117862D01*
X32251Y117889D01*
X32244Y117912D01*
X32242Y117983D01*
X32225Y118036D01*
X32217Y118091D01*
X32182Y118171D01*
X32155Y118254D01*
X32127Y118293D01*
X32101Y118350D01*
X32005Y118464D01*
X31960Y118527D01*
X31877Y118610D01*
X30987Y120758D01*
X30987Y123082D01*
X31877Y125230D01*
X33520Y126873D01*
X35668Y127763D01*
X37992Y127763D01*
X39597Y127098D01*
X39709Y127069D01*
X39818Y127034D01*
X39846Y127034D01*
X39873Y127027D01*
X39987Y127030D01*
X40102Y127027D01*
X40129Y127034D01*
X40157Y127035D01*
X40266Y127070D01*
X40377Y127099D01*
X40401Y127113D01*
X40428Y127122D01*
X40523Y127186D01*
X40622Y127244D01*
X40641Y127264D01*
X40664Y127280D01*
X40738Y127368D01*
X40816Y127452D01*
X40829Y127476D01*
X40847Y127497D01*
X40893Y127602D01*
X40946Y127705D01*
X40950Y127729D01*
X40962Y127757D01*
X40999Y128021D01*
X41001Y128036D01*
X41001Y135964D01*
X41771Y136734D01*
X41812Y136788D01*
X41861Y136836D01*
X41897Y136902D01*
X41942Y136961D01*
X41966Y137025D01*
X42000Y137084D01*
X42017Y137157D01*
X42043Y137227D01*
X42049Y137295D01*
X42064Y137361D01*
X42061Y137436D01*
X42067Y137510D01*
X42053Y137577D01*
X42050Y137645D01*
X42028Y137704D01*
X42011Y137789D01*
X41959Y137890D01*
X41933Y137959D01*
X41717Y138332D01*
X41509Y139108D01*
X41509Y140501D01*
X50316Y140501D01*
X50374Y140509D01*
X50432Y140507D01*
X50514Y140529D01*
X50597Y140541D01*
X50651Y140564D01*
X50707Y140579D01*
X50780Y140622D01*
X50799Y140631D01*
X50845Y140600D01*
X50901Y140583D01*
X50953Y140556D01*
X51021Y140545D01*
X51116Y140515D01*
X51216Y140512D01*
X51284Y140501D01*
X60091Y140501D01*
X60091Y139112D01*
X60099Y139054D01*
X60097Y138996D01*
X60119Y138914D01*
X60131Y138830D01*
X60154Y138777D01*
X60169Y138721D01*
X60212Y138648D01*
X60247Y138571D01*
X60285Y138526D01*
X60314Y138476D01*
X60376Y138418D01*
X60430Y138354D01*
X60479Y138322D01*
X60522Y138282D01*
X60597Y138243D01*
X60667Y138196D01*
X60723Y138179D01*
X60775Y138152D01*
X60843Y138141D01*
X60938Y138111D01*
X61038Y138108D01*
X61106Y138097D01*
X65554Y138097D01*
X65641Y138109D01*
X65728Y138112D01*
X65781Y138129D01*
X65836Y138137D01*
X65915Y138172D01*
X65999Y138199D01*
X66038Y138227D01*
X66095Y138253D01*
X66208Y138349D01*
X66272Y138394D01*
X68536Y140658D01*
X68588Y140728D01*
X68648Y140792D01*
X68674Y140841D01*
X68707Y140885D01*
X68738Y140967D01*
X68778Y141045D01*
X68786Y141092D01*
X68808Y141151D01*
X68820Y141299D01*
X68833Y141376D01*
X68833Y153613D01*
X69761Y155853D01*
X69843Y155935D01*
X69878Y155981D01*
X69920Y156022D01*
X69963Y156095D01*
X70014Y156162D01*
X70034Y156216D01*
X70064Y156267D01*
X70085Y156349D01*
X70115Y156428D01*
X70120Y156486D01*
X70134Y156543D01*
X70131Y156627D01*
X70138Y156711D01*
X70127Y156768D01*
X70125Y156827D01*
X70099Y156907D01*
X70082Y156990D01*
X70055Y157042D01*
X70038Y157097D01*
X69998Y157153D01*
X69952Y157242D01*
X69883Y157314D01*
X69843Y157370D01*
X65713Y161500D01*
X65643Y161552D01*
X65580Y161612D01*
X65530Y161638D01*
X65486Y161671D01*
X65404Y161702D01*
X65326Y161742D01*
X65279Y161750D01*
X65220Y161772D01*
X65073Y161784D01*
X64995Y161797D01*
X64878Y161797D01*
X62730Y162687D01*
X61087Y164330D01*
X60197Y166478D01*
X60197Y168802D01*
X61087Y170950D01*
X62730Y172593D01*
X64878Y173483D01*
X67202Y173483D01*
X69350Y172593D01*
X70993Y170950D01*
X71883Y168802D01*
X71883Y168685D01*
X71895Y168598D01*
X71898Y168511D01*
X71915Y168458D01*
X71923Y168403D01*
X71958Y168323D01*
X71985Y168240D01*
X72013Y168201D01*
X72039Y168144D01*
X72135Y168030D01*
X72180Y167967D01*
X76309Y163837D01*
X76356Y163802D01*
X76396Y163760D01*
X76469Y163717D01*
X76537Y163666D01*
X76591Y163646D01*
X76642Y163616D01*
X76723Y163595D01*
X76802Y163565D01*
X76861Y163560D01*
X76917Y163546D01*
X77002Y163549D01*
X77086Y163542D01*
X77143Y163553D01*
X77201Y163555D01*
X77282Y163581D01*
X77364Y163598D01*
X77416Y163624D01*
X77472Y163642D01*
X77528Y163683D01*
X77617Y163729D01*
X77689Y163797D01*
X77745Y163837D01*
X79486Y165579D01*
X81727Y166507D01*
X82598Y166507D01*
X82684Y166519D01*
X82772Y166522D01*
X82824Y166539D01*
X82879Y166547D01*
X82959Y166582D01*
X83042Y166609D01*
X83081Y166637D01*
X83138Y166663D01*
X83252Y166759D01*
X83315Y166804D01*
X85063Y168551D01*
X85098Y168598D01*
X85140Y168638D01*
X85183Y168711D01*
X85234Y168779D01*
X85254Y168833D01*
X85284Y168884D01*
X85305Y168965D01*
X85335Y169044D01*
X85340Y169103D01*
X85354Y169159D01*
X85351Y169243D01*
X85358Y169327D01*
X85347Y169385D01*
X85345Y169443D01*
X85319Y169523D01*
X85302Y169606D01*
X85275Y169658D01*
X85257Y169714D01*
X85217Y169770D01*
X85171Y169859D01*
X85103Y169931D01*
X85063Y169987D01*
X84507Y170543D01*
X84106Y171236D01*
X83899Y172010D01*
X83899Y175379D01*
X90424Y175379D01*
X90482Y175387D01*
X90540Y175385D01*
X90622Y175407D01*
X90705Y175419D01*
X90759Y175443D01*
X90815Y175457D01*
X90888Y175500D01*
X90965Y175535D01*
X91009Y175573D01*
X91060Y175603D01*
X91117Y175664D01*
X91182Y175719D01*
X91214Y175767D01*
X91254Y175810D01*
X91293Y175885D01*
X91339Y175955D01*
X91357Y176011D01*
X91384Y176063D01*
X91395Y176131D01*
X91425Y176226D01*
X91428Y176326D01*
X91439Y176394D01*
X91439Y177411D01*
X91441Y177411D01*
X91441Y176394D01*
X91449Y176336D01*
X91448Y176278D01*
X91469Y176196D01*
X91481Y176113D01*
X91505Y176059D01*
X91519Y176003D01*
X91562Y175930D01*
X91597Y175853D01*
X91635Y175808D01*
X91665Y175758D01*
X91726Y175700D01*
X91781Y175636D01*
X91829Y175604D01*
X91872Y175564D01*
X91947Y175525D01*
X92017Y175479D01*
X92073Y175461D01*
X92125Y175434D01*
X92193Y175423D01*
X92288Y175393D01*
X92388Y175390D01*
X92456Y175379D01*
X98981Y175379D01*
X98981Y172010D01*
X98774Y171236D01*
X98373Y170543D01*
X97817Y169987D01*
X97782Y169940D01*
X97740Y169900D01*
X97697Y169827D01*
X97646Y169760D01*
X97626Y169705D01*
X97596Y169655D01*
X97575Y169573D01*
X97545Y169494D01*
X97540Y169436D01*
X97526Y169379D01*
X97529Y169295D01*
X97522Y169211D01*
X97533Y169154D01*
X97535Y169095D01*
X97561Y169015D01*
X97578Y168932D01*
X97604Y168880D01*
X97622Y168825D01*
X97663Y168768D01*
X97709Y168680D01*
X97777Y168608D01*
X97817Y168551D01*
X98310Y168058D01*
X98357Y168023D01*
X98397Y167981D01*
X98470Y167938D01*
X98538Y167887D01*
X98592Y167867D01*
X98643Y167837D01*
X98724Y167816D01*
X98803Y167786D01*
X98862Y167781D01*
X98918Y167767D01*
X99002Y167770D01*
X99087Y167763D01*
X99144Y167774D01*
X99202Y167776D01*
X99283Y167802D01*
X99365Y167818D01*
X99417Y167845D01*
X99473Y167863D01*
X99529Y167903D01*
X99618Y167949D01*
X99690Y168018D01*
X99746Y168058D01*
X103486Y171798D01*
X103538Y171868D01*
X103598Y171932D01*
X103624Y171981D01*
X103657Y172025D01*
X103688Y172107D01*
X103728Y172185D01*
X103736Y172232D01*
X103758Y172291D01*
X103770Y172439D01*
X103783Y172516D01*
X103783Y174619D01*
X103771Y174706D01*
X103768Y174793D01*
X103751Y174846D01*
X103743Y174901D01*
X103708Y174981D01*
X103705Y174990D01*
X103697Y175018D01*
X103693Y175025D01*
X103681Y175064D01*
X103653Y175103D01*
X103627Y175160D01*
X103579Y175217D01*
X103552Y175263D01*
X103513Y175299D01*
X103486Y175337D01*
X102831Y175992D01*
X102831Y186908D01*
X104922Y188999D01*
X114838Y188999D01*
X116929Y186908D01*
X116929Y175992D01*
X116274Y175337D01*
X116259Y175317D01*
X116242Y175302D01*
X116210Y175255D01*
X116162Y175203D01*
X116136Y175154D01*
X116103Y175110D01*
X116089Y175074D01*
X116084Y175066D01*
X116073Y175029D01*
X116072Y175028D01*
X116032Y174950D01*
X116024Y174903D01*
X116002Y174844D01*
X115990Y174697D01*
X115977Y174619D01*
X115977Y169014D01*
X115985Y168956D01*
X115983Y168898D01*
X116005Y168816D01*
X116017Y168732D01*
X116040Y168679D01*
X116055Y168623D01*
X116098Y168550D01*
X116133Y168473D01*
X116171Y168428D01*
X116200Y168378D01*
X116262Y168320D01*
X116316Y168256D01*
X116365Y168224D01*
X116408Y168184D01*
X116483Y168145D01*
X116553Y168098D01*
X116609Y168081D01*
X116661Y168054D01*
X116729Y168043D01*
X116824Y168013D01*
X116924Y168010D01*
X116992Y167999D01*
X124338Y167999D01*
X125493Y166844D01*
X125563Y166792D01*
X125627Y166732D01*
X125676Y166706D01*
X125720Y166673D01*
X125802Y166642D01*
X125880Y166602D01*
X125927Y166594D01*
X125986Y166572D01*
X126133Y166560D01*
X126211Y166547D01*
X128294Y166547D01*
X128381Y166559D01*
X128468Y166562D01*
X128521Y166579D01*
X128576Y166587D01*
X128655Y166622D01*
X128739Y166649D01*
X128778Y166677D01*
X128835Y166703D01*
X128948Y166799D01*
X129012Y166844D01*
X134336Y172168D01*
X134354Y172192D01*
X134376Y172211D01*
X134439Y172305D01*
X134507Y172395D01*
X134517Y172423D01*
X134534Y172447D01*
X134568Y172555D01*
X134608Y172661D01*
X134611Y172690D01*
X134619Y172718D01*
X134622Y172832D01*
X134632Y172944D01*
X134626Y172973D01*
X134627Y173002D01*
X134598Y173112D01*
X134576Y173223D01*
X134562Y173249D01*
X134555Y173277D01*
X134497Y173375D01*
X134445Y173475D01*
X134425Y173497D01*
X134410Y173522D01*
X134327Y173599D01*
X134249Y173681D01*
X134224Y173696D01*
X134202Y173716D01*
X134102Y173768D01*
X134004Y173825D01*
X133975Y173832D01*
X133949Y173846D01*
X133872Y173859D01*
X133728Y173895D01*
X133666Y173893D01*
X133618Y173901D01*
X123922Y173901D01*
X121831Y175992D01*
X121831Y186908D01*
X121997Y187074D01*
X122032Y187121D01*
X122075Y187161D01*
X122117Y187234D01*
X122168Y187301D01*
X122189Y187356D01*
X122219Y187407D01*
X122239Y187488D01*
X122269Y187567D01*
X122274Y187625D01*
X122289Y187682D01*
X122286Y187766D01*
X122293Y187850D01*
X122281Y187908D01*
X122280Y187966D01*
X122254Y188046D01*
X122237Y188129D01*
X122210Y188181D01*
X122192Y188237D01*
X122152Y188293D01*
X122106Y188381D01*
X122059Y188431D01*
X121157Y190608D01*
X121157Y192932D01*
X122047Y195080D01*
X123690Y196723D01*
X125838Y197613D01*
X128162Y197613D01*
X130310Y196723D01*
X131953Y195080D01*
X132843Y192932D01*
X132843Y192815D01*
X132855Y192728D01*
X132858Y192641D01*
X132875Y192588D01*
X132883Y192533D01*
X132918Y192453D01*
X132945Y192370D01*
X132973Y192331D01*
X132999Y192274D01*
X133095Y192160D01*
X133140Y192097D01*
X133453Y191784D01*
X133453Y189805D01*
X133460Y189755D01*
X133459Y189739D01*
X133465Y189718D01*
X133468Y189631D01*
X133485Y189578D01*
X133493Y189523D01*
X133528Y189443D01*
X133555Y189360D01*
X133583Y189321D01*
X133609Y189264D01*
X133705Y189151D01*
X133750Y189087D01*
X134410Y188427D01*
X134434Y188409D01*
X134453Y188387D01*
X134547Y188324D01*
X134637Y188256D01*
X134665Y188245D01*
X134689Y188229D01*
X134797Y188195D01*
X134903Y188155D01*
X134932Y188152D01*
X134960Y188143D01*
X135074Y188141D01*
X135186Y188131D01*
X135215Y188137D01*
X135244Y188136D01*
X135354Y188165D01*
X135465Y188187D01*
X135491Y188201D01*
X135519Y188208D01*
X135617Y188266D01*
X135717Y188318D01*
X135739Y188338D01*
X135764Y188353D01*
X135841Y188436D01*
X135923Y188514D01*
X135938Y188539D01*
X135958Y188561D01*
X136010Y188662D01*
X136067Y188759D01*
X136074Y188788D01*
X136088Y188814D01*
X136101Y188891D01*
X136137Y189035D01*
X136135Y189097D01*
X136143Y189145D01*
X136143Y205334D01*
X136131Y205421D01*
X136128Y205508D01*
X136111Y205561D01*
X136103Y205616D01*
X136068Y205695D01*
X136041Y205779D01*
X136013Y205818D01*
X135987Y205875D01*
X135891Y205988D01*
X135846Y206052D01*
X123689Y218209D01*
X121831Y220066D01*
X120903Y222307D01*
X120903Y229675D01*
X120903Y229676D01*
X120903Y229678D01*
X120883Y229815D01*
X120863Y229956D01*
X120863Y229958D01*
X120863Y229959D01*
X120806Y230085D01*
X120747Y230216D01*
X120746Y230217D01*
X120745Y230218D01*
X120657Y230322D01*
X120564Y230433D01*
X120562Y230434D01*
X120561Y230435D01*
X120548Y230443D01*
X120327Y230590D01*
X120298Y230599D01*
X120277Y230613D01*
X119949Y230748D01*
X116448Y234249D01*
X114931Y237911D01*
X114896Y237971D01*
X114870Y238035D01*
X114824Y238093D01*
X114787Y238156D01*
X114737Y238204D01*
X114694Y238258D01*
X114634Y238301D01*
X114580Y238351D01*
X114519Y238383D01*
X114462Y238423D01*
X114393Y238448D01*
X114327Y238482D01*
X114260Y238495D01*
X114194Y238518D01*
X114121Y238522D01*
X114048Y238537D01*
X113980Y238531D01*
X113911Y238535D01*
X113839Y238519D01*
X113765Y238512D01*
X113701Y238487D01*
X113633Y238472D01*
X113569Y238437D01*
X113500Y238410D01*
X113445Y238368D01*
X113384Y238335D01*
X113332Y238283D01*
X113273Y238239D01*
X113232Y238183D01*
X113183Y238134D01*
X113154Y238079D01*
X113103Y238011D01*
X113062Y237903D01*
X113028Y237837D01*
X112664Y236717D01*
X111811Y235043D01*
X110706Y233522D01*
X109378Y232194D01*
X107857Y231089D01*
X106183Y230236D01*
X104396Y229655D01*
X103631Y229534D01*
X103631Y240284D01*
X103623Y240342D01*
X103625Y240400D01*
X103603Y240482D01*
X103591Y240565D01*
X103567Y240619D01*
X103553Y240675D01*
X103510Y240748D01*
X103475Y240825D01*
X103437Y240869D01*
X103407Y240920D01*
X103346Y240977D01*
X103291Y241042D01*
X103243Y241074D01*
X103200Y241114D01*
X103125Y241153D01*
X103055Y241199D01*
X102999Y241217D01*
X102947Y241244D01*
X102879Y241255D01*
X102784Y241285D01*
X102684Y241288D01*
X102616Y241299D01*
X100584Y241299D01*
X100526Y241291D01*
X100468Y241292D01*
X100386Y241271D01*
X100303Y241259D01*
X100249Y241235D01*
X100193Y241221D01*
X100120Y241178D01*
X100043Y241143D01*
X99998Y241105D01*
X99948Y241075D01*
X99890Y241014D01*
X99826Y240959D01*
X99794Y240911D01*
X99754Y240868D01*
X99715Y240793D01*
X99669Y240723D01*
X99651Y240667D01*
X99624Y240615D01*
X99613Y240547D01*
X99583Y240452D01*
X99580Y240352D01*
X99569Y240284D01*
X99569Y229534D01*
X98804Y229655D01*
X97017Y230236D01*
X95343Y231089D01*
X93822Y232194D01*
X92494Y233522D01*
X91389Y235043D01*
X90536Y236717D01*
X90172Y237837D01*
X90142Y237899D01*
X90121Y237965D01*
X90080Y238026D01*
X90047Y238092D01*
X90001Y238143D01*
X89962Y238201D01*
X89906Y238248D01*
X89857Y238303D01*
X89798Y238339D01*
X89745Y238384D01*
X89677Y238414D01*
X89615Y238453D01*
X89548Y238471D01*
X89485Y238499D01*
X89412Y238509D01*
X89341Y238529D01*
X89272Y238529D01*
X89203Y238538D01*
X89130Y238528D01*
X89057Y238527D01*
X88991Y238507D01*
X88922Y238498D01*
X88855Y238467D01*
X88784Y238446D01*
X88726Y238409D01*
X88663Y238380D01*
X88607Y238333D01*
X88545Y238293D01*
X88499Y238241D01*
X88447Y238196D01*
X88414Y238143D01*
X88357Y238079D01*
X88308Y237975D01*
X88269Y237911D01*
X86752Y234249D01*
X83251Y230748D01*
X78676Y228853D01*
X73724Y228853D01*
X69149Y230748D01*
X65648Y234249D01*
X63753Y238824D01*
X63753Y243776D01*
X65723Y248531D01*
X65752Y248643D01*
X65786Y248752D01*
X65787Y248780D01*
X65794Y248807D01*
X65791Y248921D01*
X65794Y249036D01*
X65787Y249063D01*
X65786Y249091D01*
X65751Y249200D01*
X65722Y249311D01*
X65708Y249335D01*
X65699Y249362D01*
X65635Y249457D01*
X65577Y249556D01*
X65556Y249575D01*
X65541Y249598D01*
X65453Y249672D01*
X65369Y249750D01*
X65345Y249763D01*
X65323Y249781D01*
X65219Y249827D01*
X65116Y249880D01*
X65092Y249884D01*
X65064Y249896D01*
X64800Y249933D01*
X64785Y249935D01*
X37933Y249935D01*
X37860Y249925D01*
X37786Y249925D01*
X37720Y249905D01*
X37651Y249895D01*
X37584Y249865D01*
X37514Y249845D01*
X37455Y249808D01*
X37392Y249779D01*
X37336Y249732D01*
X37274Y249692D01*
X37228Y249640D01*
X37175Y249596D01*
X37134Y249534D01*
X37085Y249479D01*
X37056Y249417D01*
X37017Y249359D01*
X36995Y249289D01*
X36964Y249222D01*
X36952Y249154D01*
X36932Y249088D01*
X36930Y249014D01*
X36918Y248942D01*
X36926Y248873D01*
X36924Y248804D01*
X36943Y248733D01*
X36952Y248659D01*
X36979Y248596D01*
X36996Y248529D01*
X37034Y248465D01*
X37062Y248398D01*
X37101Y248353D01*
X37141Y248284D01*
X37231Y248200D01*
X37280Y248142D01*
X42985Y243356D01*
X46971Y236451D01*
X48355Y228600D01*
X46971Y220749D01*
X42985Y213845D01*
X36878Y208720D01*
X29386Y205993D01*
X21414Y205993D01*
X13922Y208720D01*
X7815Y213844D01*
X5959Y217059D01*
X5947Y217074D01*
X5939Y217092D01*
X5860Y217186D01*
X5784Y217283D01*
X5768Y217294D01*
X5755Y217309D01*
X5653Y217378D01*
X5554Y217449D01*
X5535Y217456D01*
X5519Y217467D01*
X5401Y217504D01*
X5286Y217546D01*
X5266Y217547D01*
X5248Y217553D01*
X5125Y217556D01*
X5002Y217564D01*
X4983Y217559D01*
X4964Y217560D01*
X4845Y217529D01*
X4725Y217502D01*
X4707Y217493D01*
X4689Y217488D01*
X4583Y217426D01*
X4475Y217367D01*
X4461Y217353D01*
X4444Y217343D01*
X4360Y217253D01*
X4273Y217167D01*
X4263Y217150D01*
X4250Y217136D01*
X4194Y217026D01*
X4134Y216919D01*
X4129Y216900D01*
X4120Y216882D01*
X4108Y216810D01*
X4069Y216642D01*
X4071Y216591D01*
X4065Y216551D01*
X4065Y165064D01*
X4073Y165006D01*
X4071Y164948D01*
X4093Y164866D01*
X4105Y164782D01*
X4128Y164729D01*
X4143Y164673D01*
X4186Y164600D01*
X4221Y164523D01*
X4259Y164478D01*
X4288Y164428D01*
X4350Y164370D01*
X4404Y164306D01*
X4453Y164274D01*
X4496Y164234D01*
X4571Y164195D01*
X4641Y164148D01*
X4697Y164131D01*
X4749Y164104D01*
X4817Y164093D01*
X4912Y164063D01*
X5012Y164060D01*
X5080Y164049D01*
X8147Y164049D01*
X8176Y164053D01*
X8206Y164050D01*
X8317Y164073D01*
X8429Y164089D01*
X8456Y164101D01*
X8484Y164106D01*
X8585Y164159D01*
X8688Y164205D01*
X8711Y164224D01*
X8737Y164237D01*
X8819Y164315D01*
X8905Y164388D01*
X8922Y164413D01*
X8943Y164433D01*
X9000Y164531D01*
X9063Y164625D01*
X9072Y164653D01*
X9087Y164678D01*
X9114Y164788D01*
X9149Y164896D01*
X9149Y164926D01*
X9157Y164954D01*
X9153Y165067D01*
X9156Y165180D01*
X9149Y165209D01*
X9148Y165238D01*
X9113Y165346D01*
X9084Y165455D01*
X9069Y165481D01*
X9060Y165509D01*
X9015Y165573D01*
X8939Y165700D01*
X8893Y165743D01*
X8865Y165782D01*
X8581Y166066D01*
X8581Y176834D01*
X11279Y179532D01*
X11324Y179539D01*
X11377Y179562D01*
X11433Y179577D01*
X11506Y179620D01*
X11583Y179655D01*
X11628Y179693D01*
X11678Y179722D01*
X11736Y179784D01*
X11800Y179838D01*
X11832Y179887D01*
X11872Y179930D01*
X11911Y180005D01*
X11958Y180075D01*
X11975Y180131D01*
X12002Y180183D01*
X12013Y180251D01*
X12043Y180346D01*
X12046Y180446D01*
X12057Y180514D01*
X12057Y181436D01*
X12049Y181494D01*
X12051Y181552D01*
X12029Y181634D01*
X12017Y181718D01*
X11994Y181771D01*
X11979Y181827D01*
X11936Y181900D01*
X11901Y181977D01*
X11863Y182022D01*
X11834Y182072D01*
X11772Y182130D01*
X11718Y182194D01*
X11669Y182226D01*
X11626Y182266D01*
X11551Y182305D01*
X11481Y182352D01*
X11425Y182369D01*
X11373Y182396D01*
X11305Y182407D01*
X11210Y182437D01*
X11110Y182440D01*
X11042Y182451D01*
X10430Y182451D01*
X8351Y184530D01*
X8351Y196470D01*
X10430Y198549D01*
X23370Y198549D01*
X24682Y197237D01*
X24729Y197201D01*
X24769Y197159D01*
X24842Y197116D01*
X24909Y197066D01*
X24964Y197045D01*
X25014Y197015D01*
X25096Y196995D01*
X25175Y196964D01*
X25233Y196960D01*
X25290Y196945D01*
X25374Y196948D01*
X25458Y196941D01*
X25516Y196952D01*
X25574Y196954D01*
X25654Y196980D01*
X25737Y196997D01*
X25789Y197024D01*
X25845Y197042D01*
X25901Y197082D01*
X25989Y197128D01*
X26062Y197197D01*
X26118Y197237D01*
X27430Y198549D01*
X40370Y198549D01*
X40950Y197969D01*
X40997Y197934D01*
X41037Y197891D01*
X41110Y197848D01*
X41177Y197798D01*
X41232Y197777D01*
X41282Y197747D01*
X41364Y197727D01*
X41443Y197697D01*
X41501Y197692D01*
X41558Y197677D01*
X41642Y197680D01*
X41726Y197673D01*
X41783Y197684D01*
X41842Y197686D01*
X41922Y197712D01*
X42005Y197729D01*
X42057Y197756D01*
X42113Y197774D01*
X42169Y197814D01*
X42257Y197860D01*
X42330Y197929D01*
X42386Y197969D01*
X42410Y197993D01*
X44558Y198883D01*
X46882Y198883D01*
X49030Y197993D01*
X50673Y196350D01*
X51563Y194202D01*
X51563Y191878D01*
X50673Y189730D01*
X49030Y188087D01*
X46882Y187197D01*
X46765Y187197D01*
X46678Y187185D01*
X46591Y187182D01*
X46538Y187165D01*
X46483Y187157D01*
X46403Y187122D01*
X46320Y187095D01*
X46281Y187067D01*
X46224Y187041D01*
X46110Y186945D01*
X46047Y186900D01*
X45074Y185927D01*
X43464Y185927D01*
X43406Y185919D01*
X43348Y185921D01*
X43266Y185899D01*
X43182Y185887D01*
X43129Y185864D01*
X43073Y185849D01*
X43000Y185806D01*
X42923Y185771D01*
X42878Y185733D01*
X42828Y185704D01*
X42770Y185642D01*
X42706Y185588D01*
X42674Y185539D01*
X42634Y185496D01*
X42595Y185421D01*
X42548Y185351D01*
X42531Y185295D01*
X42504Y185243D01*
X42493Y185175D01*
X42463Y185080D01*
X42460Y184980D01*
X42449Y184912D01*
X42449Y184530D01*
X40370Y182451D01*
X27430Y182451D01*
X26118Y183763D01*
X26071Y183799D01*
X26031Y183841D01*
X25958Y183884D01*
X25891Y183934D01*
X25836Y183955D01*
X25786Y183985D01*
X25704Y184005D01*
X25625Y184036D01*
X25567Y184040D01*
X25510Y184055D01*
X25426Y184052D01*
X25342Y184059D01*
X25284Y184048D01*
X25226Y184046D01*
X25146Y184020D01*
X25063Y184003D01*
X25011Y183976D01*
X24955Y183958D01*
X24899Y183918D01*
X24811Y183872D01*
X24738Y183804D01*
X24682Y183763D01*
X23370Y182451D01*
X22218Y182451D01*
X22160Y182443D01*
X22102Y182445D01*
X22020Y182423D01*
X21936Y182411D01*
X21883Y182388D01*
X21827Y182373D01*
X21754Y182330D01*
X21677Y182295D01*
X21632Y182257D01*
X21582Y182228D01*
X21524Y182166D01*
X21460Y182112D01*
X21428Y182063D01*
X21388Y182020D01*
X21349Y181945D01*
X21302Y181875D01*
X21285Y181819D01*
X21258Y181767D01*
X21247Y181699D01*
X21217Y181604D01*
X21214Y181504D01*
X21203Y181436D01*
X21203Y180514D01*
X21211Y180456D01*
X21209Y180398D01*
X21231Y180316D01*
X21243Y180232D01*
X21266Y180179D01*
X21281Y180123D01*
X21324Y180050D01*
X21359Y179973D01*
X21397Y179928D01*
X21426Y179878D01*
X21488Y179820D01*
X21542Y179756D01*
X21591Y179724D01*
X21634Y179684D01*
X21709Y179645D01*
X21779Y179598D01*
X21835Y179581D01*
X21887Y179554D01*
X21955Y179543D01*
X21977Y179536D01*
X24679Y176834D01*
X24679Y175914D01*
X24680Y175904D01*
X24679Y175895D01*
X24700Y175764D01*
X24719Y175633D01*
X24723Y175624D01*
X24724Y175614D01*
X24780Y175494D01*
X24835Y175373D01*
X24841Y175366D01*
X24845Y175357D01*
X24933Y175257D01*
X25018Y175156D01*
X25027Y175151D01*
X25033Y175143D01*
X25145Y175072D01*
X25255Y174999D01*
X25264Y174996D01*
X25273Y174990D01*
X25399Y174953D01*
X25526Y174913D01*
X25536Y174912D01*
X25545Y174910D01*
X25678Y174909D01*
X25810Y174905D01*
X25820Y174908D01*
X25830Y174908D01*
X25958Y174944D01*
X26085Y174977D01*
X26094Y174982D01*
X26103Y174985D01*
X26216Y175055D01*
X26330Y175123D01*
X26337Y175130D01*
X26345Y175135D01*
X26434Y175233D01*
X26524Y175330D01*
X26529Y175339D01*
X26535Y175346D01*
X26559Y175397D01*
X26654Y175583D01*
X26660Y175618D01*
X26675Y175651D01*
X26905Y176510D01*
X27437Y177431D01*
X28189Y178183D01*
X29110Y178715D01*
X30138Y178991D01*
X32139Y178991D01*
X32139Y172466D01*
X32147Y172408D01*
X32145Y172350D01*
X32167Y172268D01*
X32179Y172185D01*
X32203Y172131D01*
X32217Y172075D01*
X32260Y172002D01*
X32295Y171925D01*
X32333Y171881D01*
X32363Y171830D01*
X32424Y171773D01*
X32479Y171708D01*
X32527Y171676D01*
X32570Y171636D01*
X32645Y171597D01*
X32715Y171551D01*
X32771Y171533D01*
X32823Y171506D01*
X32891Y171495D01*
X32986Y171465D01*
X33086Y171462D01*
X33154Y171451D01*
X34171Y171451D01*
X34171Y171449D01*
X33154Y171449D01*
X33096Y171441D01*
X33038Y171442D01*
X32956Y171421D01*
X32873Y171409D01*
X32819Y171385D01*
X32763Y171371D01*
X32690Y171328D01*
X32613Y171293D01*
X32568Y171255D01*
X32518Y171225D01*
X32460Y171164D01*
X32396Y171109D01*
X32364Y171061D01*
X32324Y171018D01*
X32285Y170943D01*
X32239Y170873D01*
X32221Y170817D01*
X32194Y170765D01*
X32183Y170697D01*
X32153Y170602D01*
X32150Y170502D01*
X32139Y170434D01*
X32139Y163909D01*
X30138Y163909D01*
X29110Y164185D01*
X28189Y164717D01*
X27437Y165469D01*
X26905Y166390D01*
X26675Y167249D01*
X26671Y167258D01*
X26669Y167267D01*
X26615Y167388D01*
X26563Y167510D01*
X26557Y167518D01*
X26553Y167527D01*
X26468Y167627D01*
X26384Y167731D01*
X26376Y167736D01*
X26369Y167744D01*
X26259Y167817D01*
X26150Y167893D01*
X26141Y167896D01*
X26133Y167901D01*
X26006Y167942D01*
X25881Y167984D01*
X25871Y167984D01*
X25862Y167987D01*
X25729Y167991D01*
X25597Y167997D01*
X25587Y167994D01*
X25578Y167995D01*
X25450Y167961D01*
X25321Y167930D01*
X25312Y167925D01*
X25303Y167923D01*
X25189Y167855D01*
X25073Y167790D01*
X25067Y167783D01*
X25058Y167777D01*
X24968Y167681D01*
X24875Y167586D01*
X24870Y167577D01*
X24864Y167570D01*
X24803Y167452D01*
X24741Y167335D01*
X24739Y167326D01*
X24734Y167317D01*
X24725Y167261D01*
X24681Y167057D01*
X24685Y167021D01*
X24679Y166986D01*
X24679Y166066D01*
X24395Y165782D01*
X24377Y165758D01*
X24355Y165739D01*
X24292Y165645D01*
X24224Y165555D01*
X24213Y165527D01*
X24197Y165503D01*
X24163Y165395D01*
X24123Y165289D01*
X24120Y165260D01*
X24111Y165232D01*
X24108Y165118D01*
X24099Y165006D01*
X24105Y164977D01*
X24104Y164948D01*
X24133Y164838D01*
X24155Y164727D01*
X24168Y164701D01*
X24176Y164673D01*
X24234Y164575D01*
X24286Y164475D01*
X24306Y164453D01*
X24321Y164428D01*
X24404Y164351D01*
X24482Y164269D01*
X24507Y164254D01*
X24528Y164234D01*
X24629Y164182D01*
X24727Y164125D01*
X24755Y164118D01*
X24782Y164104D01*
X24859Y164091D01*
X25002Y164055D01*
X25025Y164055D01*
X27099Y161982D01*
X27099Y148018D01*
X25032Y145951D01*
X5080Y145951D01*
X5022Y145943D01*
X4964Y145945D01*
X4882Y145923D01*
X4798Y145911D01*
X4745Y145888D01*
X4689Y145873D01*
X4616Y145830D01*
X4539Y145795D01*
X4494Y145757D01*
X4444Y145728D01*
X4386Y145666D01*
X4322Y145612D01*
X4290Y145563D01*
X4250Y145520D01*
X4211Y145445D01*
X4164Y145375D01*
X4147Y145319D01*
X4120Y145267D01*
X4109Y145199D01*
X4079Y145104D01*
X4076Y145004D01*
X4065Y144936D01*
X4065Y109064D01*
X4073Y109006D01*
X4071Y108948D01*
X4093Y108866D01*
X4105Y108782D01*
X4128Y108729D01*
X4143Y108673D01*
X4186Y108600D01*
X4221Y108523D01*
X4259Y108478D01*
X4288Y108428D01*
X4350Y108370D01*
X4404Y108306D01*
X4453Y108274D01*
X4496Y108234D01*
X4571Y108195D01*
X4641Y108148D01*
X4697Y108131D01*
X4749Y108104D01*
X4817Y108093D01*
X4912Y108063D01*
X5012Y108060D01*
X5080Y108049D01*
X25032Y108049D01*
X27099Y105982D01*
X27099Y92018D01*
X25032Y89951D01*
X5080Y89951D01*
X5022Y89943D01*
X4964Y89945D01*
X4882Y89923D01*
X4798Y89911D01*
X4745Y89888D01*
X4689Y89873D01*
X4616Y89830D01*
X4539Y89795D01*
X4494Y89757D01*
X4444Y89728D01*
X4386Y89666D01*
X4322Y89612D01*
X4290Y89563D01*
X4250Y89520D01*
X4211Y89445D01*
X4164Y89375D01*
X4147Y89319D01*
X4120Y89267D01*
X4109Y89199D01*
X4079Y89104D01*
X4076Y89004D01*
X4065Y88936D01*
X4065Y66090D01*
X4077Y66005D01*
X4079Y65919D01*
X4097Y65865D01*
X4105Y65809D01*
X4140Y65731D01*
X4166Y65649D01*
X4198Y65601D01*
X4221Y65549D01*
X4276Y65484D01*
X4324Y65413D01*
X4368Y65376D01*
X4404Y65332D01*
X4476Y65285D01*
X4542Y65230D01*
X4594Y65206D01*
X4641Y65175D01*
X4723Y65149D01*
X4802Y65114D01*
X4858Y65106D01*
X4912Y65089D01*
X4998Y65087D01*
X5083Y65075D01*
X5139Y65083D01*
G37*
G36*
X236991Y4081D02*
X236991Y4081D01*
X237106Y4091D01*
X237131Y4101D01*
X237159Y4105D01*
X237264Y4152D01*
X237371Y4193D01*
X237393Y4209D01*
X237418Y4221D01*
X237506Y4295D01*
X237598Y4364D01*
X237614Y4387D01*
X237635Y4404D01*
X237699Y4500D01*
X237768Y4592D01*
X237777Y4618D01*
X237793Y4641D01*
X237828Y4751D01*
X237868Y4858D01*
X237870Y4886D01*
X237879Y4912D01*
X237882Y5027D01*
X237891Y5141D01*
X237885Y5166D01*
X237886Y5196D01*
X237819Y5453D01*
X237815Y5469D01*
X237061Y7289D01*
X237061Y10491D01*
X238287Y13449D01*
X240551Y15713D01*
X243509Y16939D01*
X246711Y16939D01*
X248531Y16185D01*
X248643Y16156D01*
X248752Y16121D01*
X248780Y16121D01*
X248807Y16114D01*
X248921Y16117D01*
X249036Y16114D01*
X249063Y16121D01*
X249091Y16122D01*
X249200Y16157D01*
X249311Y16186D01*
X249335Y16200D01*
X249362Y16208D01*
X249457Y16273D01*
X249556Y16331D01*
X249575Y16351D01*
X249598Y16367D01*
X249672Y16455D01*
X249750Y16538D01*
X249763Y16563D01*
X249781Y16584D01*
X249827Y16689D01*
X249880Y16792D01*
X249884Y16816D01*
X249896Y16844D01*
X249933Y17108D01*
X249935Y17123D01*
X249935Y88936D01*
X249927Y88994D01*
X249929Y89052D01*
X249907Y89134D01*
X249895Y89218D01*
X249872Y89271D01*
X249857Y89327D01*
X249814Y89400D01*
X249779Y89477D01*
X249741Y89522D01*
X249712Y89572D01*
X249650Y89630D01*
X249596Y89694D01*
X249547Y89726D01*
X249504Y89766D01*
X249429Y89805D01*
X249359Y89852D01*
X249303Y89869D01*
X249251Y89896D01*
X249183Y89907D01*
X249088Y89937D01*
X248988Y89940D01*
X248920Y89951D01*
X245853Y89951D01*
X245824Y89947D01*
X245794Y89950D01*
X245683Y89927D01*
X245571Y89911D01*
X245544Y89899D01*
X245516Y89894D01*
X245415Y89841D01*
X245312Y89795D01*
X245289Y89776D01*
X245263Y89763D01*
X245181Y89685D01*
X245095Y89612D01*
X245078Y89587D01*
X245057Y89567D01*
X245000Y89469D01*
X244937Y89375D01*
X244928Y89347D01*
X244913Y89322D01*
X244886Y89212D01*
X244851Y89104D01*
X244851Y89074D01*
X244843Y89046D01*
X244847Y88933D01*
X244844Y88820D01*
X244851Y88791D01*
X244852Y88762D01*
X244887Y88654D01*
X244916Y88545D01*
X244931Y88519D01*
X244940Y88491D01*
X244985Y88427D01*
X245061Y88300D01*
X245107Y88257D01*
X245135Y88218D01*
X245419Y87934D01*
X245419Y77166D01*
X242721Y74468D01*
X242676Y74461D01*
X242623Y74438D01*
X242567Y74423D01*
X242494Y74380D01*
X242417Y74345D01*
X242372Y74307D01*
X242322Y74278D01*
X242264Y74216D01*
X242200Y74162D01*
X242168Y74113D01*
X242128Y74070D01*
X242089Y73995D01*
X242042Y73925D01*
X242025Y73869D01*
X241998Y73817D01*
X241987Y73749D01*
X241957Y73654D01*
X241954Y73554D01*
X241943Y73486D01*
X241943Y72564D01*
X241951Y72506D01*
X241949Y72448D01*
X241971Y72366D01*
X241983Y72282D01*
X242006Y72229D01*
X242021Y72173D01*
X242064Y72100D01*
X242099Y72023D01*
X242137Y71978D01*
X242166Y71928D01*
X242228Y71870D01*
X242282Y71806D01*
X242331Y71774D01*
X242374Y71734D01*
X242449Y71695D01*
X242519Y71648D01*
X242575Y71631D01*
X242627Y71604D01*
X242695Y71593D01*
X242790Y71563D01*
X242890Y71560D01*
X242958Y71549D01*
X243570Y71549D01*
X245649Y69470D01*
X245649Y57530D01*
X243570Y55451D01*
X230630Y55451D01*
X229318Y56763D01*
X229271Y56799D01*
X229231Y56841D01*
X229158Y56884D01*
X229091Y56934D01*
X229036Y56955D01*
X228986Y56985D01*
X228904Y57005D01*
X228825Y57036D01*
X228767Y57040D01*
X228710Y57055D01*
X228626Y57052D01*
X228542Y57059D01*
X228484Y57048D01*
X228426Y57046D01*
X228346Y57020D01*
X228263Y57003D01*
X228211Y56976D01*
X228155Y56958D01*
X228099Y56918D01*
X228011Y56872D01*
X227938Y56803D01*
X227882Y56763D01*
X226570Y55451D01*
X213619Y55451D01*
X213598Y55474D01*
X213525Y55517D01*
X213458Y55567D01*
X213403Y55588D01*
X213353Y55618D01*
X213271Y55638D01*
X213192Y55668D01*
X213134Y55673D01*
X213077Y55688D01*
X212993Y55685D01*
X212909Y55692D01*
X212852Y55681D01*
X212793Y55679D01*
X212713Y55653D01*
X212630Y55636D01*
X212578Y55609D01*
X212523Y55591D01*
X212466Y55551D01*
X212378Y55505D01*
X212305Y55436D01*
X212249Y55396D01*
X211590Y54737D01*
X209442Y53847D01*
X207118Y53847D01*
X204970Y54737D01*
X203327Y56380D01*
X202437Y58528D01*
X202437Y60852D01*
X203327Y63000D01*
X204970Y64643D01*
X207118Y65533D01*
X207235Y65533D01*
X207322Y65545D01*
X207409Y65548D01*
X207462Y65565D01*
X207517Y65573D01*
X207597Y65608D01*
X207680Y65635D01*
X207719Y65663D01*
X207776Y65689D01*
X207890Y65785D01*
X207953Y65830D01*
X210196Y68073D01*
X210536Y68073D01*
X210594Y68081D01*
X210652Y68079D01*
X210734Y68101D01*
X210818Y68113D01*
X210871Y68136D01*
X210927Y68151D01*
X211000Y68194D01*
X211077Y68229D01*
X211122Y68267D01*
X211172Y68296D01*
X211230Y68358D01*
X211294Y68412D01*
X211326Y68461D01*
X211366Y68504D01*
X211405Y68579D01*
X211452Y68649D01*
X211469Y68705D01*
X211496Y68757D01*
X211507Y68825D01*
X211537Y68920D01*
X211540Y69020D01*
X211551Y69088D01*
X211551Y69470D01*
X213630Y71549D01*
X226570Y71549D01*
X227882Y70237D01*
X227929Y70201D01*
X227969Y70159D01*
X228042Y70116D01*
X228109Y70066D01*
X228164Y70045D01*
X228214Y70015D01*
X228296Y69995D01*
X228375Y69964D01*
X228433Y69960D01*
X228490Y69945D01*
X228574Y69948D01*
X228658Y69941D01*
X228716Y69952D01*
X228774Y69954D01*
X228854Y69980D01*
X228937Y69997D01*
X228989Y70024D01*
X229045Y70042D01*
X229101Y70082D01*
X229189Y70128D01*
X229262Y70196D01*
X229318Y70237D01*
X230630Y71549D01*
X231782Y71549D01*
X231840Y71557D01*
X231898Y71555D01*
X231980Y71577D01*
X232064Y71589D01*
X232117Y71612D01*
X232173Y71627D01*
X232246Y71670D01*
X232323Y71705D01*
X232368Y71743D01*
X232418Y71772D01*
X232476Y71834D01*
X232540Y71888D01*
X232572Y71937D01*
X232612Y71980D01*
X232651Y72055D01*
X232698Y72125D01*
X232715Y72181D01*
X232742Y72233D01*
X232753Y72301D01*
X232783Y72396D01*
X232786Y72496D01*
X232797Y72564D01*
X232797Y73486D01*
X232789Y73544D01*
X232791Y73602D01*
X232769Y73684D01*
X232757Y73768D01*
X232734Y73821D01*
X232719Y73877D01*
X232676Y73950D01*
X232641Y74027D01*
X232603Y74072D01*
X232574Y74122D01*
X232512Y74180D01*
X232458Y74244D01*
X232409Y74276D01*
X232366Y74316D01*
X232291Y74355D01*
X232221Y74402D01*
X232165Y74419D01*
X232113Y74446D01*
X232045Y74457D01*
X232023Y74464D01*
X229321Y77166D01*
X229321Y78086D01*
X229320Y78096D01*
X229321Y78105D01*
X229300Y78237D01*
X229281Y78368D01*
X229277Y78376D01*
X229276Y78386D01*
X229219Y78506D01*
X229165Y78627D01*
X229159Y78634D01*
X229155Y78643D01*
X229067Y78743D01*
X228982Y78844D01*
X228973Y78849D01*
X228967Y78857D01*
X228856Y78928D01*
X228745Y79002D01*
X228735Y79004D01*
X228727Y79010D01*
X228601Y79047D01*
X228474Y79087D01*
X228464Y79088D01*
X228455Y79090D01*
X228322Y79091D01*
X228190Y79095D01*
X228180Y79092D01*
X228170Y79092D01*
X228042Y79056D01*
X227915Y79023D01*
X227906Y79018D01*
X227897Y79015D01*
X227783Y78945D01*
X227670Y78878D01*
X227663Y78870D01*
X227655Y78865D01*
X227566Y78767D01*
X227476Y78670D01*
X227471Y78661D01*
X227465Y78654D01*
X227441Y78603D01*
X227346Y78417D01*
X227340Y78382D01*
X227325Y78349D01*
X227095Y77490D01*
X226563Y76569D01*
X225811Y75817D01*
X224890Y75285D01*
X223862Y75009D01*
X221861Y75009D01*
X221861Y81534D01*
X221853Y81592D01*
X221854Y81650D01*
X221833Y81732D01*
X221821Y81815D01*
X221797Y81869D01*
X221783Y81925D01*
X221740Y81998D01*
X221705Y82075D01*
X221667Y82119D01*
X221637Y82170D01*
X221576Y82227D01*
X221521Y82292D01*
X221473Y82324D01*
X221430Y82364D01*
X221355Y82403D01*
X221285Y82449D01*
X221229Y82467D01*
X221177Y82494D01*
X221109Y82505D01*
X221014Y82535D01*
X220914Y82538D01*
X220846Y82549D01*
X219829Y82549D01*
X219829Y82551D01*
X220846Y82551D01*
X220904Y82559D01*
X220962Y82558D01*
X221044Y82579D01*
X221127Y82591D01*
X221181Y82615D01*
X221237Y82629D01*
X221310Y82672D01*
X221387Y82707D01*
X221431Y82745D01*
X221482Y82775D01*
X221539Y82836D01*
X221604Y82891D01*
X221636Y82939D01*
X221676Y82982D01*
X221715Y83057D01*
X221761Y83127D01*
X221779Y83183D01*
X221806Y83235D01*
X221817Y83303D01*
X221847Y83398D01*
X221850Y83498D01*
X221861Y83566D01*
X221861Y90091D01*
X223862Y90091D01*
X224890Y89815D01*
X225811Y89283D01*
X226563Y88531D01*
X227095Y87610D01*
X227325Y86751D01*
X227329Y86742D01*
X227331Y86732D01*
X227385Y86611D01*
X227437Y86490D01*
X227443Y86482D01*
X227447Y86473D01*
X227532Y86372D01*
X227616Y86269D01*
X227624Y86264D01*
X227631Y86256D01*
X227741Y86182D01*
X227850Y86107D01*
X227859Y86104D01*
X227867Y86098D01*
X227994Y86058D01*
X228119Y86016D01*
X228129Y86016D01*
X228138Y86013D01*
X228271Y86009D01*
X228403Y86003D01*
X228413Y86006D01*
X228422Y86005D01*
X228550Y86039D01*
X228679Y86070D01*
X228688Y86075D01*
X228697Y86077D01*
X228810Y86144D01*
X228927Y86210D01*
X228933Y86218D01*
X228942Y86222D01*
X229032Y86319D01*
X229125Y86414D01*
X229130Y86423D01*
X229136Y86430D01*
X229197Y86548D01*
X229259Y86665D01*
X229261Y86674D01*
X229266Y86683D01*
X229275Y86739D01*
X229319Y86943D01*
X229315Y86978D01*
X229321Y87014D01*
X229321Y87934D01*
X229605Y88218D01*
X229623Y88242D01*
X229645Y88261D01*
X229708Y88355D01*
X229776Y88445D01*
X229787Y88473D01*
X229803Y88497D01*
X229837Y88605D01*
X229877Y88711D01*
X229880Y88740D01*
X229889Y88768D01*
X229892Y88882D01*
X229901Y88994D01*
X229895Y89023D01*
X229896Y89052D01*
X229867Y89162D01*
X229845Y89273D01*
X229832Y89299D01*
X229824Y89327D01*
X229766Y89425D01*
X229714Y89525D01*
X229694Y89547D01*
X229679Y89572D01*
X229596Y89649D01*
X229518Y89731D01*
X229493Y89746D01*
X229472Y89766D01*
X229371Y89818D01*
X229273Y89875D01*
X229245Y89882D01*
X229218Y89896D01*
X229141Y89909D01*
X228998Y89945D01*
X228975Y89945D01*
X226901Y92018D01*
X226901Y105982D01*
X228968Y108049D01*
X248920Y108049D01*
X248978Y108057D01*
X249036Y108055D01*
X249118Y108077D01*
X249202Y108089D01*
X249255Y108112D01*
X249311Y108127D01*
X249384Y108170D01*
X249461Y108205D01*
X249506Y108243D01*
X249556Y108272D01*
X249614Y108334D01*
X249678Y108388D01*
X249710Y108437D01*
X249750Y108480D01*
X249789Y108555D01*
X249836Y108625D01*
X249853Y108681D01*
X249880Y108733D01*
X249891Y108801D01*
X249921Y108896D01*
X249924Y108996D01*
X249935Y109064D01*
X249935Y144936D01*
X249927Y144994D01*
X249929Y145052D01*
X249907Y145134D01*
X249895Y145218D01*
X249872Y145271D01*
X249857Y145327D01*
X249814Y145400D01*
X249779Y145477D01*
X249741Y145522D01*
X249712Y145572D01*
X249650Y145630D01*
X249596Y145694D01*
X249547Y145726D01*
X249504Y145766D01*
X249429Y145805D01*
X249359Y145852D01*
X249303Y145869D01*
X249251Y145896D01*
X249183Y145907D01*
X249088Y145937D01*
X248988Y145940D01*
X248920Y145951D01*
X230378Y145951D01*
X230320Y145943D01*
X230262Y145945D01*
X230180Y145923D01*
X230096Y145911D01*
X230043Y145888D01*
X229987Y145873D01*
X229914Y145830D01*
X229837Y145795D01*
X229792Y145757D01*
X229742Y145728D01*
X229684Y145666D01*
X229620Y145612D01*
X229588Y145563D01*
X229548Y145520D01*
X229509Y145445D01*
X229462Y145375D01*
X229445Y145319D01*
X229418Y145267D01*
X229407Y145199D01*
X229377Y145104D01*
X229374Y145004D01*
X229363Y144936D01*
X229363Y123836D01*
X222954Y117427D01*
X213025Y117427D01*
X212987Y117422D01*
X212948Y117424D01*
X212846Y117402D01*
X212744Y117387D01*
X212708Y117371D01*
X212670Y117363D01*
X212579Y117314D01*
X212484Y117271D01*
X212455Y117246D01*
X212420Y117227D01*
X212346Y117154D01*
X212267Y117088D01*
X212246Y117055D01*
X212218Y117028D01*
X212167Y116937D01*
X212110Y116851D01*
X212098Y116814D01*
X212079Y116780D01*
X212055Y116679D01*
X212024Y116580D01*
X212023Y116541D01*
X212014Y116503D01*
X212019Y116399D01*
X212017Y116296D01*
X212027Y116258D01*
X212029Y116219D01*
X212056Y116146D01*
X212089Y116021D01*
X212127Y115957D01*
X212146Y115904D01*
X212283Y115668D01*
X212491Y114892D01*
X212491Y113499D01*
X203684Y113499D01*
X203626Y113491D01*
X203568Y113493D01*
X203486Y113471D01*
X203403Y113459D01*
X203349Y113436D01*
X203293Y113421D01*
X203220Y113378D01*
X203201Y113369D01*
X203155Y113400D01*
X203099Y113417D01*
X203047Y113444D01*
X202979Y113455D01*
X202884Y113485D01*
X202784Y113488D01*
X202716Y113499D01*
X193909Y113499D01*
X193909Y114888D01*
X193901Y114946D01*
X193903Y115004D01*
X193881Y115086D01*
X193869Y115169D01*
X193846Y115223D01*
X193831Y115279D01*
X193788Y115352D01*
X193753Y115429D01*
X193715Y115474D01*
X193686Y115524D01*
X193624Y115582D01*
X193570Y115646D01*
X193521Y115678D01*
X193478Y115718D01*
X193403Y115757D01*
X193333Y115803D01*
X193277Y115821D01*
X193225Y115848D01*
X193157Y115859D01*
X193062Y115889D01*
X192962Y115892D01*
X192894Y115903D01*
X191506Y115903D01*
X191477Y115899D01*
X191448Y115902D01*
X191337Y115879D01*
X191225Y115863D01*
X191198Y115851D01*
X191169Y115846D01*
X191069Y115794D01*
X190966Y115747D01*
X190943Y115728D01*
X190917Y115715D01*
X190835Y115637D01*
X190749Y115564D01*
X190732Y115539D01*
X190711Y115519D01*
X190654Y115421D01*
X190591Y115327D01*
X190582Y115299D01*
X190567Y115274D01*
X190539Y115164D01*
X190505Y115056D01*
X190504Y115027D01*
X190497Y114998D01*
X190501Y114885D01*
X190498Y114772D01*
X190505Y114743D01*
X190506Y114714D01*
X190541Y114606D01*
X190570Y114497D01*
X190585Y114471D01*
X190594Y114443D01*
X190639Y114379D01*
X190715Y114252D01*
X190761Y114209D01*
X190789Y114170D01*
X190929Y114030D01*
X190929Y111869D01*
X190941Y111782D01*
X190944Y111695D01*
X190961Y111642D01*
X190969Y111587D01*
X191004Y111507D01*
X191031Y111424D01*
X191059Y111385D01*
X191085Y111328D01*
X191181Y111215D01*
X191226Y111151D01*
X192176Y110201D01*
X192200Y110183D01*
X192219Y110161D01*
X192313Y110098D01*
X192403Y110030D01*
X192431Y110019D01*
X192455Y110003D01*
X192563Y109969D01*
X192669Y109929D01*
X192698Y109926D01*
X192726Y109917D01*
X192840Y109914D01*
X192952Y109905D01*
X192981Y109911D01*
X193010Y109910D01*
X193120Y109939D01*
X193231Y109961D01*
X193257Y109974D01*
X193285Y109982D01*
X193383Y110040D01*
X193483Y110092D01*
X193505Y110112D01*
X193530Y110127D01*
X193607Y110210D01*
X193689Y110288D01*
X193704Y110313D01*
X193724Y110334D01*
X193776Y110435D01*
X193814Y110501D01*
X201701Y110501D01*
X201701Y106459D01*
X198369Y106459D01*
X198339Y106455D01*
X198310Y106458D01*
X198199Y106435D01*
X198087Y106419D01*
X198060Y106407D01*
X198032Y106402D01*
X197931Y106349D01*
X197828Y106303D01*
X197805Y106284D01*
X197779Y106271D01*
X197697Y106193D01*
X197611Y106120D01*
X197594Y106095D01*
X197573Y106075D01*
X197516Y105977D01*
X197453Y105883D01*
X197444Y105855D01*
X197429Y105830D01*
X197402Y105720D01*
X197367Y105612D01*
X197367Y105582D01*
X197359Y105554D01*
X197363Y105441D01*
X197360Y105328D01*
X197367Y105299D01*
X197368Y105270D01*
X197403Y105162D01*
X197432Y105053D01*
X197447Y105027D01*
X197456Y104999D01*
X197501Y104936D01*
X197577Y104808D01*
X197623Y104765D01*
X197651Y104726D01*
X201423Y100954D01*
X201423Y100631D01*
X201435Y100544D01*
X201438Y100457D01*
X201455Y100404D01*
X201463Y100349D01*
X201498Y100269D01*
X201525Y100186D01*
X201553Y100147D01*
X201579Y100090D01*
X201675Y99976D01*
X201720Y99913D01*
X201803Y99830D01*
X202693Y97682D01*
X202693Y95358D01*
X201803Y93210D01*
X200160Y91567D01*
X198012Y90677D01*
X195688Y90677D01*
X193540Y91567D01*
X192154Y92953D01*
X192130Y92971D01*
X192111Y92993D01*
X192017Y93056D01*
X191927Y93124D01*
X191899Y93135D01*
X191875Y93151D01*
X191767Y93185D01*
X191661Y93225D01*
X191632Y93228D01*
X191604Y93237D01*
X191490Y93240D01*
X191378Y93249D01*
X191349Y93243D01*
X191320Y93244D01*
X191210Y93215D01*
X191099Y93193D01*
X191073Y93180D01*
X191045Y93172D01*
X190947Y93114D01*
X190847Y93062D01*
X190825Y93042D01*
X190800Y93027D01*
X190723Y92944D01*
X190641Y92866D01*
X190626Y92841D01*
X190606Y92820D01*
X190554Y92719D01*
X190497Y92621D01*
X190490Y92593D01*
X190489Y92591D01*
X183896Y92591D01*
X183838Y92583D01*
X183780Y92584D01*
X183698Y92563D01*
X183615Y92551D01*
X183561Y92527D01*
X183505Y92513D01*
X183432Y92470D01*
X183355Y92435D01*
X183311Y92397D01*
X183260Y92367D01*
X183203Y92306D01*
X183138Y92251D01*
X183106Y92203D01*
X183066Y92160D01*
X183027Y92085D01*
X182981Y92015D01*
X182963Y91959D01*
X182936Y91907D01*
X182925Y91839D01*
X182895Y91744D01*
X182892Y91644D01*
X182881Y91576D01*
X182881Y90559D01*
X181864Y90559D01*
X181806Y90551D01*
X181748Y90552D01*
X181666Y90531D01*
X181583Y90519D01*
X181529Y90495D01*
X181473Y90481D01*
X181400Y90438D01*
X181323Y90403D01*
X181278Y90365D01*
X181228Y90335D01*
X181170Y90274D01*
X181106Y90219D01*
X181074Y90171D01*
X181034Y90128D01*
X180995Y90053D01*
X180949Y89983D01*
X180931Y89927D01*
X180904Y89875D01*
X180893Y89807D01*
X180863Y89712D01*
X180860Y89612D01*
X180849Y89544D01*
X180849Y82519D01*
X177980Y82519D01*
X177206Y82726D01*
X176513Y83127D01*
X176486Y83154D01*
X176462Y83171D01*
X176443Y83194D01*
X176349Y83257D01*
X176259Y83325D01*
X176231Y83335D01*
X176207Y83351D01*
X176099Y83386D01*
X175993Y83426D01*
X175964Y83428D01*
X175936Y83437D01*
X175823Y83440D01*
X175710Y83450D01*
X175681Y83444D01*
X175652Y83445D01*
X175542Y83416D01*
X175431Y83394D01*
X175405Y83380D01*
X175377Y83373D01*
X175279Y83315D01*
X175179Y83263D01*
X175157Y83242D01*
X175132Y83227D01*
X175055Y83145D01*
X174973Y83067D01*
X174958Y83042D01*
X174938Y83020D01*
X174886Y82919D01*
X174829Y82822D01*
X174822Y82793D01*
X174808Y82767D01*
X174795Y82690D01*
X174759Y82546D01*
X174761Y82484D01*
X174753Y82436D01*
X174753Y26162D01*
X174761Y26104D01*
X174759Y26046D01*
X174781Y25964D01*
X174793Y25880D01*
X174816Y25827D01*
X174831Y25771D01*
X174874Y25698D01*
X174909Y25621D01*
X174947Y25576D01*
X174976Y25526D01*
X175038Y25468D01*
X175092Y25404D01*
X175141Y25372D01*
X175184Y25332D01*
X175259Y25293D01*
X175329Y25246D01*
X175385Y25229D01*
X175437Y25202D01*
X175505Y25191D01*
X175600Y25161D01*
X175700Y25158D01*
X175768Y25147D01*
X180276Y25147D01*
X184851Y23252D01*
X188352Y19751D01*
X190247Y15176D01*
X190247Y10224D01*
X188277Y5469D01*
X188248Y5357D01*
X188214Y5248D01*
X188213Y5220D01*
X188206Y5193D01*
X188209Y5079D01*
X188206Y4964D01*
X188213Y4937D01*
X188214Y4909D01*
X188249Y4800D01*
X188278Y4689D01*
X188292Y4665D01*
X188301Y4638D01*
X188365Y4543D01*
X188423Y4444D01*
X188444Y4425D01*
X188459Y4402D01*
X188547Y4328D01*
X188631Y4250D01*
X188655Y4237D01*
X188677Y4219D01*
X188781Y4173D01*
X188884Y4120D01*
X188908Y4116D01*
X188936Y4104D01*
X189200Y4067D01*
X189215Y4065D01*
X236877Y4065D01*
X236991Y4081D01*
G37*
G36*
X64899Y4081D02*
X64899Y4081D01*
X65013Y4091D01*
X65039Y4101D01*
X65067Y4105D01*
X65172Y4152D01*
X65279Y4193D01*
X65301Y4209D01*
X65326Y4221D01*
X65414Y4295D01*
X65505Y4364D01*
X65522Y4387D01*
X65543Y4404D01*
X65607Y4500D01*
X65676Y4592D01*
X65685Y4618D01*
X65701Y4641D01*
X65735Y4751D01*
X65776Y4858D01*
X65778Y4886D01*
X65786Y4912D01*
X65789Y5027D01*
X65799Y5141D01*
X65793Y5166D01*
X65794Y5196D01*
X65727Y5453D01*
X65723Y5469D01*
X64881Y7501D01*
X64881Y7502D01*
X64880Y7503D01*
X64810Y7622D01*
X64737Y7745D01*
X64736Y7746D01*
X64735Y7748D01*
X64631Y7845D01*
X64530Y7941D01*
X64529Y7941D01*
X64528Y7942D01*
X64402Y8007D01*
X64278Y8071D01*
X64276Y8071D01*
X64275Y8072D01*
X64260Y8074D01*
X63999Y8126D01*
X63968Y8123D01*
X63943Y8127D01*
X61606Y8127D01*
X52577Y17156D01*
X52577Y31242D01*
X52569Y31300D01*
X52571Y31358D01*
X52549Y31440D01*
X52537Y31524D01*
X52514Y31577D01*
X52499Y31633D01*
X52456Y31706D01*
X52421Y31783D01*
X52383Y31828D01*
X52354Y31878D01*
X52292Y31936D01*
X52238Y32000D01*
X52189Y32032D01*
X52146Y32072D01*
X52071Y32111D01*
X52001Y32158D01*
X51945Y32175D01*
X51893Y32202D01*
X51825Y32213D01*
X51730Y32243D01*
X51630Y32246D01*
X51562Y32257D01*
X49814Y32257D01*
X49756Y32249D01*
X49698Y32251D01*
X49616Y32229D01*
X49532Y32217D01*
X49479Y32194D01*
X49423Y32179D01*
X49350Y32136D01*
X49273Y32101D01*
X49228Y32063D01*
X49178Y32034D01*
X49120Y31972D01*
X49056Y31918D01*
X49024Y31869D01*
X48984Y31826D01*
X48945Y31751D01*
X48898Y31681D01*
X48881Y31625D01*
X48854Y31573D01*
X48843Y31505D01*
X48813Y31410D01*
X48810Y31310D01*
X48799Y31242D01*
X48799Y30860D01*
X46720Y28781D01*
X33780Y28781D01*
X32468Y30093D01*
X32421Y30129D01*
X32381Y30171D01*
X32308Y30214D01*
X32241Y30264D01*
X32186Y30285D01*
X32136Y30315D01*
X32054Y30335D01*
X31975Y30366D01*
X31917Y30370D01*
X31860Y30385D01*
X31776Y30382D01*
X31692Y30389D01*
X31634Y30378D01*
X31576Y30376D01*
X31496Y30350D01*
X31413Y30333D01*
X31361Y30306D01*
X31305Y30288D01*
X31249Y30248D01*
X31161Y30202D01*
X31088Y30133D01*
X31032Y30093D01*
X29720Y28781D01*
X28838Y28781D01*
X28780Y28773D01*
X28722Y28775D01*
X28640Y28753D01*
X28556Y28741D01*
X28503Y28718D01*
X28447Y28703D01*
X28374Y28660D01*
X28297Y28625D01*
X28252Y28587D01*
X28202Y28558D01*
X28144Y28496D01*
X28080Y28442D01*
X28048Y28393D01*
X28008Y28350D01*
X27969Y28275D01*
X27922Y28205D01*
X27905Y28149D01*
X27878Y28097D01*
X27867Y28029D01*
X27837Y27934D01*
X27834Y27834D01*
X27823Y27766D01*
X27823Y22626D01*
X25190Y19993D01*
X25178Y19978D01*
X25168Y19969D01*
X25140Y19927D01*
X25138Y19923D01*
X25078Y19860D01*
X25052Y19810D01*
X25019Y19766D01*
X24988Y19684D01*
X24948Y19606D01*
X24940Y19559D01*
X24918Y19500D01*
X24906Y19353D01*
X24893Y19275D01*
X24893Y19158D01*
X24003Y17010D01*
X22360Y15367D01*
X20212Y14477D01*
X17888Y14477D01*
X15740Y15367D01*
X14097Y17010D01*
X13207Y19158D01*
X13207Y21482D01*
X14097Y23630D01*
X15740Y25273D01*
X18051Y26230D01*
X18052Y26231D01*
X18053Y26231D01*
X18174Y26303D01*
X18295Y26375D01*
X18296Y26376D01*
X18298Y26377D01*
X18395Y26481D01*
X18491Y26581D01*
X18491Y26583D01*
X18492Y26584D01*
X18556Y26709D01*
X18621Y26834D01*
X18621Y26836D01*
X18622Y26837D01*
X18624Y26852D01*
X18676Y27113D01*
X18673Y27143D01*
X18677Y27168D01*
X18677Y27766D01*
X18669Y27824D01*
X18671Y27882D01*
X18649Y27964D01*
X18637Y28048D01*
X18614Y28101D01*
X18599Y28157D01*
X18556Y28230D01*
X18521Y28307D01*
X18483Y28352D01*
X18454Y28402D01*
X18392Y28460D01*
X18338Y28524D01*
X18289Y28556D01*
X18246Y28596D01*
X18171Y28635D01*
X18101Y28682D01*
X18045Y28699D01*
X17993Y28726D01*
X17925Y28737D01*
X17830Y28767D01*
X17730Y28770D01*
X17662Y28781D01*
X16780Y28781D01*
X14701Y30860D01*
X14701Y42800D01*
X16780Y44879D01*
X29720Y44879D01*
X31032Y43567D01*
X31079Y43531D01*
X31119Y43489D01*
X31192Y43446D01*
X31259Y43396D01*
X31314Y43375D01*
X31364Y43345D01*
X31446Y43325D01*
X31525Y43294D01*
X31583Y43290D01*
X31640Y43275D01*
X31724Y43278D01*
X31808Y43271D01*
X31866Y43282D01*
X31924Y43284D01*
X32004Y43310D01*
X32087Y43327D01*
X32139Y43354D01*
X32195Y43372D01*
X32251Y43412D01*
X32339Y43458D01*
X32412Y43526D01*
X32468Y43567D01*
X33780Y44879D01*
X46720Y44879D01*
X48799Y42800D01*
X48799Y42418D01*
X48807Y42360D01*
X48805Y42302D01*
X48827Y42220D01*
X48839Y42136D01*
X48862Y42083D01*
X48877Y42027D01*
X48920Y41954D01*
X48955Y41877D01*
X48993Y41832D01*
X49022Y41782D01*
X49084Y41724D01*
X49138Y41660D01*
X49187Y41628D01*
X49230Y41588D01*
X49305Y41549D01*
X49375Y41502D01*
X49431Y41485D01*
X49483Y41458D01*
X49551Y41447D01*
X49646Y41417D01*
X49746Y41414D01*
X49814Y41403D01*
X51562Y41403D01*
X51620Y41411D01*
X51678Y41409D01*
X51760Y41431D01*
X51844Y41443D01*
X51897Y41466D01*
X51953Y41481D01*
X52026Y41524D01*
X52103Y41559D01*
X52148Y41597D01*
X52198Y41626D01*
X52256Y41688D01*
X52320Y41742D01*
X52352Y41791D01*
X52392Y41834D01*
X52431Y41909D01*
X52478Y41979D01*
X52495Y42035D01*
X52522Y42087D01*
X52533Y42155D01*
X52563Y42250D01*
X52566Y42350D01*
X52577Y42418D01*
X52577Y88095D01*
X52565Y88182D01*
X52562Y88269D01*
X52545Y88322D01*
X52537Y88377D01*
X52502Y88457D01*
X52475Y88540D01*
X52447Y88579D01*
X52421Y88636D01*
X52325Y88750D01*
X52280Y88813D01*
X46227Y94866D01*
X46227Y98759D01*
X46215Y98846D01*
X46212Y98933D01*
X46195Y98986D01*
X46187Y99041D01*
X46152Y99121D01*
X46125Y99204D01*
X46097Y99243D01*
X46071Y99300D01*
X45975Y99414D01*
X45930Y99477D01*
X45847Y99560D01*
X44957Y101708D01*
X44957Y104032D01*
X45171Y104547D01*
X45199Y104659D01*
X45234Y104768D01*
X45235Y104796D01*
X45242Y104823D01*
X45238Y104937D01*
X45241Y105052D01*
X45234Y105079D01*
X45234Y105107D01*
X45199Y105216D01*
X45170Y105327D01*
X45155Y105351D01*
X45147Y105378D01*
X45083Y105473D01*
X45024Y105572D01*
X45004Y105591D01*
X44989Y105614D01*
X44901Y105688D01*
X44817Y105766D01*
X44792Y105779D01*
X44771Y105797D01*
X44666Y105844D01*
X44564Y105896D01*
X44539Y105900D01*
X44511Y105912D01*
X44247Y105949D01*
X44233Y105951D01*
X43079Y105951D01*
X42999Y106004D01*
X42909Y106072D01*
X42881Y106083D01*
X42857Y106099D01*
X42749Y106133D01*
X42643Y106173D01*
X42614Y106176D01*
X42586Y106185D01*
X42473Y106188D01*
X42360Y106197D01*
X42331Y106191D01*
X42302Y106192D01*
X42192Y106163D01*
X42081Y106141D01*
X42055Y106128D01*
X42027Y106120D01*
X41930Y106063D01*
X41829Y106010D01*
X41807Y105990D01*
X41782Y105975D01*
X41705Y105892D01*
X41623Y105814D01*
X41608Y105789D01*
X41588Y105768D01*
X41536Y105667D01*
X41479Y105569D01*
X41472Y105541D01*
X41458Y105515D01*
X41445Y105437D01*
X41409Y105294D01*
X41411Y105231D01*
X41403Y105183D01*
X41403Y72564D01*
X41411Y72506D01*
X41409Y72448D01*
X41431Y72366D01*
X41443Y72282D01*
X41466Y72229D01*
X41481Y72173D01*
X41524Y72100D01*
X41559Y72023D01*
X41597Y71978D01*
X41626Y71928D01*
X41688Y71870D01*
X41742Y71806D01*
X41791Y71774D01*
X41834Y71734D01*
X41909Y71695D01*
X41979Y71648D01*
X42035Y71631D01*
X42087Y71604D01*
X42155Y71593D01*
X42250Y71563D01*
X42350Y71560D01*
X42418Y71549D01*
X46720Y71549D01*
X48799Y69470D01*
X48799Y57530D01*
X46720Y55451D01*
X33780Y55451D01*
X32468Y56763D01*
X32421Y56799D01*
X32381Y56841D01*
X32308Y56884D01*
X32241Y56934D01*
X32186Y56955D01*
X32136Y56985D01*
X32054Y57005D01*
X31975Y57036D01*
X31917Y57040D01*
X31860Y57055D01*
X31776Y57052D01*
X31692Y57059D01*
X31634Y57048D01*
X31576Y57046D01*
X31496Y57020D01*
X31413Y57003D01*
X31361Y56976D01*
X31305Y56958D01*
X31249Y56918D01*
X31161Y56872D01*
X31088Y56803D01*
X31032Y56763D01*
X29720Y55451D01*
X16780Y55451D01*
X14473Y57758D01*
X14472Y57759D01*
X14471Y57760D01*
X14360Y57843D01*
X14246Y57929D01*
X14245Y57930D01*
X14243Y57931D01*
X14115Y57979D01*
X13980Y58030D01*
X13979Y58030D01*
X13977Y58031D01*
X13839Y58042D01*
X13697Y58054D01*
X13696Y58053D01*
X13694Y58054D01*
X13679Y58050D01*
X13418Y57998D01*
X13391Y57984D01*
X13367Y57978D01*
X12592Y57657D01*
X10268Y57657D01*
X8120Y58547D01*
X6477Y60190D01*
X6018Y61298D01*
X5974Y61372D01*
X5939Y61451D01*
X5902Y61494D01*
X5873Y61543D01*
X5811Y61602D01*
X5755Y61668D01*
X5708Y61699D01*
X5667Y61738D01*
X5590Y61777D01*
X5519Y61825D01*
X5465Y61842D01*
X5414Y61868D01*
X5330Y61885D01*
X5248Y61911D01*
X5191Y61912D01*
X5135Y61923D01*
X5050Y61916D01*
X4964Y61918D01*
X4909Y61904D01*
X4852Y61899D01*
X4772Y61868D01*
X4689Y61846D01*
X4640Y61817D01*
X4587Y61797D01*
X4518Y61745D01*
X4444Y61701D01*
X4405Y61660D01*
X4360Y61625D01*
X4308Y61556D01*
X4250Y61494D01*
X4224Y61443D01*
X4190Y61398D01*
X4159Y61317D01*
X4120Y61241D01*
X4112Y61192D01*
X4089Y61132D01*
X4078Y60987D01*
X4065Y60910D01*
X4065Y5080D01*
X4073Y5022D01*
X4071Y4964D01*
X4093Y4882D01*
X4105Y4798D01*
X4128Y4745D01*
X4143Y4689D01*
X4186Y4616D01*
X4221Y4539D01*
X4259Y4494D01*
X4288Y4444D01*
X4350Y4386D01*
X4404Y4322D01*
X4453Y4290D01*
X4496Y4250D01*
X4571Y4211D01*
X4641Y4164D01*
X4697Y4147D01*
X4749Y4120D01*
X4817Y4109D01*
X4912Y4079D01*
X5012Y4076D01*
X5080Y4065D01*
X64785Y4065D01*
X64899Y4081D01*
G37*
G36*
X225973Y149309D02*
X225973Y149309D01*
X226002Y149308D01*
X226112Y149337D01*
X226223Y149359D01*
X226249Y149372D01*
X226277Y149380D01*
X226375Y149438D01*
X226475Y149490D01*
X226497Y149510D01*
X226522Y149525D01*
X226599Y149608D01*
X226681Y149686D01*
X226696Y149711D01*
X226716Y149732D01*
X226768Y149833D01*
X226825Y149931D01*
X226832Y149959D01*
X226846Y149986D01*
X226859Y150063D01*
X226895Y150206D01*
X226893Y150269D01*
X226901Y150317D01*
X226901Y161982D01*
X228968Y164049D01*
X248920Y164049D01*
X248978Y164057D01*
X249036Y164055D01*
X249118Y164077D01*
X249202Y164089D01*
X249255Y164112D01*
X249311Y164127D01*
X249384Y164170D01*
X249461Y164205D01*
X249506Y164243D01*
X249556Y164272D01*
X249614Y164334D01*
X249678Y164388D01*
X249710Y164437D01*
X249750Y164480D01*
X249789Y164555D01*
X249836Y164625D01*
X249853Y164681D01*
X249880Y164733D01*
X249891Y164801D01*
X249921Y164896D01*
X249924Y164996D01*
X249935Y165064D01*
X249935Y216551D01*
X249933Y216571D01*
X249935Y216590D01*
X249913Y216711D01*
X249895Y216833D01*
X249887Y216851D01*
X249884Y216870D01*
X249829Y216980D01*
X249779Y217092D01*
X249767Y217107D01*
X249758Y217125D01*
X249675Y217216D01*
X249596Y217309D01*
X249579Y217320D01*
X249566Y217335D01*
X249461Y217399D01*
X249359Y217467D01*
X249340Y217473D01*
X249324Y217483D01*
X249205Y217516D01*
X249088Y217553D01*
X249068Y217553D01*
X249049Y217558D01*
X248927Y217557D01*
X248804Y217560D01*
X248785Y217555D01*
X248765Y217555D01*
X248647Y217519D01*
X248529Y217488D01*
X248512Y217478D01*
X248493Y217472D01*
X248390Y217406D01*
X248284Y217343D01*
X248271Y217329D01*
X248254Y217318D01*
X248208Y217261D01*
X248090Y217136D01*
X248066Y217090D01*
X248041Y217059D01*
X246185Y213844D01*
X240078Y208720D01*
X232586Y205993D01*
X224614Y205993D01*
X217122Y208720D01*
X211015Y213844D01*
X207029Y220749D01*
X205645Y228600D01*
X207029Y236451D01*
X211015Y243355D01*
X216720Y248142D01*
X216769Y248197D01*
X216825Y248245D01*
X216864Y248302D01*
X216910Y248354D01*
X216942Y248420D01*
X216983Y248481D01*
X217004Y248547D01*
X217034Y248610D01*
X217046Y248682D01*
X217068Y248752D01*
X217070Y248821D01*
X217082Y248890D01*
X217074Y248963D01*
X217076Y249036D01*
X217058Y249103D01*
X217051Y249172D01*
X217023Y249240D01*
X217004Y249311D01*
X216969Y249371D01*
X216942Y249435D01*
X216896Y249493D01*
X216859Y249556D01*
X216808Y249603D01*
X216765Y249657D01*
X216705Y249700D01*
X216651Y249750D01*
X216590Y249782D01*
X216533Y249822D01*
X216464Y249846D01*
X216398Y249880D01*
X216340Y249890D01*
X216265Y249916D01*
X216143Y249923D01*
X216067Y249935D01*
X189215Y249935D01*
X189101Y249919D01*
X188987Y249909D01*
X188961Y249899D01*
X188933Y249895D01*
X188828Y249848D01*
X188721Y249807D01*
X188699Y249791D01*
X188674Y249779D01*
X188586Y249705D01*
X188495Y249636D01*
X188478Y249613D01*
X188457Y249596D01*
X188393Y249500D01*
X188325Y249408D01*
X188315Y249382D01*
X188299Y249359D01*
X188265Y249249D01*
X188224Y249142D01*
X188222Y249114D01*
X188214Y249088D01*
X188211Y248973D01*
X188201Y248859D01*
X188207Y248834D01*
X188206Y248804D01*
X188273Y248547D01*
X188277Y248531D01*
X190247Y243776D01*
X190247Y239551D01*
X190254Y239501D01*
X190253Y239486D01*
X190259Y239466D01*
X190259Y239464D01*
X190262Y239377D01*
X190279Y239324D01*
X190287Y239269D01*
X190322Y239189D01*
X190349Y239106D01*
X190377Y239067D01*
X190403Y239010D01*
X190499Y238897D01*
X190544Y238833D01*
X202693Y226684D01*
X202693Y198952D01*
X202697Y198923D01*
X202694Y198894D01*
X202717Y198783D01*
X202733Y198671D01*
X202745Y198644D01*
X202750Y198615D01*
X202803Y198515D01*
X202849Y198412D01*
X202868Y198389D01*
X202881Y198363D01*
X202959Y198281D01*
X203032Y198195D01*
X203057Y198178D01*
X203077Y198157D01*
X203175Y198100D01*
X203269Y198037D01*
X203297Y198028D01*
X203322Y198013D01*
X203432Y197985D01*
X203540Y197951D01*
X203570Y197950D01*
X203598Y197943D01*
X203711Y197947D01*
X203824Y197944D01*
X203853Y197951D01*
X203882Y197952D01*
X203990Y197987D01*
X204099Y198016D01*
X204125Y198031D01*
X204153Y198040D01*
X204217Y198085D01*
X204344Y198161D01*
X204387Y198207D01*
X204426Y198235D01*
X204740Y198549D01*
X217680Y198549D01*
X218992Y197237D01*
X219039Y197201D01*
X219079Y197159D01*
X219152Y197116D01*
X219219Y197066D01*
X219274Y197045D01*
X219324Y197015D01*
X219406Y196995D01*
X219485Y196964D01*
X219543Y196960D01*
X219600Y196945D01*
X219684Y196948D01*
X219768Y196941D01*
X219826Y196952D01*
X219884Y196954D01*
X219964Y196980D01*
X220047Y196997D01*
X220099Y197024D01*
X220155Y197042D01*
X220211Y197082D01*
X220299Y197128D01*
X220372Y197197D01*
X220428Y197237D01*
X221740Y198549D01*
X234680Y198549D01*
X236759Y196470D01*
X236759Y196462D01*
X236775Y196349D01*
X236785Y196234D01*
X236795Y196208D01*
X236799Y196181D01*
X236846Y196076D01*
X236887Y195969D01*
X236903Y195947D01*
X236915Y195922D01*
X236989Y195834D01*
X237058Y195742D01*
X237081Y195726D01*
X237098Y195705D01*
X237194Y195641D01*
X237286Y195572D01*
X237312Y195562D01*
X237335Y195547D01*
X237445Y195512D01*
X237552Y195472D01*
X237580Y195470D01*
X237606Y195461D01*
X237721Y195458D01*
X237835Y195449D01*
X237860Y195455D01*
X237890Y195454D01*
X238147Y195521D01*
X238163Y195525D01*
X240138Y196343D01*
X242462Y196343D01*
X244610Y195453D01*
X246253Y193810D01*
X247143Y191662D01*
X247143Y189338D01*
X246253Y187190D01*
X244610Y185547D01*
X242462Y184657D01*
X240138Y184657D01*
X238163Y185475D01*
X238051Y185504D01*
X237942Y185539D01*
X237914Y185540D01*
X237887Y185546D01*
X237773Y185543D01*
X237658Y185546D01*
X237631Y185539D01*
X237603Y185538D01*
X237494Y185503D01*
X237383Y185474D01*
X237359Y185460D01*
X237332Y185452D01*
X237237Y185388D01*
X237138Y185329D01*
X237119Y185309D01*
X237096Y185293D01*
X237022Y185206D01*
X236944Y185122D01*
X236931Y185097D01*
X236913Y185076D01*
X236867Y184971D01*
X236814Y184869D01*
X236810Y184844D01*
X236798Y184816D01*
X236761Y184552D01*
X236759Y184538D01*
X236759Y184530D01*
X234680Y182451D01*
X221740Y182451D01*
X220428Y183763D01*
X220381Y183799D01*
X220341Y183841D01*
X220268Y183884D01*
X220201Y183934D01*
X220146Y183955D01*
X220096Y183985D01*
X220014Y184005D01*
X219935Y184036D01*
X219877Y184040D01*
X219820Y184055D01*
X219736Y184052D01*
X219652Y184059D01*
X219594Y184048D01*
X219536Y184046D01*
X219456Y184020D01*
X219373Y184003D01*
X219321Y183976D01*
X219265Y183958D01*
X219209Y183918D01*
X219121Y183872D01*
X219048Y183804D01*
X218992Y183763D01*
X217680Y182451D01*
X210387Y182451D01*
X210273Y182435D01*
X210159Y182425D01*
X210133Y182415D01*
X210105Y182411D01*
X210001Y182364D01*
X209893Y182323D01*
X209871Y182307D01*
X209846Y182295D01*
X209758Y182221D01*
X209667Y182152D01*
X209650Y182129D01*
X209629Y182112D01*
X209565Y182016D01*
X209497Y181924D01*
X209487Y181898D01*
X209471Y181875D01*
X209437Y181765D01*
X209396Y181658D01*
X209394Y181630D01*
X209386Y181604D01*
X209383Y181489D01*
X209374Y181375D01*
X209379Y181350D01*
X209378Y181320D01*
X209445Y181063D01*
X209449Y181047D01*
X210313Y178962D01*
X210313Y176638D01*
X209423Y174490D01*
X209340Y174407D01*
X209288Y174337D01*
X209228Y174274D01*
X209202Y174224D01*
X209169Y174180D01*
X209138Y174098D01*
X209098Y174020D01*
X209090Y173973D01*
X209068Y173914D01*
X209057Y173780D01*
X209057Y173779D01*
X209057Y173778D01*
X209056Y173767D01*
X209043Y173689D01*
X209043Y157255D01*
X209055Y157168D01*
X209058Y157081D01*
X209075Y157028D01*
X209083Y156973D01*
X209118Y156893D01*
X209145Y156810D01*
X209173Y156771D01*
X209199Y156714D01*
X209295Y156600D01*
X209340Y156537D01*
X211147Y154730D01*
X211216Y154678D01*
X211280Y154618D01*
X211330Y154592D01*
X211374Y154559D01*
X211456Y154528D01*
X211534Y154488D01*
X211581Y154480D01*
X211640Y154458D01*
X211787Y154446D01*
X211865Y154433D01*
X220334Y154433D01*
X223310Y151457D01*
X225168Y149599D01*
X225192Y149581D01*
X225211Y149559D01*
X225305Y149496D01*
X225395Y149428D01*
X225423Y149417D01*
X225447Y149401D01*
X225555Y149367D01*
X225661Y149327D01*
X225690Y149324D01*
X225718Y149315D01*
X225832Y149312D01*
X225944Y149303D01*
X225973Y149309D01*
G37*
G36*
X153474Y12709D02*
X153474Y12709D01*
X153532Y12708D01*
X153614Y12729D01*
X153697Y12741D01*
X153751Y12765D01*
X153807Y12779D01*
X153880Y12822D01*
X153957Y12857D01*
X154002Y12895D01*
X154052Y12925D01*
X154110Y12986D01*
X154174Y13041D01*
X154206Y13089D01*
X154246Y13132D01*
X154285Y13207D01*
X154331Y13277D01*
X154349Y13333D01*
X154376Y13385D01*
X154387Y13453D01*
X154417Y13548D01*
X154420Y13648D01*
X154431Y13716D01*
X154431Y24466D01*
X155196Y24345D01*
X156983Y23764D01*
X158657Y22911D01*
X160178Y21806D01*
X161506Y20478D01*
X162611Y18957D01*
X163464Y17283D01*
X163828Y16163D01*
X163858Y16101D01*
X163879Y16035D01*
X163920Y15974D01*
X163953Y15908D01*
X163999Y15857D01*
X164038Y15799D01*
X164094Y15752D01*
X164143Y15697D01*
X164202Y15661D01*
X164255Y15616D01*
X164322Y15586D01*
X164385Y15548D01*
X164452Y15529D01*
X164515Y15501D01*
X164588Y15491D01*
X164659Y15471D01*
X164728Y15471D01*
X164797Y15462D01*
X164870Y15472D01*
X164943Y15473D01*
X165009Y15493D01*
X165078Y15503D01*
X165145Y15533D01*
X165216Y15554D01*
X165274Y15591D01*
X165337Y15620D01*
X165393Y15667D01*
X165455Y15707D01*
X165501Y15759D01*
X165553Y15804D01*
X165586Y15857D01*
X165643Y15921D01*
X165692Y16025D01*
X165731Y16089D01*
X166120Y17027D01*
X166120Y17028D01*
X166121Y17030D01*
X166155Y17161D01*
X166191Y17302D01*
X166191Y17304D01*
X166191Y17305D01*
X166187Y17445D01*
X166183Y17586D01*
X166182Y17588D01*
X166182Y17589D01*
X166139Y17724D01*
X166096Y17857D01*
X166095Y17858D01*
X166095Y17860D01*
X166086Y17872D01*
X165938Y18093D01*
X165914Y18113D01*
X165900Y18133D01*
X165607Y18426D01*
X165607Y76580D01*
X165603Y76609D01*
X165606Y76638D01*
X165583Y76749D01*
X165567Y76861D01*
X165555Y76888D01*
X165550Y76917D01*
X165498Y77017D01*
X165451Y77121D01*
X165432Y77143D01*
X165419Y77169D01*
X165341Y77251D01*
X165268Y77338D01*
X165243Y77354D01*
X165223Y77375D01*
X165125Y77433D01*
X165031Y77495D01*
X165003Y77504D01*
X164978Y77519D01*
X164868Y77547D01*
X164760Y77581D01*
X164731Y77582D01*
X164702Y77589D01*
X164589Y77586D01*
X164476Y77588D01*
X164447Y77581D01*
X164418Y77580D01*
X164310Y77545D01*
X164201Y77517D01*
X164175Y77502D01*
X164147Y77493D01*
X164084Y77447D01*
X163956Y77371D01*
X163913Y77326D01*
X163874Y77298D01*
X163828Y77251D01*
X156718Y77251D01*
X156660Y77243D01*
X156602Y77245D01*
X156520Y77223D01*
X156436Y77211D01*
X156383Y77188D01*
X156327Y77173D01*
X156254Y77130D01*
X156177Y77095D01*
X156132Y77057D01*
X156082Y77028D01*
X156024Y76966D01*
X155960Y76912D01*
X155928Y76863D01*
X155888Y76820D01*
X155849Y76745D01*
X155802Y76675D01*
X155785Y76619D01*
X155758Y76567D01*
X155747Y76499D01*
X155717Y76404D01*
X155714Y76304D01*
X155703Y76236D01*
X155703Y61606D01*
X147436Y53339D01*
X111252Y53339D01*
X111194Y53331D01*
X111136Y53333D01*
X111054Y53311D01*
X110970Y53299D01*
X110917Y53276D01*
X110861Y53261D01*
X110788Y53218D01*
X110711Y53183D01*
X110666Y53145D01*
X110616Y53116D01*
X110558Y53054D01*
X110494Y53000D01*
X110462Y52951D01*
X110422Y52908D01*
X110383Y52833D01*
X110336Y52763D01*
X110319Y52707D01*
X110292Y52655D01*
X110281Y52587D01*
X110251Y52492D01*
X110248Y52392D01*
X110237Y52324D01*
X110237Y51206D01*
X110249Y51119D01*
X110252Y51032D01*
X110269Y50979D01*
X110277Y50924D01*
X110312Y50845D01*
X110339Y50761D01*
X110367Y50722D01*
X110393Y50665D01*
X110489Y50552D01*
X110534Y50488D01*
X132169Y28854D01*
X133097Y26613D01*
X133097Y24325D01*
X133097Y24324D01*
X133097Y24322D01*
X133104Y24272D01*
X133103Y24253D01*
X133111Y24226D01*
X133117Y24180D01*
X133137Y24044D01*
X133137Y24042D01*
X133137Y24041D01*
X133195Y23913D01*
X133253Y23784D01*
X133254Y23783D01*
X133255Y23782D01*
X133345Y23675D01*
X133436Y23567D01*
X133438Y23566D01*
X133439Y23565D01*
X133452Y23557D01*
X133673Y23410D01*
X133702Y23400D01*
X133724Y23387D01*
X134051Y23252D01*
X137552Y19751D01*
X139069Y16089D01*
X139104Y16029D01*
X139130Y15965D01*
X139176Y15907D01*
X139213Y15844D01*
X139263Y15796D01*
X139306Y15742D01*
X139366Y15699D01*
X139420Y15649D01*
X139481Y15617D01*
X139538Y15577D01*
X139607Y15552D01*
X139673Y15518D01*
X139740Y15505D01*
X139806Y15482D01*
X139879Y15478D01*
X139951Y15463D01*
X140020Y15469D01*
X140089Y15465D01*
X140161Y15481D01*
X140235Y15488D01*
X140299Y15513D01*
X140367Y15528D01*
X140431Y15563D01*
X140500Y15590D01*
X140555Y15632D01*
X140616Y15665D01*
X140668Y15717D01*
X140727Y15761D01*
X140768Y15817D01*
X140817Y15866D01*
X140846Y15921D01*
X140897Y15989D01*
X140938Y16097D01*
X140972Y16163D01*
X141336Y17283D01*
X142189Y18957D01*
X143294Y20478D01*
X144622Y21806D01*
X146143Y22911D01*
X147817Y23764D01*
X149604Y24345D01*
X150369Y24466D01*
X150369Y13716D01*
X150377Y13658D01*
X150375Y13600D01*
X150397Y13518D01*
X150409Y13435D01*
X150433Y13381D01*
X150447Y13325D01*
X150490Y13252D01*
X150525Y13175D01*
X150563Y13131D01*
X150593Y13080D01*
X150654Y13023D01*
X150709Y12958D01*
X150757Y12926D01*
X150800Y12886D01*
X150875Y12847D01*
X150945Y12801D01*
X151001Y12783D01*
X151053Y12756D01*
X151121Y12745D01*
X151216Y12715D01*
X151316Y12712D01*
X151384Y12701D01*
X153416Y12701D01*
X153474Y12709D01*
G37*
G36*
X169655Y156792D02*
X169655Y156792D01*
X169712Y156794D01*
X169794Y156820D01*
X169878Y156837D01*
X169929Y156863D01*
X169983Y156880D01*
X170054Y156928D01*
X170130Y156968D01*
X170172Y157007D01*
X170219Y157039D01*
X170274Y157104D01*
X170337Y157164D01*
X170365Y157213D01*
X170402Y157256D01*
X170437Y157335D01*
X170480Y157409D01*
X170494Y157464D01*
X170517Y157516D01*
X170529Y157601D01*
X170550Y157684D01*
X170549Y157741D01*
X170556Y157798D01*
X170544Y157883D01*
X170541Y157969D01*
X170524Y158023D01*
X170516Y158079D01*
X170480Y158157D01*
X170454Y158239D01*
X170425Y158279D01*
X170399Y158338D01*
X170305Y158448D01*
X170259Y158512D01*
X169751Y159020D01*
X169751Y171960D01*
X171063Y173272D01*
X171099Y173319D01*
X171141Y173359D01*
X171184Y173432D01*
X171234Y173499D01*
X171255Y173554D01*
X171285Y173604D01*
X171305Y173686D01*
X171336Y173765D01*
X171340Y173823D01*
X171355Y173880D01*
X171352Y173964D01*
X171359Y174048D01*
X171348Y174106D01*
X171346Y174164D01*
X171320Y174244D01*
X171303Y174327D01*
X171276Y174379D01*
X171258Y174435D01*
X171218Y174491D01*
X171172Y174579D01*
X171104Y174652D01*
X171063Y174708D01*
X169751Y176020D01*
X169751Y188960D01*
X171830Y191039D01*
X183770Y191039D01*
X184194Y190615D01*
X184218Y190597D01*
X184237Y190575D01*
X184331Y190512D01*
X184421Y190444D01*
X184449Y190433D01*
X184473Y190417D01*
X184581Y190383D01*
X184687Y190342D01*
X184716Y190340D01*
X184744Y190331D01*
X184858Y190328D01*
X184970Y190319D01*
X184999Y190325D01*
X185028Y190324D01*
X185138Y190352D01*
X185249Y190375D01*
X185275Y190388D01*
X185303Y190396D01*
X185401Y190453D01*
X185501Y190506D01*
X185523Y190526D01*
X185548Y190541D01*
X185625Y190624D01*
X185707Y190702D01*
X185722Y190727D01*
X185742Y190748D01*
X185794Y190849D01*
X185851Y190947D01*
X185858Y190975D01*
X185872Y191001D01*
X185885Y191079D01*
X185921Y191222D01*
X185919Y191285D01*
X185927Y191332D01*
X185927Y219935D01*
X185915Y220022D01*
X185912Y220109D01*
X185895Y220162D01*
X185887Y220217D01*
X185852Y220297D01*
X185825Y220380D01*
X185797Y220419D01*
X185771Y220476D01*
X185675Y220590D01*
X185630Y220653D01*
X185093Y221190D01*
X185023Y221242D01*
X184960Y221302D01*
X184910Y221328D01*
X184866Y221361D01*
X184784Y221392D01*
X184706Y221432D01*
X184659Y221440D01*
X184600Y221462D01*
X184453Y221474D01*
X184375Y221487D01*
X165746Y221487D01*
X157833Y229400D01*
X157832Y229401D01*
X157831Y229402D01*
X157716Y229488D01*
X157606Y229571D01*
X157605Y229571D01*
X157603Y229572D01*
X157470Y229623D01*
X157340Y229672D01*
X157339Y229672D01*
X157337Y229673D01*
X157193Y229684D01*
X157057Y229696D01*
X157056Y229695D01*
X157054Y229695D01*
X157038Y229692D01*
X156778Y229640D01*
X156751Y229626D01*
X156727Y229620D01*
X154876Y228853D01*
X149924Y228853D01*
X145349Y230748D01*
X141848Y234249D01*
X140638Y237171D01*
X140623Y237196D01*
X140614Y237224D01*
X140551Y237319D01*
X140493Y237416D01*
X140472Y237436D01*
X140456Y237461D01*
X140369Y237534D01*
X140287Y237611D01*
X140261Y237625D01*
X140238Y237644D01*
X140135Y237690D01*
X140034Y237741D01*
X140005Y237747D01*
X139978Y237759D01*
X139866Y237775D01*
X139755Y237796D01*
X139726Y237794D01*
X139697Y237798D01*
X139585Y237782D01*
X139472Y237772D01*
X139445Y237761D01*
X139415Y237757D01*
X139312Y237711D01*
X139207Y237670D01*
X139183Y237652D01*
X139156Y237640D01*
X139070Y237567D01*
X138980Y237498D01*
X138962Y237475D01*
X138940Y237456D01*
X138898Y237389D01*
X138810Y237271D01*
X138788Y237212D01*
X138762Y237171D01*
X137552Y234249D01*
X134051Y230748D01*
X133723Y230613D01*
X133722Y230612D01*
X133721Y230611D01*
X133602Y230541D01*
X133479Y230468D01*
X133478Y230467D01*
X133476Y230466D01*
X133379Y230362D01*
X133283Y230261D01*
X133283Y230260D01*
X133282Y230259D01*
X133217Y230133D01*
X133153Y230009D01*
X133153Y230007D01*
X133152Y230006D01*
X133150Y229991D01*
X133098Y229730D01*
X133101Y229699D01*
X133097Y229675D01*
X133097Y226466D01*
X133109Y226379D01*
X133112Y226292D01*
X133129Y226239D01*
X133137Y226184D01*
X133172Y226105D01*
X133199Y226021D01*
X133227Y225982D01*
X133253Y225925D01*
X133349Y225812D01*
X133394Y225748D01*
X145551Y213591D01*
X147409Y211734D01*
X148337Y209493D01*
X148337Y190316D01*
X148341Y190287D01*
X148338Y190258D01*
X148361Y190147D01*
X148377Y190035D01*
X148389Y190008D01*
X148394Y189979D01*
X148447Y189879D01*
X148493Y189776D01*
X148512Y189753D01*
X148525Y189727D01*
X148603Y189645D01*
X148676Y189559D01*
X148701Y189542D01*
X148721Y189521D01*
X148819Y189464D01*
X148913Y189401D01*
X148941Y189392D01*
X148966Y189377D01*
X149076Y189349D01*
X149184Y189315D01*
X149214Y189314D01*
X149242Y189307D01*
X149355Y189311D01*
X149468Y189308D01*
X149497Y189315D01*
X149526Y189316D01*
X149634Y189351D01*
X149743Y189380D01*
X149769Y189395D01*
X149797Y189404D01*
X149861Y189449D01*
X149988Y189525D01*
X150031Y189571D01*
X150070Y189599D01*
X151510Y191039D01*
X151892Y191039D01*
X151950Y191047D01*
X152008Y191045D01*
X152090Y191067D01*
X152174Y191079D01*
X152227Y191102D01*
X152283Y191117D01*
X152356Y191160D01*
X152433Y191195D01*
X152478Y191233D01*
X152528Y191262D01*
X152586Y191324D01*
X152650Y191378D01*
X152682Y191427D01*
X152722Y191470D01*
X152761Y191545D01*
X152808Y191615D01*
X152825Y191671D01*
X152852Y191723D01*
X152863Y191791D01*
X152893Y191886D01*
X152896Y191986D01*
X152907Y192054D01*
X152907Y192394D01*
X159396Y198883D01*
X159719Y198883D01*
X159806Y198895D01*
X159893Y198898D01*
X159946Y198915D01*
X160001Y198923D01*
X160081Y198958D01*
X160164Y198985D01*
X160203Y199013D01*
X160260Y199039D01*
X160374Y199135D01*
X160437Y199180D01*
X160520Y199263D01*
X162668Y200153D01*
X164992Y200153D01*
X167140Y199263D01*
X168783Y197620D01*
X169673Y195472D01*
X169673Y193148D01*
X168783Y191000D01*
X167140Y189357D01*
X166155Y188949D01*
X166154Y188948D01*
X166153Y188948D01*
X166034Y188878D01*
X165911Y188805D01*
X165910Y188803D01*
X165908Y188803D01*
X165813Y188701D01*
X165715Y188598D01*
X165715Y188596D01*
X165714Y188595D01*
X165651Y188474D01*
X165585Y188345D01*
X165585Y188344D01*
X165584Y188342D01*
X165582Y188327D01*
X165530Y188066D01*
X165533Y188036D01*
X165529Y188011D01*
X165529Y176020D01*
X164217Y174708D01*
X164181Y174661D01*
X164139Y174621D01*
X164096Y174548D01*
X164046Y174481D01*
X164025Y174426D01*
X163995Y174376D01*
X163975Y174294D01*
X163944Y174215D01*
X163940Y174157D01*
X163925Y174100D01*
X163928Y174016D01*
X163921Y173932D01*
X163932Y173874D01*
X163934Y173816D01*
X163960Y173736D01*
X163977Y173653D01*
X164004Y173601D01*
X164022Y173545D01*
X164062Y173489D01*
X164108Y173401D01*
X164176Y173328D01*
X164217Y173272D01*
X165529Y171960D01*
X165529Y158720D01*
X165537Y158662D01*
X165535Y158604D01*
X165557Y158522D01*
X165569Y158438D01*
X165592Y158385D01*
X165607Y158329D01*
X165650Y158256D01*
X165685Y158179D01*
X165723Y158134D01*
X165752Y158084D01*
X165814Y158026D01*
X165868Y157962D01*
X165917Y157930D01*
X165960Y157890D01*
X166035Y157851D01*
X166105Y157804D01*
X166161Y157787D01*
X166213Y157760D01*
X166281Y157749D01*
X166376Y157719D01*
X166476Y157716D01*
X166544Y157705D01*
X167105Y157705D01*
X169153Y156856D01*
X169236Y156835D01*
X169316Y156804D01*
X169373Y156800D01*
X169428Y156786D01*
X169514Y156788D01*
X169599Y156781D01*
X169655Y156792D01*
G37*
G36*
X175355Y114871D02*
X175355Y114871D01*
X175413Y114873D01*
X175493Y114899D01*
X175576Y114916D01*
X175628Y114943D01*
X175684Y114961D01*
X175740Y115001D01*
X175828Y115047D01*
X175901Y115116D01*
X175957Y115156D01*
X176486Y115685D01*
X176539Y115755D01*
X176598Y115818D01*
X176624Y115868D01*
X176657Y115912D01*
X176688Y115994D01*
X176728Y116071D01*
X176736Y116119D01*
X176758Y116177D01*
X176770Y116325D01*
X176783Y116402D01*
X176783Y131674D01*
X176771Y131761D01*
X176768Y131848D01*
X176751Y131901D01*
X176743Y131956D01*
X176708Y132035D01*
X176681Y132119D01*
X176653Y132158D01*
X176627Y132215D01*
X176531Y132328D01*
X176486Y132392D01*
X163664Y145214D01*
X163594Y145266D01*
X163530Y145326D01*
X163481Y145352D01*
X163437Y145385D01*
X163355Y145416D01*
X163277Y145456D01*
X163230Y145464D01*
X163171Y145486D01*
X163023Y145498D01*
X162946Y145511D01*
X139213Y145511D01*
X136973Y146439D01*
X129356Y154056D01*
X129286Y154108D01*
X129222Y154168D01*
X129173Y154194D01*
X129129Y154227D01*
X129047Y154258D01*
X128969Y154298D01*
X128922Y154306D01*
X128863Y154328D01*
X128716Y154340D01*
X128638Y154353D01*
X126211Y154353D01*
X126124Y154341D01*
X126037Y154338D01*
X125984Y154321D01*
X125929Y154313D01*
X125849Y154278D01*
X125766Y154251D01*
X125727Y154223D01*
X125670Y154197D01*
X125557Y154101D01*
X125493Y154056D01*
X124338Y152901D01*
X114422Y152901D01*
X112331Y154992D01*
X112331Y160948D01*
X112327Y160977D01*
X112330Y161006D01*
X112307Y161117D01*
X112291Y161230D01*
X112279Y161256D01*
X112274Y161285D01*
X112222Y161386D01*
X112175Y161489D01*
X112156Y161512D01*
X112143Y161537D01*
X112065Y161620D01*
X111992Y161706D01*
X111967Y161722D01*
X111947Y161744D01*
X111849Y161801D01*
X111755Y161864D01*
X111727Y161873D01*
X111702Y161887D01*
X111592Y161915D01*
X111484Y161949D01*
X111454Y161950D01*
X111426Y161957D01*
X111313Y161954D01*
X111200Y161957D01*
X111171Y161949D01*
X111142Y161948D01*
X111034Y161914D01*
X110925Y161885D01*
X110899Y161870D01*
X110871Y161861D01*
X110808Y161815D01*
X110680Y161740D01*
X110637Y161694D01*
X110598Y161666D01*
X104174Y155241D01*
X101933Y154313D01*
X100282Y154313D01*
X100196Y154301D01*
X100108Y154298D01*
X100056Y154281D01*
X100001Y154273D01*
X99921Y154238D01*
X99838Y154211D01*
X99799Y154183D01*
X99742Y154157D01*
X99628Y154061D01*
X99565Y154016D01*
X97410Y151861D01*
X85470Y151861D01*
X84960Y152372D01*
X84913Y152407D01*
X84873Y152449D01*
X84800Y152492D01*
X84732Y152543D01*
X84678Y152564D01*
X84627Y152593D01*
X84546Y152614D01*
X84467Y152644D01*
X84408Y152649D01*
X84352Y152663D01*
X84268Y152660D01*
X84183Y152667D01*
X84126Y152656D01*
X84068Y152654D01*
X83987Y152628D01*
X83905Y152612D01*
X83853Y152585D01*
X83797Y152567D01*
X83741Y152527D01*
X83652Y152481D01*
X83580Y152412D01*
X83524Y152372D01*
X81416Y150264D01*
X81324Y150172D01*
X81271Y150102D01*
X81212Y150038D01*
X81186Y149989D01*
X81153Y149945D01*
X81122Y149863D01*
X81082Y149785D01*
X81074Y149738D01*
X81052Y149679D01*
X81040Y149531D01*
X81027Y149454D01*
X81027Y137217D01*
X80779Y136619D01*
X80779Y136618D01*
X80778Y136616D01*
X80743Y136480D01*
X80708Y136344D01*
X80708Y136342D01*
X80708Y136341D01*
X80712Y136200D01*
X80716Y136060D01*
X80717Y136058D01*
X80717Y136057D01*
X80761Y135919D01*
X80803Y135789D01*
X80804Y135788D01*
X80804Y135786D01*
X80813Y135773D01*
X80961Y135553D01*
X80985Y135533D01*
X80999Y135513D01*
X81369Y135144D01*
X82297Y132903D01*
X82297Y129841D01*
X82301Y129812D01*
X82298Y129782D01*
X82321Y129671D01*
X82337Y129559D01*
X82349Y129532D01*
X82354Y129504D01*
X82407Y129403D01*
X82453Y129300D01*
X82472Y129277D01*
X82485Y129251D01*
X82563Y129169D01*
X82636Y129083D01*
X82661Y129066D01*
X82681Y129045D01*
X82779Y128988D01*
X82873Y128925D01*
X82901Y128916D01*
X82926Y128901D01*
X83036Y128874D01*
X83144Y128839D01*
X83174Y128839D01*
X83202Y128831D01*
X83315Y128835D01*
X83428Y128832D01*
X83457Y128839D01*
X83486Y128840D01*
X83594Y128875D01*
X83703Y128904D01*
X83729Y128919D01*
X83757Y128928D01*
X83821Y128973D01*
X83948Y129049D01*
X83991Y129095D01*
X84030Y129123D01*
X85590Y130683D01*
X86162Y130920D01*
X86261Y130978D01*
X86363Y131031D01*
X86383Y131050D01*
X86407Y131064D01*
X86486Y131148D01*
X86569Y131227D01*
X86583Y131251D01*
X86602Y131271D01*
X86654Y131373D01*
X86713Y131472D01*
X86719Y131499D01*
X86732Y131524D01*
X86754Y131636D01*
X86783Y131748D01*
X86782Y131776D01*
X86787Y131803D01*
X86777Y131917D01*
X86774Y132032D01*
X86765Y132058D01*
X86763Y132086D01*
X86722Y132193D01*
X86686Y132303D01*
X86672Y132323D01*
X86661Y132351D01*
X86500Y132564D01*
X86491Y132576D01*
X86487Y132580D01*
X85597Y134728D01*
X85597Y137052D01*
X86487Y139200D01*
X88130Y140843D01*
X90278Y141733D01*
X92602Y141733D01*
X94750Y140843D01*
X95194Y140399D01*
X95241Y140364D01*
X95281Y140321D01*
X95308Y140306D01*
X95321Y140293D01*
X95363Y140272D01*
X95421Y140228D01*
X95476Y140207D01*
X95527Y140177D01*
X95568Y140167D01*
X95574Y140164D01*
X95592Y140161D01*
X95608Y140157D01*
X95687Y140127D01*
X95745Y140122D01*
X95802Y140107D01*
X95886Y140110D01*
X95903Y140109D01*
X95905Y140108D01*
X95907Y140108D01*
X95970Y140103D01*
X96028Y140114D01*
X96086Y140116D01*
X96166Y140142D01*
X96182Y140145D01*
X96201Y140148D01*
X96205Y140150D01*
X96249Y140159D01*
X96301Y140186D01*
X96357Y140204D01*
X96410Y140242D01*
X96460Y140264D01*
X96472Y140275D01*
X96501Y140290D01*
X96574Y140359D01*
X96630Y140399D01*
X98030Y141799D01*
X110970Y141799D01*
X111149Y141620D01*
X111218Y141568D01*
X111282Y141508D01*
X111332Y141482D01*
X111376Y141449D01*
X111458Y141418D01*
X111535Y141378D01*
X111583Y141370D01*
X111641Y141348D01*
X111789Y141336D01*
X111866Y141323D01*
X115334Y141323D01*
X115887Y140770D01*
X115955Y140719D01*
X116018Y140660D01*
X116068Y140634D01*
X116114Y140599D01*
X116194Y140569D01*
X116270Y140529D01*
X116326Y140518D01*
X116379Y140498D01*
X116465Y140491D01*
X116549Y140474D01*
X116606Y140479D01*
X116663Y140475D01*
X116747Y140491D01*
X116833Y140499D01*
X116886Y140519D01*
X116941Y140530D01*
X117018Y140570D01*
X117098Y140601D01*
X117143Y140635D01*
X117194Y140661D01*
X117256Y140721D01*
X117325Y140772D01*
X117359Y140818D01*
X117400Y140857D01*
X117443Y140931D01*
X117495Y141000D01*
X117515Y141053D01*
X117544Y141103D01*
X117565Y141186D01*
X117595Y141266D01*
X117600Y141323D01*
X117614Y141378D01*
X117611Y141464D01*
X117618Y141550D01*
X117607Y141598D01*
X117605Y141662D01*
X117560Y141800D01*
X117542Y141877D01*
X117347Y142348D01*
X117347Y144672D01*
X118237Y146820D01*
X119880Y148463D01*
X122028Y149353D01*
X124352Y149353D01*
X126500Y148463D01*
X128143Y146820D01*
X129033Y144672D01*
X129033Y144555D01*
X129045Y144468D01*
X129048Y144381D01*
X129065Y144328D01*
X129073Y144273D01*
X129108Y144193D01*
X129135Y144110D01*
X129163Y144071D01*
X129189Y144014D01*
X129285Y143900D01*
X129330Y143837D01*
X138047Y135120D01*
X138117Y135068D01*
X138180Y135008D01*
X138230Y134982D01*
X138274Y134949D01*
X138356Y134918D01*
X138434Y134878D01*
X138481Y134870D01*
X138540Y134848D01*
X138687Y134836D01*
X138765Y134823D01*
X140444Y134823D01*
X140502Y134831D01*
X140560Y134829D01*
X140642Y134851D01*
X140726Y134863D01*
X140779Y134886D01*
X140835Y134901D01*
X140908Y134944D01*
X140985Y134979D01*
X141030Y135017D01*
X141080Y135046D01*
X141138Y135108D01*
X141202Y135162D01*
X141234Y135211D01*
X141274Y135254D01*
X141313Y135329D01*
X141360Y135399D01*
X141377Y135455D01*
X141404Y135507D01*
X141415Y135575D01*
X141445Y135670D01*
X141447Y135735D01*
X149500Y135735D01*
X157541Y135735D01*
X157541Y134850D01*
X157455Y134531D01*
X157446Y134454D01*
X157427Y134379D01*
X157429Y134314D01*
X157421Y134249D01*
X157433Y134172D01*
X157436Y134094D01*
X157456Y134033D01*
X157466Y133968D01*
X157499Y133898D01*
X157523Y133824D01*
X157556Y133779D01*
X157587Y133711D01*
X157673Y133614D01*
X157718Y133551D01*
X158049Y133220D01*
X158049Y129338D01*
X158057Y129280D01*
X158055Y129222D01*
X158077Y129140D01*
X158089Y129056D01*
X158112Y129003D01*
X158127Y128947D01*
X158170Y128874D01*
X158205Y128797D01*
X158243Y128752D01*
X158272Y128702D01*
X158334Y128644D01*
X158388Y128580D01*
X158437Y128548D01*
X158480Y128508D01*
X158555Y128469D01*
X158625Y128422D01*
X158681Y128405D01*
X158733Y128378D01*
X158801Y128367D01*
X158896Y128337D01*
X158996Y128334D01*
X159064Y128323D01*
X161354Y128323D01*
X171777Y117900D01*
X174521Y115156D01*
X174568Y115120D01*
X174608Y115078D01*
X174681Y115035D01*
X174748Y114985D01*
X174803Y114964D01*
X174853Y114934D01*
X174935Y114914D01*
X175014Y114884D01*
X175072Y114879D01*
X175129Y114864D01*
X175213Y114867D01*
X175297Y114860D01*
X175355Y114871D01*
G37*
G36*
X114415Y16218D02*
X114415Y16218D01*
X114528Y16228D01*
X114555Y16239D01*
X114585Y16243D01*
X114688Y16289D01*
X114793Y16330D01*
X114817Y16348D01*
X114844Y16360D01*
X114930Y16433D01*
X115020Y16502D01*
X115038Y16525D01*
X115060Y16544D01*
X115102Y16611D01*
X115190Y16729D01*
X115212Y16788D01*
X115238Y16829D01*
X116448Y19751D01*
X119520Y22822D01*
X119555Y22869D01*
X119597Y22909D01*
X119640Y22982D01*
X119691Y23049D01*
X119712Y23104D01*
X119741Y23154D01*
X119762Y23236D01*
X119792Y23315D01*
X119797Y23373D01*
X119811Y23430D01*
X119809Y23514D01*
X119816Y23598D01*
X119804Y23656D01*
X119802Y23714D01*
X119776Y23794D01*
X119760Y23877D01*
X119733Y23929D01*
X119715Y23985D01*
X119675Y24041D01*
X119629Y24129D01*
X119560Y24202D01*
X119520Y24258D01*
X100829Y42949D01*
X99118Y44660D01*
X99048Y44712D01*
X98984Y44772D01*
X98935Y44798D01*
X98891Y44831D01*
X98809Y44862D01*
X98731Y44902D01*
X98684Y44910D01*
X98625Y44932D01*
X98477Y44944D01*
X98400Y44957D01*
X95551Y44957D01*
X95464Y44945D01*
X95377Y44942D01*
X95324Y44925D01*
X95269Y44917D01*
X95189Y44882D01*
X95106Y44855D01*
X95067Y44827D01*
X95010Y44801D01*
X94896Y44705D01*
X94833Y44660D01*
X94750Y44577D01*
X92602Y43687D01*
X90278Y43687D01*
X88130Y44577D01*
X86487Y46220D01*
X85597Y48368D01*
X85597Y50692D01*
X86487Y52840D01*
X88130Y54483D01*
X90278Y55373D01*
X92602Y55373D01*
X94750Y54483D01*
X94833Y54400D01*
X94903Y54348D01*
X94966Y54288D01*
X95016Y54262D01*
X95060Y54229D01*
X95142Y54198D01*
X95220Y54158D01*
X95267Y54150D01*
X95326Y54128D01*
X95473Y54116D01*
X95551Y54103D01*
X97028Y54103D01*
X97086Y54111D01*
X97144Y54109D01*
X97226Y54131D01*
X97310Y54143D01*
X97363Y54166D01*
X97419Y54181D01*
X97492Y54224D01*
X97569Y54259D01*
X97614Y54297D01*
X97664Y54326D01*
X97722Y54388D01*
X97786Y54442D01*
X97818Y54491D01*
X97858Y54534D01*
X97897Y54609D01*
X97944Y54679D01*
X97961Y54735D01*
X97988Y54787D01*
X97999Y54855D01*
X98029Y54950D01*
X98032Y55050D01*
X98043Y55118D01*
X98043Y66946D01*
X98035Y67004D01*
X98037Y67062D01*
X98015Y67144D01*
X98003Y67228D01*
X97980Y67281D01*
X97965Y67337D01*
X97922Y67410D01*
X97887Y67487D01*
X97849Y67532D01*
X97820Y67582D01*
X97758Y67640D01*
X97704Y67704D01*
X97655Y67736D01*
X97612Y67776D01*
X97537Y67815D01*
X97467Y67862D01*
X97411Y67879D01*
X97359Y67906D01*
X97291Y67917D01*
X97196Y67947D01*
X97096Y67950D01*
X97028Y67961D01*
X94789Y67961D01*
X94702Y67949D01*
X94615Y67946D01*
X94587Y67937D01*
X78725Y67937D01*
X78638Y67925D01*
X78551Y67922D01*
X78498Y67905D01*
X78443Y67897D01*
X78364Y67862D01*
X78280Y67835D01*
X78241Y67807D01*
X78184Y67781D01*
X78071Y67685D01*
X78007Y67640D01*
X76914Y66547D01*
X69088Y66547D01*
X69030Y66539D01*
X68972Y66541D01*
X68890Y66519D01*
X68806Y66507D01*
X68753Y66484D01*
X68697Y66469D01*
X68624Y66426D01*
X68547Y66391D01*
X68502Y66353D01*
X68452Y66324D01*
X68394Y66262D01*
X68330Y66208D01*
X68298Y66159D01*
X68258Y66116D01*
X68219Y66041D01*
X68172Y65971D01*
X68155Y65915D01*
X68128Y65863D01*
X68117Y65795D01*
X68087Y65700D01*
X68084Y65600D01*
X68073Y65532D01*
X68073Y34065D01*
X68085Y33978D01*
X68088Y33891D01*
X68105Y33838D01*
X68113Y33783D01*
X68148Y33703D01*
X68175Y33620D01*
X68203Y33581D01*
X68229Y33524D01*
X68325Y33410D01*
X68370Y33347D01*
X70177Y31540D01*
X70247Y31488D01*
X70310Y31428D01*
X70360Y31402D01*
X70404Y31369D01*
X70486Y31338D01*
X70564Y31298D01*
X70611Y31290D01*
X70670Y31268D01*
X70817Y31256D01*
X70895Y31243D01*
X98414Y31243D01*
X104674Y24982D01*
X104699Y24964D01*
X104719Y24940D01*
X104786Y24899D01*
X104902Y24812D01*
X104962Y24789D01*
X105004Y24762D01*
X108651Y23252D01*
X112152Y19751D01*
X113362Y16829D01*
X113377Y16804D01*
X113386Y16776D01*
X113449Y16681D01*
X113507Y16584D01*
X113528Y16564D01*
X113544Y16539D01*
X113631Y16466D01*
X113713Y16389D01*
X113739Y16375D01*
X113762Y16356D01*
X113865Y16310D01*
X113966Y16259D01*
X113995Y16253D01*
X114022Y16241D01*
X114134Y16225D01*
X114245Y16204D01*
X114274Y16206D01*
X114303Y16202D01*
X114415Y16218D01*
G37*
G36*
X84444Y82091D02*
X84444Y82091D01*
X84502Y82089D01*
X84584Y82111D01*
X84668Y82123D01*
X84721Y82146D01*
X84777Y82161D01*
X84850Y82204D01*
X84927Y82239D01*
X84972Y82277D01*
X85022Y82306D01*
X85080Y82368D01*
X85144Y82422D01*
X85176Y82471D01*
X85216Y82514D01*
X85255Y82589D01*
X85302Y82659D01*
X85319Y82715D01*
X85346Y82767D01*
X85357Y82835D01*
X85387Y82930D01*
X85390Y83030D01*
X85401Y83098D01*
X85401Y84974D01*
X85629Y85202D01*
X85676Y85264D01*
X85731Y85320D01*
X85761Y85377D01*
X85800Y85429D01*
X85828Y85502D01*
X85865Y85571D01*
X85878Y85634D01*
X85901Y85695D01*
X85908Y85773D01*
X85924Y85849D01*
X85919Y85904D01*
X85925Y85978D01*
X85909Y86057D01*
X85909Y86495D01*
X86501Y86495D01*
X86564Y86503D01*
X86628Y86502D01*
X86704Y86523D01*
X86783Y86534D01*
X86841Y86560D01*
X86902Y86577D01*
X86957Y86613D01*
X87042Y86651D01*
X87124Y86720D01*
X87184Y86759D01*
X87185Y86759D01*
X87219Y86800D01*
X87259Y86834D01*
X87259Y86835D01*
X87309Y86909D01*
X87366Y86978D01*
X87387Y87027D01*
X87417Y87071D01*
X87444Y87157D01*
X87480Y87238D01*
X87487Y87291D01*
X87503Y87342D01*
X87505Y87432D01*
X87517Y87520D01*
X87509Y87573D01*
X87510Y87626D01*
X87488Y87713D01*
X87474Y87801D01*
X87452Y87850D01*
X87438Y87902D01*
X87393Y87978D01*
X87355Y88059D01*
X87320Y88100D01*
X87293Y88146D01*
X87228Y88207D01*
X87170Y88275D01*
X87125Y88304D01*
X87086Y88340D01*
X87006Y88381D01*
X86931Y88430D01*
X86880Y88446D01*
X86833Y88470D01*
X86762Y88482D01*
X86660Y88513D01*
X86567Y88514D01*
X86502Y88525D01*
X85909Y88525D01*
X85909Y88902D01*
X86117Y89678D01*
X86519Y90373D01*
X87087Y90941D01*
X87782Y91343D01*
X88558Y91551D01*
X91435Y91551D01*
X91435Y88098D01*
X91443Y88040D01*
X91441Y87982D01*
X91463Y87900D01*
X91474Y87816D01*
X91498Y87763D01*
X91513Y87707D01*
X91556Y87634D01*
X91591Y87557D01*
X91628Y87512D01*
X91658Y87462D01*
X91720Y87404D01*
X91774Y87340D01*
X91823Y87308D01*
X91866Y87268D01*
X91941Y87229D01*
X92011Y87182D01*
X92067Y87165D01*
X92119Y87138D01*
X92187Y87127D01*
X92282Y87097D01*
X92382Y87094D01*
X92450Y87083D01*
X92508Y87091D01*
X92566Y87089D01*
X92648Y87111D01*
X92732Y87123D01*
X92785Y87146D01*
X92842Y87161D01*
X92914Y87204D01*
X92991Y87239D01*
X93036Y87277D01*
X93086Y87306D01*
X93144Y87368D01*
X93208Y87422D01*
X93240Y87471D01*
X93280Y87514D01*
X93319Y87589D01*
X93366Y87659D01*
X93383Y87715D01*
X93410Y87767D01*
X93421Y87835D01*
X93451Y87930D01*
X93454Y88030D01*
X93465Y88098D01*
X93465Y92175D01*
X93469Y92180D01*
X93497Y92290D01*
X93531Y92398D01*
X93532Y92428D01*
X93539Y92456D01*
X93535Y92569D01*
X93538Y92682D01*
X93531Y92711D01*
X93530Y92740D01*
X93495Y92848D01*
X93466Y92957D01*
X93451Y92983D01*
X93442Y93011D01*
X93397Y93074D01*
X93321Y93202D01*
X93275Y93245D01*
X93247Y93284D01*
X90901Y95630D01*
X90901Y107570D01*
X90972Y107640D01*
X91007Y107687D01*
X91049Y107727D01*
X91092Y107800D01*
X91143Y107868D01*
X91163Y107922D01*
X91193Y107973D01*
X91214Y108054D01*
X91244Y108133D01*
X91249Y108192D01*
X91263Y108248D01*
X91260Y108332D01*
X91267Y108417D01*
X91256Y108474D01*
X91254Y108532D01*
X91228Y108613D01*
X91212Y108695D01*
X91185Y108747D01*
X91167Y108803D01*
X91126Y108859D01*
X91081Y108948D01*
X91012Y109020D01*
X90972Y109076D01*
X89992Y110056D01*
X89922Y110108D01*
X89858Y110168D01*
X89809Y110194D01*
X89765Y110227D01*
X89683Y110258D01*
X89605Y110298D01*
X89558Y110306D01*
X89499Y110328D01*
X89351Y110340D01*
X89274Y110353D01*
X85042Y110353D01*
X84956Y110341D01*
X84868Y110338D01*
X84816Y110321D01*
X84761Y110313D01*
X84681Y110278D01*
X84598Y110251D01*
X84559Y110223D01*
X84502Y110197D01*
X84388Y110101D01*
X84325Y110056D01*
X82577Y108309D01*
X82569Y108298D01*
X82567Y108296D01*
X82560Y108286D01*
X82542Y108262D01*
X82500Y108222D01*
X82457Y108149D01*
X82406Y108081D01*
X82386Y108027D01*
X82356Y107976D01*
X82335Y107895D01*
X82305Y107816D01*
X82300Y107758D01*
X82286Y107701D01*
X82289Y107617D01*
X82282Y107533D01*
X82293Y107475D01*
X82295Y107417D01*
X82321Y107336D01*
X82338Y107254D01*
X82364Y107202D01*
X82382Y107146D01*
X82423Y107090D01*
X82469Y107001D01*
X82537Y106929D01*
X82577Y106873D01*
X83133Y106317D01*
X83534Y105624D01*
X83741Y104850D01*
X83741Y101481D01*
X77216Y101481D01*
X77158Y101473D01*
X77100Y101474D01*
X77018Y101453D01*
X76935Y101441D01*
X76881Y101417D01*
X76825Y101403D01*
X76752Y101360D01*
X76675Y101325D01*
X76631Y101287D01*
X76580Y101257D01*
X76523Y101196D01*
X76458Y101141D01*
X76426Y101093D01*
X76386Y101050D01*
X76347Y100975D01*
X76301Y100905D01*
X76283Y100849D01*
X76256Y100797D01*
X76245Y100729D01*
X76215Y100634D01*
X76212Y100534D01*
X76201Y100466D01*
X76201Y99449D01*
X75184Y99449D01*
X75126Y99441D01*
X75068Y99442D01*
X74986Y99421D01*
X74903Y99409D01*
X74849Y99385D01*
X74793Y99371D01*
X74720Y99328D01*
X74643Y99293D01*
X74598Y99255D01*
X74548Y99225D01*
X74490Y99164D01*
X74426Y99109D01*
X74394Y99061D01*
X74354Y99018D01*
X74315Y98943D01*
X74269Y98873D01*
X74251Y98817D01*
X74224Y98765D01*
X74213Y98697D01*
X74183Y98602D01*
X74180Y98502D01*
X74169Y98434D01*
X74169Y91409D01*
X71300Y91409D01*
X70526Y91616D01*
X69833Y92017D01*
X69806Y92044D01*
X69782Y92061D01*
X69763Y92084D01*
X69669Y92147D01*
X69579Y92215D01*
X69551Y92225D01*
X69527Y92241D01*
X69419Y92276D01*
X69313Y92316D01*
X69284Y92318D01*
X69256Y92327D01*
X69143Y92330D01*
X69030Y92340D01*
X69001Y92334D01*
X68972Y92335D01*
X68862Y92306D01*
X68751Y92284D01*
X68725Y92270D01*
X68697Y92263D01*
X68599Y92205D01*
X68499Y92153D01*
X68477Y92132D01*
X68452Y92117D01*
X68375Y92035D01*
X68293Y91957D01*
X68278Y91932D01*
X68258Y91910D01*
X68206Y91809D01*
X68149Y91712D01*
X68142Y91683D01*
X68128Y91657D01*
X68115Y91580D01*
X68079Y91436D01*
X68081Y91374D01*
X68073Y91326D01*
X68073Y85321D01*
X68089Y85208D01*
X68099Y85093D01*
X68109Y85067D01*
X68113Y85040D01*
X68160Y84935D01*
X68201Y84828D01*
X68217Y84806D01*
X68229Y84780D01*
X68303Y84693D01*
X68372Y84601D01*
X68395Y84585D01*
X68412Y84563D01*
X68508Y84500D01*
X68600Y84431D01*
X68626Y84421D01*
X68649Y84406D01*
X68759Y84371D01*
X68866Y84331D01*
X68894Y84328D01*
X68920Y84320D01*
X69035Y84317D01*
X69149Y84308D01*
X69174Y84314D01*
X69204Y84313D01*
X69461Y84380D01*
X69477Y84383D01*
X69958Y84583D01*
X72282Y84583D01*
X74430Y83693D01*
X74513Y83610D01*
X74583Y83558D01*
X74646Y83498D01*
X74696Y83472D01*
X74740Y83439D01*
X74822Y83408D01*
X74900Y83368D01*
X74947Y83360D01*
X75006Y83338D01*
X75153Y83326D01*
X75231Y83313D01*
X81594Y83313D01*
X82526Y82380D01*
X82596Y82328D01*
X82660Y82268D01*
X82709Y82242D01*
X82753Y82209D01*
X82835Y82178D01*
X82913Y82138D01*
X82961Y82130D01*
X83019Y82108D01*
X83167Y82096D01*
X83244Y82083D01*
X84386Y82083D01*
X84444Y82091D01*
G37*
G36*
X133918Y108220D02*
X133918Y108220D01*
X133974Y108218D01*
X134058Y108240D01*
X134143Y108252D01*
X134195Y108276D01*
X134249Y108290D01*
X134323Y108334D01*
X134402Y108370D01*
X134445Y108406D01*
X134494Y108435D01*
X134553Y108498D01*
X134618Y108554D01*
X134644Y108596D01*
X134688Y108643D01*
X134708Y108681D01*
X136390Y110363D01*
X138538Y111253D01*
X140862Y111253D01*
X141467Y111002D01*
X141550Y110981D01*
X141630Y110950D01*
X141687Y110946D01*
X141742Y110931D01*
X141828Y110934D01*
X141914Y110927D01*
X141969Y110938D01*
X142026Y110940D01*
X142108Y110966D01*
X142192Y110983D01*
X142243Y111009D01*
X142297Y111026D01*
X142368Y111074D01*
X142445Y111114D01*
X142486Y111153D01*
X142533Y111184D01*
X142588Y111250D01*
X142651Y111309D01*
X142680Y111358D01*
X142716Y111402D01*
X142751Y111481D01*
X142794Y111555D01*
X142808Y111610D01*
X142832Y111662D01*
X142843Y111747D01*
X142865Y111830D01*
X142863Y111887D01*
X142871Y111943D01*
X142858Y112028D01*
X142856Y112114D01*
X142838Y112169D01*
X142830Y112225D01*
X142794Y112303D01*
X142768Y112385D01*
X142739Y112425D01*
X142713Y112484D01*
X142619Y112594D01*
X142573Y112658D01*
X140951Y114280D01*
X140951Y124662D01*
X140943Y124720D01*
X140945Y124778D01*
X140923Y124860D01*
X140911Y124944D01*
X140888Y124997D01*
X140873Y125053D01*
X140830Y125126D01*
X140795Y125203D01*
X140757Y125248D01*
X140728Y125298D01*
X140666Y125356D01*
X140612Y125420D01*
X140563Y125452D01*
X140520Y125492D01*
X140445Y125531D01*
X140375Y125578D01*
X140319Y125595D01*
X140267Y125622D01*
X140199Y125633D01*
X140104Y125663D01*
X140004Y125666D01*
X139936Y125677D01*
X134556Y125677D01*
X122863Y137370D01*
X122793Y137422D01*
X122730Y137482D01*
X122680Y137508D01*
X122636Y137541D01*
X122554Y137572D01*
X122476Y137612D01*
X122429Y137620D01*
X122370Y137642D01*
X122223Y137654D01*
X122145Y137667D01*
X122028Y137667D01*
X121557Y137862D01*
X121473Y137884D01*
X121393Y137914D01*
X121336Y137919D01*
X121281Y137933D01*
X121195Y137931D01*
X121110Y137938D01*
X121054Y137927D01*
X120997Y137925D01*
X120915Y137899D01*
X120831Y137882D01*
X120781Y137856D01*
X120726Y137839D01*
X120655Y137791D01*
X120579Y137751D01*
X120538Y137712D01*
X120490Y137680D01*
X120435Y137615D01*
X120373Y137555D01*
X120344Y137506D01*
X120307Y137463D01*
X120272Y137384D01*
X120229Y137310D01*
X120215Y137255D01*
X120192Y137203D01*
X120180Y137118D01*
X120159Y137035D01*
X120161Y136978D01*
X120153Y136921D01*
X120165Y136836D01*
X120168Y136750D01*
X120185Y136696D01*
X120194Y136640D01*
X120229Y136562D01*
X120255Y136480D01*
X120284Y136440D01*
X120311Y136381D01*
X120405Y136271D01*
X120450Y136207D01*
X121413Y135244D01*
X121413Y119155D01*
X121425Y119068D01*
X121428Y118981D01*
X121445Y118928D01*
X121453Y118873D01*
X121488Y118793D01*
X121515Y118710D01*
X121543Y118671D01*
X121569Y118614D01*
X121665Y118500D01*
X121710Y118437D01*
X122247Y117900D01*
X122317Y117848D01*
X122380Y117788D01*
X122430Y117762D01*
X122474Y117729D01*
X122556Y117698D01*
X122634Y117658D01*
X122681Y117650D01*
X122740Y117628D01*
X122887Y117616D01*
X122965Y117603D01*
X127624Y117603D01*
X132843Y112384D01*
X132843Y109227D01*
X132855Y109142D01*
X132857Y109056D01*
X132875Y109001D01*
X132883Y108945D01*
X132918Y108867D01*
X132944Y108785D01*
X132976Y108738D01*
X132999Y108686D01*
X133055Y108620D01*
X133102Y108549D01*
X133146Y108512D01*
X133182Y108469D01*
X133254Y108421D01*
X133320Y108366D01*
X133372Y108343D01*
X133419Y108311D01*
X133501Y108285D01*
X133580Y108250D01*
X133636Y108243D01*
X133690Y108226D01*
X133776Y108223D01*
X133861Y108212D01*
X133918Y108220D01*
G37*
G36*
X159441Y94426D02*
X159441Y94426D01*
X159442Y94426D01*
X159443Y94426D01*
X159452Y94427D01*
X159510Y94426D01*
X159592Y94447D01*
X159676Y94459D01*
X159729Y94483D01*
X159785Y94497D01*
X159858Y94541D01*
X159935Y94575D01*
X159980Y94613D01*
X160030Y94643D01*
X160088Y94704D01*
X160152Y94759D01*
X160184Y94807D01*
X160224Y94850D01*
X160263Y94925D01*
X160310Y94995D01*
X160327Y95051D01*
X160354Y95103D01*
X160365Y95171D01*
X160395Y95266D01*
X160398Y95366D01*
X160409Y95434D01*
X160409Y100041D01*
X162757Y100041D01*
X163531Y99833D01*
X164084Y99514D01*
X164121Y99499D01*
X164153Y99478D01*
X164252Y99446D01*
X164348Y99408D01*
X164387Y99404D01*
X164424Y99392D01*
X164528Y99389D01*
X164631Y99379D01*
X164669Y99386D01*
X164708Y99385D01*
X164809Y99411D01*
X164911Y99429D01*
X164946Y99446D01*
X164983Y99456D01*
X165072Y99509D01*
X165165Y99555D01*
X165194Y99582D01*
X165228Y99602D01*
X165299Y99677D01*
X165375Y99747D01*
X165396Y99780D01*
X165422Y99809D01*
X165470Y99901D01*
X165524Y99990D01*
X165534Y100027D01*
X165552Y100062D01*
X165565Y100139D01*
X165599Y100264D01*
X165598Y100338D01*
X165607Y100393D01*
X165607Y110715D01*
X165600Y110766D01*
X165601Y110782D01*
X165595Y110804D01*
X165592Y110889D01*
X165575Y110942D01*
X165567Y110997D01*
X165532Y111077D01*
X165505Y111160D01*
X165477Y111199D01*
X165451Y111256D01*
X165355Y111369D01*
X165310Y111433D01*
X159782Y116961D01*
X159758Y116979D01*
X159739Y117001D01*
X159645Y117064D01*
X159555Y117132D01*
X159527Y117143D01*
X159503Y117159D01*
X159395Y117193D01*
X159289Y117233D01*
X159260Y117236D01*
X159232Y117245D01*
X159118Y117248D01*
X159006Y117257D01*
X158977Y117251D01*
X158948Y117252D01*
X158838Y117223D01*
X158727Y117201D01*
X158701Y117188D01*
X158673Y117180D01*
X158575Y117122D01*
X158475Y117070D01*
X158453Y117050D01*
X158428Y117035D01*
X158351Y116952D01*
X158269Y116874D01*
X158254Y116849D01*
X158234Y116828D01*
X158182Y116727D01*
X158125Y116629D01*
X158118Y116601D01*
X158104Y116574D01*
X158091Y116497D01*
X158055Y116354D01*
X158057Y116291D01*
X158049Y116243D01*
X158049Y114280D01*
X155970Y112201D01*
X155088Y112201D01*
X155030Y112193D01*
X154972Y112195D01*
X154890Y112173D01*
X154806Y112161D01*
X154753Y112138D01*
X154697Y112123D01*
X154624Y112080D01*
X154547Y112045D01*
X154502Y112007D01*
X154452Y111978D01*
X154394Y111916D01*
X154330Y111862D01*
X154298Y111813D01*
X154258Y111770D01*
X154219Y111695D01*
X154172Y111625D01*
X154155Y111569D01*
X154128Y111517D01*
X154117Y111449D01*
X154087Y111354D01*
X154084Y111254D01*
X154073Y111186D01*
X154073Y100857D01*
X154080Y100809D01*
X154077Y100760D01*
X154099Y100669D01*
X154113Y100576D01*
X154132Y100531D01*
X154144Y100484D01*
X154190Y100402D01*
X154229Y100316D01*
X154260Y100279D01*
X154284Y100237D01*
X154352Y100171D01*
X154412Y100099D01*
X154453Y100072D01*
X154488Y100038D01*
X154571Y99994D01*
X154649Y99942D01*
X154696Y99927D01*
X154739Y99904D01*
X154831Y99884D01*
X154920Y99856D01*
X154969Y99855D01*
X155017Y99845D01*
X155091Y99852D01*
X155204Y99849D01*
X155288Y99871D01*
X155351Y99877D01*
X155963Y100041D01*
X158311Y100041D01*
X158311Y95434D01*
X158319Y95377D01*
X158317Y95321D01*
X158317Y95318D01*
X158339Y95236D01*
X158351Y95153D01*
X158374Y95099D01*
X158389Y95043D01*
X158432Y94970D01*
X158467Y94893D01*
X158505Y94849D01*
X158534Y94798D01*
X158596Y94741D01*
X158650Y94676D01*
X158699Y94644D01*
X158742Y94604D01*
X158817Y94565D01*
X158887Y94519D01*
X158943Y94501D01*
X158995Y94474D01*
X159063Y94463D01*
X159158Y94433D01*
X159258Y94430D01*
X159326Y94419D01*
X159394Y94419D01*
X159441Y94426D01*
G37*
%LPC*%
G36*
X93471Y179441D02*
X93471Y179441D01*
X93471Y185451D01*
X96340Y185451D01*
X97114Y185244D01*
X97807Y184843D01*
X98373Y184277D01*
X98774Y183584D01*
X98981Y182810D01*
X98981Y179441D01*
X93471Y179441D01*
G37*
%LPD*%
%LPC*%
G36*
X78231Y91409D02*
X78231Y91409D01*
X78231Y97419D01*
X83741Y97419D01*
X83741Y94050D01*
X83534Y93276D01*
X83133Y92583D01*
X82567Y92017D01*
X81874Y91616D01*
X81100Y91409D01*
X78231Y91409D01*
G37*
%LPD*%
%LPC*%
G36*
X184911Y82519D02*
X184911Y82519D01*
X184911Y88529D01*
X190421Y88529D01*
X190421Y85160D01*
X190214Y84386D01*
X189813Y83693D01*
X189247Y83127D01*
X188554Y82726D01*
X187780Y82519D01*
X184911Y82519D01*
G37*
%LPD*%
%LPC*%
G36*
X83899Y179441D02*
X83899Y179441D01*
X83899Y182810D01*
X84106Y183584D01*
X84507Y184277D01*
X85073Y184843D01*
X85766Y185244D01*
X86540Y185451D01*
X89409Y185451D01*
X89409Y179441D01*
X83899Y179441D01*
G37*
%LPD*%
%LPC*%
G36*
X52299Y143499D02*
X52299Y143499D01*
X52299Y147541D01*
X57442Y147541D01*
X58218Y147333D01*
X58913Y146931D01*
X59481Y146363D01*
X59883Y145668D01*
X60091Y144892D01*
X60091Y143499D01*
X52299Y143499D01*
G37*
%LPD*%
%LPC*%
G36*
X41509Y143499D02*
X41509Y143499D01*
X41509Y144892D01*
X41717Y145668D01*
X42119Y146363D01*
X42687Y146931D01*
X43382Y147333D01*
X44158Y147541D01*
X49301Y147541D01*
X49301Y143499D01*
X41509Y143499D01*
G37*
%LPD*%
%LPC*%
G36*
X204699Y110501D02*
X204699Y110501D01*
X212491Y110501D01*
X212491Y109108D01*
X212283Y108332D01*
X211881Y107637D01*
X211313Y107069D01*
X210618Y106667D01*
X209842Y106459D01*
X204699Y106459D01*
X204699Y110501D01*
G37*
%LPD*%
%LPC*%
G36*
X36201Y173481D02*
X36201Y173481D01*
X36201Y178991D01*
X38202Y178991D01*
X39230Y178715D01*
X40151Y178183D01*
X40903Y177431D01*
X41435Y176510D01*
X41711Y175482D01*
X41711Y173481D01*
X36201Y173481D01*
G37*
%LPD*%
%LPC*%
G36*
X36201Y163909D02*
X36201Y163909D01*
X36201Y169419D01*
X41711Y169419D01*
X41711Y167418D01*
X41435Y166390D01*
X40903Y165469D01*
X40151Y164717D01*
X39230Y164185D01*
X38202Y163909D01*
X36201Y163909D01*
G37*
%LPD*%
%LPC*%
G36*
X212289Y84581D02*
X212289Y84581D01*
X212289Y86582D01*
X212565Y87610D01*
X213097Y88531D01*
X213849Y89283D01*
X214770Y89815D01*
X215798Y90091D01*
X217799Y90091D01*
X217799Y84581D01*
X212289Y84581D01*
G37*
%LPD*%
%LPC*%
G36*
X215798Y75009D02*
X215798Y75009D01*
X214770Y75285D01*
X213849Y75817D01*
X213097Y76569D01*
X212565Y77490D01*
X212289Y78518D01*
X212289Y80519D01*
X217799Y80519D01*
X217799Y75009D01*
X215798Y75009D01*
G37*
%LPD*%
%LPC*%
G36*
X150515Y137765D02*
X150515Y137765D01*
X150515Y141291D01*
X154900Y141291D01*
X155674Y141084D01*
X156367Y140683D01*
X156933Y140117D01*
X157334Y139424D01*
X157541Y138650D01*
X157541Y137765D01*
X150515Y137765D01*
G37*
%LPD*%
%LPC*%
G36*
X141459Y137765D02*
X141459Y137765D01*
X141459Y138650D01*
X141666Y139424D01*
X142067Y140117D01*
X142633Y140683D01*
X143326Y141084D01*
X144100Y141291D01*
X148485Y141291D01*
X148485Y137765D01*
X141459Y137765D01*
G37*
%LPD*%
D10*
X245110Y8890D03*
X7620Y246380D03*
D11*
X35250Y68000D02*
X45250Y68000D01*
X45250Y59000D01*
X35250Y59000D01*
X35250Y68000D01*
X35250Y59950D02*
X45250Y59950D01*
X45250Y60900D02*
X35250Y60900D01*
X35250Y61850D02*
X45250Y61850D01*
X45250Y62800D02*
X35250Y62800D01*
X35250Y63750D02*
X45250Y63750D01*
X45250Y64700D02*
X35250Y64700D01*
X35250Y65650D02*
X45250Y65650D01*
X45250Y66600D02*
X35250Y66600D01*
X35250Y67550D02*
X45250Y67550D01*
X28250Y68000D02*
X18250Y68000D01*
X28250Y68000D02*
X28250Y59000D01*
X18250Y59000D01*
X18250Y68000D01*
X18250Y59950D02*
X28250Y59950D01*
X28250Y60900D02*
X18250Y60900D01*
X18250Y61850D02*
X28250Y61850D01*
X28250Y62800D02*
X18250Y62800D01*
X18250Y63750D02*
X28250Y63750D01*
X28250Y64700D02*
X18250Y64700D01*
X18250Y65650D02*
X28250Y65650D01*
X28250Y66600D02*
X18250Y66600D01*
X18250Y67550D02*
X28250Y67550D01*
X35250Y41330D02*
X45250Y41330D01*
X45250Y32330D01*
X35250Y32330D01*
X35250Y41330D01*
X35250Y33280D02*
X45250Y33280D01*
X45250Y34230D02*
X35250Y34230D01*
X35250Y35180D02*
X45250Y35180D01*
X45250Y36130D02*
X35250Y36130D01*
X35250Y37080D02*
X45250Y37080D01*
X45250Y38030D02*
X35250Y38030D01*
X35250Y38980D02*
X45250Y38980D01*
X45250Y39930D02*
X35250Y39930D01*
X35250Y40880D02*
X45250Y40880D01*
X28250Y41330D02*
X18250Y41330D01*
X28250Y41330D02*
X28250Y32330D01*
X18250Y32330D01*
X18250Y41330D01*
X18250Y33280D02*
X28250Y33280D01*
X28250Y34230D02*
X18250Y34230D01*
X18250Y35180D02*
X28250Y35180D01*
X28250Y36130D02*
X18250Y36130D01*
X18250Y37080D02*
X28250Y37080D01*
X28250Y38030D02*
X18250Y38030D01*
X18250Y38980D02*
X28250Y38980D01*
X28250Y39930D02*
X18250Y39930D01*
X18250Y40880D02*
X28250Y40880D01*
D12*
X4530Y149480D02*
X4530Y160520D01*
X23570Y160520D01*
X23570Y149480D01*
X4530Y149480D01*
X4530Y150392D02*
X23570Y150392D01*
X23570Y151304D02*
X4530Y151304D01*
X4530Y152216D02*
X23570Y152216D01*
X23570Y153128D02*
X4530Y153128D01*
X4530Y154040D02*
X23570Y154040D01*
X23570Y154952D02*
X4530Y154952D01*
X4530Y155864D02*
X23570Y155864D01*
X23570Y156776D02*
X4530Y156776D01*
X4530Y157688D02*
X23570Y157688D01*
X23570Y158600D02*
X4530Y158600D01*
X4530Y159512D02*
X23570Y159512D01*
X23570Y160424D02*
X4530Y160424D01*
X4530Y104520D02*
X4530Y93480D01*
X4530Y104520D02*
X23570Y104520D01*
X23570Y93480D01*
X4530Y93480D01*
X4530Y94392D02*
X23570Y94392D01*
X23570Y95304D02*
X4530Y95304D01*
X4530Y96216D02*
X23570Y96216D01*
X23570Y97128D02*
X4530Y97128D01*
X4530Y98040D02*
X23570Y98040D01*
X23570Y98952D02*
X4530Y98952D01*
X4530Y99864D02*
X23570Y99864D01*
X23570Y100776D02*
X4530Y100776D01*
X4530Y101688D02*
X23570Y101688D01*
X23570Y102600D02*
X4530Y102600D01*
X4530Y103512D02*
X23570Y103512D01*
X23570Y104424D02*
X4530Y104424D01*
D13*
X44560Y139510D02*
X44560Y144490D01*
X57040Y144490D01*
X57040Y139510D01*
X44560Y139510D01*
X44560Y140479D02*
X57040Y140479D01*
X57040Y141448D02*
X44560Y141448D01*
X44560Y142417D02*
X57040Y142417D01*
X57040Y143386D02*
X44560Y143386D01*
X44560Y144355D02*
X57040Y144355D01*
X44560Y134490D02*
X44560Y129510D01*
X44560Y134490D02*
X57040Y134490D01*
X57040Y129510D01*
X44560Y129510D01*
X44560Y130479D02*
X57040Y130479D01*
X57040Y131448D02*
X44560Y131448D01*
X44560Y132417D02*
X57040Y132417D01*
X57040Y133386D02*
X44560Y133386D01*
X44560Y134355D02*
X57040Y134355D01*
X44560Y124490D02*
X44560Y119510D01*
X44560Y124490D02*
X57040Y124490D01*
X57040Y119510D01*
X44560Y119510D01*
X44560Y120479D02*
X57040Y120479D01*
X57040Y121448D02*
X44560Y121448D01*
X44560Y122417D02*
X57040Y122417D01*
X57040Y123386D02*
X44560Y123386D01*
X44560Y124355D02*
X57040Y124355D01*
X44560Y114490D02*
X44560Y109510D01*
X44560Y114490D02*
X57040Y114490D01*
X57040Y109510D01*
X44560Y109510D01*
X44560Y110479D02*
X57040Y110479D01*
X57040Y111448D02*
X44560Y111448D01*
X44560Y112417D02*
X57040Y112417D01*
X57040Y113386D02*
X44560Y113386D01*
X44560Y114355D02*
X57040Y114355D01*
D14*
X152400Y12700D03*
X127000Y12700D03*
X101600Y12700D03*
X76200Y12700D03*
D12*
X249470Y93480D02*
X249470Y104520D01*
X249470Y93480D02*
X230430Y93480D01*
X230430Y104520D01*
X249470Y104520D01*
X249470Y94392D02*
X230430Y94392D01*
X230430Y95304D02*
X249470Y95304D01*
X249470Y96216D02*
X230430Y96216D01*
X230430Y97128D02*
X249470Y97128D01*
X249470Y98040D02*
X230430Y98040D01*
X230430Y98952D02*
X249470Y98952D01*
X249470Y99864D02*
X230430Y99864D01*
X230430Y100776D02*
X249470Y100776D01*
X249470Y101688D02*
X230430Y101688D01*
X230430Y102600D02*
X249470Y102600D01*
X249470Y103512D02*
X230430Y103512D01*
X230430Y104424D02*
X249470Y104424D01*
X249470Y149480D02*
X249470Y160520D01*
X249470Y149480D02*
X230430Y149480D01*
X230430Y160520D01*
X249470Y160520D01*
X249470Y150392D02*
X230430Y150392D01*
X230430Y151304D02*
X249470Y151304D01*
X249470Y152216D02*
X230430Y152216D01*
X230430Y153128D02*
X249470Y153128D01*
X249470Y154040D02*
X230430Y154040D01*
X230430Y154952D02*
X249470Y154952D01*
X249470Y155864D02*
X230430Y155864D01*
X230430Y156776D02*
X249470Y156776D01*
X249470Y157688D02*
X230430Y157688D01*
X230430Y158600D02*
X249470Y158600D01*
X249470Y159512D02*
X230430Y159512D01*
X230430Y160424D02*
X249470Y160424D01*
D13*
X209440Y114490D02*
X209440Y109510D01*
X196960Y109510D01*
X196960Y114490D01*
X209440Y114490D01*
X209440Y110479D02*
X196960Y110479D01*
X196960Y111448D02*
X209440Y111448D01*
X209440Y112417D02*
X196960Y112417D01*
X196960Y113386D02*
X209440Y113386D01*
X209440Y114355D02*
X196960Y114355D01*
X209440Y119510D02*
X209440Y124490D01*
X209440Y119510D02*
X196960Y119510D01*
X196960Y124490D01*
X209440Y124490D01*
X209440Y120479D02*
X196960Y120479D01*
X196960Y121448D02*
X209440Y121448D01*
X209440Y122417D02*
X196960Y122417D01*
X196960Y123386D02*
X209440Y123386D01*
X209440Y124355D02*
X196960Y124355D01*
X209440Y129510D02*
X209440Y134490D01*
X209440Y129510D02*
X196960Y129510D01*
X196960Y134490D01*
X209440Y134490D01*
X209440Y130479D02*
X196960Y130479D01*
X196960Y131448D02*
X209440Y131448D01*
X209440Y132417D02*
X196960Y132417D01*
X196960Y133386D02*
X209440Y133386D01*
X209440Y134355D02*
X196960Y134355D01*
X209440Y139510D02*
X209440Y144490D01*
X209440Y139510D02*
X196960Y139510D01*
X196960Y144490D01*
X209440Y144490D01*
X209440Y140479D02*
X196960Y140479D01*
X196960Y141448D02*
X209440Y141448D01*
X209440Y142417D02*
X196960Y142417D01*
X196960Y143386D02*
X209440Y143386D01*
X209440Y144355D02*
X196960Y144355D01*
D11*
X21900Y186000D02*
X11900Y186000D01*
X11900Y195000D01*
X21900Y195000D01*
X21900Y186000D01*
X21900Y186950D02*
X11900Y186950D01*
X11900Y187900D02*
X21900Y187900D01*
X21900Y188850D02*
X11900Y188850D01*
X11900Y189800D02*
X21900Y189800D01*
X21900Y190750D02*
X11900Y190750D01*
X11900Y191700D02*
X21900Y191700D01*
X21900Y192650D02*
X11900Y192650D01*
X11900Y193600D02*
X21900Y193600D01*
X21900Y194550D02*
X11900Y194550D01*
X28900Y186000D02*
X38900Y186000D01*
X28900Y186000D02*
X28900Y195000D01*
X38900Y195000D01*
X38900Y186000D01*
X38900Y186950D02*
X28900Y186950D01*
X28900Y187900D02*
X38900Y187900D01*
X38900Y188850D02*
X28900Y188850D01*
X28900Y189800D02*
X38900Y189800D01*
X38900Y190750D02*
X28900Y190750D01*
X28900Y191700D02*
X38900Y191700D01*
X38900Y192650D02*
X28900Y192650D01*
X28900Y193600D02*
X38900Y193600D01*
X38900Y194550D02*
X28900Y194550D01*
D15*
X30670Y174950D02*
X30670Y167950D01*
X30670Y174950D02*
X37670Y174950D01*
X37670Y167950D01*
X30670Y167950D01*
X30670Y170800D02*
X37670Y170800D01*
X37670Y173650D02*
X30670Y173650D01*
X13130Y174950D02*
X13130Y167950D01*
X13130Y174950D02*
X20130Y174950D01*
X20130Y167950D01*
X13130Y167950D01*
X13130Y170800D02*
X20130Y170800D01*
X20130Y173650D02*
X13130Y173650D01*
D11*
X178380Y112560D02*
X178380Y102560D01*
X178380Y112560D02*
X187380Y112560D01*
X187380Y102560D01*
X178380Y102560D01*
X178380Y103510D02*
X187380Y103510D01*
X187380Y104460D02*
X178380Y104460D01*
X178380Y105410D02*
X187380Y105410D01*
X187380Y106360D02*
X178380Y106360D01*
X178380Y107310D02*
X187380Y107310D01*
X187380Y108260D02*
X178380Y108260D01*
X178380Y109210D02*
X187380Y109210D01*
X187380Y110160D02*
X178380Y110160D01*
X178380Y111110D02*
X187380Y111110D01*
X187380Y112060D02*
X178380Y112060D01*
X178380Y95560D02*
X178380Y85560D01*
X178380Y95560D02*
X187380Y95560D01*
X187380Y85560D01*
X178380Y85560D01*
X178380Y86510D02*
X187380Y86510D01*
X187380Y87460D02*
X178380Y87460D01*
X178380Y88410D02*
X187380Y88410D01*
X187380Y89360D02*
X178380Y89360D01*
X178380Y90310D02*
X187380Y90310D01*
X187380Y91260D02*
X178380Y91260D01*
X178380Y92210D02*
X187380Y92210D01*
X187380Y93160D02*
X178380Y93160D01*
X178380Y94110D02*
X187380Y94110D01*
X187380Y95060D02*
X178380Y95060D01*
X154500Y115750D02*
X154500Y118750D01*
X154500Y115750D02*
X144500Y115750D01*
X144500Y118750D01*
X154500Y118750D01*
X154500Y116700D02*
X144500Y116700D01*
X144500Y117650D02*
X154500Y117650D01*
X154500Y118600D02*
X144500Y118600D01*
X154500Y122250D02*
X154500Y125250D01*
X154500Y122250D02*
X144500Y122250D01*
X144500Y125250D01*
X154500Y125250D01*
X154500Y123200D02*
X144500Y123200D01*
X144500Y124150D02*
X154500Y124150D01*
X154500Y125100D02*
X144500Y125100D01*
X154500Y128750D02*
X154500Y131750D01*
X154500Y128750D02*
X144500Y128750D01*
X144500Y131750D01*
X154500Y131750D01*
X154500Y129700D02*
X144500Y129700D01*
X144500Y130650D02*
X154500Y130650D01*
X154500Y131600D02*
X144500Y131600D01*
X154500Y135250D02*
X154500Y138250D01*
X154500Y135250D02*
X144500Y135250D01*
X144500Y138250D01*
X154500Y138250D01*
X154500Y136200D02*
X144500Y136200D01*
X144500Y137150D02*
X154500Y137150D01*
X154500Y138100D02*
X144500Y138100D01*
X109500Y138250D02*
X109500Y135250D01*
X99500Y135250D01*
X99500Y138250D01*
X109500Y138250D01*
X109500Y136200D02*
X99500Y136200D01*
X99500Y137150D02*
X109500Y137150D01*
X109500Y138100D02*
X99500Y138100D01*
X109500Y131750D02*
X109500Y128750D01*
X99500Y128750D01*
X99500Y131750D01*
X109500Y131750D01*
X109500Y129700D02*
X99500Y129700D01*
X99500Y130650D02*
X109500Y130650D01*
X109500Y131600D02*
X99500Y131600D01*
X109500Y125250D02*
X109500Y122250D01*
X99500Y122250D01*
X99500Y125250D01*
X109500Y125250D01*
X109500Y123200D02*
X99500Y123200D01*
X99500Y124150D02*
X109500Y124150D01*
X109500Y125100D02*
X99500Y125100D01*
X109500Y118750D02*
X109500Y115750D01*
X99500Y115750D01*
X99500Y118750D01*
X109500Y118750D01*
X109500Y116700D02*
X99500Y116700D01*
X99500Y117650D02*
X109500Y117650D01*
X109500Y118600D02*
X99500Y118600D01*
X71700Y121450D02*
X71700Y111450D01*
X71700Y121450D02*
X80700Y121450D01*
X80700Y111450D01*
X71700Y111450D01*
X71700Y112400D02*
X80700Y112400D01*
X80700Y113350D02*
X71700Y113350D01*
X71700Y114300D02*
X80700Y114300D01*
X80700Y115250D02*
X71700Y115250D01*
X71700Y116200D02*
X80700Y116200D01*
X80700Y117150D02*
X71700Y117150D01*
X71700Y118100D02*
X80700Y118100D01*
X80700Y119050D02*
X71700Y119050D01*
X71700Y120000D02*
X80700Y120000D01*
X80700Y120950D02*
X71700Y120950D01*
X71700Y104450D02*
X71700Y94450D01*
X71700Y104450D02*
X80700Y104450D01*
X80700Y94450D01*
X71700Y94450D01*
X71700Y95400D02*
X80700Y95400D01*
X80700Y96350D02*
X71700Y96350D01*
X71700Y97300D02*
X80700Y97300D01*
X80700Y98250D02*
X71700Y98250D01*
X71700Y99200D02*
X80700Y99200D01*
X80700Y100150D02*
X71700Y100150D01*
X71700Y101100D02*
X80700Y101100D01*
X80700Y102050D02*
X71700Y102050D01*
X71700Y103000D02*
X80700Y103000D01*
X80700Y103950D02*
X71700Y103950D01*
D15*
X223330Y86050D02*
X223330Y79050D01*
X216330Y79050D01*
X216330Y86050D01*
X223330Y86050D01*
X223330Y81900D02*
X216330Y81900D01*
X216330Y84750D02*
X223330Y84750D01*
X240870Y86050D02*
X240870Y79050D01*
X233870Y79050D01*
X233870Y86050D01*
X240870Y86050D01*
X240870Y81900D02*
X233870Y81900D01*
X233870Y84750D02*
X240870Y84750D01*
D11*
X242100Y68000D02*
X232100Y68000D01*
X242100Y68000D02*
X242100Y59000D01*
X232100Y59000D01*
X232100Y68000D01*
X232100Y59950D02*
X242100Y59950D01*
X242100Y60900D02*
X232100Y60900D01*
X232100Y61850D02*
X242100Y61850D01*
X242100Y62800D02*
X232100Y62800D01*
X232100Y63750D02*
X242100Y63750D01*
X242100Y64700D02*
X232100Y64700D01*
X232100Y65650D02*
X242100Y65650D01*
X242100Y66600D02*
X232100Y66600D01*
X232100Y67550D02*
X242100Y67550D01*
X225100Y68000D02*
X215100Y68000D01*
X225100Y68000D02*
X225100Y59000D01*
X215100Y59000D01*
X215100Y68000D01*
X215100Y59950D02*
X225100Y59950D01*
X225100Y60900D02*
X215100Y60900D01*
X215100Y61850D02*
X225100Y61850D01*
X225100Y62800D02*
X215100Y62800D01*
X215100Y63750D02*
X225100Y63750D01*
X225100Y64700D02*
X215100Y64700D01*
X215100Y65650D02*
X225100Y65650D01*
X225100Y66600D02*
X215100Y66600D01*
X215100Y67550D02*
X225100Y67550D01*
D14*
X101600Y241300D03*
X127000Y241300D03*
X152400Y241300D03*
X177800Y241300D03*
D16*
X132360Y185430D02*
X125400Y185430D01*
X132360Y185430D02*
X132360Y177470D01*
X125400Y177470D01*
X125400Y185430D01*
X125400Y178458D02*
X132360Y178458D01*
X132360Y179446D02*
X125400Y179446D01*
X125400Y180434D02*
X132360Y180434D01*
X132360Y181422D02*
X125400Y181422D01*
X125400Y182410D02*
X132360Y182410D01*
X132360Y183398D02*
X125400Y183398D01*
X125400Y184386D02*
X132360Y184386D01*
X132360Y185374D02*
X125400Y185374D01*
X113360Y185430D02*
X106400Y185430D01*
X113360Y185430D02*
X113360Y177470D01*
X106400Y177470D01*
X106400Y185430D01*
X106400Y178458D02*
X113360Y178458D01*
X113360Y179446D02*
X106400Y179446D01*
X106400Y180434D02*
X113360Y180434D01*
X113360Y181422D02*
X106400Y181422D01*
X106400Y182410D02*
X113360Y182410D01*
X113360Y183398D02*
X106400Y183398D01*
X106400Y184386D02*
X113360Y184386D01*
X113360Y185374D02*
X106400Y185374D01*
X115900Y164430D02*
X122860Y164430D01*
X122860Y156470D01*
X115900Y156470D01*
X115900Y164430D01*
X115900Y157458D02*
X122860Y157458D01*
X122860Y158446D02*
X115900Y158446D01*
X115900Y159434D02*
X122860Y159434D01*
X122860Y160422D02*
X115900Y160422D01*
X115900Y161410D02*
X122860Y161410D01*
X122860Y162398D02*
X115900Y162398D01*
X115900Y163386D02*
X122860Y163386D01*
X122860Y164374D02*
X115900Y164374D01*
D11*
X161980Y160490D02*
X161980Y170490D01*
X161980Y160490D02*
X152980Y160490D01*
X152980Y170490D01*
X161980Y170490D01*
X161980Y161440D02*
X152980Y161440D01*
X152980Y162390D02*
X161980Y162390D01*
X161980Y163340D02*
X152980Y163340D01*
X152980Y164290D02*
X161980Y164290D01*
X161980Y165240D02*
X152980Y165240D01*
X152980Y166190D02*
X161980Y166190D01*
X161980Y167140D02*
X152980Y167140D01*
X152980Y168090D02*
X161980Y168090D01*
X161980Y169040D02*
X152980Y169040D01*
X152980Y169990D02*
X161980Y169990D01*
X161980Y177490D02*
X161980Y187490D01*
X161980Y177490D02*
X152980Y177490D01*
X152980Y187490D01*
X161980Y187490D01*
X161980Y178440D02*
X152980Y178440D01*
X152980Y179390D02*
X161980Y179390D01*
X161980Y180340D02*
X152980Y180340D01*
X152980Y181290D02*
X161980Y181290D01*
X161980Y182240D02*
X152980Y182240D01*
X152980Y183190D02*
X161980Y183190D01*
X161980Y184140D02*
X152980Y184140D01*
X152980Y185090D02*
X161980Y185090D01*
X161980Y186040D02*
X152980Y186040D01*
X152980Y186990D02*
X161980Y186990D01*
X95940Y165410D02*
X95940Y155410D01*
X86940Y155410D01*
X86940Y165410D01*
X95940Y165410D01*
X95940Y156360D02*
X86940Y156360D01*
X86940Y157310D02*
X95940Y157310D01*
X95940Y158260D02*
X86940Y158260D01*
X86940Y159210D02*
X95940Y159210D01*
X95940Y160160D02*
X86940Y160160D01*
X86940Y161110D02*
X95940Y161110D01*
X95940Y162060D02*
X86940Y162060D01*
X86940Y163010D02*
X95940Y163010D01*
X95940Y163960D02*
X86940Y163960D01*
X86940Y164910D02*
X95940Y164910D01*
X95940Y172410D02*
X95940Y182410D01*
X95940Y172410D02*
X86940Y172410D01*
X86940Y182410D01*
X95940Y182410D01*
X95940Y173360D02*
X86940Y173360D01*
X86940Y174310D02*
X95940Y174310D01*
X95940Y175260D02*
X86940Y175260D01*
X86940Y176210D02*
X95940Y176210D01*
X95940Y177160D02*
X86940Y177160D01*
X86940Y178110D02*
X95940Y178110D01*
X95940Y179060D02*
X86940Y179060D01*
X86940Y180010D02*
X95940Y180010D01*
X95940Y180960D02*
X86940Y180960D01*
X86940Y181910D02*
X95940Y181910D01*
D17*
X143356Y83996D02*
X143356Y80804D01*
X137364Y80804D01*
X137364Y83996D01*
X143356Y83996D01*
X143356Y81762D02*
X137364Y81762D01*
X137364Y82720D02*
X143356Y82720D01*
X143356Y83678D02*
X137364Y83678D01*
X143356Y93804D02*
X143356Y96996D01*
X143356Y93804D02*
X137364Y93804D01*
X137364Y96996D01*
X143356Y96996D01*
X143356Y94762D02*
X137364Y94762D01*
X137364Y95720D02*
X143356Y95720D01*
X143356Y96678D02*
X137364Y96678D01*
X162356Y83996D02*
X162356Y80804D01*
X156364Y80804D01*
X156364Y83996D01*
X162356Y83996D01*
X162356Y81762D02*
X156364Y81762D01*
X156364Y82720D02*
X162356Y82720D01*
X162356Y83678D02*
X156364Y83678D01*
X162356Y93804D02*
X162356Y96996D01*
X162356Y93804D02*
X156364Y93804D01*
X156364Y96996D01*
X162356Y96996D01*
X162356Y94762D02*
X156364Y94762D01*
X156364Y95720D02*
X162356Y95720D01*
X162356Y96678D02*
X156364Y96678D01*
X162356Y90496D02*
X162356Y87304D01*
X156364Y87304D01*
X156364Y90496D01*
X162356Y90496D01*
X162356Y88262D02*
X156364Y88262D01*
X156364Y89220D02*
X162356Y89220D01*
X162356Y90178D02*
X156364Y90178D01*
D14*
X177800Y12700D03*
X76200Y241300D03*
D11*
X173300Y187490D02*
X173300Y177490D01*
X173300Y187490D02*
X182300Y187490D01*
X182300Y177490D01*
X173300Y177490D01*
X173300Y178440D02*
X182300Y178440D01*
X182300Y179390D02*
X173300Y179390D01*
X173300Y180340D02*
X182300Y180340D01*
X182300Y181290D02*
X173300Y181290D01*
X173300Y182240D02*
X182300Y182240D01*
X182300Y183190D02*
X173300Y183190D01*
X173300Y184140D02*
X182300Y184140D01*
X182300Y185090D02*
X173300Y185090D01*
X173300Y186040D02*
X182300Y186040D01*
X182300Y186990D02*
X173300Y186990D01*
X173300Y170490D02*
X173300Y160490D01*
X173300Y170490D02*
X182300Y170490D01*
X182300Y160490D01*
X173300Y160490D01*
X173300Y161440D02*
X182300Y161440D01*
X182300Y162390D02*
X173300Y162390D01*
X173300Y163340D02*
X182300Y163340D01*
X182300Y164290D02*
X173300Y164290D01*
X173300Y165240D02*
X182300Y165240D01*
X182300Y166190D02*
X173300Y166190D01*
X173300Y167140D02*
X182300Y167140D01*
X182300Y168090D02*
X173300Y168090D01*
X173300Y169040D02*
X182300Y169040D01*
X182300Y169990D02*
X173300Y169990D01*
X206210Y186000D02*
X216210Y186000D01*
X206210Y186000D02*
X206210Y195000D01*
X216210Y195000D01*
X216210Y186000D01*
X216210Y186950D02*
X206210Y186950D01*
X206210Y187900D02*
X216210Y187900D01*
X216210Y188850D02*
X206210Y188850D01*
X206210Y189800D02*
X216210Y189800D01*
X216210Y190750D02*
X206210Y190750D01*
X206210Y191700D02*
X216210Y191700D01*
X216210Y192650D02*
X206210Y192650D01*
X206210Y193600D02*
X216210Y193600D01*
X216210Y194550D02*
X206210Y194550D01*
X223210Y186000D02*
X233210Y186000D01*
X223210Y186000D02*
X223210Y195000D01*
X233210Y195000D01*
X233210Y186000D01*
X233210Y186950D02*
X223210Y186950D01*
X223210Y187900D02*
X233210Y187900D01*
X233210Y188850D02*
X223210Y188850D01*
X223210Y189800D02*
X233210Y189800D01*
X233210Y190750D02*
X223210Y190750D01*
X223210Y191700D02*
X233210Y191700D01*
X233210Y192650D02*
X223210Y192650D01*
X223210Y193600D02*
X233210Y193600D01*
X233210Y194550D02*
X223210Y194550D01*
D13*
X95940Y86520D02*
X88960Y86520D01*
X88960Y88500D01*
X95940Y88500D01*
X95940Y86520D01*
X95940Y87489D02*
X88960Y87489D01*
X88960Y88458D02*
X95940Y88458D01*
X95940Y81520D02*
X88960Y81520D01*
X88960Y83500D01*
X95940Y83500D01*
X95940Y81520D01*
X95940Y82489D02*
X88960Y82489D01*
X88960Y83458D02*
X95940Y83458D01*
X95940Y76520D02*
X88960Y76520D01*
X88960Y78500D01*
X95940Y78500D01*
X95940Y76520D01*
X95940Y77489D02*
X88960Y77489D01*
X88960Y78458D02*
X95940Y78458D01*
X95940Y71520D02*
X88960Y71520D01*
X88960Y73500D01*
X95940Y73500D01*
X95940Y71520D01*
X95940Y72489D02*
X88960Y72489D01*
X88960Y73458D02*
X95940Y73458D01*
X119960Y71520D02*
X126940Y71520D01*
X119960Y71520D02*
X119960Y73500D01*
X126940Y73500D01*
X126940Y71520D01*
X126940Y72489D02*
X119960Y72489D01*
X119960Y73458D02*
X126940Y73458D01*
X126940Y76520D02*
X119960Y76520D01*
X119960Y78500D01*
X126940Y78500D01*
X126940Y76520D01*
X126940Y77489D02*
X119960Y77489D01*
X119960Y78458D02*
X126940Y78458D01*
X126940Y81520D02*
X119960Y81520D01*
X119960Y83500D01*
X126940Y83500D01*
X126940Y81520D01*
X126940Y82489D02*
X119960Y82489D01*
X119960Y83458D02*
X126940Y83458D01*
X126940Y86520D02*
X119960Y86520D01*
X119960Y88500D01*
X126940Y88500D01*
X126940Y86520D01*
X126940Y87489D02*
X119960Y87489D01*
X119960Y88458D02*
X126940Y88458D01*
D11*
X121450Y106100D02*
X111450Y106100D01*
X121450Y106100D02*
X121450Y97100D01*
X111450Y97100D01*
X111450Y106100D01*
X111450Y98050D02*
X121450Y98050D01*
X121450Y99000D02*
X111450Y99000D01*
X111450Y99950D02*
X121450Y99950D01*
X121450Y100900D02*
X111450Y100900D01*
X111450Y101850D02*
X121450Y101850D01*
X121450Y102800D02*
X111450Y102800D01*
X111450Y103750D02*
X121450Y103750D01*
X121450Y104700D02*
X111450Y104700D01*
X111450Y105650D02*
X121450Y105650D01*
X104450Y106100D02*
X94450Y106100D01*
X104450Y106100D02*
X104450Y97100D01*
X94450Y97100D01*
X94450Y106100D01*
X94450Y98050D02*
X104450Y98050D01*
X104450Y99000D02*
X94450Y99000D01*
X94450Y99950D02*
X104450Y99950D01*
X104450Y100900D02*
X94450Y100900D01*
X94450Y101850D02*
X104450Y101850D01*
X104450Y102800D02*
X94450Y102800D01*
X94450Y103750D02*
X104450Y103750D01*
X104450Y104700D02*
X94450Y104700D01*
X94450Y105650D02*
X104450Y105650D01*
D18*
X66040Y167640D03*
D19*
X68500Y132000D02*
X50800Y132000D01*
X82940Y160410D02*
X91440Y160410D01*
X72390Y135890D02*
X68500Y132000D01*
X72390Y135890D02*
X74930Y138430D01*
X74930Y152400D01*
X78105Y155575D01*
X82940Y160410D01*
X91440Y160410D02*
X100720Y160410D01*
X109880Y169570D02*
X109880Y181450D01*
X109880Y169570D02*
X100720Y160410D01*
X76200Y131690D02*
X76200Y116450D01*
X76200Y131690D02*
X72390Y135500D01*
D20*
X72390Y135890D01*
D19*
X76200Y116450D02*
X92220Y116450D01*
X99450Y109220D02*
X99450Y101600D01*
X99450Y109220D02*
X94810Y113860D01*
X92220Y116450D01*
X127000Y25400D02*
X127000Y12700D01*
X99450Y94860D02*
X99450Y101600D01*
X104140Y48260D02*
X127000Y25400D01*
X104140Y48260D02*
X104140Y57150D01*
X104140Y82550D01*
X104140Y90170D01*
X99450Y94860D01*
D20*
X98200Y117250D02*
X104500Y117250D01*
X98200Y117250D02*
X94810Y113860D01*
X78105Y155575D02*
X66040Y167640D01*
X140360Y82400D02*
X147470Y82400D01*
X151130Y78740D01*
X151130Y63500D01*
X104902Y57912D02*
X104140Y57150D01*
X145542Y57912D02*
X151130Y63500D01*
X145542Y57912D02*
X104902Y57912D01*
D18*
X91440Y49530D03*
D20*
X102870Y49530D01*
X104140Y48260D01*
X104100Y82510D02*
X92450Y82510D01*
X104100Y82510D02*
X104140Y82550D01*
D18*
X38100Y142240D03*
X215900Y111760D03*
X91440Y187960D03*
D19*
X50800Y142000D02*
X38340Y142000D01*
X38100Y142240D01*
X34170Y146170D02*
X34170Y171450D01*
X34170Y146170D02*
X38100Y142240D01*
X203200Y112000D02*
X215660Y112000D01*
X215900Y111760D01*
X219830Y107830D02*
X219830Y82550D01*
X219830Y107830D02*
X215900Y111760D01*
D18*
X76200Y87630D03*
D19*
X76200Y99450D01*
D18*
X182880Y80010D03*
D19*
X182880Y90560D01*
D18*
X160020Y105410D03*
X218440Y157480D03*
X12700Y82550D03*
X48260Y82550D03*
X88900Y38100D03*
X48260Y50800D03*
X196850Y19050D03*
X139700Y38100D03*
X139700Y50800D03*
X234950Y127000D03*
X114300Y215900D03*
X165100Y215900D03*
X161290Y137160D03*
X63500Y228600D03*
X63500Y203200D03*
X48260Y24130D03*
X10160Y8890D03*
X92710Y147320D03*
X171450Y124460D03*
X88900Y63500D03*
X76200Y171450D03*
X207010Y203200D03*
D20*
X10160Y8890D02*
X4699Y14351D01*
X4699Y74549D02*
X12700Y82550D01*
X4699Y74549D02*
X4699Y14351D01*
D18*
X190500Y38100D03*
X12700Y127000D03*
X114300Y203200D03*
D19*
X91440Y187960D02*
X91440Y177410D01*
D20*
X160020Y105410D02*
X159360Y104750D01*
X159360Y95400D01*
X160880Y136750D02*
X149500Y136750D01*
X160880Y136750D02*
X161290Y137160D01*
X76480Y87350D02*
X76200Y87630D01*
D18*
X127000Y124460D03*
X64770Y148590D03*
D20*
X76640Y87510D02*
X92450Y87510D01*
X76640Y87510D02*
X76480Y87350D01*
X23250Y36830D02*
X23250Y24520D01*
X19050Y20320D01*
D18*
X19050Y20320D03*
D20*
X23250Y63500D02*
X11430Y63500D01*
D18*
X11430Y63500D03*
D20*
X16630Y171450D02*
X16630Y190230D01*
X16900Y190500D01*
X237370Y82550D02*
X237370Y63770D01*
X237100Y63500D01*
X43180Y190500D02*
X33900Y190500D01*
X43180Y190500D02*
X45720Y193040D01*
D18*
X45720Y193040D03*
D20*
X50800Y122000D02*
X60880Y122000D01*
X63500Y119380D01*
X63500Y31750D02*
X68580Y26670D01*
X96520Y26670D01*
X63500Y71120D02*
X63500Y119380D01*
X63500Y71120D02*
X63500Y31750D01*
D18*
X36830Y121920D03*
D20*
X50720Y121920D02*
X50800Y122000D01*
X50720Y121920D02*
X36830Y121920D01*
X36830Y66920D01*
X40250Y63500D01*
X101600Y21590D02*
X101600Y12700D01*
X101600Y21590D02*
X96520Y26670D01*
X90880Y123750D02*
X104500Y123750D01*
X90880Y123750D02*
X88900Y125730D01*
D18*
X88900Y125730D03*
D20*
X92450Y72510D02*
X76410Y72510D01*
X75020Y71120D01*
X63500Y71120D01*
X57150Y90410D02*
X57150Y36830D01*
X57150Y19050D01*
X63500Y12700D01*
X57150Y36830D02*
X40250Y36830D01*
D18*
X50800Y102870D03*
D20*
X50800Y112000D01*
X50800Y96760D02*
X57150Y90410D01*
X50800Y96760D02*
X50800Y102870D01*
X63500Y12700D02*
X76200Y12700D01*
X95810Y130250D02*
X104500Y130250D01*
X95810Y130250D02*
X91440Y134620D01*
X91440Y135890D01*
D18*
X91440Y135890D03*
X71120Y78740D03*
D20*
X79700Y78740D01*
X80930Y77510D02*
X92450Y77510D01*
X80930Y77510D02*
X79700Y78740D01*
X212090Y63500D02*
X220100Y63500D01*
X212090Y63500D02*
X208280Y59690D01*
D18*
X208280Y59690D03*
D19*
X131584Y160450D02*
X119380Y160450D01*
D18*
X196850Y96520D03*
D20*
X196850Y99060D01*
X188350Y107560D01*
X182880Y107560D01*
D19*
X142240Y208280D02*
X127000Y223520D01*
X127000Y241300D01*
X182880Y134620D02*
X182880Y121920D01*
X182880Y107560D01*
X165892Y151608D02*
X140426Y151608D01*
X136492Y155542D01*
X131412Y160622D01*
X131584Y160450D02*
X136492Y155542D01*
X165892Y151608D02*
X182880Y134620D01*
X142240Y171450D02*
X131412Y160622D01*
X142240Y171450D02*
X142240Y208280D01*
D20*
X203200Y122000D02*
X221060Y122000D01*
D18*
X204470Y177800D03*
D20*
X224790Y125730D02*
X221060Y122000D01*
X204470Y154940D02*
X204470Y177800D01*
X224790Y143510D02*
X224790Y125730D01*
X224790Y143510D02*
X218440Y149860D01*
X209550Y149860D01*
X204470Y154940D01*
D19*
X203200Y122000D02*
X182960Y122000D01*
X182880Y121920D01*
D20*
X159360Y88900D02*
X152400Y88900D01*
X149500Y91800D02*
X149500Y117250D01*
X149500Y91800D02*
X152400Y88900D01*
X140360Y95400D02*
X140360Y104750D01*
X139700Y105410D01*
D18*
X139700Y105410D03*
X144780Y161290D03*
D20*
X148980Y165490D01*
X157480Y165490D01*
X128880Y181450D02*
X128880Y189890D01*
X127000Y191770D01*
D18*
X127000Y191770D03*
X163830Y194310D03*
D20*
X161290Y194310D01*
X157480Y190500D01*
X157480Y182490D01*
X159460Y123750D02*
X149500Y123750D01*
X170180Y20320D02*
X177800Y12700D01*
X170180Y113030D02*
X159460Y123750D01*
X170180Y113030D02*
X170180Y20320D01*
X149500Y130250D02*
X136450Y130250D01*
X123190Y143510D01*
D18*
X123190Y143510D03*
X241300Y190500D03*
D20*
X228210Y190500D01*
D18*
X181610Y153162D03*
D20*
X177800Y156972D02*
X177800Y165490D01*
X177800Y156972D02*
X181610Y153162D01*
X167640Y226060D02*
X152400Y241300D01*
X167640Y226060D02*
X186690Y226060D01*
X190500Y222250D01*
X194390Y132000D02*
X203200Y132000D01*
X190500Y181610D02*
X190500Y222250D01*
X190500Y181610D02*
X190500Y135890D01*
X194390Y132000D01*
X189620Y182490D02*
X177800Y182490D01*
X189620Y182490D02*
X190500Y181610D01*
X139700Y64262D02*
X136398Y64262D01*
D18*
X139700Y64262D03*
X217170Y130810D03*
D20*
X215980Y132000D01*
X203200Y132000D01*
X128150Y72510D02*
X123450Y72510D01*
X128150Y72510D02*
X136398Y64262D01*
X177800Y241300D02*
X181610Y241300D01*
X198120Y224790D02*
X198120Y190500D01*
X198120Y152160D01*
X203200Y147080D01*
X203200Y142000D01*
X198120Y224790D02*
X181610Y241300D01*
X198120Y190500D02*
X211210Y190500D01*
X139700Y73660D02*
X134620Y73660D01*
D18*
X139700Y73660D03*
X217170Y140970D03*
D20*
X216140Y142000D01*
X203200Y142000D01*
X130770Y77510D02*
X123450Y77510D01*
X130770Y77510D02*
X134620Y73660D01*
X113030Y85090D02*
X113030Y90170D01*
X116450Y93590D02*
X116450Y101600D01*
X116450Y93590D02*
X113030Y90170D01*
X115610Y82510D02*
X123450Y82510D01*
X115610Y82510D02*
X113030Y85090D01*
X113440Y136750D02*
X104500Y136750D01*
X113440Y136750D02*
X116840Y133350D01*
X116840Y116840D02*
X120650Y113030D01*
X125730Y113030D02*
X128270Y110490D01*
X116840Y116840D02*
X116840Y133350D01*
X120650Y113030D02*
X125730Y113030D01*
X128270Y92330D02*
X123450Y87510D01*
X128270Y92330D02*
X128270Y110490D01*
M02*
