G04 EAGLE Gerber RS-274X export*
G75*
%MOMM*%
%FSLAX34Y34*%
%LPD*%
%INSolderpaste Top*%
%IPPOS*%
%AMOC8*
5,1,8,0,0,1.08239X$1,22.5*%
G01*
%ADD10C,0.100000*%
%ADD11C,0.096000*%
%ADD12C,0.102000*%
%ADD13C,0.300000*%
%ADD14C,0.104000*%
%ADD15C,0.100800*%
%ADD16R,0.750000X0.250000*%


D10*
X35250Y68000D02*
X45250Y68000D01*
X45250Y59000D01*
X35250Y59000D01*
X35250Y68000D01*
X35250Y59950D02*
X45250Y59950D01*
X45250Y60900D02*
X35250Y60900D01*
X35250Y61850D02*
X45250Y61850D01*
X45250Y62800D02*
X35250Y62800D01*
X35250Y63750D02*
X45250Y63750D01*
X45250Y64700D02*
X35250Y64700D01*
X35250Y65650D02*
X45250Y65650D01*
X45250Y66600D02*
X35250Y66600D01*
X35250Y67550D02*
X45250Y67550D01*
X28250Y68000D02*
X18250Y68000D01*
X28250Y68000D02*
X28250Y59000D01*
X18250Y59000D01*
X18250Y68000D01*
X18250Y59950D02*
X28250Y59950D01*
X28250Y60900D02*
X18250Y60900D01*
X18250Y61850D02*
X28250Y61850D01*
X28250Y62800D02*
X18250Y62800D01*
X18250Y63750D02*
X28250Y63750D01*
X28250Y64700D02*
X18250Y64700D01*
X18250Y65650D02*
X28250Y65650D01*
X28250Y66600D02*
X18250Y66600D01*
X18250Y67550D02*
X28250Y67550D01*
X35250Y41330D02*
X45250Y41330D01*
X45250Y32330D01*
X35250Y32330D01*
X35250Y41330D01*
X35250Y33280D02*
X45250Y33280D01*
X45250Y34230D02*
X35250Y34230D01*
X35250Y35180D02*
X45250Y35180D01*
X45250Y36130D02*
X35250Y36130D01*
X35250Y37080D02*
X45250Y37080D01*
X45250Y38030D02*
X35250Y38030D01*
X35250Y38980D02*
X45250Y38980D01*
X45250Y39930D02*
X35250Y39930D01*
X35250Y40880D02*
X45250Y40880D01*
X28250Y41330D02*
X18250Y41330D01*
X28250Y41330D02*
X28250Y32330D01*
X18250Y32330D01*
X18250Y41330D01*
X18250Y33280D02*
X28250Y33280D01*
X28250Y34230D02*
X18250Y34230D01*
X18250Y35180D02*
X28250Y35180D01*
X28250Y36130D02*
X18250Y36130D01*
X18250Y37080D02*
X28250Y37080D01*
X28250Y38030D02*
X18250Y38030D01*
X18250Y38980D02*
X28250Y38980D01*
X28250Y39930D02*
X18250Y39930D01*
X18250Y40880D02*
X28250Y40880D01*
D11*
X4530Y149480D02*
X4530Y160520D01*
X23570Y160520D01*
X23570Y149480D01*
X4530Y149480D01*
X4530Y150392D02*
X23570Y150392D01*
X23570Y151304D02*
X4530Y151304D01*
X4530Y152216D02*
X23570Y152216D01*
X23570Y153128D02*
X4530Y153128D01*
X4530Y154040D02*
X23570Y154040D01*
X23570Y154952D02*
X4530Y154952D01*
X4530Y155864D02*
X23570Y155864D01*
X23570Y156776D02*
X4530Y156776D01*
X4530Y157688D02*
X23570Y157688D01*
X23570Y158600D02*
X4530Y158600D01*
X4530Y159512D02*
X23570Y159512D01*
X23570Y160424D02*
X4530Y160424D01*
X4530Y104520D02*
X4530Y93480D01*
X4530Y104520D02*
X23570Y104520D01*
X23570Y93480D01*
X4530Y93480D01*
X4530Y94392D02*
X23570Y94392D01*
X23570Y95304D02*
X4530Y95304D01*
X4530Y96216D02*
X23570Y96216D01*
X23570Y97128D02*
X4530Y97128D01*
X4530Y98040D02*
X23570Y98040D01*
X23570Y98952D02*
X4530Y98952D01*
X4530Y99864D02*
X23570Y99864D01*
X23570Y100776D02*
X4530Y100776D01*
X4530Y101688D02*
X23570Y101688D01*
X23570Y102600D02*
X4530Y102600D01*
X4530Y103512D02*
X23570Y103512D01*
X23570Y104424D02*
X4530Y104424D01*
D12*
X44560Y139510D02*
X44560Y144490D01*
X57040Y144490D01*
X57040Y139510D01*
X44560Y139510D01*
X44560Y140479D02*
X57040Y140479D01*
X57040Y141448D02*
X44560Y141448D01*
X44560Y142417D02*
X57040Y142417D01*
X57040Y143386D02*
X44560Y143386D01*
X44560Y144355D02*
X57040Y144355D01*
X44560Y134490D02*
X44560Y129510D01*
X44560Y134490D02*
X57040Y134490D01*
X57040Y129510D01*
X44560Y129510D01*
X44560Y130479D02*
X57040Y130479D01*
X57040Y131448D02*
X44560Y131448D01*
X44560Y132417D02*
X57040Y132417D01*
X57040Y133386D02*
X44560Y133386D01*
X44560Y134355D02*
X57040Y134355D01*
X44560Y124490D02*
X44560Y119510D01*
X44560Y124490D02*
X57040Y124490D01*
X57040Y119510D01*
X44560Y119510D01*
X44560Y120479D02*
X57040Y120479D01*
X57040Y121448D02*
X44560Y121448D01*
X44560Y122417D02*
X57040Y122417D01*
X57040Y123386D02*
X44560Y123386D01*
X44560Y124355D02*
X57040Y124355D01*
X44560Y114490D02*
X44560Y109510D01*
X44560Y114490D02*
X57040Y114490D01*
X57040Y109510D01*
X44560Y109510D01*
X44560Y110479D02*
X57040Y110479D01*
X57040Y111448D02*
X44560Y111448D01*
X44560Y112417D02*
X57040Y112417D01*
X57040Y113386D02*
X44560Y113386D01*
X44560Y114355D02*
X57040Y114355D01*
D11*
X249470Y104520D02*
X249470Y93480D01*
X230430Y93480D01*
X230430Y104520D01*
X249470Y104520D01*
X249470Y94392D02*
X230430Y94392D01*
X230430Y95304D02*
X249470Y95304D01*
X249470Y96216D02*
X230430Y96216D01*
X230430Y97128D02*
X249470Y97128D01*
X249470Y98040D02*
X230430Y98040D01*
X230430Y98952D02*
X249470Y98952D01*
X249470Y99864D02*
X230430Y99864D01*
X230430Y100776D02*
X249470Y100776D01*
X249470Y101688D02*
X230430Y101688D01*
X230430Y102600D02*
X249470Y102600D01*
X249470Y103512D02*
X230430Y103512D01*
X230430Y104424D02*
X249470Y104424D01*
X249470Y149480D02*
X249470Y160520D01*
X249470Y149480D02*
X230430Y149480D01*
X230430Y160520D01*
X249470Y160520D01*
X249470Y150392D02*
X230430Y150392D01*
X230430Y151304D02*
X249470Y151304D01*
X249470Y152216D02*
X230430Y152216D01*
X230430Y153128D02*
X249470Y153128D01*
X249470Y154040D02*
X230430Y154040D01*
X230430Y154952D02*
X249470Y154952D01*
X249470Y155864D02*
X230430Y155864D01*
X230430Y156776D02*
X249470Y156776D01*
X249470Y157688D02*
X230430Y157688D01*
X230430Y158600D02*
X249470Y158600D01*
X249470Y159512D02*
X230430Y159512D01*
X230430Y160424D02*
X249470Y160424D01*
D12*
X209440Y114490D02*
X209440Y109510D01*
X196960Y109510D01*
X196960Y114490D01*
X209440Y114490D01*
X209440Y110479D02*
X196960Y110479D01*
X196960Y111448D02*
X209440Y111448D01*
X209440Y112417D02*
X196960Y112417D01*
X196960Y113386D02*
X209440Y113386D01*
X209440Y114355D02*
X196960Y114355D01*
X209440Y119510D02*
X209440Y124490D01*
X209440Y119510D02*
X196960Y119510D01*
X196960Y124490D01*
X209440Y124490D01*
X209440Y120479D02*
X196960Y120479D01*
X196960Y121448D02*
X209440Y121448D01*
X209440Y122417D02*
X196960Y122417D01*
X196960Y123386D02*
X209440Y123386D01*
X209440Y124355D02*
X196960Y124355D01*
X209440Y129510D02*
X209440Y134490D01*
X209440Y129510D02*
X196960Y129510D01*
X196960Y134490D01*
X209440Y134490D01*
X209440Y130479D02*
X196960Y130479D01*
X196960Y131448D02*
X209440Y131448D01*
X209440Y132417D02*
X196960Y132417D01*
X196960Y133386D02*
X209440Y133386D01*
X209440Y134355D02*
X196960Y134355D01*
X209440Y139510D02*
X209440Y144490D01*
X209440Y139510D02*
X196960Y139510D01*
X196960Y144490D01*
X209440Y144490D01*
X209440Y140479D02*
X196960Y140479D01*
X196960Y141448D02*
X209440Y141448D01*
X209440Y142417D02*
X196960Y142417D01*
X196960Y143386D02*
X209440Y143386D01*
X209440Y144355D02*
X196960Y144355D01*
D10*
X21900Y186000D02*
X11900Y186000D01*
X11900Y195000D01*
X21900Y195000D01*
X21900Y186000D01*
X21900Y186950D02*
X11900Y186950D01*
X11900Y187900D02*
X21900Y187900D01*
X21900Y188850D02*
X11900Y188850D01*
X11900Y189800D02*
X21900Y189800D01*
X21900Y190750D02*
X11900Y190750D01*
X11900Y191700D02*
X21900Y191700D01*
X21900Y192650D02*
X11900Y192650D01*
X11900Y193600D02*
X21900Y193600D01*
X21900Y194550D02*
X11900Y194550D01*
X28900Y186000D02*
X38900Y186000D01*
X28900Y186000D02*
X28900Y195000D01*
X38900Y195000D01*
X38900Y186000D01*
X38900Y186950D02*
X28900Y186950D01*
X28900Y187900D02*
X38900Y187900D01*
X38900Y188850D02*
X28900Y188850D01*
X28900Y189800D02*
X38900Y189800D01*
X38900Y190750D02*
X28900Y190750D01*
X28900Y191700D02*
X38900Y191700D01*
X38900Y192650D02*
X28900Y192650D01*
X28900Y193600D02*
X38900Y193600D01*
X38900Y194550D02*
X28900Y194550D01*
D13*
X30670Y174950D02*
X30670Y167950D01*
X30670Y174950D02*
X37670Y174950D01*
X37670Y167950D01*
X30670Y167950D01*
X30670Y170800D02*
X37670Y170800D01*
X37670Y173650D02*
X30670Y173650D01*
X13130Y174950D02*
X13130Y167950D01*
X13130Y174950D02*
X20130Y174950D01*
X20130Y167950D01*
X13130Y167950D01*
X13130Y170800D02*
X20130Y170800D01*
X20130Y173650D02*
X13130Y173650D01*
D10*
X178380Y112560D02*
X178380Y102560D01*
X178380Y112560D02*
X187380Y112560D01*
X187380Y102560D01*
X178380Y102560D01*
X178380Y103510D02*
X187380Y103510D01*
X187380Y104460D02*
X178380Y104460D01*
X178380Y105410D02*
X187380Y105410D01*
X187380Y106360D02*
X178380Y106360D01*
X178380Y107310D02*
X187380Y107310D01*
X187380Y108260D02*
X178380Y108260D01*
X178380Y109210D02*
X187380Y109210D01*
X187380Y110160D02*
X178380Y110160D01*
X178380Y111110D02*
X187380Y111110D01*
X187380Y112060D02*
X178380Y112060D01*
X178380Y95560D02*
X178380Y85560D01*
X178380Y95560D02*
X187380Y95560D01*
X187380Y85560D01*
X178380Y85560D01*
X178380Y86510D02*
X187380Y86510D01*
X187380Y87460D02*
X178380Y87460D01*
X178380Y88410D02*
X187380Y88410D01*
X187380Y89360D02*
X178380Y89360D01*
X178380Y90310D02*
X187380Y90310D01*
X187380Y91260D02*
X178380Y91260D01*
X178380Y92210D02*
X187380Y92210D01*
X187380Y93160D02*
X178380Y93160D01*
X178380Y94110D02*
X187380Y94110D01*
X187380Y95060D02*
X178380Y95060D01*
X154500Y115750D02*
X154500Y118750D01*
X154500Y115750D02*
X144500Y115750D01*
X144500Y118750D01*
X154500Y118750D01*
X154500Y116700D02*
X144500Y116700D01*
X144500Y117650D02*
X154500Y117650D01*
X154500Y118600D02*
X144500Y118600D01*
X154500Y122250D02*
X154500Y125250D01*
X154500Y122250D02*
X144500Y122250D01*
X144500Y125250D01*
X154500Y125250D01*
X154500Y123200D02*
X144500Y123200D01*
X144500Y124150D02*
X154500Y124150D01*
X154500Y125100D02*
X144500Y125100D01*
X154500Y128750D02*
X154500Y131750D01*
X154500Y128750D02*
X144500Y128750D01*
X144500Y131750D01*
X154500Y131750D01*
X154500Y129700D02*
X144500Y129700D01*
X144500Y130650D02*
X154500Y130650D01*
X154500Y131600D02*
X144500Y131600D01*
X154500Y135250D02*
X154500Y138250D01*
X154500Y135250D02*
X144500Y135250D01*
X144500Y138250D01*
X154500Y138250D01*
X154500Y136200D02*
X144500Y136200D01*
X144500Y137150D02*
X154500Y137150D01*
X154500Y138100D02*
X144500Y138100D01*
X109500Y138250D02*
X109500Y135250D01*
X99500Y135250D01*
X99500Y138250D01*
X109500Y138250D01*
X109500Y136200D02*
X99500Y136200D01*
X99500Y137150D02*
X109500Y137150D01*
X109500Y138100D02*
X99500Y138100D01*
X109500Y131750D02*
X109500Y128750D01*
X99500Y128750D01*
X99500Y131750D01*
X109500Y131750D01*
X109500Y129700D02*
X99500Y129700D01*
X99500Y130650D02*
X109500Y130650D01*
X109500Y131600D02*
X99500Y131600D01*
X109500Y125250D02*
X109500Y122250D01*
X99500Y122250D01*
X99500Y125250D01*
X109500Y125250D01*
X109500Y123200D02*
X99500Y123200D01*
X99500Y124150D02*
X109500Y124150D01*
X109500Y125100D02*
X99500Y125100D01*
X109500Y118750D02*
X109500Y115750D01*
X99500Y115750D01*
X99500Y118750D01*
X109500Y118750D01*
X109500Y116700D02*
X99500Y116700D01*
X99500Y117650D02*
X109500Y117650D01*
X109500Y118600D02*
X99500Y118600D01*
X71700Y121450D02*
X71700Y111450D01*
X71700Y121450D02*
X80700Y121450D01*
X80700Y111450D01*
X71700Y111450D01*
X71700Y112400D02*
X80700Y112400D01*
X80700Y113350D02*
X71700Y113350D01*
X71700Y114300D02*
X80700Y114300D01*
X80700Y115250D02*
X71700Y115250D01*
X71700Y116200D02*
X80700Y116200D01*
X80700Y117150D02*
X71700Y117150D01*
X71700Y118100D02*
X80700Y118100D01*
X80700Y119050D02*
X71700Y119050D01*
X71700Y120000D02*
X80700Y120000D01*
X80700Y120950D02*
X71700Y120950D01*
X71700Y104450D02*
X71700Y94450D01*
X71700Y104450D02*
X80700Y104450D01*
X80700Y94450D01*
X71700Y94450D01*
X71700Y95400D02*
X80700Y95400D01*
X80700Y96350D02*
X71700Y96350D01*
X71700Y97300D02*
X80700Y97300D01*
X80700Y98250D02*
X71700Y98250D01*
X71700Y99200D02*
X80700Y99200D01*
X80700Y100150D02*
X71700Y100150D01*
X71700Y101100D02*
X80700Y101100D01*
X80700Y102050D02*
X71700Y102050D01*
X71700Y103000D02*
X80700Y103000D01*
X80700Y103950D02*
X71700Y103950D01*
D13*
X223330Y86050D02*
X223330Y79050D01*
X216330Y79050D01*
X216330Y86050D01*
X223330Y86050D01*
X223330Y81900D02*
X216330Y81900D01*
X216330Y84750D02*
X223330Y84750D01*
X240870Y86050D02*
X240870Y79050D01*
X233870Y79050D01*
X233870Y86050D01*
X240870Y86050D01*
X240870Y81900D02*
X233870Y81900D01*
X233870Y84750D02*
X240870Y84750D01*
D10*
X242100Y68000D02*
X232100Y68000D01*
X242100Y68000D02*
X242100Y59000D01*
X232100Y59000D01*
X232100Y68000D01*
X232100Y59950D02*
X242100Y59950D01*
X242100Y60900D02*
X232100Y60900D01*
X232100Y61850D02*
X242100Y61850D01*
X242100Y62800D02*
X232100Y62800D01*
X232100Y63750D02*
X242100Y63750D01*
X242100Y64700D02*
X232100Y64700D01*
X232100Y65650D02*
X242100Y65650D01*
X242100Y66600D02*
X232100Y66600D01*
X232100Y67550D02*
X242100Y67550D01*
X225100Y68000D02*
X215100Y68000D01*
X225100Y68000D02*
X225100Y59000D01*
X215100Y59000D01*
X215100Y68000D01*
X215100Y59950D02*
X225100Y59950D01*
X225100Y60900D02*
X215100Y60900D01*
X215100Y61850D02*
X225100Y61850D01*
X225100Y62800D02*
X215100Y62800D01*
X215100Y63750D02*
X225100Y63750D01*
X225100Y64700D02*
X215100Y64700D01*
X215100Y65650D02*
X225100Y65650D01*
X225100Y66600D02*
X215100Y66600D01*
X215100Y67550D02*
X225100Y67550D01*
D14*
X132360Y185430D02*
X125400Y185430D01*
X132360Y185430D02*
X132360Y177470D01*
X125400Y177470D01*
X125400Y185430D01*
X125400Y178458D02*
X132360Y178458D01*
X132360Y179446D02*
X125400Y179446D01*
X125400Y180434D02*
X132360Y180434D01*
X132360Y181422D02*
X125400Y181422D01*
X125400Y182410D02*
X132360Y182410D01*
X132360Y183398D02*
X125400Y183398D01*
X125400Y184386D02*
X132360Y184386D01*
X132360Y185374D02*
X125400Y185374D01*
X113360Y185430D02*
X106400Y185430D01*
X113360Y185430D02*
X113360Y177470D01*
X106400Y177470D01*
X106400Y185430D01*
X106400Y178458D02*
X113360Y178458D01*
X113360Y179446D02*
X106400Y179446D01*
X106400Y180434D02*
X113360Y180434D01*
X113360Y181422D02*
X106400Y181422D01*
X106400Y182410D02*
X113360Y182410D01*
X113360Y183398D02*
X106400Y183398D01*
X106400Y184386D02*
X113360Y184386D01*
X113360Y185374D02*
X106400Y185374D01*
X115900Y164430D02*
X122860Y164430D01*
X122860Y156470D01*
X115900Y156470D01*
X115900Y164430D01*
X115900Y157458D02*
X122860Y157458D01*
X122860Y158446D02*
X115900Y158446D01*
X115900Y159434D02*
X122860Y159434D01*
X122860Y160422D02*
X115900Y160422D01*
X115900Y161410D02*
X122860Y161410D01*
X122860Y162398D02*
X115900Y162398D01*
X115900Y163386D02*
X122860Y163386D01*
X122860Y164374D02*
X115900Y164374D01*
D10*
X161980Y160490D02*
X161980Y170490D01*
X161980Y160490D02*
X152980Y160490D01*
X152980Y170490D01*
X161980Y170490D01*
X161980Y161440D02*
X152980Y161440D01*
X152980Y162390D02*
X161980Y162390D01*
X161980Y163340D02*
X152980Y163340D01*
X152980Y164290D02*
X161980Y164290D01*
X161980Y165240D02*
X152980Y165240D01*
X152980Y166190D02*
X161980Y166190D01*
X161980Y167140D02*
X152980Y167140D01*
X152980Y168090D02*
X161980Y168090D01*
X161980Y169040D02*
X152980Y169040D01*
X152980Y169990D02*
X161980Y169990D01*
X161980Y177490D02*
X161980Y187490D01*
X161980Y177490D02*
X152980Y177490D01*
X152980Y187490D01*
X161980Y187490D01*
X161980Y178440D02*
X152980Y178440D01*
X152980Y179390D02*
X161980Y179390D01*
X161980Y180340D02*
X152980Y180340D01*
X152980Y181290D02*
X161980Y181290D01*
X161980Y182240D02*
X152980Y182240D01*
X152980Y183190D02*
X161980Y183190D01*
X161980Y184140D02*
X152980Y184140D01*
X152980Y185090D02*
X161980Y185090D01*
X161980Y186040D02*
X152980Y186040D01*
X152980Y186990D02*
X161980Y186990D01*
X95940Y165410D02*
X95940Y155410D01*
X86940Y155410D01*
X86940Y165410D01*
X95940Y165410D01*
X95940Y156360D02*
X86940Y156360D01*
X86940Y157310D02*
X95940Y157310D01*
X95940Y158260D02*
X86940Y158260D01*
X86940Y159210D02*
X95940Y159210D01*
X95940Y160160D02*
X86940Y160160D01*
X86940Y161110D02*
X95940Y161110D01*
X95940Y162060D02*
X86940Y162060D01*
X86940Y163010D02*
X95940Y163010D01*
X95940Y163960D02*
X86940Y163960D01*
X86940Y164910D02*
X95940Y164910D01*
X95940Y172410D02*
X95940Y182410D01*
X95940Y172410D02*
X86940Y172410D01*
X86940Y182410D01*
X95940Y182410D01*
X95940Y173360D02*
X86940Y173360D01*
X86940Y174310D02*
X95940Y174310D01*
X95940Y175260D02*
X86940Y175260D01*
X86940Y176210D02*
X95940Y176210D01*
X95940Y177160D02*
X86940Y177160D01*
X86940Y178110D02*
X95940Y178110D01*
X95940Y179060D02*
X86940Y179060D01*
X86940Y180010D02*
X95940Y180010D01*
X95940Y180960D02*
X86940Y180960D01*
X86940Y181910D02*
X95940Y181910D01*
D15*
X143356Y83996D02*
X143356Y80804D01*
X137364Y80804D01*
X137364Y83996D01*
X143356Y83996D01*
X143356Y81762D02*
X137364Y81762D01*
X137364Y82720D02*
X143356Y82720D01*
X143356Y83678D02*
X137364Y83678D01*
X143356Y93804D02*
X143356Y96996D01*
X143356Y93804D02*
X137364Y93804D01*
X137364Y96996D01*
X143356Y96996D01*
X143356Y94762D02*
X137364Y94762D01*
X137364Y95720D02*
X143356Y95720D01*
X143356Y96678D02*
X137364Y96678D01*
X162356Y83996D02*
X162356Y80804D01*
X156364Y80804D01*
X156364Y83996D01*
X162356Y83996D01*
X162356Y81762D02*
X156364Y81762D01*
X156364Y82720D02*
X162356Y82720D01*
X162356Y83678D02*
X156364Y83678D01*
X162356Y93804D02*
X162356Y96996D01*
X162356Y93804D02*
X156364Y93804D01*
X156364Y96996D01*
X162356Y96996D01*
X162356Y94762D02*
X156364Y94762D01*
X156364Y95720D02*
X162356Y95720D01*
X162356Y96678D02*
X156364Y96678D01*
X162356Y90496D02*
X162356Y87304D01*
X156364Y87304D01*
X156364Y90496D01*
X162356Y90496D01*
X162356Y88262D02*
X156364Y88262D01*
X156364Y89220D02*
X162356Y89220D01*
X162356Y90178D02*
X156364Y90178D01*
D10*
X173300Y177490D02*
X173300Y187490D01*
X182300Y187490D01*
X182300Y177490D01*
X173300Y177490D01*
X173300Y178440D02*
X182300Y178440D01*
X182300Y179390D02*
X173300Y179390D01*
X173300Y180340D02*
X182300Y180340D01*
X182300Y181290D02*
X173300Y181290D01*
X173300Y182240D02*
X182300Y182240D01*
X182300Y183190D02*
X173300Y183190D01*
X173300Y184140D02*
X182300Y184140D01*
X182300Y185090D02*
X173300Y185090D01*
X173300Y186040D02*
X182300Y186040D01*
X182300Y186990D02*
X173300Y186990D01*
X173300Y170490D02*
X173300Y160490D01*
X173300Y170490D02*
X182300Y170490D01*
X182300Y160490D01*
X173300Y160490D01*
X173300Y161440D02*
X182300Y161440D01*
X182300Y162390D02*
X173300Y162390D01*
X173300Y163340D02*
X182300Y163340D01*
X182300Y164290D02*
X173300Y164290D01*
X173300Y165240D02*
X182300Y165240D01*
X182300Y166190D02*
X173300Y166190D01*
X173300Y167140D02*
X182300Y167140D01*
X182300Y168090D02*
X173300Y168090D01*
X173300Y169040D02*
X182300Y169040D01*
X182300Y169990D02*
X173300Y169990D01*
X206210Y186000D02*
X216210Y186000D01*
X206210Y186000D02*
X206210Y195000D01*
X216210Y195000D01*
X216210Y186000D01*
X216210Y186950D02*
X206210Y186950D01*
X206210Y187900D02*
X216210Y187900D01*
X216210Y188850D02*
X206210Y188850D01*
X206210Y189800D02*
X216210Y189800D01*
X216210Y190750D02*
X206210Y190750D01*
X206210Y191700D02*
X216210Y191700D01*
X216210Y192650D02*
X206210Y192650D01*
X206210Y193600D02*
X216210Y193600D01*
X216210Y194550D02*
X206210Y194550D01*
X223210Y186000D02*
X233210Y186000D01*
X223210Y186000D02*
X223210Y195000D01*
X233210Y195000D01*
X233210Y186000D01*
X233210Y186950D02*
X223210Y186950D01*
X223210Y187900D02*
X233210Y187900D01*
X233210Y188850D02*
X223210Y188850D01*
X223210Y189800D02*
X233210Y189800D01*
X233210Y190750D02*
X223210Y190750D01*
X223210Y191700D02*
X233210Y191700D01*
X233210Y192650D02*
X223210Y192650D01*
X223210Y193600D02*
X233210Y193600D01*
X233210Y194550D02*
X223210Y194550D01*
D16*
X92450Y87510D03*
X92450Y82510D03*
X92450Y77510D03*
X92450Y72510D03*
X123450Y87510D03*
X123450Y82510D03*
X123450Y77510D03*
X123450Y72510D03*
D10*
X121450Y106100D02*
X111450Y106100D01*
X121450Y106100D02*
X121450Y97100D01*
X111450Y97100D01*
X111450Y106100D01*
X111450Y98050D02*
X121450Y98050D01*
X121450Y99000D02*
X111450Y99000D01*
X111450Y99950D02*
X121450Y99950D01*
X121450Y100900D02*
X111450Y100900D01*
X111450Y101850D02*
X121450Y101850D01*
X121450Y102800D02*
X111450Y102800D01*
X111450Y103750D02*
X121450Y103750D01*
X121450Y104700D02*
X111450Y104700D01*
X111450Y105650D02*
X121450Y105650D01*
X104450Y106100D02*
X94450Y106100D01*
X104450Y106100D02*
X104450Y97100D01*
X94450Y97100D01*
X94450Y106100D01*
X94450Y98050D02*
X104450Y98050D01*
X104450Y99000D02*
X94450Y99000D01*
X94450Y99950D02*
X104450Y99950D01*
X104450Y100900D02*
X94450Y100900D01*
X94450Y101850D02*
X104450Y101850D01*
X104450Y102800D02*
X94450Y102800D01*
X94450Y103750D02*
X104450Y103750D01*
X104450Y104700D02*
X94450Y104700D01*
X94450Y105650D02*
X104450Y105650D01*
M02*
